M48
;DRILL file {KiCad 4.0.7} date Sunday, March 04, 2018 'PMt' 09:17:15 PM
;FORMAT={-:-/ absolute / metric / decimal}
FMAT,2
METRIC,TZ
T1C0.400
T2C0.800
T3C1.000
T4C1.200
%
G90
G05
M71
T1
X57.15Y-48.26
X60.96Y-50.165
X64.77Y-50.165
X66.04Y-26.67
X66.04Y-40.64
X71.12Y-40.64
X71.755Y-31.75
X76.835Y-49.53
X77.47Y-48.26
X78.105Y-42.545
X79.375Y-20.955
X81.915Y-41.91
X82.55Y-44.45
X83.185Y-42.545
X83.185Y-45.085
X83.185Y-46.99
X83.82Y-57.785
X86.995Y-48.895
X88.9Y-48.895
X94.615Y-26.67
T2
X58.42Y-53.34
X60.96Y-53.34
X63.5Y-53.34
X66.04Y-53.34
X66.675Y-16.55
X66.675Y-19.05
X68.58Y-53.34
X71.12Y-53.34
X95.885Y-44.895
X95.885Y-46.895
X95.885Y-48.895
T3
X54.61Y-38.1
X54.61Y-40.64
X54.61Y-43.18
X54.61Y-45.72
X54.61Y-48.26
X73.66Y-17.78
X73.66Y-20.32
X73.66Y-22.86
T4
X95.885Y-33.02
X95.885Y-35.56
X95.885Y-38.1
T3
X54.96Y-24.4G85X54.96Y-26.4
G05
X56.96Y-30.1G85X58.96Y-30.1
G05
X60.96Y-24.4G85X60.96Y-26.4
G05
T0
M30
