G04 #@! TF.FileFunction,Soldermask,Top*
%FSLAX46Y46*%
G04 Gerber Fmt 4.6, Leading zero omitted, Abs format (unit mm)*
G04 Created by KiCad (PCBNEW 4.0.7) date 03/06/18 08:51:19*
%MOMM*%
%LPD*%
G01*
G04 APERTURE LIST*
%ADD10C,0.100000*%
%ADD11C,2.600000*%
%ADD12R,2.000000X2.000000*%
%ADD13C,2.000000*%
%ADD14R,2.400000X2.100000*%
%ADD15R,3.900000X3.900000*%
%ADD16O,3.900000X3.900000*%
%ADD17R,2.200000X2.200000*%
%ADD18O,2.200000X2.200000*%
%ADD19R,1.900000X1.900000*%
%ADD20C,1.900000*%
%ADD21R,3.000000X2.400000*%
%ADD22O,3.000000X2.400000*%
%ADD23R,2.100000X2.100000*%
%ADD24O,2.100000X2.100000*%
G04 APERTURE END LIST*
D10*
D11*
X97790000Y-16510000D03*
X53340000Y-57150000D03*
X97790000Y-57150000D03*
D12*
X66675000Y-19050000D03*
D13*
X66675000Y-16550000D03*
D14*
X60865000Y-34290000D03*
X64865000Y-34290000D03*
X78645000Y-50800000D03*
X82645000Y-50800000D03*
D15*
X60960000Y-25400000D03*
X54960000Y-25400000D03*
X57960000Y-30100000D03*
D14*
X60865000Y-39370000D03*
X64865000Y-39370000D03*
D16*
X90320000Y-20320000D03*
D17*
X73660000Y-17780000D03*
D18*
X73660000Y-20320000D03*
X73660000Y-22860000D03*
D19*
X95250000Y-48260000D03*
D20*
X95250000Y-46260000D03*
X95250000Y-44260000D03*
D21*
X95250000Y-33020000D03*
D22*
X95250000Y-35560000D03*
X95250000Y-38100000D03*
D14*
X74390000Y-55880000D03*
X70390000Y-55880000D03*
X70390000Y-50800000D03*
X74390000Y-50800000D03*
D23*
X53975000Y-39370000D03*
D24*
X53975000Y-41910000D03*
X53975000Y-44450000D03*
X53975000Y-46990000D03*
X53975000Y-49530000D03*
D14*
X78645000Y-55880000D03*
X82645000Y-55880000D03*
D11*
X53340000Y-16510000D03*
D19*
X90170000Y-48260000D03*
D20*
X90170000Y-46260000D03*
X90170000Y-44260000D03*
D21*
X89535000Y-33020000D03*
D22*
X89535000Y-35560000D03*
X89535000Y-38100000D03*
M02*
