G04 #@! TF.FileFunction,Soldermask,Bot*
%FSLAX46Y46*%
G04 Gerber Fmt 4.6, Leading zero omitted, Abs format (unit mm)*
G04 Created by KiCad (PCBNEW 4.0.7) date Monday, March 05, 2018 'PMt' 09:34:27 PM*
%MOMM*%
%LPD*%
G01*
G04 APERTURE LIST*
%ADD10C,0.100000*%
%ADD11C,2.600000*%
%ADD12R,2.000000X2.400000*%
%ADD13R,2.000000X2.000000*%
%ADD14C,2.000000*%
%ADD15R,2.400000X2.000000*%
%ADD16R,3.900000X3.900000*%
%ADD17R,2.400000X2.100000*%
%ADD18R,2.100000X2.400000*%
%ADD19O,3.900000X3.900000*%
%ADD20R,2.200000X2.200000*%
%ADD21O,2.200000X2.200000*%
%ADD22R,1.900000X1.900000*%
%ADD23C,1.900000*%
%ADD24R,3.000000X2.400000*%
%ADD25O,3.000000X2.400000*%
%ADD26R,2.400000X4.200000*%
%ADD27R,2.400000X1.900000*%
%ADD28R,2.100000X2.100000*%
%ADD29O,2.100000X2.100000*%
%ADD30R,1.960000X1.050000*%
%ADD31R,1.300000X1.200000*%
G04 APERTURE END LIST*
D10*
D11*
X97790000Y-16510000D03*
X53340000Y-57150000D03*
X97790000Y-57150000D03*
D12*
X68580000Y-29115000D03*
X68580000Y-33115000D03*
D13*
X66675000Y-19050000D03*
D14*
X66675000Y-16550000D03*
D12*
X84455000Y-31655000D03*
X84455000Y-35655000D03*
D15*
X78010000Y-22225000D03*
X82010000Y-22225000D03*
D16*
X60960000Y-25400000D03*
X54960000Y-25400000D03*
X57960000Y-30100000D03*
D17*
X78010000Y-17780000D03*
X82010000Y-17780000D03*
D18*
X85725000Y-18320000D03*
X85725000Y-22320000D03*
X83185000Y-41180000D03*
X83185000Y-45180000D03*
X69850000Y-41180000D03*
X69850000Y-45180000D03*
D19*
X90320000Y-20320000D03*
D20*
X73660000Y-17780000D03*
D21*
X73660000Y-20320000D03*
X73660000Y-22860000D03*
D22*
X97155000Y-48260000D03*
D23*
X97155000Y-46260000D03*
X97155000Y-44260000D03*
D24*
X96520000Y-33020000D03*
D25*
X96520000Y-35560000D03*
X96520000Y-38100000D03*
D26*
X80620000Y-31750000D03*
D27*
X74320000Y-31750000D03*
X74320000Y-29450000D03*
X74320000Y-34050000D03*
D28*
X53975000Y-39370000D03*
D29*
X53975000Y-41910000D03*
X53975000Y-44450000D03*
X53975000Y-46990000D03*
X53975000Y-49530000D03*
D11*
X53340000Y-16510000D03*
D22*
X90170000Y-48260000D03*
D23*
X90170000Y-46260000D03*
X90170000Y-44260000D03*
D24*
X89535000Y-33020000D03*
D25*
X89535000Y-35560000D03*
X89535000Y-38100000D03*
D30*
X61515000Y-54290000D03*
X61515000Y-53340000D03*
X61515000Y-52390000D03*
X64215000Y-52390000D03*
X64215000Y-54290000D03*
X61515000Y-46670000D03*
X61515000Y-45720000D03*
X61515000Y-44770000D03*
X64215000Y-44770000D03*
X64215000Y-46670000D03*
D31*
X75200000Y-44130000D03*
X75200000Y-42230000D03*
X77200000Y-43180000D03*
M02*
