M48
;DRILL file {KiCad 4.0.7} date Saturday, March 17, 2018 'PMt' 05:12:26 PM
;FORMAT={-:-/ absolute / inch / decimal}
FMAT,2
INCH,TZ
T1C0.016
T2C0.031
T3C0.039
T4C0.047
%
G90
G05
M72
T1
X2.225Y-1.8
X2.225Y-1.9
X2.275Y-1.7
X2.4Y-2.
X2.55Y-1.9
X2.6Y-1.675
X2.6Y-1.85
X2.625Y-2.075
X2.65Y-1.825
X2.7Y-2.1
X2.8Y-1.25
X2.85Y-1.6
X2.85Y-1.85
T2
X2.625Y-0.6516
X2.625Y-0.75
X3.55Y-1.7425
X3.55Y-1.8213
X3.55Y-1.9
X3.75Y-1.7425
X3.75Y-1.8213
X3.75Y-1.9
T3
X2.125Y-1.55
X2.125Y-1.65
X2.125Y-1.75
X2.125Y-1.85
X2.125Y-1.95
X2.9Y-0.7
X2.9Y-0.8
X2.9Y-0.9
T4
X3.525Y-1.3
X3.525Y-1.4
X3.525Y-1.5
X3.75Y-1.3
X3.75Y-1.4
X3.75Y-1.5
T3
X2.1638Y-0.9606G85X2.1638Y-1.0394
G05
X2.2425Y-1.185G85X2.3213Y-1.185
G05
X2.4Y-0.9606G85X2.4Y-1.0394
G05
T0
M30
