M48
;DRILL file {KiCad 4.0.7} date Monday, March 05, 2018 'PMt' 09:34:33 PM
;FORMAT={-:-/ absolute / metric / decimal}
FMAT,2
METRIC,TZ
T1C0.400
T2C0.800
T3C1.000
T4C1.200
%
G90
G05
M71
T1
X56.515Y-45.72
X56.515Y-48.26
X57.785Y-43.18
X60.96Y-50.8
X64.77Y-48.26
X66.04Y-42.545
X66.04Y-46.99
X66.675Y-52.705
X67.31Y-46.355
X68.58Y-53.34
X71.12Y-31.75
X78.105Y-24.765
X90.17Y-27.305
T2
X66.675Y-16.55
X66.675Y-19.05
X90.17Y-44.26
X90.17Y-46.26
X90.17Y-48.26
X97.155Y-44.26
X97.155Y-46.26
X97.155Y-48.26
T3
X53.975Y-39.37
X53.975Y-41.91
X53.975Y-44.45
X53.975Y-46.99
X53.975Y-49.53
X73.66Y-17.78
X73.66Y-20.32
X73.66Y-22.86
T4
X89.535Y-33.02
X89.535Y-35.56
X89.535Y-38.1
X96.52Y-33.02
X96.52Y-35.56
X96.52Y-38.1
T3
X54.96Y-24.4G85X54.96Y-26.4
G05
X56.96Y-30.1G85X58.96Y-30.1
G05
X60.96Y-24.4G85X60.96Y-26.4
G05
T0
M30
