G04 #@! TF.FileFunction,Legend,Bot*
%FSLAX46Y46*%
G04 Gerber Fmt 4.6, Leading zero omitted, Abs format (unit mm)*
G04 Created by KiCad (PCBNEW 4.0.7) date Sunday, March 04, 2018 'PMt' 09:17:10 PM*
%MOMM*%
%LPD*%
G01*
G04 APERTURE LIST*
%ADD10C,0.100000*%
%ADD11C,0.200000*%
%ADD12C,0.120000*%
%ADD13C,0.150000*%
G04 APERTURE END LIST*
D10*
D11*
X87630000Y-39370000D02*
G75*
G03X87630000Y-39370000I-635000J0D01*
G01*
D12*
X67560000Y-32115000D02*
X67560000Y-30115000D01*
X69600000Y-30115000D02*
X69600000Y-32115000D01*
X83435000Y-35290000D02*
X83435000Y-33290000D01*
X85475000Y-33290000D02*
X85475000Y-35290000D01*
X85340000Y-21955000D02*
X85340000Y-19955000D01*
X87380000Y-19955000D02*
X87380000Y-21955000D01*
X79010000Y-19485000D02*
X81010000Y-19485000D01*
X81010000Y-17345000D02*
X79010000Y-17345000D01*
X81010000Y-23695000D02*
X79010000Y-23695000D01*
X79010000Y-25835000D02*
X81010000Y-25835000D01*
X79010000Y-52505000D02*
X81010000Y-52505000D01*
X81010000Y-50365000D02*
X79010000Y-50365000D01*
X88630000Y-54175000D02*
X86630000Y-54175000D01*
X86630000Y-56315000D02*
X88630000Y-56315000D01*
D13*
X84625000Y-38730000D02*
X84625000Y-38755000D01*
X80475000Y-38730000D02*
X80475000Y-38845000D01*
X80475000Y-47630000D02*
X80475000Y-47515000D01*
X84625000Y-47630000D02*
X84625000Y-47515000D01*
X84625000Y-38730000D02*
X80475000Y-38730000D01*
X84625000Y-47630000D02*
X80475000Y-47630000D01*
X84625000Y-38755000D02*
X86000000Y-38755000D01*
D12*
X79380000Y-28340000D02*
X79380000Y-29600000D01*
X79380000Y-35160000D02*
X79380000Y-33900000D01*
X75620000Y-28340000D02*
X79380000Y-28340000D01*
X73370000Y-35160000D02*
X79380000Y-35160000D01*
X65840000Y-46085000D02*
X65840000Y-44085000D01*
X63700000Y-44085000D02*
X63700000Y-46085000D01*
X76000000Y-46085000D02*
X76000000Y-44085000D01*
X73860000Y-44085000D02*
X73860000Y-46085000D01*
X70120000Y-39170000D02*
X72120000Y-39170000D01*
X72120000Y-37030000D02*
X70120000Y-37030000D01*
X60760000Y-46085000D02*
X60760000Y-44085000D01*
X58620000Y-44085000D02*
X58620000Y-46085000D01*
X70920000Y-46085000D02*
X70920000Y-44085000D01*
X68780000Y-44085000D02*
X68780000Y-46085000D01*
D13*
X67187143Y-30948334D02*
X67234762Y-30900715D01*
X67282381Y-30757858D01*
X67282381Y-30662620D01*
X67234762Y-30519762D01*
X67139524Y-30424524D01*
X67044286Y-30376905D01*
X66853810Y-30329286D01*
X66710952Y-30329286D01*
X66520476Y-30376905D01*
X66425238Y-30424524D01*
X66330000Y-30519762D01*
X66282381Y-30662620D01*
X66282381Y-30757858D01*
X66330000Y-30900715D01*
X66377619Y-30948334D01*
X67282381Y-31900715D02*
X67282381Y-31329286D01*
X67282381Y-31615000D02*
X66282381Y-31615000D01*
X66425238Y-31519762D01*
X66520476Y-31424524D01*
X66568095Y-31329286D01*
X83062143Y-34123334D02*
X83109762Y-34075715D01*
X83157381Y-33932858D01*
X83157381Y-33837620D01*
X83109762Y-33694762D01*
X83014524Y-33599524D01*
X82919286Y-33551905D01*
X82728810Y-33504286D01*
X82585952Y-33504286D01*
X82395476Y-33551905D01*
X82300238Y-33599524D01*
X82205000Y-33694762D01*
X82157381Y-33837620D01*
X82157381Y-33932858D01*
X82205000Y-34075715D01*
X82252619Y-34123334D01*
X82157381Y-34456667D02*
X82157381Y-35075715D01*
X82538333Y-34742381D01*
X82538333Y-34885239D01*
X82585952Y-34980477D01*
X82633571Y-35028096D01*
X82728810Y-35075715D01*
X82966905Y-35075715D01*
X83062143Y-35028096D01*
X83109762Y-34980477D01*
X83157381Y-34885239D01*
X83157381Y-34599524D01*
X83109762Y-34504286D01*
X83062143Y-34456667D01*
X84967143Y-20788334D02*
X85014762Y-20740715D01*
X85062381Y-20597858D01*
X85062381Y-20502620D01*
X85014762Y-20359762D01*
X84919524Y-20264524D01*
X84824286Y-20216905D01*
X84633810Y-20169286D01*
X84490952Y-20169286D01*
X84300476Y-20216905D01*
X84205238Y-20264524D01*
X84110000Y-20359762D01*
X84062381Y-20502620D01*
X84062381Y-20597858D01*
X84110000Y-20740715D01*
X84157619Y-20788334D01*
X84395714Y-21645477D02*
X85062381Y-21645477D01*
X84014762Y-21407381D02*
X84729048Y-21169286D01*
X84729048Y-21788334D01*
X80176666Y-17017381D02*
X80510000Y-16541190D01*
X80748095Y-17017381D02*
X80748095Y-16017381D01*
X80367142Y-16017381D01*
X80271904Y-16065000D01*
X80224285Y-16112619D01*
X80176666Y-16207857D01*
X80176666Y-16350714D01*
X80224285Y-16445952D01*
X80271904Y-16493571D01*
X80367142Y-16541190D01*
X80748095Y-16541190D01*
X79795714Y-16112619D02*
X79748095Y-16065000D01*
X79652857Y-16017381D01*
X79414761Y-16017381D01*
X79319523Y-16065000D01*
X79271904Y-16112619D01*
X79224285Y-16207857D01*
X79224285Y-16303095D01*
X79271904Y-16445952D01*
X79843333Y-17017381D01*
X79224285Y-17017381D01*
X81295714Y-19767381D02*
X80676666Y-19767381D01*
X81010000Y-20148333D01*
X80867142Y-20148333D01*
X80771904Y-20195952D01*
X80724285Y-20243571D01*
X80676666Y-20338810D01*
X80676666Y-20576905D01*
X80724285Y-20672143D01*
X80771904Y-20719762D01*
X80867142Y-20767381D01*
X81152857Y-20767381D01*
X81248095Y-20719762D01*
X81295714Y-20672143D01*
X80343333Y-19767381D02*
X79724285Y-19767381D01*
X80057619Y-20148333D01*
X79914761Y-20148333D01*
X79819523Y-20195952D01*
X79771904Y-20243571D01*
X79724285Y-20338810D01*
X79724285Y-20576905D01*
X79771904Y-20672143D01*
X79819523Y-20719762D01*
X79914761Y-20767381D01*
X80200476Y-20767381D01*
X80295714Y-20719762D01*
X80343333Y-20672143D01*
X79105238Y-19767381D02*
X79009999Y-19767381D01*
X78914761Y-19815000D01*
X78867142Y-19862619D01*
X78819523Y-19957857D01*
X78771904Y-20148333D01*
X78771904Y-20386429D01*
X78819523Y-20576905D01*
X78867142Y-20672143D01*
X78914761Y-20719762D01*
X79009999Y-20767381D01*
X79105238Y-20767381D01*
X79200476Y-20719762D01*
X79248095Y-20672143D01*
X79295714Y-20576905D01*
X79343333Y-20386429D01*
X79343333Y-20148333D01*
X79295714Y-19957857D01*
X79248095Y-19862619D01*
X79200476Y-19815000D01*
X79105238Y-19767381D01*
X77636666Y-22677381D02*
X77970000Y-22201190D01*
X78208095Y-22677381D02*
X78208095Y-21677381D01*
X77827142Y-21677381D01*
X77731904Y-21725000D01*
X77684285Y-21772619D01*
X77636666Y-21867857D01*
X77636666Y-22010714D01*
X77684285Y-22105952D01*
X77731904Y-22153571D01*
X77827142Y-22201190D01*
X78208095Y-22201190D01*
X77303333Y-21677381D02*
X76684285Y-21677381D01*
X77017619Y-22058333D01*
X76874761Y-22058333D01*
X76779523Y-22105952D01*
X76731904Y-22153571D01*
X76684285Y-22248810D01*
X76684285Y-22486905D01*
X76731904Y-22582143D01*
X76779523Y-22629762D01*
X76874761Y-22677381D01*
X77160476Y-22677381D01*
X77255714Y-22629762D01*
X77303333Y-22582143D01*
X82113333Y-22677381D02*
X82684762Y-22677381D01*
X82399048Y-22677381D02*
X82399048Y-21677381D01*
X82494286Y-21820238D01*
X82589524Y-21915476D01*
X82684762Y-21963095D01*
X81684762Y-22582143D02*
X81637143Y-22629762D01*
X81684762Y-22677381D01*
X81732381Y-22629762D01*
X81684762Y-22582143D01*
X81684762Y-22677381D01*
X81065715Y-22105952D02*
X81160953Y-22058333D01*
X81208572Y-22010714D01*
X81256191Y-21915476D01*
X81256191Y-21867857D01*
X81208572Y-21772619D01*
X81160953Y-21725000D01*
X81065715Y-21677381D01*
X80875238Y-21677381D01*
X80780000Y-21725000D01*
X80732381Y-21772619D01*
X80684762Y-21867857D01*
X80684762Y-21915476D01*
X80732381Y-22010714D01*
X80780000Y-22058333D01*
X80875238Y-22105952D01*
X81065715Y-22105952D01*
X81160953Y-22153571D01*
X81208572Y-22201190D01*
X81256191Y-22296429D01*
X81256191Y-22486905D01*
X81208572Y-22582143D01*
X81160953Y-22629762D01*
X81065715Y-22677381D01*
X80875238Y-22677381D01*
X80780000Y-22629762D01*
X80732381Y-22582143D01*
X80684762Y-22486905D01*
X80684762Y-22296429D01*
X80732381Y-22201190D01*
X80780000Y-22153571D01*
X80875238Y-22105952D01*
X80256191Y-22677381D02*
X80256191Y-21677381D01*
X80160953Y-22296429D02*
X79875238Y-22677381D01*
X79875238Y-22010714D02*
X80256191Y-22391667D01*
X80176666Y-50037381D02*
X80510000Y-49561190D01*
X80748095Y-50037381D02*
X80748095Y-49037381D01*
X80367142Y-49037381D01*
X80271904Y-49085000D01*
X80224285Y-49132619D01*
X80176666Y-49227857D01*
X80176666Y-49370714D01*
X80224285Y-49465952D01*
X80271904Y-49513571D01*
X80367142Y-49561190D01*
X80748095Y-49561190D01*
X79319523Y-49370714D02*
X79319523Y-50037381D01*
X79557619Y-48989762D02*
X79795714Y-49704048D01*
X79176666Y-49704048D01*
X81295714Y-52792381D02*
X80676666Y-52792381D01*
X81010000Y-53173333D01*
X80867142Y-53173333D01*
X80771904Y-53220952D01*
X80724285Y-53268571D01*
X80676666Y-53363810D01*
X80676666Y-53601905D01*
X80724285Y-53697143D01*
X80771904Y-53744762D01*
X80867142Y-53792381D01*
X81152857Y-53792381D01*
X81248095Y-53744762D01*
X81295714Y-53697143D01*
X80343333Y-52792381D02*
X79724285Y-52792381D01*
X80057619Y-53173333D01*
X79914761Y-53173333D01*
X79819523Y-53220952D01*
X79771904Y-53268571D01*
X79724285Y-53363810D01*
X79724285Y-53601905D01*
X79771904Y-53697143D01*
X79819523Y-53744762D01*
X79914761Y-53792381D01*
X80200476Y-53792381D01*
X80295714Y-53744762D01*
X80343333Y-53697143D01*
X79105238Y-52792381D02*
X79009999Y-52792381D01*
X78914761Y-52840000D01*
X78867142Y-52887619D01*
X78819523Y-52982857D01*
X78771904Y-53173333D01*
X78771904Y-53411429D01*
X78819523Y-53601905D01*
X78867142Y-53697143D01*
X78914761Y-53744762D01*
X79009999Y-53792381D01*
X79105238Y-53792381D01*
X79200476Y-53744762D01*
X79248095Y-53697143D01*
X79295714Y-53601905D01*
X79343333Y-53411429D01*
X79343333Y-53173333D01*
X79295714Y-52982857D01*
X79248095Y-52887619D01*
X79200476Y-52840000D01*
X79105238Y-52792381D01*
X87796666Y-57547381D02*
X88130000Y-57071190D01*
X88368095Y-57547381D02*
X88368095Y-56547381D01*
X87987142Y-56547381D01*
X87891904Y-56595000D01*
X87844285Y-56642619D01*
X87796666Y-56737857D01*
X87796666Y-56880714D01*
X87844285Y-56975952D01*
X87891904Y-57023571D01*
X87987142Y-57071190D01*
X88368095Y-57071190D01*
X86891904Y-56547381D02*
X87368095Y-56547381D01*
X87415714Y-57023571D01*
X87368095Y-56975952D01*
X87272857Y-56928333D01*
X87034761Y-56928333D01*
X86939523Y-56975952D01*
X86891904Y-57023571D01*
X86844285Y-57118810D01*
X86844285Y-57356905D01*
X86891904Y-57452143D01*
X86939523Y-57499762D01*
X87034761Y-57547381D01*
X87272857Y-57547381D01*
X87368095Y-57499762D01*
X87415714Y-57452143D01*
X88915714Y-52797381D02*
X88296666Y-52797381D01*
X88630000Y-53178333D01*
X88487142Y-53178333D01*
X88391904Y-53225952D01*
X88344285Y-53273571D01*
X88296666Y-53368810D01*
X88296666Y-53606905D01*
X88344285Y-53702143D01*
X88391904Y-53749762D01*
X88487142Y-53797381D01*
X88772857Y-53797381D01*
X88868095Y-53749762D01*
X88915714Y-53702143D01*
X87963333Y-52797381D02*
X87344285Y-52797381D01*
X87677619Y-53178333D01*
X87534761Y-53178333D01*
X87439523Y-53225952D01*
X87391904Y-53273571D01*
X87344285Y-53368810D01*
X87344285Y-53606905D01*
X87391904Y-53702143D01*
X87439523Y-53749762D01*
X87534761Y-53797381D01*
X87820476Y-53797381D01*
X87915714Y-53749762D01*
X87963333Y-53702143D01*
X86725238Y-52797381D02*
X86629999Y-52797381D01*
X86534761Y-52845000D01*
X86487142Y-52892619D01*
X86439523Y-52987857D01*
X86391904Y-53178333D01*
X86391904Y-53416429D01*
X86439523Y-53606905D01*
X86487142Y-53702143D01*
X86534761Y-53749762D01*
X86629999Y-53797381D01*
X86725238Y-53797381D01*
X86820476Y-53749762D01*
X86868095Y-53702143D01*
X86915714Y-53606905D01*
X86963333Y-53416429D01*
X86963333Y-53178333D01*
X86915714Y-52987857D01*
X86868095Y-52892619D01*
X86820476Y-52845000D01*
X86725238Y-52797381D01*
X83311905Y-37257381D02*
X83311905Y-38066905D01*
X83264286Y-38162143D01*
X83216667Y-38209762D01*
X83121429Y-38257381D01*
X82930952Y-38257381D01*
X82835714Y-38209762D01*
X82788095Y-38162143D01*
X82740476Y-38066905D01*
X82740476Y-37257381D01*
X82359524Y-37257381D02*
X81740476Y-37257381D01*
X82073810Y-37638333D01*
X81930952Y-37638333D01*
X81835714Y-37685952D01*
X81788095Y-37733571D01*
X81740476Y-37828810D01*
X81740476Y-38066905D01*
X81788095Y-38162143D01*
X81835714Y-38209762D01*
X81930952Y-38257381D01*
X82216667Y-38257381D01*
X82311905Y-38209762D01*
X82359524Y-38162143D01*
X78231905Y-35702381D02*
X78231905Y-36511905D01*
X78184286Y-36607143D01*
X78136667Y-36654762D01*
X78041429Y-36702381D01*
X77850952Y-36702381D01*
X77755714Y-36654762D01*
X77708095Y-36607143D01*
X77660476Y-36511905D01*
X77660476Y-35702381D01*
X76660476Y-36702381D02*
X77231905Y-36702381D01*
X76946191Y-36702381D02*
X76946191Y-35702381D01*
X77041429Y-35845238D01*
X77136667Y-35940476D01*
X77231905Y-35988095D01*
X81684286Y-27416667D02*
X81208095Y-27416667D01*
X81779524Y-27702381D02*
X81446191Y-26702381D01*
X81112857Y-27702381D01*
X80779524Y-27702381D02*
X80779524Y-26702381D01*
X80398571Y-26702381D01*
X80303333Y-26750000D01*
X80255714Y-26797619D01*
X80208095Y-26892857D01*
X80208095Y-27035714D01*
X80255714Y-27130952D01*
X80303333Y-27178571D01*
X80398571Y-27226190D01*
X80779524Y-27226190D01*
X79255714Y-27702381D02*
X79827143Y-27702381D01*
X79541429Y-27702381D02*
X79541429Y-26702381D01*
X79636667Y-26845238D01*
X79731905Y-26940476D01*
X79827143Y-26988095D01*
X78303333Y-27702381D02*
X78874762Y-27702381D01*
X78589048Y-27702381D02*
X78589048Y-26702381D01*
X78684286Y-26845238D01*
X78779524Y-26940476D01*
X78874762Y-26988095D01*
X77350952Y-27702381D02*
X77922381Y-27702381D01*
X77636667Y-27702381D02*
X77636667Y-26702381D01*
X77731905Y-26845238D01*
X77827143Y-26940476D01*
X77922381Y-26988095D01*
X77017619Y-26702381D02*
X76350952Y-26702381D01*
X76779524Y-27702381D01*
X75970000Y-27321429D02*
X75208095Y-27321429D01*
X74255714Y-26702381D02*
X74731905Y-26702381D01*
X74779524Y-27178571D01*
X74731905Y-27130952D01*
X74636667Y-27083333D01*
X74398571Y-27083333D01*
X74303333Y-27130952D01*
X74255714Y-27178571D01*
X74208095Y-27273810D01*
X74208095Y-27511905D01*
X74255714Y-27607143D01*
X74303333Y-27654762D01*
X74398571Y-27702381D01*
X74636667Y-27702381D01*
X74731905Y-27654762D01*
X74779524Y-27607143D01*
X73589048Y-26702381D02*
X73493809Y-26702381D01*
X73398571Y-26750000D01*
X73350952Y-26797619D01*
X73303333Y-26892857D01*
X73255714Y-27083333D01*
X73255714Y-27321429D01*
X73303333Y-27511905D01*
X73350952Y-27607143D01*
X73398571Y-27654762D01*
X73493809Y-27702381D01*
X73589048Y-27702381D01*
X73684286Y-27654762D01*
X73731905Y-27607143D01*
X73779524Y-27511905D01*
X73827143Y-27321429D01*
X73827143Y-27083333D01*
X73779524Y-26892857D01*
X73731905Y-26797619D01*
X73684286Y-26750000D01*
X73589048Y-26702381D01*
X63372381Y-44918334D02*
X62896190Y-44585000D01*
X63372381Y-44346905D02*
X62372381Y-44346905D01*
X62372381Y-44727858D01*
X62420000Y-44823096D01*
X62467619Y-44870715D01*
X62562857Y-44918334D01*
X62705714Y-44918334D01*
X62800952Y-44870715D01*
X62848571Y-44823096D01*
X62896190Y-44727858D01*
X62896190Y-44346905D01*
X62372381Y-45775477D02*
X62372381Y-45585000D01*
X62420000Y-45489762D01*
X62467619Y-45442143D01*
X62610476Y-45346905D01*
X62800952Y-45299286D01*
X63181905Y-45299286D01*
X63277143Y-45346905D01*
X63324762Y-45394524D01*
X63372381Y-45489762D01*
X63372381Y-45680239D01*
X63324762Y-45775477D01*
X63277143Y-45823096D01*
X63181905Y-45870715D01*
X62943810Y-45870715D01*
X62848571Y-45823096D01*
X62800952Y-45775477D01*
X62753333Y-45680239D01*
X62753333Y-45489762D01*
X62800952Y-45394524D01*
X62848571Y-45346905D01*
X62943810Y-45299286D01*
X67122381Y-44489762D02*
X67122381Y-43918333D01*
X67122381Y-44204047D02*
X66122381Y-44204047D01*
X66265238Y-44108809D01*
X66360476Y-44013571D01*
X66408095Y-43918333D01*
X66122381Y-45108809D02*
X66122381Y-45204048D01*
X66170000Y-45299286D01*
X66217619Y-45346905D01*
X66312857Y-45394524D01*
X66503333Y-45442143D01*
X66741429Y-45442143D01*
X66931905Y-45394524D01*
X67027143Y-45346905D01*
X67074762Y-45299286D01*
X67122381Y-45204048D01*
X67122381Y-45108809D01*
X67074762Y-45013571D01*
X67027143Y-44965952D01*
X66931905Y-44918333D01*
X66741429Y-44870714D01*
X66503333Y-44870714D01*
X66312857Y-44918333D01*
X66217619Y-44965952D01*
X66170000Y-45013571D01*
X66122381Y-45108809D01*
X67122381Y-45870714D02*
X66122381Y-45870714D01*
X66741429Y-45965952D02*
X67122381Y-46251667D01*
X66455714Y-46251667D02*
X66836667Y-45870714D01*
X73532381Y-44918334D02*
X73056190Y-44585000D01*
X73532381Y-44346905D02*
X72532381Y-44346905D01*
X72532381Y-44727858D01*
X72580000Y-44823096D01*
X72627619Y-44870715D01*
X72722857Y-44918334D01*
X72865714Y-44918334D01*
X72960952Y-44870715D01*
X73008571Y-44823096D01*
X73056190Y-44727858D01*
X73056190Y-44346905D01*
X72532381Y-45251667D02*
X72532381Y-45918334D01*
X73532381Y-45489762D01*
X77282381Y-44489762D02*
X77282381Y-43918333D01*
X77282381Y-44204047D02*
X76282381Y-44204047D01*
X76425238Y-44108809D01*
X76520476Y-44013571D01*
X76568095Y-43918333D01*
X76282381Y-45108809D02*
X76282381Y-45204048D01*
X76330000Y-45299286D01*
X76377619Y-45346905D01*
X76472857Y-45394524D01*
X76663333Y-45442143D01*
X76901429Y-45442143D01*
X77091905Y-45394524D01*
X77187143Y-45346905D01*
X77234762Y-45299286D01*
X77282381Y-45204048D01*
X77282381Y-45108809D01*
X77234762Y-45013571D01*
X77187143Y-44965952D01*
X77091905Y-44918333D01*
X76901429Y-44870714D01*
X76663333Y-44870714D01*
X76472857Y-44918333D01*
X76377619Y-44965952D01*
X76330000Y-45013571D01*
X76282381Y-45108809D01*
X77282381Y-45870714D02*
X76282381Y-45870714D01*
X76901429Y-45965952D02*
X77282381Y-46251667D01*
X76615714Y-46251667D02*
X76996667Y-45870714D01*
X71286666Y-36702381D02*
X71620000Y-36226190D01*
X71858095Y-36702381D02*
X71858095Y-35702381D01*
X71477142Y-35702381D01*
X71381904Y-35750000D01*
X71334285Y-35797619D01*
X71286666Y-35892857D01*
X71286666Y-36035714D01*
X71334285Y-36130952D01*
X71381904Y-36178571D01*
X71477142Y-36226190D01*
X71858095Y-36226190D01*
X70715238Y-36130952D02*
X70810476Y-36083333D01*
X70858095Y-36035714D01*
X70905714Y-35940476D01*
X70905714Y-35892857D01*
X70858095Y-35797619D01*
X70810476Y-35750000D01*
X70715238Y-35702381D01*
X70524761Y-35702381D01*
X70429523Y-35750000D01*
X70381904Y-35797619D01*
X70334285Y-35892857D01*
X70334285Y-35940476D01*
X70381904Y-36035714D01*
X70429523Y-36083333D01*
X70524761Y-36130952D01*
X70715238Y-36130952D01*
X70810476Y-36178571D01*
X70858095Y-36226190D01*
X70905714Y-36321429D01*
X70905714Y-36511905D01*
X70858095Y-36607143D01*
X70810476Y-36654762D01*
X70715238Y-36702381D01*
X70524761Y-36702381D01*
X70429523Y-36654762D01*
X70381904Y-36607143D01*
X70334285Y-36511905D01*
X70334285Y-36321429D01*
X70381904Y-36226190D01*
X70429523Y-36178571D01*
X70524761Y-36130952D01*
X71715238Y-40452381D02*
X72286667Y-40452381D01*
X72000953Y-40452381D02*
X72000953Y-39452381D01*
X72096191Y-39595238D01*
X72191429Y-39690476D01*
X72286667Y-39738095D01*
X71096191Y-39452381D02*
X71000952Y-39452381D01*
X70905714Y-39500000D01*
X70858095Y-39547619D01*
X70810476Y-39642857D01*
X70762857Y-39833333D01*
X70762857Y-40071429D01*
X70810476Y-40261905D01*
X70858095Y-40357143D01*
X70905714Y-40404762D01*
X71000952Y-40452381D01*
X71096191Y-40452381D01*
X71191429Y-40404762D01*
X71239048Y-40357143D01*
X71286667Y-40261905D01*
X71334286Y-40071429D01*
X71334286Y-39833333D01*
X71286667Y-39642857D01*
X71239048Y-39547619D01*
X71191429Y-39500000D01*
X71096191Y-39452381D01*
X70334286Y-40452381D02*
X70334286Y-39452381D01*
X70239048Y-40071429D02*
X69953333Y-40452381D01*
X69953333Y-39785714D02*
X70334286Y-40166667D01*
X58292381Y-44918334D02*
X57816190Y-44585000D01*
X58292381Y-44346905D02*
X57292381Y-44346905D01*
X57292381Y-44727858D01*
X57340000Y-44823096D01*
X57387619Y-44870715D01*
X57482857Y-44918334D01*
X57625714Y-44918334D01*
X57720952Y-44870715D01*
X57768571Y-44823096D01*
X57816190Y-44727858D01*
X57816190Y-44346905D01*
X58292381Y-45394524D02*
X58292381Y-45585000D01*
X58244762Y-45680239D01*
X58197143Y-45727858D01*
X58054286Y-45823096D01*
X57863810Y-45870715D01*
X57482857Y-45870715D01*
X57387619Y-45823096D01*
X57340000Y-45775477D01*
X57292381Y-45680239D01*
X57292381Y-45489762D01*
X57340000Y-45394524D01*
X57387619Y-45346905D01*
X57482857Y-45299286D01*
X57720952Y-45299286D01*
X57816190Y-45346905D01*
X57863810Y-45394524D01*
X57911429Y-45489762D01*
X57911429Y-45680239D01*
X57863810Y-45775477D01*
X57816190Y-45823096D01*
X57720952Y-45870715D01*
X62042381Y-44489762D02*
X62042381Y-43918333D01*
X62042381Y-44204047D02*
X61042381Y-44204047D01*
X61185238Y-44108809D01*
X61280476Y-44013571D01*
X61328095Y-43918333D01*
X61042381Y-45108809D02*
X61042381Y-45204048D01*
X61090000Y-45299286D01*
X61137619Y-45346905D01*
X61232857Y-45394524D01*
X61423333Y-45442143D01*
X61661429Y-45442143D01*
X61851905Y-45394524D01*
X61947143Y-45346905D01*
X61994762Y-45299286D01*
X62042381Y-45204048D01*
X62042381Y-45108809D01*
X61994762Y-45013571D01*
X61947143Y-44965952D01*
X61851905Y-44918333D01*
X61661429Y-44870714D01*
X61423333Y-44870714D01*
X61232857Y-44918333D01*
X61137619Y-44965952D01*
X61090000Y-45013571D01*
X61042381Y-45108809D01*
X62042381Y-45870714D02*
X61042381Y-45870714D01*
X61661429Y-45965952D02*
X62042381Y-46251667D01*
X61375714Y-46251667D02*
X61756667Y-45870714D01*
X68452381Y-44442143D02*
X67976190Y-44108809D01*
X68452381Y-43870714D02*
X67452381Y-43870714D01*
X67452381Y-44251667D01*
X67500000Y-44346905D01*
X67547619Y-44394524D01*
X67642857Y-44442143D01*
X67785714Y-44442143D01*
X67880952Y-44394524D01*
X67928571Y-44346905D01*
X67976190Y-44251667D01*
X67976190Y-43870714D01*
X68452381Y-45394524D02*
X68452381Y-44823095D01*
X68452381Y-45108809D02*
X67452381Y-45108809D01*
X67595238Y-45013571D01*
X67690476Y-44918333D01*
X67738095Y-44823095D01*
X67452381Y-46013571D02*
X67452381Y-46108810D01*
X67500000Y-46204048D01*
X67547619Y-46251667D01*
X67642857Y-46299286D01*
X67833333Y-46346905D01*
X68071429Y-46346905D01*
X68261905Y-46299286D01*
X68357143Y-46251667D01*
X68404762Y-46204048D01*
X68452381Y-46108810D01*
X68452381Y-46013571D01*
X68404762Y-45918333D01*
X68357143Y-45870714D01*
X68261905Y-45823095D01*
X68071429Y-45775476D01*
X67833333Y-45775476D01*
X67642857Y-45823095D01*
X67547619Y-45870714D01*
X67500000Y-45918333D01*
X67452381Y-46013571D01*
X72202381Y-44489762D02*
X72202381Y-43918333D01*
X72202381Y-44204047D02*
X71202381Y-44204047D01*
X71345238Y-44108809D01*
X71440476Y-44013571D01*
X71488095Y-43918333D01*
X71202381Y-45108809D02*
X71202381Y-45204048D01*
X71250000Y-45299286D01*
X71297619Y-45346905D01*
X71392857Y-45394524D01*
X71583333Y-45442143D01*
X71821429Y-45442143D01*
X72011905Y-45394524D01*
X72107143Y-45346905D01*
X72154762Y-45299286D01*
X72202381Y-45204048D01*
X72202381Y-45108809D01*
X72154762Y-45013571D01*
X72107143Y-44965952D01*
X72011905Y-44918333D01*
X71821429Y-44870714D01*
X71583333Y-44870714D01*
X71392857Y-44918333D01*
X71297619Y-44965952D01*
X71250000Y-45013571D01*
X71202381Y-45108809D01*
X72202381Y-45870714D02*
X71202381Y-45870714D01*
X71821429Y-45965952D02*
X72202381Y-46251667D01*
X71535714Y-46251667D02*
X71916667Y-45870714D01*
M02*
