G04 #@! TF.FileFunction,Copper,L1,Top,Signal*
%FSLAX46Y46*%
G04 Gerber Fmt 4.6, Leading zero omitted, Abs format (unit mm)*
G04 Created by KiCad (PCBNEW 4.0.7) date Sunday, March 04, 2018 'PMt' 09:17:10 PM*
%MOMM*%
%LPD*%
G01*
G04 APERTURE LIST*
%ADD10C,0.100000*%
%ADD11R,1.600000X1.600000*%
%ADD12C,1.600000*%
%ADD13R,2.000000X1.700000*%
%ADD14R,3.500000X3.500000*%
%ADD15R,1.800000X1.800000*%
%ADD16O,1.800000X1.800000*%
%ADD17R,1.500000X1.500000*%
%ADD18C,1.500000*%
%ADD19R,2.600000X2.000000*%
%ADD20O,2.600000X2.000000*%
%ADD21R,1.700000X1.700000*%
%ADD22O,1.700000X1.700000*%
%ADD23C,1.520000*%
%ADD24R,1.520000X1.520000*%
%ADD25C,0.600000*%
%ADD26C,0.250000*%
%ADD27C,1.750000*%
%ADD28C,0.254000*%
G04 APERTURE END LIST*
D10*
D11*
X66675000Y-19050000D03*
D12*
X66675000Y-16550000D03*
D13*
X65310000Y-31115000D03*
X69310000Y-31115000D03*
X85630000Y-51435000D03*
X89630000Y-51435000D03*
D14*
X60960000Y-25400000D03*
X54960000Y-25400000D03*
X57960000Y-30100000D03*
D13*
X65310000Y-36830000D03*
X69310000Y-36830000D03*
D15*
X73660000Y-17780000D03*
D16*
X73660000Y-20320000D03*
X73660000Y-22860000D03*
D17*
X95885000Y-48895000D03*
D18*
X95885000Y-46895000D03*
X95885000Y-44895000D03*
D19*
X95885000Y-33020000D03*
D20*
X95885000Y-35560000D03*
X95885000Y-38100000D03*
D13*
X82010000Y-55245000D03*
X78010000Y-55245000D03*
D21*
X54610000Y-38100000D03*
D22*
X54610000Y-40640000D03*
X54610000Y-43180000D03*
X54610000Y-45720000D03*
X54610000Y-48260000D03*
D23*
X60960000Y-53340000D03*
X58420000Y-53340000D03*
D24*
X63500000Y-53340000D03*
D23*
X68580000Y-53340000D03*
X66040000Y-53340000D03*
D24*
X71120000Y-53340000D03*
D25*
X83185000Y-45085000D03*
X83185000Y-46990000D03*
X71755000Y-31750000D03*
X94615000Y-26670000D03*
X79375000Y-20955000D03*
X66040000Y-40640000D03*
X71120000Y-40640000D03*
X77470000Y-48260000D03*
X88900000Y-48895000D03*
X86995000Y-48895000D03*
X81915000Y-41910000D03*
X76835000Y-49530000D03*
X78105000Y-42545000D03*
X57150000Y-48260000D03*
X82550000Y-44450000D03*
X83185000Y-42545000D03*
X66040000Y-26670000D03*
X83820000Y-57785000D03*
X60960000Y-50165000D03*
X64770000Y-50165000D03*
D26*
X83185000Y-46990000D02*
X83185000Y-45085000D01*
X71755000Y-31750000D02*
X69850000Y-31750000D01*
X69850000Y-31750000D02*
X69215000Y-31115000D01*
X69215000Y-31115000D02*
X69310000Y-31115000D01*
D27*
X93885000Y-46895000D02*
X95885000Y-46895000D01*
X90170000Y-43180000D02*
X93885000Y-46895000D01*
X90170000Y-31115000D02*
X90170000Y-43180000D01*
X94615000Y-26670000D02*
X90170000Y-31115000D01*
X95885000Y-46990000D02*
X95885000Y-46895000D01*
X79375000Y-20955000D02*
X75565000Y-20955000D01*
X75565000Y-20955000D02*
X74930000Y-20320000D01*
X74930000Y-20320000D02*
X73660000Y-20320000D01*
D26*
X95885000Y-46990000D02*
X95885000Y-46895000D01*
X65310000Y-31115000D02*
X65405000Y-31115000D01*
X65405000Y-31115000D02*
X65405000Y-36830000D01*
X65405000Y-36830000D02*
X65310000Y-36830000D01*
X63500000Y-53340000D02*
X67310000Y-49530000D01*
X67310000Y-41910000D02*
X66040000Y-40640000D01*
X67310000Y-49530000D02*
X67310000Y-41910000D01*
X71120000Y-40640000D02*
X77470000Y-46990000D01*
X77470000Y-46990000D02*
X77470000Y-48260000D01*
X88900000Y-48895000D02*
X89535000Y-49530000D01*
X89535000Y-49530000D02*
X89535000Y-51435000D01*
X89535000Y-51435000D02*
X89630000Y-51435000D01*
X86995000Y-48895000D02*
X85725000Y-50165000D01*
X85725000Y-50165000D02*
X85725000Y-51435000D01*
X85725000Y-51435000D02*
X85630000Y-51435000D01*
X78010000Y-55245000D02*
X73025000Y-55245000D01*
X73025000Y-55245000D02*
X71120000Y-53340000D01*
X81915000Y-47625000D02*
X81915000Y-41910000D01*
X76835000Y-49530000D02*
X81915000Y-47625000D01*
X74930000Y-39370000D02*
X78105000Y-42545000D01*
X59690000Y-39370000D02*
X74930000Y-39370000D01*
X57785000Y-41275000D02*
X59690000Y-39370000D01*
X57785000Y-47625000D02*
X57785000Y-41275000D01*
X57150000Y-48260000D02*
X57785000Y-47625000D01*
X83185000Y-43180000D02*
X82550000Y-44450000D01*
X83185000Y-42545000D02*
X83185000Y-43180000D01*
X95885000Y-33020000D02*
X96520000Y-33020000D01*
X96520000Y-33020000D02*
X97155000Y-33655000D01*
X97155000Y-33655000D02*
X97790000Y-33655000D01*
X97790000Y-33655000D02*
X97790000Y-40005000D01*
X97790000Y-40005000D02*
X95885000Y-41910000D01*
X95885000Y-41910000D02*
X95885000Y-44895000D01*
D27*
X66675000Y-19050000D02*
X66040000Y-19685000D01*
X66040000Y-19685000D02*
X66040000Y-26670000D01*
D26*
X83820000Y-57785000D02*
X82010000Y-55975000D01*
X82010000Y-55975000D02*
X82010000Y-55245000D01*
X60960000Y-50165000D02*
X64770000Y-50165000D01*
D28*
G36*
X99620000Y-58980000D02*
X51510000Y-58980000D01*
X51510000Y-57493599D01*
X51604699Y-57493599D01*
X51868281Y-58131515D01*
X52355918Y-58620004D01*
X52993373Y-58884699D01*
X53683599Y-58885301D01*
X54321515Y-58621719D01*
X54810004Y-58134082D01*
X55074699Y-57496627D01*
X55075301Y-56806401D01*
X54811719Y-56168485D01*
X54324082Y-55679996D01*
X53686627Y-55415301D01*
X52996401Y-55414699D01*
X52358485Y-55678281D01*
X51869996Y-56165918D01*
X51605301Y-56803373D01*
X51604699Y-57493599D01*
X51510000Y-57493599D01*
X51510000Y-40640000D01*
X53095907Y-40640000D01*
X53208946Y-41208285D01*
X53530853Y-41690054D01*
X53860026Y-41910000D01*
X53530853Y-42129946D01*
X53208946Y-42611715D01*
X53095907Y-43180000D01*
X53208946Y-43748285D01*
X53530853Y-44230054D01*
X53860026Y-44450000D01*
X53530853Y-44669946D01*
X53208946Y-45151715D01*
X53095907Y-45720000D01*
X53208946Y-46288285D01*
X53530853Y-46770054D01*
X53860026Y-46990000D01*
X53530853Y-47209946D01*
X53208946Y-47691715D01*
X53095907Y-48260000D01*
X53208946Y-48828285D01*
X53530853Y-49310054D01*
X54012622Y-49631961D01*
X54580907Y-49745000D01*
X54639093Y-49745000D01*
X55207378Y-49631961D01*
X55689147Y-49310054D01*
X56011054Y-48828285D01*
X56087260Y-48445167D01*
X56214838Y-48445167D01*
X56356883Y-48788943D01*
X56619673Y-49052192D01*
X56963201Y-49194838D01*
X57335167Y-49195162D01*
X57678943Y-49053117D01*
X57942192Y-48790327D01*
X58084838Y-48446799D01*
X58084879Y-48399923D01*
X58322401Y-48162401D01*
X58487148Y-47915839D01*
X58545000Y-47625000D01*
X58545000Y-41589802D01*
X60004802Y-40130000D01*
X65239367Y-40130000D01*
X65105162Y-40453201D01*
X65104838Y-40825167D01*
X65246883Y-41168943D01*
X65509673Y-41432192D01*
X65853201Y-41574838D01*
X65900077Y-41574879D01*
X66550000Y-42224802D01*
X66550000Y-49215198D01*
X65705092Y-50060106D01*
X65705162Y-49979833D01*
X65563117Y-49636057D01*
X65300327Y-49372808D01*
X64956799Y-49230162D01*
X64584833Y-49229838D01*
X64241057Y-49371883D01*
X64207882Y-49405000D01*
X61522463Y-49405000D01*
X61490327Y-49372808D01*
X61146799Y-49230162D01*
X60774833Y-49229838D01*
X60431057Y-49371883D01*
X60167808Y-49634673D01*
X60025162Y-49978201D01*
X60024838Y-50350167D01*
X60166883Y-50693943D01*
X60429673Y-50957192D01*
X60773201Y-51099838D01*
X61145167Y-51100162D01*
X61488943Y-50958117D01*
X61522118Y-50925000D01*
X64207537Y-50925000D01*
X64239673Y-50957192D01*
X64583201Y-51099838D01*
X64665288Y-51099910D01*
X63832638Y-51932560D01*
X62740000Y-51932560D01*
X62504683Y-51976838D01*
X62288559Y-52115910D01*
X62143569Y-52328110D01*
X62106031Y-52513480D01*
X61751236Y-52158066D01*
X61238700Y-51945242D01*
X60683735Y-51944758D01*
X60170828Y-52156687D01*
X59778066Y-52548764D01*
X59690046Y-52760738D01*
X59603313Y-52550828D01*
X59211236Y-52158066D01*
X58698700Y-51945242D01*
X58143735Y-51944758D01*
X57630828Y-52156687D01*
X57238066Y-52548764D01*
X57025242Y-53061300D01*
X57024758Y-53616265D01*
X57236687Y-54129172D01*
X57628764Y-54521934D01*
X58141300Y-54734758D01*
X58696265Y-54735242D01*
X59209172Y-54523313D01*
X59601934Y-54131236D01*
X59689954Y-53919262D01*
X59776687Y-54129172D01*
X60168764Y-54521934D01*
X60681300Y-54734758D01*
X61236265Y-54735242D01*
X61749172Y-54523313D01*
X62105316Y-54167790D01*
X62136838Y-54335317D01*
X62275910Y-54551441D01*
X62488110Y-54696431D01*
X62740000Y-54747440D01*
X64260000Y-54747440D01*
X64495317Y-54703162D01*
X64711441Y-54564090D01*
X64856431Y-54351890D01*
X64893969Y-54166520D01*
X65248764Y-54521934D01*
X65761300Y-54734758D01*
X66316265Y-54735242D01*
X66829172Y-54523313D01*
X67221934Y-54131236D01*
X67309954Y-53919262D01*
X67396687Y-54129172D01*
X67788764Y-54521934D01*
X68301300Y-54734758D01*
X68856265Y-54735242D01*
X69369172Y-54523313D01*
X69725316Y-54167790D01*
X69756838Y-54335317D01*
X69895910Y-54551441D01*
X70108110Y-54696431D01*
X70360000Y-54747440D01*
X71452638Y-54747440D01*
X72487599Y-55782401D01*
X72734161Y-55947148D01*
X73025000Y-56005000D01*
X76362560Y-56005000D01*
X76362560Y-56095000D01*
X76406838Y-56330317D01*
X76545910Y-56546441D01*
X76758110Y-56691431D01*
X77010000Y-56742440D01*
X79010000Y-56742440D01*
X79245317Y-56698162D01*
X79461441Y-56559090D01*
X79606431Y-56346890D01*
X79657440Y-56095000D01*
X79657440Y-54395000D01*
X80362560Y-54395000D01*
X80362560Y-56095000D01*
X80406838Y-56330317D01*
X80545910Y-56546441D01*
X80758110Y-56691431D01*
X81010000Y-56742440D01*
X81702638Y-56742440D01*
X82884878Y-57924680D01*
X82884838Y-57970167D01*
X83026883Y-58313943D01*
X83289673Y-58577192D01*
X83633201Y-58719838D01*
X84005167Y-58720162D01*
X84348943Y-58578117D01*
X84612192Y-58315327D01*
X84754838Y-57971799D01*
X84755162Y-57599833D01*
X84711268Y-57493599D01*
X96054699Y-57493599D01*
X96318281Y-58131515D01*
X96805918Y-58620004D01*
X97443373Y-58884699D01*
X98133599Y-58885301D01*
X98771515Y-58621719D01*
X99260004Y-58134082D01*
X99524699Y-57496627D01*
X99525301Y-56806401D01*
X99261719Y-56168485D01*
X98774082Y-55679996D01*
X98136627Y-55415301D01*
X97446401Y-55414699D01*
X96808485Y-55678281D01*
X96319996Y-56165918D01*
X96055301Y-56803373D01*
X96054699Y-57493599D01*
X84711268Y-57493599D01*
X84613117Y-57256057D01*
X84350327Y-56992808D01*
X84006799Y-56850162D01*
X83959923Y-56850121D01*
X83545649Y-56435847D01*
X83606431Y-56346890D01*
X83657440Y-56095000D01*
X83657440Y-54395000D01*
X83613162Y-54159683D01*
X83474090Y-53943559D01*
X83261890Y-53798569D01*
X83010000Y-53747560D01*
X81010000Y-53747560D01*
X80774683Y-53791838D01*
X80558559Y-53930910D01*
X80413569Y-54143110D01*
X80362560Y-54395000D01*
X79657440Y-54395000D01*
X79613162Y-54159683D01*
X79474090Y-53943559D01*
X79261890Y-53798569D01*
X79010000Y-53747560D01*
X77010000Y-53747560D01*
X76774683Y-53791838D01*
X76558559Y-53930910D01*
X76413569Y-54143110D01*
X76362560Y-54395000D01*
X76362560Y-54485000D01*
X73339802Y-54485000D01*
X72527440Y-53672638D01*
X72527440Y-52580000D01*
X72483162Y-52344683D01*
X72344090Y-52128559D01*
X72131890Y-51983569D01*
X71880000Y-51932560D01*
X70360000Y-51932560D01*
X70124683Y-51976838D01*
X69908559Y-52115910D01*
X69763569Y-52328110D01*
X69726031Y-52513480D01*
X69371236Y-52158066D01*
X68858700Y-51945242D01*
X68303735Y-51944758D01*
X67790828Y-52156687D01*
X67398066Y-52548764D01*
X67310046Y-52760738D01*
X67223313Y-52550828D01*
X66831236Y-52158066D01*
X66318700Y-51945242D01*
X65969864Y-51944938D01*
X67329802Y-50585000D01*
X83982560Y-50585000D01*
X83982560Y-52285000D01*
X84026838Y-52520317D01*
X84165910Y-52736441D01*
X84378110Y-52881431D01*
X84630000Y-52932440D01*
X86630000Y-52932440D01*
X86865317Y-52888162D01*
X87081441Y-52749090D01*
X87226431Y-52536890D01*
X87277440Y-52285000D01*
X87277440Y-50585000D01*
X87233162Y-50349683D01*
X87094090Y-50133559D01*
X86937937Y-50026865D01*
X87134680Y-49830122D01*
X87180167Y-49830162D01*
X87523943Y-49688117D01*
X87787192Y-49425327D01*
X87929838Y-49081799D01*
X87929839Y-49080167D01*
X87964838Y-49080167D01*
X88106883Y-49423943D01*
X88369673Y-49687192D01*
X88713201Y-49829838D01*
X88760077Y-49829879D01*
X88775000Y-49844802D01*
X88775000Y-49937560D01*
X88630000Y-49937560D01*
X88394683Y-49981838D01*
X88178559Y-50120910D01*
X88033569Y-50333110D01*
X87982560Y-50585000D01*
X87982560Y-52285000D01*
X88026838Y-52520317D01*
X88165910Y-52736441D01*
X88378110Y-52881431D01*
X88630000Y-52932440D01*
X90630000Y-52932440D01*
X90865317Y-52888162D01*
X91081441Y-52749090D01*
X91226431Y-52536890D01*
X91277440Y-52285000D01*
X91277440Y-50585000D01*
X91233162Y-50349683D01*
X91094090Y-50133559D01*
X90881890Y-49988569D01*
X90630000Y-49937560D01*
X90295000Y-49937560D01*
X90295000Y-49530000D01*
X90237148Y-49239161D01*
X90198120Y-49180750D01*
X94500000Y-49180750D01*
X94500000Y-49771309D01*
X94596673Y-50004698D01*
X94775301Y-50183327D01*
X95008690Y-50280000D01*
X95599250Y-50280000D01*
X95758000Y-50121250D01*
X95758000Y-49022000D01*
X96012000Y-49022000D01*
X96012000Y-50121250D01*
X96170750Y-50280000D01*
X96761310Y-50280000D01*
X96994699Y-50183327D01*
X97173327Y-50004698D01*
X97270000Y-49771309D01*
X97270000Y-49180750D01*
X97111250Y-49022000D01*
X96012000Y-49022000D01*
X95758000Y-49022000D01*
X94658750Y-49022000D01*
X94500000Y-49180750D01*
X90198120Y-49180750D01*
X90072401Y-48992599D01*
X89835122Y-48755320D01*
X89835162Y-48709833D01*
X89693117Y-48366057D01*
X89430327Y-48102808D01*
X89086799Y-47960162D01*
X88714833Y-47959838D01*
X88371057Y-48101883D01*
X88107808Y-48364673D01*
X87965162Y-48708201D01*
X87964838Y-49080167D01*
X87929839Y-49080167D01*
X87930162Y-48709833D01*
X87788117Y-48366057D01*
X87525327Y-48102808D01*
X87181799Y-47960162D01*
X86809833Y-47959838D01*
X86466057Y-48101883D01*
X86202808Y-48364673D01*
X86060162Y-48708201D01*
X86060121Y-48755077D01*
X85187599Y-49627599D01*
X85022852Y-49874161D01*
X85010241Y-49937560D01*
X84630000Y-49937560D01*
X84394683Y-49981838D01*
X84178559Y-50120910D01*
X84033569Y-50333110D01*
X83982560Y-50585000D01*
X67329802Y-50585000D01*
X67847401Y-50067401D01*
X68012148Y-49820839D01*
X68070000Y-49530000D01*
X68070000Y-41910000D01*
X68032843Y-41723201D01*
X68012148Y-41619160D01*
X67847401Y-41372599D01*
X66975122Y-40500320D01*
X66975162Y-40454833D01*
X66840944Y-40130000D01*
X70319367Y-40130000D01*
X70185162Y-40453201D01*
X70184838Y-40825167D01*
X70326883Y-41168943D01*
X70589673Y-41432192D01*
X70933201Y-41574838D01*
X70980077Y-41574879D01*
X76710000Y-47304802D01*
X76710000Y-47697537D01*
X76677808Y-47729673D01*
X76535162Y-48073201D01*
X76534838Y-48445167D01*
X76604432Y-48613597D01*
X76306057Y-48736883D01*
X76042808Y-48999673D01*
X75900162Y-49343201D01*
X75899838Y-49715167D01*
X76041883Y-50058943D01*
X76304673Y-50322192D01*
X76648201Y-50464838D01*
X77020167Y-50465162D01*
X77363943Y-50323117D01*
X77627192Y-50060327D01*
X77634923Y-50041709D01*
X82181853Y-48336610D01*
X82192988Y-48329704D01*
X82205839Y-48327148D01*
X82318616Y-48251793D01*
X82433861Y-48180321D01*
X82441504Y-48169682D01*
X82452401Y-48162401D01*
X82527757Y-48049623D01*
X82606878Y-47939490D01*
X82609869Y-47926733D01*
X82617148Y-47915839D01*
X82643608Y-47782816D01*
X82674562Y-47650781D01*
X82672443Y-47637852D01*
X82675000Y-47625000D01*
X82675000Y-45385110D01*
X82735167Y-45385162D01*
X83078943Y-45243117D01*
X83342192Y-44980327D01*
X83484838Y-44636799D01*
X83485150Y-44279113D01*
X83864765Y-43519882D01*
X83871978Y-43493543D01*
X83887148Y-43470839D01*
X83910913Y-43351363D01*
X83943087Y-43233876D01*
X83939672Y-43206786D01*
X83945000Y-43180000D01*
X83945000Y-43107463D01*
X83977192Y-43075327D01*
X84119838Y-42731799D01*
X84120162Y-42359833D01*
X83978117Y-42016057D01*
X83715327Y-41752808D01*
X83371799Y-41610162D01*
X82999833Y-41609838D01*
X82831403Y-41679432D01*
X82708117Y-41381057D01*
X82445327Y-41117808D01*
X82101799Y-40975162D01*
X81729833Y-40974838D01*
X81386057Y-41116883D01*
X81122808Y-41379673D01*
X80980162Y-41723201D01*
X80979838Y-42095167D01*
X81121883Y-42438943D01*
X81155000Y-42472118D01*
X81155000Y-47098320D01*
X78405114Y-48129527D01*
X78405162Y-48074833D01*
X78263117Y-47731057D01*
X78230000Y-47697882D01*
X78230000Y-46990000D01*
X78172148Y-46699161D01*
X78007401Y-46452599D01*
X72055122Y-40500320D01*
X72055162Y-40454833D01*
X71920944Y-40130000D01*
X74615198Y-40130000D01*
X77169878Y-42684680D01*
X77169838Y-42730167D01*
X77311883Y-43073943D01*
X77574673Y-43337192D01*
X77918201Y-43479838D01*
X78290167Y-43480162D01*
X78633943Y-43338117D01*
X78897192Y-43075327D01*
X79039838Y-42731799D01*
X79040162Y-42359833D01*
X78898117Y-42016057D01*
X78635327Y-41752808D01*
X78291799Y-41610162D01*
X78244923Y-41610121D01*
X75467401Y-38832599D01*
X75220839Y-38667852D01*
X74930000Y-38610000D01*
X59690000Y-38610000D01*
X59399161Y-38667852D01*
X59152599Y-38832599D01*
X57247599Y-40737599D01*
X57082852Y-40984161D01*
X57025000Y-41275000D01*
X57025000Y-47310198D01*
X57010320Y-47324878D01*
X56964833Y-47324838D01*
X56621057Y-47466883D01*
X56357808Y-47729673D01*
X56215162Y-48073201D01*
X56214838Y-48445167D01*
X56087260Y-48445167D01*
X56124093Y-48260000D01*
X56011054Y-47691715D01*
X55689147Y-47209946D01*
X55359974Y-46990000D01*
X55689147Y-46770054D01*
X56011054Y-46288285D01*
X56124093Y-45720000D01*
X56011054Y-45151715D01*
X55689147Y-44669946D01*
X55359974Y-44450000D01*
X55689147Y-44230054D01*
X56011054Y-43748285D01*
X56124093Y-43180000D01*
X56011054Y-42611715D01*
X55689147Y-42129946D01*
X55359974Y-41910000D01*
X55689147Y-41690054D01*
X56011054Y-41208285D01*
X56124093Y-40640000D01*
X56011054Y-40071715D01*
X55689147Y-39589946D01*
X55645223Y-39560597D01*
X55819698Y-39488327D01*
X55998327Y-39309699D01*
X56095000Y-39076310D01*
X56095000Y-38385750D01*
X55936250Y-38227000D01*
X54737000Y-38227000D01*
X54737000Y-38247000D01*
X54483000Y-38247000D01*
X54483000Y-38227000D01*
X53283750Y-38227000D01*
X53125000Y-38385750D01*
X53125000Y-39076310D01*
X53221673Y-39309699D01*
X53400302Y-39488327D01*
X53574777Y-39560597D01*
X53530853Y-39589946D01*
X53208946Y-40071715D01*
X53095907Y-40640000D01*
X51510000Y-40640000D01*
X51510000Y-37123690D01*
X53125000Y-37123690D01*
X53125000Y-37814250D01*
X53283750Y-37973000D01*
X54483000Y-37973000D01*
X54483000Y-36773750D01*
X54737000Y-36773750D01*
X54737000Y-37973000D01*
X55936250Y-37973000D01*
X56095000Y-37814250D01*
X56095000Y-37123690D01*
X55998327Y-36890301D01*
X55819698Y-36711673D01*
X55586309Y-36615000D01*
X54895750Y-36615000D01*
X54737000Y-36773750D01*
X54483000Y-36773750D01*
X54324250Y-36615000D01*
X53633691Y-36615000D01*
X53400302Y-36711673D01*
X53221673Y-36890301D01*
X53125000Y-37123690D01*
X51510000Y-37123690D01*
X51510000Y-30385750D01*
X55575000Y-30385750D01*
X55575000Y-31976310D01*
X55671673Y-32209699D01*
X55850302Y-32388327D01*
X56083691Y-32485000D01*
X57674250Y-32485000D01*
X57833000Y-32326250D01*
X57833000Y-30227000D01*
X58087000Y-30227000D01*
X58087000Y-32326250D01*
X58245750Y-32485000D01*
X59836309Y-32485000D01*
X60069698Y-32388327D01*
X60248327Y-32209699D01*
X60345000Y-31976310D01*
X60345000Y-30385750D01*
X60224250Y-30265000D01*
X63662560Y-30265000D01*
X63662560Y-31965000D01*
X63706838Y-32200317D01*
X63845910Y-32416441D01*
X64058110Y-32561431D01*
X64310000Y-32612440D01*
X64645000Y-32612440D01*
X64645000Y-35332560D01*
X64310000Y-35332560D01*
X64074683Y-35376838D01*
X63858559Y-35515910D01*
X63713569Y-35728110D01*
X63662560Y-35980000D01*
X63662560Y-37680000D01*
X63706838Y-37915317D01*
X63845910Y-38131441D01*
X64058110Y-38276431D01*
X64310000Y-38327440D01*
X66310000Y-38327440D01*
X66545317Y-38283162D01*
X66761441Y-38144090D01*
X66906431Y-37931890D01*
X66957440Y-37680000D01*
X66957440Y-37115750D01*
X67675000Y-37115750D01*
X67675000Y-37806310D01*
X67771673Y-38039699D01*
X67950302Y-38218327D01*
X68183691Y-38315000D01*
X69024250Y-38315000D01*
X69183000Y-38156250D01*
X69183000Y-36957000D01*
X69437000Y-36957000D01*
X69437000Y-38156250D01*
X69595750Y-38315000D01*
X70436309Y-38315000D01*
X70669698Y-38218327D01*
X70848327Y-38039699D01*
X70945000Y-37806310D01*
X70945000Y-37115750D01*
X70786250Y-36957000D01*
X69437000Y-36957000D01*
X69183000Y-36957000D01*
X67833750Y-36957000D01*
X67675000Y-37115750D01*
X66957440Y-37115750D01*
X66957440Y-35980000D01*
X66933674Y-35853690D01*
X67675000Y-35853690D01*
X67675000Y-36544250D01*
X67833750Y-36703000D01*
X69183000Y-36703000D01*
X69183000Y-35503750D01*
X69437000Y-35503750D01*
X69437000Y-36703000D01*
X70786250Y-36703000D01*
X70945000Y-36544250D01*
X70945000Y-35853690D01*
X70848327Y-35620301D01*
X70669698Y-35441673D01*
X70436309Y-35345000D01*
X69595750Y-35345000D01*
X69437000Y-35503750D01*
X69183000Y-35503750D01*
X69024250Y-35345000D01*
X68183691Y-35345000D01*
X67950302Y-35441673D01*
X67771673Y-35620301D01*
X67675000Y-35853690D01*
X66933674Y-35853690D01*
X66913162Y-35744683D01*
X66774090Y-35528559D01*
X66561890Y-35383569D01*
X66310000Y-35332560D01*
X66165000Y-35332560D01*
X66165000Y-32612440D01*
X66310000Y-32612440D01*
X66545317Y-32568162D01*
X66761441Y-32429090D01*
X66906431Y-32216890D01*
X66957440Y-31965000D01*
X66957440Y-30265000D01*
X67662560Y-30265000D01*
X67662560Y-31965000D01*
X67706838Y-32200317D01*
X67845910Y-32416441D01*
X68058110Y-32561431D01*
X68310000Y-32612440D01*
X70310000Y-32612440D01*
X70545317Y-32568162D01*
X70635703Y-32510000D01*
X71192537Y-32510000D01*
X71224673Y-32542192D01*
X71568201Y-32684838D01*
X71940167Y-32685162D01*
X72283943Y-32543117D01*
X72547192Y-32280327D01*
X72689838Y-31936799D01*
X72690162Y-31564833D01*
X72548117Y-31221057D01*
X72442245Y-31115000D01*
X88660000Y-31115000D01*
X88660000Y-43180000D01*
X88774942Y-43757852D01*
X89102269Y-44247731D01*
X92817268Y-47962731D01*
X93116096Y-48162401D01*
X93307148Y-48290058D01*
X93885000Y-48405000D01*
X94500000Y-48405000D01*
X94500000Y-48609250D01*
X94658750Y-48768000D01*
X95758000Y-48768000D01*
X95758000Y-48748000D01*
X96012000Y-48748000D01*
X96012000Y-48768000D01*
X97111250Y-48768000D01*
X97270000Y-48609250D01*
X97270000Y-48018691D01*
X97173327Y-47785302D01*
X97150209Y-47762184D01*
X97280058Y-47567852D01*
X97395000Y-46990000D01*
X97395000Y-46895000D01*
X97280058Y-46317148D01*
X96952731Y-45827269D01*
X96928032Y-45810766D01*
X97058461Y-45680564D01*
X97269759Y-45171702D01*
X97270240Y-44620715D01*
X97059831Y-44111485D01*
X96670564Y-43721539D01*
X96645000Y-43710924D01*
X96645000Y-42224802D01*
X98327401Y-40542401D01*
X98492148Y-40295839D01*
X98550000Y-40005000D01*
X98550000Y-33655000D01*
X98492148Y-33364161D01*
X98327401Y-33117599D01*
X98080839Y-32952852D01*
X97832440Y-32903442D01*
X97832440Y-32020000D01*
X97788162Y-31784683D01*
X97649090Y-31568559D01*
X97436890Y-31423569D01*
X97185000Y-31372560D01*
X94585000Y-31372560D01*
X94349683Y-31416838D01*
X94133559Y-31555910D01*
X93988569Y-31768110D01*
X93937560Y-32020000D01*
X93937560Y-34020000D01*
X93981838Y-34255317D01*
X94120910Y-34471441D01*
X94275329Y-34576951D01*
X94036548Y-34934313D01*
X93912091Y-35560000D01*
X94036548Y-36185687D01*
X94390971Y-36716120D01*
X94581188Y-36843219D01*
X94339078Y-37033683D01*
X94025856Y-37591645D01*
X93994876Y-37719566D01*
X94114223Y-37973000D01*
X95758000Y-37973000D01*
X95758000Y-37953000D01*
X96012000Y-37953000D01*
X96012000Y-37973000D01*
X96032000Y-37973000D01*
X96032000Y-38227000D01*
X96012000Y-38227000D01*
X96012000Y-39735000D01*
X96312000Y-39735000D01*
X96928020Y-39561942D01*
X97030000Y-39481716D01*
X97030000Y-39690198D01*
X95347599Y-41372599D01*
X95182852Y-41619161D01*
X95125000Y-41910000D01*
X95125000Y-43710453D01*
X95101485Y-43720169D01*
X94711539Y-44109436D01*
X94500241Y-44618298D01*
X94499760Y-45169285D01*
X94588891Y-45385000D01*
X94510463Y-45385000D01*
X91680000Y-42554538D01*
X91680000Y-38480434D01*
X93994876Y-38480434D01*
X94025856Y-38608355D01*
X94339078Y-39166317D01*
X94841980Y-39561942D01*
X95458000Y-39735000D01*
X95758000Y-39735000D01*
X95758000Y-38227000D01*
X94114223Y-38227000D01*
X93994876Y-38480434D01*
X91680000Y-38480434D01*
X91680000Y-31740462D01*
X95682731Y-27737731D01*
X96010058Y-27247852D01*
X96124999Y-26670000D01*
X96010058Y-26092148D01*
X95682731Y-25602269D01*
X95192852Y-25274942D01*
X94615000Y-25160001D01*
X94037148Y-25274942D01*
X93547269Y-25602269D01*
X89102269Y-30047269D01*
X88774942Y-30537148D01*
X88660000Y-31115000D01*
X72442245Y-31115000D01*
X72285327Y-30957808D01*
X71941799Y-30815162D01*
X71569833Y-30814838D01*
X71226057Y-30956883D01*
X71192882Y-30990000D01*
X70957440Y-30990000D01*
X70957440Y-30265000D01*
X70913162Y-30029683D01*
X70774090Y-29813559D01*
X70561890Y-29668569D01*
X70310000Y-29617560D01*
X68310000Y-29617560D01*
X68074683Y-29661838D01*
X67858559Y-29800910D01*
X67713569Y-30013110D01*
X67662560Y-30265000D01*
X66957440Y-30265000D01*
X66913162Y-30029683D01*
X66774090Y-29813559D01*
X66561890Y-29668569D01*
X66310000Y-29617560D01*
X64310000Y-29617560D01*
X64074683Y-29661838D01*
X63858559Y-29800910D01*
X63713569Y-30013110D01*
X63662560Y-30265000D01*
X60224250Y-30265000D01*
X60186250Y-30227000D01*
X58087000Y-30227000D01*
X57833000Y-30227000D01*
X55733750Y-30227000D01*
X55575000Y-30385750D01*
X51510000Y-30385750D01*
X51510000Y-25685750D01*
X52575000Y-25685750D01*
X52575000Y-27276310D01*
X52671673Y-27509699D01*
X52850302Y-27688327D01*
X53083691Y-27785000D01*
X54674250Y-27785000D01*
X54833000Y-27626250D01*
X54833000Y-25527000D01*
X55087000Y-25527000D01*
X55087000Y-27626250D01*
X55245750Y-27785000D01*
X55914696Y-27785000D01*
X55850302Y-27811673D01*
X55671673Y-27990301D01*
X55575000Y-28223690D01*
X55575000Y-29814250D01*
X55733750Y-29973000D01*
X57833000Y-29973000D01*
X57833000Y-27873750D01*
X58087000Y-27873750D01*
X58087000Y-29973000D01*
X60186250Y-29973000D01*
X60345000Y-29814250D01*
X60345000Y-28223690D01*
X60248327Y-27990301D01*
X60069698Y-27811673D01*
X60035337Y-27797440D01*
X62710000Y-27797440D01*
X62945317Y-27753162D01*
X63161441Y-27614090D01*
X63306431Y-27401890D01*
X63357440Y-27150000D01*
X63357440Y-23650000D01*
X63313162Y-23414683D01*
X63174090Y-23198559D01*
X62961890Y-23053569D01*
X62710000Y-23002560D01*
X59210000Y-23002560D01*
X58974683Y-23046838D01*
X58758559Y-23185910D01*
X58613569Y-23398110D01*
X58562560Y-23650000D01*
X58562560Y-27150000D01*
X58606838Y-27385317D01*
X58745910Y-27601441D01*
X58912109Y-27715000D01*
X58245750Y-27715000D01*
X58087000Y-27873750D01*
X57833000Y-27873750D01*
X57674250Y-27715000D01*
X57005304Y-27715000D01*
X57069698Y-27688327D01*
X57248327Y-27509699D01*
X57345000Y-27276310D01*
X57345000Y-25685750D01*
X57186250Y-25527000D01*
X55087000Y-25527000D01*
X54833000Y-25527000D01*
X52733750Y-25527000D01*
X52575000Y-25685750D01*
X51510000Y-25685750D01*
X51510000Y-23523690D01*
X52575000Y-23523690D01*
X52575000Y-25114250D01*
X52733750Y-25273000D01*
X54833000Y-25273000D01*
X54833000Y-23173750D01*
X55087000Y-23173750D01*
X55087000Y-25273000D01*
X57186250Y-25273000D01*
X57345000Y-25114250D01*
X57345000Y-23523690D01*
X57248327Y-23290301D01*
X57069698Y-23111673D01*
X56836309Y-23015000D01*
X55245750Y-23015000D01*
X55087000Y-23173750D01*
X54833000Y-23173750D01*
X54674250Y-23015000D01*
X53083691Y-23015000D01*
X52850302Y-23111673D01*
X52671673Y-23290301D01*
X52575000Y-23523690D01*
X51510000Y-23523690D01*
X51510000Y-19685000D01*
X64530000Y-19685000D01*
X64530000Y-26670000D01*
X64644942Y-27247852D01*
X64972269Y-27737731D01*
X65462148Y-28065058D01*
X66040000Y-28180000D01*
X66617852Y-28065058D01*
X67107731Y-27737731D01*
X67435058Y-27247852D01*
X67550000Y-26670000D01*
X67550000Y-20483328D01*
X67710317Y-20453162D01*
X67926441Y-20314090D01*
X68071431Y-20101890D01*
X68122440Y-19850000D01*
X68122440Y-19364510D01*
X68185000Y-19050000D01*
X68122440Y-18735490D01*
X68122440Y-18250000D01*
X68078162Y-18014683D01*
X67939090Y-17798559D01*
X67726890Y-17653569D01*
X67488799Y-17605354D01*
X67503139Y-17557745D01*
X66675000Y-16729605D01*
X65846861Y-17557745D01*
X65861145Y-17605167D01*
X65639683Y-17646838D01*
X65423559Y-17785910D01*
X65278569Y-17998110D01*
X65227560Y-18250000D01*
X65227560Y-18361978D01*
X64972269Y-18617269D01*
X64644942Y-19107148D01*
X64530000Y-19685000D01*
X51510000Y-19685000D01*
X51510000Y-16853599D01*
X51604699Y-16853599D01*
X51868281Y-17491515D01*
X52355918Y-17980004D01*
X52993373Y-18244699D01*
X53683599Y-18245301D01*
X54321515Y-17981719D01*
X54810004Y-17494082D01*
X55074699Y-16856627D01*
X55075155Y-16333223D01*
X65228035Y-16333223D01*
X65255222Y-16903454D01*
X65421136Y-17304005D01*
X65667255Y-17378139D01*
X66495395Y-16550000D01*
X66854605Y-16550000D01*
X67682745Y-17378139D01*
X67928864Y-17304005D01*
X68081268Y-16880000D01*
X72112560Y-16880000D01*
X72112560Y-18680000D01*
X72156838Y-18915317D01*
X72295910Y-19131441D01*
X72508110Y-19276431D01*
X72524344Y-19279719D01*
X72241845Y-19702509D01*
X72125000Y-20289928D01*
X72125000Y-20350072D01*
X72241845Y-20937491D01*
X72574591Y-21435481D01*
X72805845Y-21590000D01*
X72574591Y-21744519D01*
X72241845Y-22242509D01*
X72125000Y-22829928D01*
X72125000Y-22890072D01*
X72241845Y-23477491D01*
X72574591Y-23975481D01*
X73072581Y-24308227D01*
X73660000Y-24425072D01*
X74247419Y-24308227D01*
X74745409Y-23975481D01*
X75078155Y-23477491D01*
X75195000Y-22890072D01*
X75195000Y-22829928D01*
X75104178Y-22373337D01*
X75565000Y-22465000D01*
X79375000Y-22465000D01*
X79952852Y-22350058D01*
X80442731Y-22022731D01*
X80770058Y-21532852D01*
X80885000Y-20955000D01*
X80770058Y-20377148D01*
X80700653Y-20273275D01*
X87935000Y-20273275D01*
X87935000Y-20366725D01*
X88116547Y-21279425D01*
X88633550Y-22053175D01*
X89407300Y-22570178D01*
X90320000Y-22751725D01*
X91232700Y-22570178D01*
X92006450Y-22053175D01*
X92523453Y-21279425D01*
X92705000Y-20366725D01*
X92705000Y-20273275D01*
X92523453Y-19360575D01*
X92006450Y-18586825D01*
X91232700Y-18069822D01*
X90320000Y-17888275D01*
X89407300Y-18069822D01*
X88633550Y-18586825D01*
X88116547Y-19360575D01*
X87935000Y-20273275D01*
X80700653Y-20273275D01*
X80442731Y-19887269D01*
X79952852Y-19559942D01*
X79375000Y-19445000D01*
X76190462Y-19445000D01*
X75997731Y-19252269D01*
X75507852Y-18924942D01*
X75171391Y-18858016D01*
X75207440Y-18680000D01*
X75207440Y-16880000D01*
X75202473Y-16853599D01*
X96054699Y-16853599D01*
X96318281Y-17491515D01*
X96805918Y-17980004D01*
X97443373Y-18244699D01*
X98133599Y-18245301D01*
X98771515Y-17981719D01*
X99260004Y-17494082D01*
X99524699Y-16856627D01*
X99525301Y-16166401D01*
X99261719Y-15528485D01*
X98774082Y-15039996D01*
X98136627Y-14775301D01*
X97446401Y-14774699D01*
X96808485Y-15038281D01*
X96319996Y-15525918D01*
X96055301Y-16163373D01*
X96054699Y-16853599D01*
X75202473Y-16853599D01*
X75163162Y-16644683D01*
X75024090Y-16428559D01*
X74811890Y-16283569D01*
X74560000Y-16232560D01*
X72760000Y-16232560D01*
X72524683Y-16276838D01*
X72308559Y-16415910D01*
X72163569Y-16628110D01*
X72112560Y-16880000D01*
X68081268Y-16880000D01*
X68121965Y-16766777D01*
X68094778Y-16196546D01*
X67928864Y-15795995D01*
X67682745Y-15721861D01*
X66854605Y-16550000D01*
X66495395Y-16550000D01*
X65667255Y-15721861D01*
X65421136Y-15795995D01*
X65228035Y-16333223D01*
X55075155Y-16333223D01*
X55075301Y-16166401D01*
X54817409Y-15542255D01*
X65846861Y-15542255D01*
X66675000Y-16370395D01*
X67503139Y-15542255D01*
X67429005Y-15296136D01*
X66891777Y-15103035D01*
X66321546Y-15130222D01*
X65920995Y-15296136D01*
X65846861Y-15542255D01*
X54817409Y-15542255D01*
X54811719Y-15528485D01*
X54324082Y-15039996D01*
X53686627Y-14775301D01*
X52996401Y-14774699D01*
X52358485Y-15038281D01*
X51869996Y-15525918D01*
X51605301Y-16163373D01*
X51604699Y-16853599D01*
X51510000Y-16853599D01*
X51510000Y-14680000D01*
X99620000Y-14680000D01*
X99620000Y-58980000D01*
X99620000Y-58980000D01*
G37*
X99620000Y-58980000D02*
X51510000Y-58980000D01*
X51510000Y-57493599D01*
X51604699Y-57493599D01*
X51868281Y-58131515D01*
X52355918Y-58620004D01*
X52993373Y-58884699D01*
X53683599Y-58885301D01*
X54321515Y-58621719D01*
X54810004Y-58134082D01*
X55074699Y-57496627D01*
X55075301Y-56806401D01*
X54811719Y-56168485D01*
X54324082Y-55679996D01*
X53686627Y-55415301D01*
X52996401Y-55414699D01*
X52358485Y-55678281D01*
X51869996Y-56165918D01*
X51605301Y-56803373D01*
X51604699Y-57493599D01*
X51510000Y-57493599D01*
X51510000Y-40640000D01*
X53095907Y-40640000D01*
X53208946Y-41208285D01*
X53530853Y-41690054D01*
X53860026Y-41910000D01*
X53530853Y-42129946D01*
X53208946Y-42611715D01*
X53095907Y-43180000D01*
X53208946Y-43748285D01*
X53530853Y-44230054D01*
X53860026Y-44450000D01*
X53530853Y-44669946D01*
X53208946Y-45151715D01*
X53095907Y-45720000D01*
X53208946Y-46288285D01*
X53530853Y-46770054D01*
X53860026Y-46990000D01*
X53530853Y-47209946D01*
X53208946Y-47691715D01*
X53095907Y-48260000D01*
X53208946Y-48828285D01*
X53530853Y-49310054D01*
X54012622Y-49631961D01*
X54580907Y-49745000D01*
X54639093Y-49745000D01*
X55207378Y-49631961D01*
X55689147Y-49310054D01*
X56011054Y-48828285D01*
X56087260Y-48445167D01*
X56214838Y-48445167D01*
X56356883Y-48788943D01*
X56619673Y-49052192D01*
X56963201Y-49194838D01*
X57335167Y-49195162D01*
X57678943Y-49053117D01*
X57942192Y-48790327D01*
X58084838Y-48446799D01*
X58084879Y-48399923D01*
X58322401Y-48162401D01*
X58487148Y-47915839D01*
X58545000Y-47625000D01*
X58545000Y-41589802D01*
X60004802Y-40130000D01*
X65239367Y-40130000D01*
X65105162Y-40453201D01*
X65104838Y-40825167D01*
X65246883Y-41168943D01*
X65509673Y-41432192D01*
X65853201Y-41574838D01*
X65900077Y-41574879D01*
X66550000Y-42224802D01*
X66550000Y-49215198D01*
X65705092Y-50060106D01*
X65705162Y-49979833D01*
X65563117Y-49636057D01*
X65300327Y-49372808D01*
X64956799Y-49230162D01*
X64584833Y-49229838D01*
X64241057Y-49371883D01*
X64207882Y-49405000D01*
X61522463Y-49405000D01*
X61490327Y-49372808D01*
X61146799Y-49230162D01*
X60774833Y-49229838D01*
X60431057Y-49371883D01*
X60167808Y-49634673D01*
X60025162Y-49978201D01*
X60024838Y-50350167D01*
X60166883Y-50693943D01*
X60429673Y-50957192D01*
X60773201Y-51099838D01*
X61145167Y-51100162D01*
X61488943Y-50958117D01*
X61522118Y-50925000D01*
X64207537Y-50925000D01*
X64239673Y-50957192D01*
X64583201Y-51099838D01*
X64665288Y-51099910D01*
X63832638Y-51932560D01*
X62740000Y-51932560D01*
X62504683Y-51976838D01*
X62288559Y-52115910D01*
X62143569Y-52328110D01*
X62106031Y-52513480D01*
X61751236Y-52158066D01*
X61238700Y-51945242D01*
X60683735Y-51944758D01*
X60170828Y-52156687D01*
X59778066Y-52548764D01*
X59690046Y-52760738D01*
X59603313Y-52550828D01*
X59211236Y-52158066D01*
X58698700Y-51945242D01*
X58143735Y-51944758D01*
X57630828Y-52156687D01*
X57238066Y-52548764D01*
X57025242Y-53061300D01*
X57024758Y-53616265D01*
X57236687Y-54129172D01*
X57628764Y-54521934D01*
X58141300Y-54734758D01*
X58696265Y-54735242D01*
X59209172Y-54523313D01*
X59601934Y-54131236D01*
X59689954Y-53919262D01*
X59776687Y-54129172D01*
X60168764Y-54521934D01*
X60681300Y-54734758D01*
X61236265Y-54735242D01*
X61749172Y-54523313D01*
X62105316Y-54167790D01*
X62136838Y-54335317D01*
X62275910Y-54551441D01*
X62488110Y-54696431D01*
X62740000Y-54747440D01*
X64260000Y-54747440D01*
X64495317Y-54703162D01*
X64711441Y-54564090D01*
X64856431Y-54351890D01*
X64893969Y-54166520D01*
X65248764Y-54521934D01*
X65761300Y-54734758D01*
X66316265Y-54735242D01*
X66829172Y-54523313D01*
X67221934Y-54131236D01*
X67309954Y-53919262D01*
X67396687Y-54129172D01*
X67788764Y-54521934D01*
X68301300Y-54734758D01*
X68856265Y-54735242D01*
X69369172Y-54523313D01*
X69725316Y-54167790D01*
X69756838Y-54335317D01*
X69895910Y-54551441D01*
X70108110Y-54696431D01*
X70360000Y-54747440D01*
X71452638Y-54747440D01*
X72487599Y-55782401D01*
X72734161Y-55947148D01*
X73025000Y-56005000D01*
X76362560Y-56005000D01*
X76362560Y-56095000D01*
X76406838Y-56330317D01*
X76545910Y-56546441D01*
X76758110Y-56691431D01*
X77010000Y-56742440D01*
X79010000Y-56742440D01*
X79245317Y-56698162D01*
X79461441Y-56559090D01*
X79606431Y-56346890D01*
X79657440Y-56095000D01*
X79657440Y-54395000D01*
X80362560Y-54395000D01*
X80362560Y-56095000D01*
X80406838Y-56330317D01*
X80545910Y-56546441D01*
X80758110Y-56691431D01*
X81010000Y-56742440D01*
X81702638Y-56742440D01*
X82884878Y-57924680D01*
X82884838Y-57970167D01*
X83026883Y-58313943D01*
X83289673Y-58577192D01*
X83633201Y-58719838D01*
X84005167Y-58720162D01*
X84348943Y-58578117D01*
X84612192Y-58315327D01*
X84754838Y-57971799D01*
X84755162Y-57599833D01*
X84711268Y-57493599D01*
X96054699Y-57493599D01*
X96318281Y-58131515D01*
X96805918Y-58620004D01*
X97443373Y-58884699D01*
X98133599Y-58885301D01*
X98771515Y-58621719D01*
X99260004Y-58134082D01*
X99524699Y-57496627D01*
X99525301Y-56806401D01*
X99261719Y-56168485D01*
X98774082Y-55679996D01*
X98136627Y-55415301D01*
X97446401Y-55414699D01*
X96808485Y-55678281D01*
X96319996Y-56165918D01*
X96055301Y-56803373D01*
X96054699Y-57493599D01*
X84711268Y-57493599D01*
X84613117Y-57256057D01*
X84350327Y-56992808D01*
X84006799Y-56850162D01*
X83959923Y-56850121D01*
X83545649Y-56435847D01*
X83606431Y-56346890D01*
X83657440Y-56095000D01*
X83657440Y-54395000D01*
X83613162Y-54159683D01*
X83474090Y-53943559D01*
X83261890Y-53798569D01*
X83010000Y-53747560D01*
X81010000Y-53747560D01*
X80774683Y-53791838D01*
X80558559Y-53930910D01*
X80413569Y-54143110D01*
X80362560Y-54395000D01*
X79657440Y-54395000D01*
X79613162Y-54159683D01*
X79474090Y-53943559D01*
X79261890Y-53798569D01*
X79010000Y-53747560D01*
X77010000Y-53747560D01*
X76774683Y-53791838D01*
X76558559Y-53930910D01*
X76413569Y-54143110D01*
X76362560Y-54395000D01*
X76362560Y-54485000D01*
X73339802Y-54485000D01*
X72527440Y-53672638D01*
X72527440Y-52580000D01*
X72483162Y-52344683D01*
X72344090Y-52128559D01*
X72131890Y-51983569D01*
X71880000Y-51932560D01*
X70360000Y-51932560D01*
X70124683Y-51976838D01*
X69908559Y-52115910D01*
X69763569Y-52328110D01*
X69726031Y-52513480D01*
X69371236Y-52158066D01*
X68858700Y-51945242D01*
X68303735Y-51944758D01*
X67790828Y-52156687D01*
X67398066Y-52548764D01*
X67310046Y-52760738D01*
X67223313Y-52550828D01*
X66831236Y-52158066D01*
X66318700Y-51945242D01*
X65969864Y-51944938D01*
X67329802Y-50585000D01*
X83982560Y-50585000D01*
X83982560Y-52285000D01*
X84026838Y-52520317D01*
X84165910Y-52736441D01*
X84378110Y-52881431D01*
X84630000Y-52932440D01*
X86630000Y-52932440D01*
X86865317Y-52888162D01*
X87081441Y-52749090D01*
X87226431Y-52536890D01*
X87277440Y-52285000D01*
X87277440Y-50585000D01*
X87233162Y-50349683D01*
X87094090Y-50133559D01*
X86937937Y-50026865D01*
X87134680Y-49830122D01*
X87180167Y-49830162D01*
X87523943Y-49688117D01*
X87787192Y-49425327D01*
X87929838Y-49081799D01*
X87929839Y-49080167D01*
X87964838Y-49080167D01*
X88106883Y-49423943D01*
X88369673Y-49687192D01*
X88713201Y-49829838D01*
X88760077Y-49829879D01*
X88775000Y-49844802D01*
X88775000Y-49937560D01*
X88630000Y-49937560D01*
X88394683Y-49981838D01*
X88178559Y-50120910D01*
X88033569Y-50333110D01*
X87982560Y-50585000D01*
X87982560Y-52285000D01*
X88026838Y-52520317D01*
X88165910Y-52736441D01*
X88378110Y-52881431D01*
X88630000Y-52932440D01*
X90630000Y-52932440D01*
X90865317Y-52888162D01*
X91081441Y-52749090D01*
X91226431Y-52536890D01*
X91277440Y-52285000D01*
X91277440Y-50585000D01*
X91233162Y-50349683D01*
X91094090Y-50133559D01*
X90881890Y-49988569D01*
X90630000Y-49937560D01*
X90295000Y-49937560D01*
X90295000Y-49530000D01*
X90237148Y-49239161D01*
X90198120Y-49180750D01*
X94500000Y-49180750D01*
X94500000Y-49771309D01*
X94596673Y-50004698D01*
X94775301Y-50183327D01*
X95008690Y-50280000D01*
X95599250Y-50280000D01*
X95758000Y-50121250D01*
X95758000Y-49022000D01*
X96012000Y-49022000D01*
X96012000Y-50121250D01*
X96170750Y-50280000D01*
X96761310Y-50280000D01*
X96994699Y-50183327D01*
X97173327Y-50004698D01*
X97270000Y-49771309D01*
X97270000Y-49180750D01*
X97111250Y-49022000D01*
X96012000Y-49022000D01*
X95758000Y-49022000D01*
X94658750Y-49022000D01*
X94500000Y-49180750D01*
X90198120Y-49180750D01*
X90072401Y-48992599D01*
X89835122Y-48755320D01*
X89835162Y-48709833D01*
X89693117Y-48366057D01*
X89430327Y-48102808D01*
X89086799Y-47960162D01*
X88714833Y-47959838D01*
X88371057Y-48101883D01*
X88107808Y-48364673D01*
X87965162Y-48708201D01*
X87964838Y-49080167D01*
X87929839Y-49080167D01*
X87930162Y-48709833D01*
X87788117Y-48366057D01*
X87525327Y-48102808D01*
X87181799Y-47960162D01*
X86809833Y-47959838D01*
X86466057Y-48101883D01*
X86202808Y-48364673D01*
X86060162Y-48708201D01*
X86060121Y-48755077D01*
X85187599Y-49627599D01*
X85022852Y-49874161D01*
X85010241Y-49937560D01*
X84630000Y-49937560D01*
X84394683Y-49981838D01*
X84178559Y-50120910D01*
X84033569Y-50333110D01*
X83982560Y-50585000D01*
X67329802Y-50585000D01*
X67847401Y-50067401D01*
X68012148Y-49820839D01*
X68070000Y-49530000D01*
X68070000Y-41910000D01*
X68032843Y-41723201D01*
X68012148Y-41619160D01*
X67847401Y-41372599D01*
X66975122Y-40500320D01*
X66975162Y-40454833D01*
X66840944Y-40130000D01*
X70319367Y-40130000D01*
X70185162Y-40453201D01*
X70184838Y-40825167D01*
X70326883Y-41168943D01*
X70589673Y-41432192D01*
X70933201Y-41574838D01*
X70980077Y-41574879D01*
X76710000Y-47304802D01*
X76710000Y-47697537D01*
X76677808Y-47729673D01*
X76535162Y-48073201D01*
X76534838Y-48445167D01*
X76604432Y-48613597D01*
X76306057Y-48736883D01*
X76042808Y-48999673D01*
X75900162Y-49343201D01*
X75899838Y-49715167D01*
X76041883Y-50058943D01*
X76304673Y-50322192D01*
X76648201Y-50464838D01*
X77020167Y-50465162D01*
X77363943Y-50323117D01*
X77627192Y-50060327D01*
X77634923Y-50041709D01*
X82181853Y-48336610D01*
X82192988Y-48329704D01*
X82205839Y-48327148D01*
X82318616Y-48251793D01*
X82433861Y-48180321D01*
X82441504Y-48169682D01*
X82452401Y-48162401D01*
X82527757Y-48049623D01*
X82606878Y-47939490D01*
X82609869Y-47926733D01*
X82617148Y-47915839D01*
X82643608Y-47782816D01*
X82674562Y-47650781D01*
X82672443Y-47637852D01*
X82675000Y-47625000D01*
X82675000Y-45385110D01*
X82735167Y-45385162D01*
X83078943Y-45243117D01*
X83342192Y-44980327D01*
X83484838Y-44636799D01*
X83485150Y-44279113D01*
X83864765Y-43519882D01*
X83871978Y-43493543D01*
X83887148Y-43470839D01*
X83910913Y-43351363D01*
X83943087Y-43233876D01*
X83939672Y-43206786D01*
X83945000Y-43180000D01*
X83945000Y-43107463D01*
X83977192Y-43075327D01*
X84119838Y-42731799D01*
X84120162Y-42359833D01*
X83978117Y-42016057D01*
X83715327Y-41752808D01*
X83371799Y-41610162D01*
X82999833Y-41609838D01*
X82831403Y-41679432D01*
X82708117Y-41381057D01*
X82445327Y-41117808D01*
X82101799Y-40975162D01*
X81729833Y-40974838D01*
X81386057Y-41116883D01*
X81122808Y-41379673D01*
X80980162Y-41723201D01*
X80979838Y-42095167D01*
X81121883Y-42438943D01*
X81155000Y-42472118D01*
X81155000Y-47098320D01*
X78405114Y-48129527D01*
X78405162Y-48074833D01*
X78263117Y-47731057D01*
X78230000Y-47697882D01*
X78230000Y-46990000D01*
X78172148Y-46699161D01*
X78007401Y-46452599D01*
X72055122Y-40500320D01*
X72055162Y-40454833D01*
X71920944Y-40130000D01*
X74615198Y-40130000D01*
X77169878Y-42684680D01*
X77169838Y-42730167D01*
X77311883Y-43073943D01*
X77574673Y-43337192D01*
X77918201Y-43479838D01*
X78290167Y-43480162D01*
X78633943Y-43338117D01*
X78897192Y-43075327D01*
X79039838Y-42731799D01*
X79040162Y-42359833D01*
X78898117Y-42016057D01*
X78635327Y-41752808D01*
X78291799Y-41610162D01*
X78244923Y-41610121D01*
X75467401Y-38832599D01*
X75220839Y-38667852D01*
X74930000Y-38610000D01*
X59690000Y-38610000D01*
X59399161Y-38667852D01*
X59152599Y-38832599D01*
X57247599Y-40737599D01*
X57082852Y-40984161D01*
X57025000Y-41275000D01*
X57025000Y-47310198D01*
X57010320Y-47324878D01*
X56964833Y-47324838D01*
X56621057Y-47466883D01*
X56357808Y-47729673D01*
X56215162Y-48073201D01*
X56214838Y-48445167D01*
X56087260Y-48445167D01*
X56124093Y-48260000D01*
X56011054Y-47691715D01*
X55689147Y-47209946D01*
X55359974Y-46990000D01*
X55689147Y-46770054D01*
X56011054Y-46288285D01*
X56124093Y-45720000D01*
X56011054Y-45151715D01*
X55689147Y-44669946D01*
X55359974Y-44450000D01*
X55689147Y-44230054D01*
X56011054Y-43748285D01*
X56124093Y-43180000D01*
X56011054Y-42611715D01*
X55689147Y-42129946D01*
X55359974Y-41910000D01*
X55689147Y-41690054D01*
X56011054Y-41208285D01*
X56124093Y-40640000D01*
X56011054Y-40071715D01*
X55689147Y-39589946D01*
X55645223Y-39560597D01*
X55819698Y-39488327D01*
X55998327Y-39309699D01*
X56095000Y-39076310D01*
X56095000Y-38385750D01*
X55936250Y-38227000D01*
X54737000Y-38227000D01*
X54737000Y-38247000D01*
X54483000Y-38247000D01*
X54483000Y-38227000D01*
X53283750Y-38227000D01*
X53125000Y-38385750D01*
X53125000Y-39076310D01*
X53221673Y-39309699D01*
X53400302Y-39488327D01*
X53574777Y-39560597D01*
X53530853Y-39589946D01*
X53208946Y-40071715D01*
X53095907Y-40640000D01*
X51510000Y-40640000D01*
X51510000Y-37123690D01*
X53125000Y-37123690D01*
X53125000Y-37814250D01*
X53283750Y-37973000D01*
X54483000Y-37973000D01*
X54483000Y-36773750D01*
X54737000Y-36773750D01*
X54737000Y-37973000D01*
X55936250Y-37973000D01*
X56095000Y-37814250D01*
X56095000Y-37123690D01*
X55998327Y-36890301D01*
X55819698Y-36711673D01*
X55586309Y-36615000D01*
X54895750Y-36615000D01*
X54737000Y-36773750D01*
X54483000Y-36773750D01*
X54324250Y-36615000D01*
X53633691Y-36615000D01*
X53400302Y-36711673D01*
X53221673Y-36890301D01*
X53125000Y-37123690D01*
X51510000Y-37123690D01*
X51510000Y-30385750D01*
X55575000Y-30385750D01*
X55575000Y-31976310D01*
X55671673Y-32209699D01*
X55850302Y-32388327D01*
X56083691Y-32485000D01*
X57674250Y-32485000D01*
X57833000Y-32326250D01*
X57833000Y-30227000D01*
X58087000Y-30227000D01*
X58087000Y-32326250D01*
X58245750Y-32485000D01*
X59836309Y-32485000D01*
X60069698Y-32388327D01*
X60248327Y-32209699D01*
X60345000Y-31976310D01*
X60345000Y-30385750D01*
X60224250Y-30265000D01*
X63662560Y-30265000D01*
X63662560Y-31965000D01*
X63706838Y-32200317D01*
X63845910Y-32416441D01*
X64058110Y-32561431D01*
X64310000Y-32612440D01*
X64645000Y-32612440D01*
X64645000Y-35332560D01*
X64310000Y-35332560D01*
X64074683Y-35376838D01*
X63858559Y-35515910D01*
X63713569Y-35728110D01*
X63662560Y-35980000D01*
X63662560Y-37680000D01*
X63706838Y-37915317D01*
X63845910Y-38131441D01*
X64058110Y-38276431D01*
X64310000Y-38327440D01*
X66310000Y-38327440D01*
X66545317Y-38283162D01*
X66761441Y-38144090D01*
X66906431Y-37931890D01*
X66957440Y-37680000D01*
X66957440Y-37115750D01*
X67675000Y-37115750D01*
X67675000Y-37806310D01*
X67771673Y-38039699D01*
X67950302Y-38218327D01*
X68183691Y-38315000D01*
X69024250Y-38315000D01*
X69183000Y-38156250D01*
X69183000Y-36957000D01*
X69437000Y-36957000D01*
X69437000Y-38156250D01*
X69595750Y-38315000D01*
X70436309Y-38315000D01*
X70669698Y-38218327D01*
X70848327Y-38039699D01*
X70945000Y-37806310D01*
X70945000Y-37115750D01*
X70786250Y-36957000D01*
X69437000Y-36957000D01*
X69183000Y-36957000D01*
X67833750Y-36957000D01*
X67675000Y-37115750D01*
X66957440Y-37115750D01*
X66957440Y-35980000D01*
X66933674Y-35853690D01*
X67675000Y-35853690D01*
X67675000Y-36544250D01*
X67833750Y-36703000D01*
X69183000Y-36703000D01*
X69183000Y-35503750D01*
X69437000Y-35503750D01*
X69437000Y-36703000D01*
X70786250Y-36703000D01*
X70945000Y-36544250D01*
X70945000Y-35853690D01*
X70848327Y-35620301D01*
X70669698Y-35441673D01*
X70436309Y-35345000D01*
X69595750Y-35345000D01*
X69437000Y-35503750D01*
X69183000Y-35503750D01*
X69024250Y-35345000D01*
X68183691Y-35345000D01*
X67950302Y-35441673D01*
X67771673Y-35620301D01*
X67675000Y-35853690D01*
X66933674Y-35853690D01*
X66913162Y-35744683D01*
X66774090Y-35528559D01*
X66561890Y-35383569D01*
X66310000Y-35332560D01*
X66165000Y-35332560D01*
X66165000Y-32612440D01*
X66310000Y-32612440D01*
X66545317Y-32568162D01*
X66761441Y-32429090D01*
X66906431Y-32216890D01*
X66957440Y-31965000D01*
X66957440Y-30265000D01*
X67662560Y-30265000D01*
X67662560Y-31965000D01*
X67706838Y-32200317D01*
X67845910Y-32416441D01*
X68058110Y-32561431D01*
X68310000Y-32612440D01*
X70310000Y-32612440D01*
X70545317Y-32568162D01*
X70635703Y-32510000D01*
X71192537Y-32510000D01*
X71224673Y-32542192D01*
X71568201Y-32684838D01*
X71940167Y-32685162D01*
X72283943Y-32543117D01*
X72547192Y-32280327D01*
X72689838Y-31936799D01*
X72690162Y-31564833D01*
X72548117Y-31221057D01*
X72442245Y-31115000D01*
X88660000Y-31115000D01*
X88660000Y-43180000D01*
X88774942Y-43757852D01*
X89102269Y-44247731D01*
X92817268Y-47962731D01*
X93116096Y-48162401D01*
X93307148Y-48290058D01*
X93885000Y-48405000D01*
X94500000Y-48405000D01*
X94500000Y-48609250D01*
X94658750Y-48768000D01*
X95758000Y-48768000D01*
X95758000Y-48748000D01*
X96012000Y-48748000D01*
X96012000Y-48768000D01*
X97111250Y-48768000D01*
X97270000Y-48609250D01*
X97270000Y-48018691D01*
X97173327Y-47785302D01*
X97150209Y-47762184D01*
X97280058Y-47567852D01*
X97395000Y-46990000D01*
X97395000Y-46895000D01*
X97280058Y-46317148D01*
X96952731Y-45827269D01*
X96928032Y-45810766D01*
X97058461Y-45680564D01*
X97269759Y-45171702D01*
X97270240Y-44620715D01*
X97059831Y-44111485D01*
X96670564Y-43721539D01*
X96645000Y-43710924D01*
X96645000Y-42224802D01*
X98327401Y-40542401D01*
X98492148Y-40295839D01*
X98550000Y-40005000D01*
X98550000Y-33655000D01*
X98492148Y-33364161D01*
X98327401Y-33117599D01*
X98080839Y-32952852D01*
X97832440Y-32903442D01*
X97832440Y-32020000D01*
X97788162Y-31784683D01*
X97649090Y-31568559D01*
X97436890Y-31423569D01*
X97185000Y-31372560D01*
X94585000Y-31372560D01*
X94349683Y-31416838D01*
X94133559Y-31555910D01*
X93988569Y-31768110D01*
X93937560Y-32020000D01*
X93937560Y-34020000D01*
X93981838Y-34255317D01*
X94120910Y-34471441D01*
X94275329Y-34576951D01*
X94036548Y-34934313D01*
X93912091Y-35560000D01*
X94036548Y-36185687D01*
X94390971Y-36716120D01*
X94581188Y-36843219D01*
X94339078Y-37033683D01*
X94025856Y-37591645D01*
X93994876Y-37719566D01*
X94114223Y-37973000D01*
X95758000Y-37973000D01*
X95758000Y-37953000D01*
X96012000Y-37953000D01*
X96012000Y-37973000D01*
X96032000Y-37973000D01*
X96032000Y-38227000D01*
X96012000Y-38227000D01*
X96012000Y-39735000D01*
X96312000Y-39735000D01*
X96928020Y-39561942D01*
X97030000Y-39481716D01*
X97030000Y-39690198D01*
X95347599Y-41372599D01*
X95182852Y-41619161D01*
X95125000Y-41910000D01*
X95125000Y-43710453D01*
X95101485Y-43720169D01*
X94711539Y-44109436D01*
X94500241Y-44618298D01*
X94499760Y-45169285D01*
X94588891Y-45385000D01*
X94510463Y-45385000D01*
X91680000Y-42554538D01*
X91680000Y-38480434D01*
X93994876Y-38480434D01*
X94025856Y-38608355D01*
X94339078Y-39166317D01*
X94841980Y-39561942D01*
X95458000Y-39735000D01*
X95758000Y-39735000D01*
X95758000Y-38227000D01*
X94114223Y-38227000D01*
X93994876Y-38480434D01*
X91680000Y-38480434D01*
X91680000Y-31740462D01*
X95682731Y-27737731D01*
X96010058Y-27247852D01*
X96124999Y-26670000D01*
X96010058Y-26092148D01*
X95682731Y-25602269D01*
X95192852Y-25274942D01*
X94615000Y-25160001D01*
X94037148Y-25274942D01*
X93547269Y-25602269D01*
X89102269Y-30047269D01*
X88774942Y-30537148D01*
X88660000Y-31115000D01*
X72442245Y-31115000D01*
X72285327Y-30957808D01*
X71941799Y-30815162D01*
X71569833Y-30814838D01*
X71226057Y-30956883D01*
X71192882Y-30990000D01*
X70957440Y-30990000D01*
X70957440Y-30265000D01*
X70913162Y-30029683D01*
X70774090Y-29813559D01*
X70561890Y-29668569D01*
X70310000Y-29617560D01*
X68310000Y-29617560D01*
X68074683Y-29661838D01*
X67858559Y-29800910D01*
X67713569Y-30013110D01*
X67662560Y-30265000D01*
X66957440Y-30265000D01*
X66913162Y-30029683D01*
X66774090Y-29813559D01*
X66561890Y-29668569D01*
X66310000Y-29617560D01*
X64310000Y-29617560D01*
X64074683Y-29661838D01*
X63858559Y-29800910D01*
X63713569Y-30013110D01*
X63662560Y-30265000D01*
X60224250Y-30265000D01*
X60186250Y-30227000D01*
X58087000Y-30227000D01*
X57833000Y-30227000D01*
X55733750Y-30227000D01*
X55575000Y-30385750D01*
X51510000Y-30385750D01*
X51510000Y-25685750D01*
X52575000Y-25685750D01*
X52575000Y-27276310D01*
X52671673Y-27509699D01*
X52850302Y-27688327D01*
X53083691Y-27785000D01*
X54674250Y-27785000D01*
X54833000Y-27626250D01*
X54833000Y-25527000D01*
X55087000Y-25527000D01*
X55087000Y-27626250D01*
X55245750Y-27785000D01*
X55914696Y-27785000D01*
X55850302Y-27811673D01*
X55671673Y-27990301D01*
X55575000Y-28223690D01*
X55575000Y-29814250D01*
X55733750Y-29973000D01*
X57833000Y-29973000D01*
X57833000Y-27873750D01*
X58087000Y-27873750D01*
X58087000Y-29973000D01*
X60186250Y-29973000D01*
X60345000Y-29814250D01*
X60345000Y-28223690D01*
X60248327Y-27990301D01*
X60069698Y-27811673D01*
X60035337Y-27797440D01*
X62710000Y-27797440D01*
X62945317Y-27753162D01*
X63161441Y-27614090D01*
X63306431Y-27401890D01*
X63357440Y-27150000D01*
X63357440Y-23650000D01*
X63313162Y-23414683D01*
X63174090Y-23198559D01*
X62961890Y-23053569D01*
X62710000Y-23002560D01*
X59210000Y-23002560D01*
X58974683Y-23046838D01*
X58758559Y-23185910D01*
X58613569Y-23398110D01*
X58562560Y-23650000D01*
X58562560Y-27150000D01*
X58606838Y-27385317D01*
X58745910Y-27601441D01*
X58912109Y-27715000D01*
X58245750Y-27715000D01*
X58087000Y-27873750D01*
X57833000Y-27873750D01*
X57674250Y-27715000D01*
X57005304Y-27715000D01*
X57069698Y-27688327D01*
X57248327Y-27509699D01*
X57345000Y-27276310D01*
X57345000Y-25685750D01*
X57186250Y-25527000D01*
X55087000Y-25527000D01*
X54833000Y-25527000D01*
X52733750Y-25527000D01*
X52575000Y-25685750D01*
X51510000Y-25685750D01*
X51510000Y-23523690D01*
X52575000Y-23523690D01*
X52575000Y-25114250D01*
X52733750Y-25273000D01*
X54833000Y-25273000D01*
X54833000Y-23173750D01*
X55087000Y-23173750D01*
X55087000Y-25273000D01*
X57186250Y-25273000D01*
X57345000Y-25114250D01*
X57345000Y-23523690D01*
X57248327Y-23290301D01*
X57069698Y-23111673D01*
X56836309Y-23015000D01*
X55245750Y-23015000D01*
X55087000Y-23173750D01*
X54833000Y-23173750D01*
X54674250Y-23015000D01*
X53083691Y-23015000D01*
X52850302Y-23111673D01*
X52671673Y-23290301D01*
X52575000Y-23523690D01*
X51510000Y-23523690D01*
X51510000Y-19685000D01*
X64530000Y-19685000D01*
X64530000Y-26670000D01*
X64644942Y-27247852D01*
X64972269Y-27737731D01*
X65462148Y-28065058D01*
X66040000Y-28180000D01*
X66617852Y-28065058D01*
X67107731Y-27737731D01*
X67435058Y-27247852D01*
X67550000Y-26670000D01*
X67550000Y-20483328D01*
X67710317Y-20453162D01*
X67926441Y-20314090D01*
X68071431Y-20101890D01*
X68122440Y-19850000D01*
X68122440Y-19364510D01*
X68185000Y-19050000D01*
X68122440Y-18735490D01*
X68122440Y-18250000D01*
X68078162Y-18014683D01*
X67939090Y-17798559D01*
X67726890Y-17653569D01*
X67488799Y-17605354D01*
X67503139Y-17557745D01*
X66675000Y-16729605D01*
X65846861Y-17557745D01*
X65861145Y-17605167D01*
X65639683Y-17646838D01*
X65423559Y-17785910D01*
X65278569Y-17998110D01*
X65227560Y-18250000D01*
X65227560Y-18361978D01*
X64972269Y-18617269D01*
X64644942Y-19107148D01*
X64530000Y-19685000D01*
X51510000Y-19685000D01*
X51510000Y-16853599D01*
X51604699Y-16853599D01*
X51868281Y-17491515D01*
X52355918Y-17980004D01*
X52993373Y-18244699D01*
X53683599Y-18245301D01*
X54321515Y-17981719D01*
X54810004Y-17494082D01*
X55074699Y-16856627D01*
X55075155Y-16333223D01*
X65228035Y-16333223D01*
X65255222Y-16903454D01*
X65421136Y-17304005D01*
X65667255Y-17378139D01*
X66495395Y-16550000D01*
X66854605Y-16550000D01*
X67682745Y-17378139D01*
X67928864Y-17304005D01*
X68081268Y-16880000D01*
X72112560Y-16880000D01*
X72112560Y-18680000D01*
X72156838Y-18915317D01*
X72295910Y-19131441D01*
X72508110Y-19276431D01*
X72524344Y-19279719D01*
X72241845Y-19702509D01*
X72125000Y-20289928D01*
X72125000Y-20350072D01*
X72241845Y-20937491D01*
X72574591Y-21435481D01*
X72805845Y-21590000D01*
X72574591Y-21744519D01*
X72241845Y-22242509D01*
X72125000Y-22829928D01*
X72125000Y-22890072D01*
X72241845Y-23477491D01*
X72574591Y-23975481D01*
X73072581Y-24308227D01*
X73660000Y-24425072D01*
X74247419Y-24308227D01*
X74745409Y-23975481D01*
X75078155Y-23477491D01*
X75195000Y-22890072D01*
X75195000Y-22829928D01*
X75104178Y-22373337D01*
X75565000Y-22465000D01*
X79375000Y-22465000D01*
X79952852Y-22350058D01*
X80442731Y-22022731D01*
X80770058Y-21532852D01*
X80885000Y-20955000D01*
X80770058Y-20377148D01*
X80700653Y-20273275D01*
X87935000Y-20273275D01*
X87935000Y-20366725D01*
X88116547Y-21279425D01*
X88633550Y-22053175D01*
X89407300Y-22570178D01*
X90320000Y-22751725D01*
X91232700Y-22570178D01*
X92006450Y-22053175D01*
X92523453Y-21279425D01*
X92705000Y-20366725D01*
X92705000Y-20273275D01*
X92523453Y-19360575D01*
X92006450Y-18586825D01*
X91232700Y-18069822D01*
X90320000Y-17888275D01*
X89407300Y-18069822D01*
X88633550Y-18586825D01*
X88116547Y-19360575D01*
X87935000Y-20273275D01*
X80700653Y-20273275D01*
X80442731Y-19887269D01*
X79952852Y-19559942D01*
X79375000Y-19445000D01*
X76190462Y-19445000D01*
X75997731Y-19252269D01*
X75507852Y-18924942D01*
X75171391Y-18858016D01*
X75207440Y-18680000D01*
X75207440Y-16880000D01*
X75202473Y-16853599D01*
X96054699Y-16853599D01*
X96318281Y-17491515D01*
X96805918Y-17980004D01*
X97443373Y-18244699D01*
X98133599Y-18245301D01*
X98771515Y-17981719D01*
X99260004Y-17494082D01*
X99524699Y-16856627D01*
X99525301Y-16166401D01*
X99261719Y-15528485D01*
X98774082Y-15039996D01*
X98136627Y-14775301D01*
X97446401Y-14774699D01*
X96808485Y-15038281D01*
X96319996Y-15525918D01*
X96055301Y-16163373D01*
X96054699Y-16853599D01*
X75202473Y-16853599D01*
X75163162Y-16644683D01*
X75024090Y-16428559D01*
X74811890Y-16283569D01*
X74560000Y-16232560D01*
X72760000Y-16232560D01*
X72524683Y-16276838D01*
X72308559Y-16415910D01*
X72163569Y-16628110D01*
X72112560Y-16880000D01*
X68081268Y-16880000D01*
X68121965Y-16766777D01*
X68094778Y-16196546D01*
X67928864Y-15795995D01*
X67682745Y-15721861D01*
X66854605Y-16550000D01*
X66495395Y-16550000D01*
X65667255Y-15721861D01*
X65421136Y-15795995D01*
X65228035Y-16333223D01*
X55075155Y-16333223D01*
X55075301Y-16166401D01*
X54817409Y-15542255D01*
X65846861Y-15542255D01*
X66675000Y-16370395D01*
X67503139Y-15542255D01*
X67429005Y-15296136D01*
X66891777Y-15103035D01*
X66321546Y-15130222D01*
X65920995Y-15296136D01*
X65846861Y-15542255D01*
X54817409Y-15542255D01*
X54811719Y-15528485D01*
X54324082Y-15039996D01*
X53686627Y-14775301D01*
X52996401Y-14774699D01*
X52358485Y-15038281D01*
X51869996Y-15525918D01*
X51605301Y-16163373D01*
X51604699Y-16853599D01*
X51510000Y-16853599D01*
X51510000Y-14680000D01*
X99620000Y-14680000D01*
X99620000Y-58980000D01*
M02*
