G04 #@! TF.FileFunction,Legend,Top*
%FSLAX46Y46*%
G04 Gerber Fmt 4.6, Leading zero omitted, Abs format (unit mm)*
G04 Created by KiCad (PCBNEW 4.0.7) date Sunday, June 10, 2018 'PMt' 01:36:30 PM*
%MOMM*%
%LPD*%
G01*
G04 APERTURE LIST*
%ADD10C,0.100000*%
%ADD11C,0.300000*%
%ADD12C,0.150000*%
%ADD13C,0.120000*%
%ADD14C,0.010000*%
G04 APERTURE END LIST*
D10*
D11*
X87555001Y-55058571D02*
X88055001Y-56558571D01*
X88555001Y-55058571D01*
X89626429Y-56487143D02*
X89483572Y-56558571D01*
X89197858Y-56558571D01*
X89055001Y-56487143D01*
X88983572Y-56344286D01*
X88983572Y-55772857D01*
X89055001Y-55630000D01*
X89197858Y-55558571D01*
X89483572Y-55558571D01*
X89626429Y-55630000D01*
X89697858Y-55772857D01*
X89697858Y-55915714D01*
X88983572Y-56058571D01*
X90340715Y-56558571D02*
X90340715Y-55558571D01*
X90340715Y-55844286D02*
X90412143Y-55701429D01*
X90483572Y-55630000D01*
X90626429Y-55558571D01*
X90769286Y-55558571D01*
X91269286Y-56415714D02*
X91340714Y-56487143D01*
X91269286Y-56558571D01*
X91197857Y-56487143D01*
X91269286Y-56415714D01*
X91269286Y-56558571D01*
X93769286Y-55558571D02*
X93769286Y-56558571D01*
X93412143Y-54987143D02*
X93055000Y-56058571D01*
X93983572Y-56058571D01*
D12*
X51943096Y-43950000D02*
X51847858Y-43902381D01*
X51705001Y-43902381D01*
X51562143Y-43950000D01*
X51466905Y-44045238D01*
X51419286Y-44140476D01*
X51371667Y-44330952D01*
X51371667Y-44473810D01*
X51419286Y-44664286D01*
X51466905Y-44759524D01*
X51562143Y-44854762D01*
X51705001Y-44902381D01*
X51800239Y-44902381D01*
X51943096Y-44854762D01*
X51990715Y-44807143D01*
X51990715Y-44473810D01*
X51800239Y-44473810D01*
X52419286Y-44902381D02*
X52419286Y-43902381D01*
X52990715Y-44902381D01*
X52990715Y-43902381D01*
X53466905Y-44902381D02*
X53466905Y-43902381D01*
X53705000Y-43902381D01*
X53847858Y-43950000D01*
X53943096Y-44045238D01*
X53990715Y-44140476D01*
X54038334Y-44330952D01*
X54038334Y-44473810D01*
X53990715Y-44664286D01*
X53943096Y-44759524D01*
X53847858Y-44854762D01*
X53705000Y-44902381D01*
X53466905Y-44902381D01*
X51562143Y-52522381D02*
X51562143Y-51522381D01*
X51800238Y-51522381D01*
X51943096Y-51570000D01*
X52038334Y-51665238D01*
X52085953Y-51760476D01*
X52133572Y-51950952D01*
X52133572Y-52093810D01*
X52085953Y-52284286D01*
X52038334Y-52379524D01*
X51943096Y-52474762D01*
X51800238Y-52522381D01*
X51562143Y-52522381D01*
X52419286Y-51522381D02*
X52990715Y-51522381D01*
X52705000Y-52522381D02*
X52705000Y-51522381D01*
X53895477Y-52522381D02*
X53562143Y-52046190D01*
X53324048Y-52522381D02*
X53324048Y-51522381D01*
X53705001Y-51522381D01*
X53800239Y-51570000D01*
X53847858Y-51617619D01*
X53895477Y-51712857D01*
X53895477Y-51855714D01*
X53847858Y-51950952D01*
X53800239Y-51998571D01*
X53705001Y-52046190D01*
X53324048Y-52046190D01*
X52014524Y-49982381D02*
X51681190Y-49506190D01*
X51443095Y-49982381D02*
X51443095Y-48982381D01*
X51824048Y-48982381D01*
X51919286Y-49030000D01*
X51966905Y-49077619D01*
X52014524Y-49172857D01*
X52014524Y-49315714D01*
X51966905Y-49410952D01*
X51919286Y-49458571D01*
X51824048Y-49506190D01*
X51443095Y-49506190D01*
X52347857Y-48982381D02*
X53014524Y-49982381D01*
X53014524Y-48982381D02*
X52347857Y-49982381D01*
X53585952Y-48982381D02*
X53776429Y-48982381D01*
X53871667Y-49030000D01*
X53966905Y-49125238D01*
X54014524Y-49315714D01*
X54014524Y-49649048D01*
X53966905Y-49839524D01*
X53871667Y-49934762D01*
X53776429Y-49982381D01*
X53585952Y-49982381D01*
X53490714Y-49934762D01*
X53395476Y-49839524D01*
X53347857Y-49649048D01*
X53347857Y-49315714D01*
X53395476Y-49125238D01*
X53490714Y-49030000D01*
X53585952Y-48982381D01*
X51705000Y-46442381D02*
X52276429Y-46442381D01*
X51990714Y-47442381D02*
X51990714Y-46442381D01*
X52514524Y-46442381D02*
X53181191Y-47442381D01*
X53181191Y-46442381D02*
X52514524Y-47442381D01*
X53562143Y-47442381D02*
X53562143Y-46442381D01*
D11*
X72070001Y-59098571D02*
X72070001Y-57598571D01*
X72927144Y-59098571D02*
X72284287Y-58241429D01*
X72927144Y-57598571D02*
X72070001Y-58455714D01*
X74141429Y-59027143D02*
X73998572Y-59098571D01*
X73712858Y-59098571D01*
X73570001Y-59027143D01*
X73498572Y-58884286D01*
X73498572Y-58312857D01*
X73570001Y-58170000D01*
X73712858Y-58098571D01*
X73998572Y-58098571D01*
X74141429Y-58170000D01*
X74212858Y-58312857D01*
X74212858Y-58455714D01*
X73498572Y-58598571D01*
X74712858Y-58098571D02*
X75070001Y-59098571D01*
X75427143Y-58098571D01*
X75998572Y-59098571D02*
X75998572Y-58098571D01*
X75998572Y-57598571D02*
X75927143Y-57670000D01*
X75998572Y-57741429D01*
X76070000Y-57670000D01*
X75998572Y-57598571D01*
X75998572Y-57741429D01*
X76712858Y-58098571D02*
X76712858Y-59098571D01*
X76712858Y-58241429D02*
X76784286Y-58170000D01*
X76927144Y-58098571D01*
X77141429Y-58098571D01*
X77284286Y-58170000D01*
X77355715Y-58312857D01*
X77355715Y-59098571D01*
X79070001Y-57598571D02*
X79427144Y-59098571D01*
X79712858Y-58027143D01*
X79998572Y-59098571D01*
X80355715Y-57598571D01*
X81570001Y-59098571D02*
X81570001Y-58312857D01*
X81498572Y-58170000D01*
X81355715Y-58098571D01*
X81070001Y-58098571D01*
X80927144Y-58170000D01*
X81570001Y-59027143D02*
X81427144Y-59098571D01*
X81070001Y-59098571D01*
X80927144Y-59027143D01*
X80855715Y-58884286D01*
X80855715Y-58741429D01*
X80927144Y-58598571D01*
X81070001Y-58527143D01*
X81427144Y-58527143D01*
X81570001Y-58455714D01*
X82498573Y-59098571D02*
X82355715Y-59027143D01*
X82284287Y-58884286D01*
X82284287Y-57598571D01*
X83712858Y-59027143D02*
X83570001Y-59098571D01*
X83284287Y-59098571D01*
X83141429Y-59027143D01*
X83070001Y-58955714D01*
X82998572Y-58812857D01*
X82998572Y-58384286D01*
X83070001Y-58241429D01*
X83141429Y-58170000D01*
X83284287Y-58098571D01*
X83570001Y-58098571D01*
X83712858Y-58170000D01*
X84355715Y-59098571D02*
X84355715Y-57598571D01*
X84998572Y-59098571D02*
X84998572Y-58312857D01*
X84927143Y-58170000D01*
X84784286Y-58098571D01*
X84570001Y-58098571D01*
X84427143Y-58170000D01*
X84355715Y-58241429D01*
X85712858Y-59098571D02*
X85712858Y-57598571D01*
X85855715Y-58527143D02*
X86284286Y-59098571D01*
X86284286Y-58098571D02*
X85712858Y-58670000D01*
X87141430Y-59098571D02*
X86998572Y-59027143D01*
X86927144Y-58955714D01*
X86855715Y-58812857D01*
X86855715Y-58384286D01*
X86927144Y-58241429D01*
X86998572Y-58170000D01*
X87141430Y-58098571D01*
X87355715Y-58098571D01*
X87498572Y-58170000D01*
X87570001Y-58241429D01*
X87641430Y-58384286D01*
X87641430Y-58812857D01*
X87570001Y-58955714D01*
X87498572Y-59027143D01*
X87355715Y-59098571D01*
X87141430Y-59098571D01*
X89355715Y-57741429D02*
X89427144Y-57670000D01*
X89570001Y-57598571D01*
X89927144Y-57598571D01*
X90070001Y-57670000D01*
X90141430Y-57741429D01*
X90212858Y-57884286D01*
X90212858Y-58027143D01*
X90141430Y-58241429D01*
X89284287Y-59098571D01*
X90212858Y-59098571D01*
X91141429Y-57598571D02*
X91284286Y-57598571D01*
X91427143Y-57670000D01*
X91498572Y-57741429D01*
X91570001Y-57884286D01*
X91641429Y-58170000D01*
X91641429Y-58527143D01*
X91570001Y-58812857D01*
X91498572Y-58955714D01*
X91427143Y-59027143D01*
X91284286Y-59098571D01*
X91141429Y-59098571D01*
X90998572Y-59027143D01*
X90927143Y-58955714D01*
X90855715Y-58812857D01*
X90784286Y-58527143D01*
X90784286Y-58170000D01*
X90855715Y-57884286D01*
X90927143Y-57741429D01*
X90998572Y-57670000D01*
X91141429Y-57598571D01*
X93070000Y-59098571D02*
X92212857Y-59098571D01*
X92641429Y-59098571D02*
X92641429Y-57598571D01*
X92498572Y-57812857D01*
X92355714Y-57955714D01*
X92212857Y-58027143D01*
X93927143Y-58241429D02*
X93784285Y-58170000D01*
X93712857Y-58098571D01*
X93641428Y-57955714D01*
X93641428Y-57884286D01*
X93712857Y-57741429D01*
X93784285Y-57670000D01*
X93927143Y-57598571D01*
X94212857Y-57598571D01*
X94355714Y-57670000D01*
X94427143Y-57741429D01*
X94498571Y-57884286D01*
X94498571Y-57955714D01*
X94427143Y-58098571D01*
X94355714Y-58170000D01*
X94212857Y-58241429D01*
X93927143Y-58241429D01*
X93784285Y-58312857D01*
X93712857Y-58384286D01*
X93641428Y-58527143D01*
X93641428Y-58812857D01*
X93712857Y-58955714D01*
X93784285Y-59027143D01*
X93927143Y-59098571D01*
X94212857Y-59098571D01*
X94355714Y-59027143D01*
X94427143Y-58955714D01*
X94498571Y-58812857D01*
X94498571Y-58527143D01*
X94427143Y-58384286D01*
X94355714Y-58312857D01*
X94212857Y-58241429D01*
D13*
X66425000Y-33385000D02*
X66425000Y-31385000D01*
X64385000Y-31385000D02*
X64385000Y-33385000D01*
X65495864Y-14782180D02*
G75*
G03X65495000Y-20817482I1179136J-3017820D01*
G01*
X67854136Y-14782180D02*
G75*
G02X67855000Y-20817482I-1179136J-3017820D01*
G01*
X67854136Y-14782180D02*
G75*
G03X65495000Y-14782518I-1179136J-3017820D01*
G01*
X63475000Y-17800000D02*
X69875000Y-17800000D01*
X63475000Y-17760000D02*
X69875000Y-17760000D01*
X63475000Y-17720000D02*
X69875000Y-17720000D01*
X63477000Y-17680000D02*
X69873000Y-17680000D01*
X63478000Y-17640000D02*
X69872000Y-17640000D01*
X63481000Y-17600000D02*
X69869000Y-17600000D01*
X63483000Y-17560000D02*
X69867000Y-17560000D01*
X63487000Y-17520000D02*
X65695000Y-17520000D01*
X67655000Y-17520000D02*
X69863000Y-17520000D01*
X63490000Y-17480000D02*
X65695000Y-17480000D01*
X67655000Y-17480000D02*
X69860000Y-17480000D01*
X63495000Y-17440000D02*
X65695000Y-17440000D01*
X67655000Y-17440000D02*
X69855000Y-17440000D01*
X63499000Y-17400000D02*
X65695000Y-17400000D01*
X67655000Y-17400000D02*
X69851000Y-17400000D01*
X63505000Y-17360000D02*
X65695000Y-17360000D01*
X67655000Y-17360000D02*
X69845000Y-17360000D01*
X63510000Y-17320000D02*
X65695000Y-17320000D01*
X67655000Y-17320000D02*
X69840000Y-17320000D01*
X63517000Y-17280000D02*
X65695000Y-17280000D01*
X67655000Y-17280000D02*
X69833000Y-17280000D01*
X63523000Y-17240000D02*
X65695000Y-17240000D01*
X67655000Y-17240000D02*
X69827000Y-17240000D01*
X63531000Y-17200000D02*
X65695000Y-17200000D01*
X67655000Y-17200000D02*
X69819000Y-17200000D01*
X63538000Y-17160000D02*
X65695000Y-17160000D01*
X67655000Y-17160000D02*
X69812000Y-17160000D01*
X63547000Y-17120000D02*
X65695000Y-17120000D01*
X67655000Y-17120000D02*
X69803000Y-17120000D01*
X63556000Y-17079000D02*
X65695000Y-17079000D01*
X67655000Y-17079000D02*
X69794000Y-17079000D01*
X63565000Y-17039000D02*
X65695000Y-17039000D01*
X67655000Y-17039000D02*
X69785000Y-17039000D01*
X63575000Y-16999000D02*
X65695000Y-16999000D01*
X67655000Y-16999000D02*
X69775000Y-16999000D01*
X63585000Y-16959000D02*
X65695000Y-16959000D01*
X67655000Y-16959000D02*
X69765000Y-16959000D01*
X63596000Y-16919000D02*
X65695000Y-16919000D01*
X67655000Y-16919000D02*
X69754000Y-16919000D01*
X63608000Y-16879000D02*
X65695000Y-16879000D01*
X67655000Y-16879000D02*
X69742000Y-16879000D01*
X63620000Y-16839000D02*
X65695000Y-16839000D01*
X67655000Y-16839000D02*
X69730000Y-16839000D01*
X63633000Y-16799000D02*
X65695000Y-16799000D01*
X67655000Y-16799000D02*
X69717000Y-16799000D01*
X63646000Y-16759000D02*
X65695000Y-16759000D01*
X67655000Y-16759000D02*
X69704000Y-16759000D01*
X63660000Y-16719000D02*
X65695000Y-16719000D01*
X67655000Y-16719000D02*
X69690000Y-16719000D01*
X63674000Y-16679000D02*
X65695000Y-16679000D01*
X67655000Y-16679000D02*
X69676000Y-16679000D01*
X63689000Y-16639000D02*
X65695000Y-16639000D01*
X67655000Y-16639000D02*
X69661000Y-16639000D01*
X63705000Y-16599000D02*
X65695000Y-16599000D01*
X67655000Y-16599000D02*
X69645000Y-16599000D01*
X63721000Y-16559000D02*
X65695000Y-16559000D01*
X67655000Y-16559000D02*
X69629000Y-16559000D01*
X63738000Y-16519000D02*
X65695000Y-16519000D01*
X67655000Y-16519000D02*
X69612000Y-16519000D01*
X63756000Y-16479000D02*
X65695000Y-16479000D01*
X67655000Y-16479000D02*
X69594000Y-16479000D01*
X63774000Y-16439000D02*
X65695000Y-16439000D01*
X67655000Y-16439000D02*
X69576000Y-16439000D01*
X63793000Y-16399000D02*
X65695000Y-16399000D01*
X67655000Y-16399000D02*
X69557000Y-16399000D01*
X63812000Y-16359000D02*
X65695000Y-16359000D01*
X67655000Y-16359000D02*
X69538000Y-16359000D01*
X63832000Y-16319000D02*
X65695000Y-16319000D01*
X67655000Y-16319000D02*
X69518000Y-16319000D01*
X63853000Y-16279000D02*
X65695000Y-16279000D01*
X67655000Y-16279000D02*
X69497000Y-16279000D01*
X63875000Y-16239000D02*
X65695000Y-16239000D01*
X67655000Y-16239000D02*
X69475000Y-16239000D01*
X63897000Y-16199000D02*
X65695000Y-16199000D01*
X67655000Y-16199000D02*
X69453000Y-16199000D01*
X63920000Y-16159000D02*
X65695000Y-16159000D01*
X67655000Y-16159000D02*
X69430000Y-16159000D01*
X63944000Y-16119000D02*
X65695000Y-16119000D01*
X67655000Y-16119000D02*
X69406000Y-16119000D01*
X63969000Y-16079000D02*
X65695000Y-16079000D01*
X67655000Y-16079000D02*
X69381000Y-16079000D01*
X63994000Y-16039000D02*
X65695000Y-16039000D01*
X67655000Y-16039000D02*
X69356000Y-16039000D01*
X64021000Y-15999000D02*
X65695000Y-15999000D01*
X67655000Y-15999000D02*
X69329000Y-15999000D01*
X64048000Y-15959000D02*
X65695000Y-15959000D01*
X67655000Y-15959000D02*
X69302000Y-15959000D01*
X64076000Y-15919000D02*
X65695000Y-15919000D01*
X67655000Y-15919000D02*
X69274000Y-15919000D01*
X64105000Y-15879000D02*
X65695000Y-15879000D01*
X67655000Y-15879000D02*
X69245000Y-15879000D01*
X64135000Y-15839000D02*
X65695000Y-15839000D01*
X67655000Y-15839000D02*
X69215000Y-15839000D01*
X64165000Y-15799000D02*
X65695000Y-15799000D01*
X67655000Y-15799000D02*
X69185000Y-15799000D01*
X64197000Y-15759000D02*
X65695000Y-15759000D01*
X67655000Y-15759000D02*
X69153000Y-15759000D01*
X64230000Y-15719000D02*
X65695000Y-15719000D01*
X67655000Y-15719000D02*
X69120000Y-15719000D01*
X64264000Y-15679000D02*
X65695000Y-15679000D01*
X67655000Y-15679000D02*
X69086000Y-15679000D01*
X64300000Y-15639000D02*
X65695000Y-15639000D01*
X67655000Y-15639000D02*
X69050000Y-15639000D01*
X64336000Y-15599000D02*
X65695000Y-15599000D01*
X67655000Y-15599000D02*
X69014000Y-15599000D01*
X64374000Y-15559000D02*
X68976000Y-15559000D01*
X64413000Y-15519000D02*
X68937000Y-15519000D01*
X64453000Y-15479000D02*
X68897000Y-15479000D01*
X64495000Y-15439000D02*
X68855000Y-15439000D01*
X64538000Y-15399000D02*
X68812000Y-15399000D01*
X64583000Y-15359000D02*
X68767000Y-15359000D01*
X64630000Y-15319000D02*
X68720000Y-15319000D01*
X64678000Y-15279000D02*
X68672000Y-15279000D01*
X64729000Y-15239000D02*
X68621000Y-15239000D01*
X64781000Y-15199000D02*
X68569000Y-15199000D01*
X64836000Y-15159000D02*
X68514000Y-15159000D01*
X64894000Y-15119000D02*
X68456000Y-15119000D01*
X64954000Y-15079000D02*
X68396000Y-15079000D01*
X65017000Y-15039000D02*
X68333000Y-15039000D01*
X65084000Y-14999000D02*
X68266000Y-14999000D01*
X65155000Y-14959000D02*
X68195000Y-14959000D01*
X65230000Y-14919000D02*
X68120000Y-14919000D01*
X65311000Y-14879000D02*
X68039000Y-14879000D01*
X65397000Y-14839000D02*
X67953000Y-14839000D01*
X65491000Y-14799000D02*
X67859000Y-14799000D01*
X65594000Y-14759000D02*
X67756000Y-14759000D01*
X65709000Y-14719000D02*
X67641000Y-14719000D01*
X65841000Y-14679000D02*
X67509000Y-14679000D01*
X65999000Y-14639000D02*
X67351000Y-14639000D01*
X66207000Y-14599000D02*
X67143000Y-14599000D01*
X66675000Y-21250000D02*
X66675000Y-20050000D01*
X66025000Y-20650000D02*
X67325000Y-20650000D01*
X70120000Y-39755000D02*
X72120000Y-39755000D01*
X72120000Y-37715000D02*
X70120000Y-37715000D01*
X59765000Y-37785000D02*
X59765000Y-39685000D01*
X59765000Y-39685000D02*
X64465000Y-39685000D01*
X59765000Y-37785000D02*
X64465000Y-37785000D01*
X55960000Y-30000000D02*
X47160000Y-30000000D01*
X47160000Y-30000000D02*
X47160000Y-20800000D01*
X61860000Y-27300000D02*
X61860000Y-30000000D01*
X61860000Y-30000000D02*
X59960000Y-30000000D01*
X47160000Y-20800000D02*
X61860000Y-20800000D01*
X61860000Y-20800000D02*
X61860000Y-23400000D01*
X53610000Y-37665000D02*
X55610000Y-37665000D01*
X55610000Y-39805000D02*
X53610000Y-39805000D01*
X76400000Y-47355000D02*
X76400000Y-45355000D01*
X78540000Y-45355000D02*
X78540000Y-47355000D01*
X71320000Y-47355000D02*
X71320000Y-45355000D01*
X73460000Y-45355000D02*
X73460000Y-47355000D01*
X77350000Y-15200000D02*
X77350000Y-25440000D01*
X93240000Y-15200000D02*
X93240000Y-25440000D01*
X93240000Y-15200000D02*
X77350000Y-15200000D01*
X93240000Y-25440000D02*
X77350000Y-25440000D01*
X77350000Y-17780000D02*
X74710000Y-17780000D01*
X77350000Y-20320000D02*
X74726000Y-20320000D01*
X77350000Y-22860000D02*
X74726000Y-22860000D01*
X94870000Y-40885000D02*
X98820000Y-40885000D01*
X98820000Y-40885000D02*
X98820000Y-32585000D01*
X98820000Y-32585000D02*
X94870000Y-32585000D01*
X94870000Y-32585000D02*
X94870000Y-40885000D01*
X94620000Y-38385000D02*
X94620000Y-41135000D01*
X94620000Y-41135000D02*
X97370000Y-41135000D01*
X97320000Y-40885000D02*
X97320000Y-40485000D01*
X97320000Y-32585000D02*
X97320000Y-32985000D01*
X95270000Y-36735000D02*
X95270000Y-40485000D01*
X95270000Y-40485000D02*
X96520000Y-40485000D01*
X96520000Y-40485000D02*
X96520000Y-40085000D01*
X96520000Y-40085000D02*
X96920000Y-40085000D01*
X96920000Y-40085000D02*
X96920000Y-40485000D01*
X96920000Y-40485000D02*
X98820000Y-40485000D01*
X95270000Y-36735000D02*
X95270000Y-32985000D01*
X95270000Y-32985000D02*
X96520000Y-32985000D01*
X96520000Y-32985000D02*
X96520000Y-33385000D01*
X96520000Y-33385000D02*
X96920000Y-33385000D01*
X96920000Y-33385000D02*
X96920000Y-32985000D01*
X96920000Y-32985000D02*
X98820000Y-32985000D01*
X94085000Y-52805000D02*
X95085000Y-53805000D01*
X98985000Y-43905000D02*
X94085000Y-43905000D01*
X94085000Y-43905000D02*
X94085000Y-52805000D01*
X95085000Y-53805000D02*
X98985000Y-53805000D01*
X98985000Y-53805000D02*
X98985000Y-43905000D01*
D14*
G36*
X74933360Y-40687468D02*
X74968592Y-40704874D01*
X75012040Y-40735206D01*
X75043706Y-40768283D01*
X75065394Y-40809817D01*
X75078903Y-40865522D01*
X75086038Y-40941111D01*
X75088600Y-41042296D01*
X75088750Y-41085797D01*
X75088312Y-41181135D01*
X75086496Y-41249271D01*
X75082545Y-41296418D01*
X75075702Y-41328790D01*
X75065211Y-41352600D01*
X75054296Y-41368843D01*
X74984619Y-41437952D01*
X74902566Y-41479521D01*
X74814050Y-41492023D01*
X74724981Y-41473934D01*
X74696763Y-41461142D01*
X74629210Y-41425931D01*
X74629210Y-41977700D01*
X74678512Y-41952205D01*
X74743473Y-41932480D01*
X74823320Y-41927427D01*
X74903052Y-41936756D01*
X74963265Y-41957714D01*
X75013208Y-41997627D01*
X75055881Y-42054741D01*
X75059090Y-42060605D01*
X75072622Y-42088227D01*
X75082505Y-42116068D01*
X75089309Y-42149794D01*
X75093601Y-42195071D01*
X75095951Y-42257562D01*
X75096928Y-42342935D01*
X75097105Y-42439010D01*
X75097105Y-42745526D01*
X74913289Y-42745526D01*
X74913289Y-42180339D01*
X74861875Y-42137077D01*
X74808466Y-42102472D01*
X74757888Y-42096180D01*
X74707030Y-42112372D01*
X74679925Y-42128227D01*
X74659751Y-42150810D01*
X74645403Y-42184940D01*
X74635776Y-42235434D01*
X74629763Y-42307111D01*
X74626260Y-42404788D01*
X74625026Y-42469802D01*
X74620855Y-42737171D01*
X74533125Y-42742222D01*
X74445394Y-42747273D01*
X74445394Y-41088101D01*
X74629210Y-41088101D01*
X74633896Y-41180600D01*
X74649688Y-41244809D01*
X74679183Y-41284759D01*
X74724980Y-41304480D01*
X74771250Y-41308421D01*
X74823628Y-41303892D01*
X74858390Y-41286069D01*
X74880128Y-41262519D01*
X74897240Y-41237189D01*
X74907427Y-41208969D01*
X74911960Y-41169431D01*
X74912109Y-41110142D01*
X74910584Y-41060498D01*
X74907081Y-40985710D01*
X74901867Y-40936611D01*
X74893087Y-40905467D01*
X74878886Y-40884545D01*
X74865484Y-40872452D01*
X74809487Y-40846081D01*
X74743211Y-40841822D01*
X74705156Y-40850906D01*
X74667477Y-40883196D01*
X74642519Y-40946006D01*
X74630422Y-41038894D01*
X74629210Y-41088101D01*
X74445394Y-41088101D01*
X74445394Y-40673421D01*
X74537302Y-40673421D01*
X74592483Y-40675603D01*
X74620952Y-40683351D01*
X74629206Y-40698468D01*
X74629210Y-40698916D01*
X74633040Y-40713720D01*
X74649933Y-40712039D01*
X74683519Y-40695772D01*
X74761778Y-40670887D01*
X74849827Y-40668271D01*
X74933360Y-40687468D01*
X74933360Y-40687468D01*
G37*
X74933360Y-40687468D02*
X74968592Y-40704874D01*
X75012040Y-40735206D01*
X75043706Y-40768283D01*
X75065394Y-40809817D01*
X75078903Y-40865522D01*
X75086038Y-40941111D01*
X75088600Y-41042296D01*
X75088750Y-41085797D01*
X75088312Y-41181135D01*
X75086496Y-41249271D01*
X75082545Y-41296418D01*
X75075702Y-41328790D01*
X75065211Y-41352600D01*
X75054296Y-41368843D01*
X74984619Y-41437952D01*
X74902566Y-41479521D01*
X74814050Y-41492023D01*
X74724981Y-41473934D01*
X74696763Y-41461142D01*
X74629210Y-41425931D01*
X74629210Y-41977700D01*
X74678512Y-41952205D01*
X74743473Y-41932480D01*
X74823320Y-41927427D01*
X74903052Y-41936756D01*
X74963265Y-41957714D01*
X75013208Y-41997627D01*
X75055881Y-42054741D01*
X75059090Y-42060605D01*
X75072622Y-42088227D01*
X75082505Y-42116068D01*
X75089309Y-42149794D01*
X75093601Y-42195071D01*
X75095951Y-42257562D01*
X75096928Y-42342935D01*
X75097105Y-42439010D01*
X75097105Y-42745526D01*
X74913289Y-42745526D01*
X74913289Y-42180339D01*
X74861875Y-42137077D01*
X74808466Y-42102472D01*
X74757888Y-42096180D01*
X74707030Y-42112372D01*
X74679925Y-42128227D01*
X74659751Y-42150810D01*
X74645403Y-42184940D01*
X74635776Y-42235434D01*
X74629763Y-42307111D01*
X74626260Y-42404788D01*
X74625026Y-42469802D01*
X74620855Y-42737171D01*
X74533125Y-42742222D01*
X74445394Y-42747273D01*
X74445394Y-41088101D01*
X74629210Y-41088101D01*
X74633896Y-41180600D01*
X74649688Y-41244809D01*
X74679183Y-41284759D01*
X74724980Y-41304480D01*
X74771250Y-41308421D01*
X74823628Y-41303892D01*
X74858390Y-41286069D01*
X74880128Y-41262519D01*
X74897240Y-41237189D01*
X74907427Y-41208969D01*
X74911960Y-41169431D01*
X74912109Y-41110142D01*
X74910584Y-41060498D01*
X74907081Y-40985710D01*
X74901867Y-40936611D01*
X74893087Y-40905467D01*
X74878886Y-40884545D01*
X74865484Y-40872452D01*
X74809487Y-40846081D01*
X74743211Y-40841822D01*
X74705156Y-40850906D01*
X74667477Y-40883196D01*
X74642519Y-40946006D01*
X74630422Y-41038894D01*
X74629210Y-41088101D01*
X74445394Y-41088101D01*
X74445394Y-40673421D01*
X74537302Y-40673421D01*
X74592483Y-40675603D01*
X74620952Y-40683351D01*
X74629206Y-40698468D01*
X74629210Y-40698916D01*
X74633040Y-40713720D01*
X74649933Y-40712039D01*
X74683519Y-40695772D01*
X74761778Y-40670887D01*
X74849827Y-40668271D01*
X74933360Y-40687468D01*
G36*
X75630457Y-41933184D02*
X75709070Y-41954160D01*
X75768916Y-41992180D01*
X75811147Y-42041978D01*
X75824275Y-42063230D01*
X75833968Y-42085492D01*
X75840744Y-42113970D01*
X75845123Y-42153871D01*
X75847624Y-42210401D01*
X75848768Y-42288767D01*
X75849072Y-42394176D01*
X75849078Y-42422142D01*
X75849078Y-42745526D01*
X75768868Y-42745526D01*
X75717706Y-42741943D01*
X75679877Y-42732866D01*
X75670399Y-42727268D01*
X75644488Y-42717606D01*
X75618024Y-42727268D01*
X75574452Y-42739330D01*
X75511160Y-42744185D01*
X75441010Y-42742078D01*
X75376860Y-42733256D01*
X75339407Y-42721937D01*
X75266933Y-42675412D01*
X75221640Y-42610846D01*
X75201278Y-42525000D01*
X75201088Y-42522796D01*
X75202875Y-42484713D01*
X75364473Y-42484713D01*
X75378601Y-42528030D01*
X75401612Y-42552408D01*
X75447804Y-42570845D01*
X75508775Y-42578205D01*
X75570949Y-42574583D01*
X75620751Y-42560074D01*
X75634703Y-42550765D01*
X75659085Y-42507753D01*
X75665263Y-42458857D01*
X75665263Y-42394605D01*
X75572818Y-42394605D01*
X75484995Y-42401366D01*
X75418418Y-42420520D01*
X75377002Y-42450376D01*
X75364473Y-42484713D01*
X75202875Y-42484713D01*
X75205490Y-42429004D01*
X75236424Y-42354847D01*
X75294581Y-42298767D01*
X75302620Y-42293665D01*
X75337163Y-42277055D01*
X75379918Y-42266996D01*
X75439686Y-42262107D01*
X75510690Y-42260983D01*
X75665263Y-42260921D01*
X75665263Y-42196125D01*
X75658706Y-42145850D01*
X75641975Y-42112169D01*
X75640016Y-42110376D01*
X75602783Y-42095642D01*
X75546580Y-42089931D01*
X75484467Y-42092737D01*
X75429510Y-42103556D01*
X75396899Y-42119782D01*
X75379228Y-42132780D01*
X75360569Y-42135262D01*
X75334819Y-42124613D01*
X75295873Y-42098218D01*
X75237630Y-42053465D01*
X75232284Y-42049273D01*
X75235023Y-42033760D01*
X75257876Y-42007960D01*
X75292609Y-41979289D01*
X75330990Y-41955166D01*
X75343048Y-41949470D01*
X75387034Y-41938103D01*
X75451487Y-41929995D01*
X75523497Y-41926743D01*
X75526864Y-41926736D01*
X75630457Y-41933184D01*
X75630457Y-41933184D01*
G37*
X75630457Y-41933184D02*
X75709070Y-41954160D01*
X75768916Y-41992180D01*
X75811147Y-42041978D01*
X75824275Y-42063230D01*
X75833968Y-42085492D01*
X75840744Y-42113970D01*
X75845123Y-42153871D01*
X75847624Y-42210401D01*
X75848768Y-42288767D01*
X75849072Y-42394176D01*
X75849078Y-42422142D01*
X75849078Y-42745526D01*
X75768868Y-42745526D01*
X75717706Y-42741943D01*
X75679877Y-42732866D01*
X75670399Y-42727268D01*
X75644488Y-42717606D01*
X75618024Y-42727268D01*
X75574452Y-42739330D01*
X75511160Y-42744185D01*
X75441010Y-42742078D01*
X75376860Y-42733256D01*
X75339407Y-42721937D01*
X75266933Y-42675412D01*
X75221640Y-42610846D01*
X75201278Y-42525000D01*
X75201088Y-42522796D01*
X75202875Y-42484713D01*
X75364473Y-42484713D01*
X75378601Y-42528030D01*
X75401612Y-42552408D01*
X75447804Y-42570845D01*
X75508775Y-42578205D01*
X75570949Y-42574583D01*
X75620751Y-42560074D01*
X75634703Y-42550765D01*
X75659085Y-42507753D01*
X75665263Y-42458857D01*
X75665263Y-42394605D01*
X75572818Y-42394605D01*
X75484995Y-42401366D01*
X75418418Y-42420520D01*
X75377002Y-42450376D01*
X75364473Y-42484713D01*
X75202875Y-42484713D01*
X75205490Y-42429004D01*
X75236424Y-42354847D01*
X75294581Y-42298767D01*
X75302620Y-42293665D01*
X75337163Y-42277055D01*
X75379918Y-42266996D01*
X75439686Y-42262107D01*
X75510690Y-42260983D01*
X75665263Y-42260921D01*
X75665263Y-42196125D01*
X75658706Y-42145850D01*
X75641975Y-42112169D01*
X75640016Y-42110376D01*
X75602783Y-42095642D01*
X75546580Y-42089931D01*
X75484467Y-42092737D01*
X75429510Y-42103556D01*
X75396899Y-42119782D01*
X75379228Y-42132780D01*
X75360569Y-42135262D01*
X75334819Y-42124613D01*
X75295873Y-42098218D01*
X75237630Y-42053465D01*
X75232284Y-42049273D01*
X75235023Y-42033760D01*
X75257876Y-42007960D01*
X75292609Y-41979289D01*
X75330990Y-41955166D01*
X75343048Y-41949470D01*
X75387034Y-41938103D01*
X75451487Y-41929995D01*
X75523497Y-41926743D01*
X75526864Y-41926736D01*
X75630457Y-41933184D01*
G36*
X76149881Y-41928486D02*
X76174888Y-41935982D01*
X76182950Y-41952451D01*
X76183289Y-41959886D01*
X76184736Y-41980594D01*
X76194698Y-41983845D01*
X76221612Y-41969648D01*
X76237598Y-41959948D01*
X76288033Y-41939175D01*
X76348272Y-41928904D01*
X76411434Y-41928114D01*
X76470637Y-41935786D01*
X76519002Y-41950898D01*
X76549646Y-41972432D01*
X76555689Y-41999366D01*
X76552639Y-42006660D01*
X76530406Y-42036937D01*
X76495930Y-42074175D01*
X76489694Y-42080195D01*
X76456833Y-42107875D01*
X76428480Y-42116818D01*
X76388827Y-42110576D01*
X76372942Y-42106429D01*
X76323509Y-42096467D01*
X76288752Y-42100947D01*
X76259400Y-42116746D01*
X76232513Y-42137949D01*
X76212710Y-42164614D01*
X76198948Y-42201827D01*
X76190184Y-42254673D01*
X76185374Y-42328237D01*
X76183474Y-42427605D01*
X76183289Y-42487601D01*
X76183289Y-42745526D01*
X76016184Y-42745526D01*
X76016184Y-41926710D01*
X76099736Y-41926710D01*
X76149881Y-41928486D01*
X76149881Y-41928486D01*
G37*
X76149881Y-41928486D02*
X76174888Y-41935982D01*
X76182950Y-41952451D01*
X76183289Y-41959886D01*
X76184736Y-41980594D01*
X76194698Y-41983845D01*
X76221612Y-41969648D01*
X76237598Y-41959948D01*
X76288033Y-41939175D01*
X76348272Y-41928904D01*
X76411434Y-41928114D01*
X76470637Y-41935786D01*
X76519002Y-41950898D01*
X76549646Y-41972432D01*
X76555689Y-41999366D01*
X76552639Y-42006660D01*
X76530406Y-42036937D01*
X76495930Y-42074175D01*
X76489694Y-42080195D01*
X76456833Y-42107875D01*
X76428480Y-42116818D01*
X76388827Y-42110576D01*
X76372942Y-42106429D01*
X76323509Y-42096467D01*
X76288752Y-42100947D01*
X76259400Y-42116746D01*
X76232513Y-42137949D01*
X76212710Y-42164614D01*
X76198948Y-42201827D01*
X76190184Y-42254673D01*
X76185374Y-42328237D01*
X76183474Y-42427605D01*
X76183289Y-42487601D01*
X76183289Y-42745526D01*
X76016184Y-42745526D01*
X76016184Y-41926710D01*
X76099736Y-41926710D01*
X76149881Y-41928486D01*
G36*
X77202631Y-42745526D02*
X77110723Y-42745526D01*
X77057377Y-42743962D01*
X77029593Y-42737485D01*
X77019590Y-42723418D01*
X77018815Y-42713906D01*
X77017128Y-42694832D01*
X77006490Y-42691174D01*
X76978535Y-42702932D01*
X76956795Y-42713906D01*
X76873332Y-42739911D01*
X76782604Y-42741416D01*
X76708842Y-42722021D01*
X76640154Y-42675165D01*
X76587794Y-42606004D01*
X76559122Y-42524427D01*
X76558392Y-42519866D01*
X76554132Y-42470101D01*
X76552014Y-42398659D01*
X76552184Y-42344626D01*
X76734720Y-42344626D01*
X76738949Y-42416441D01*
X76748568Y-42475634D01*
X76761590Y-42509060D01*
X76810856Y-42554740D01*
X76869350Y-42571115D01*
X76929671Y-42557873D01*
X76981217Y-42518373D01*
X77000738Y-42491807D01*
X77012152Y-42460106D01*
X77017498Y-42413832D01*
X77018815Y-42344328D01*
X77016458Y-42275499D01*
X77010233Y-42215026D01*
X77001408Y-42174556D01*
X76999937Y-42170929D01*
X76964347Y-42127802D01*
X76912400Y-42104124D01*
X76854278Y-42100301D01*
X76800160Y-42116738D01*
X76760226Y-42153840D01*
X76756083Y-42161222D01*
X76743116Y-42206239D01*
X76736052Y-42270967D01*
X76734720Y-42344626D01*
X76552184Y-42344626D01*
X76552271Y-42317230D01*
X76553472Y-42273405D01*
X76561645Y-42164988D01*
X76578630Y-42083588D01*
X76606887Y-42023412D01*
X76648872Y-41978666D01*
X76689632Y-41952400D01*
X76746581Y-41933935D01*
X76817411Y-41927602D01*
X76889941Y-41932760D01*
X76951986Y-41948769D01*
X76984768Y-41967920D01*
X77018815Y-41998732D01*
X77018815Y-41609210D01*
X77202631Y-41609210D01*
X77202631Y-42745526D01*
X77202631Y-42745526D01*
G37*
X77202631Y-42745526D02*
X77110723Y-42745526D01*
X77057377Y-42743962D01*
X77029593Y-42737485D01*
X77019590Y-42723418D01*
X77018815Y-42713906D01*
X77017128Y-42694832D01*
X77006490Y-42691174D01*
X76978535Y-42702932D01*
X76956795Y-42713906D01*
X76873332Y-42739911D01*
X76782604Y-42741416D01*
X76708842Y-42722021D01*
X76640154Y-42675165D01*
X76587794Y-42606004D01*
X76559122Y-42524427D01*
X76558392Y-42519866D01*
X76554132Y-42470101D01*
X76552014Y-42398659D01*
X76552184Y-42344626D01*
X76734720Y-42344626D01*
X76738949Y-42416441D01*
X76748568Y-42475634D01*
X76761590Y-42509060D01*
X76810856Y-42554740D01*
X76869350Y-42571115D01*
X76929671Y-42557873D01*
X76981217Y-42518373D01*
X77000738Y-42491807D01*
X77012152Y-42460106D01*
X77017498Y-42413832D01*
X77018815Y-42344328D01*
X77016458Y-42275499D01*
X77010233Y-42215026D01*
X77001408Y-42174556D01*
X76999937Y-42170929D01*
X76964347Y-42127802D01*
X76912400Y-42104124D01*
X76854278Y-42100301D01*
X76800160Y-42116738D01*
X76760226Y-42153840D01*
X76756083Y-42161222D01*
X76743116Y-42206239D01*
X76736052Y-42270967D01*
X76734720Y-42344626D01*
X76552184Y-42344626D01*
X76552271Y-42317230D01*
X76553472Y-42273405D01*
X76561645Y-42164988D01*
X76578630Y-42083588D01*
X76606887Y-42023412D01*
X76648872Y-41978666D01*
X76689632Y-41952400D01*
X76746581Y-41933935D01*
X76817411Y-41927602D01*
X76889941Y-41932760D01*
X76951986Y-41948769D01*
X76984768Y-41967920D01*
X77018815Y-41998732D01*
X77018815Y-41609210D01*
X77202631Y-41609210D01*
X77202631Y-42745526D01*
G36*
X77844130Y-41930104D02*
X77910220Y-41935066D01*
X77996626Y-42194079D01*
X78083031Y-42453092D01*
X78110124Y-42361184D01*
X78126428Y-42304384D01*
X78147875Y-42227625D01*
X78171035Y-42143251D01*
X78183280Y-42097993D01*
X78229344Y-41926710D01*
X78419387Y-41926710D01*
X78362582Y-42106349D01*
X78334607Y-42194704D01*
X78300813Y-42301281D01*
X78265520Y-42412454D01*
X78234013Y-42511579D01*
X78162250Y-42737171D01*
X78007286Y-42747253D01*
X77965270Y-42608528D01*
X77939359Y-42522351D01*
X77911083Y-42427347D01*
X77886369Y-42343441D01*
X77885394Y-42340102D01*
X77866935Y-42283248D01*
X77850649Y-42244456D01*
X77839242Y-42229787D01*
X77836898Y-42231483D01*
X77828671Y-42254225D01*
X77813038Y-42302940D01*
X77791904Y-42371502D01*
X77767170Y-42453785D01*
X77753787Y-42499046D01*
X77681311Y-42745526D01*
X77527495Y-42745526D01*
X77404531Y-42357006D01*
X77369988Y-42248022D01*
X77338521Y-42149048D01*
X77311616Y-42064736D01*
X77290759Y-41999734D01*
X77277438Y-41958692D01*
X77273388Y-41946701D01*
X77276594Y-41934423D01*
X77301765Y-41929046D01*
X77354146Y-41929584D01*
X77362345Y-41929990D01*
X77459482Y-41935066D01*
X77523100Y-42169013D01*
X77546484Y-42254333D01*
X77567381Y-42329335D01*
X77583951Y-42387507D01*
X77594354Y-42422337D01*
X77596276Y-42428016D01*
X77604241Y-42421486D01*
X77620304Y-42387654D01*
X77642621Y-42331127D01*
X77669345Y-42256510D01*
X77691937Y-42189107D01*
X77778041Y-41925143D01*
X77844130Y-41930104D01*
X77844130Y-41930104D01*
G37*
X77844130Y-41930104D02*
X77910220Y-41935066D01*
X77996626Y-42194079D01*
X78083031Y-42453092D01*
X78110124Y-42361184D01*
X78126428Y-42304384D01*
X78147875Y-42227625D01*
X78171035Y-42143251D01*
X78183280Y-42097993D01*
X78229344Y-41926710D01*
X78419387Y-41926710D01*
X78362582Y-42106349D01*
X78334607Y-42194704D01*
X78300813Y-42301281D01*
X78265520Y-42412454D01*
X78234013Y-42511579D01*
X78162250Y-42737171D01*
X78007286Y-42747253D01*
X77965270Y-42608528D01*
X77939359Y-42522351D01*
X77911083Y-42427347D01*
X77886369Y-42343441D01*
X77885394Y-42340102D01*
X77866935Y-42283248D01*
X77850649Y-42244456D01*
X77839242Y-42229787D01*
X77836898Y-42231483D01*
X77828671Y-42254225D01*
X77813038Y-42302940D01*
X77791904Y-42371502D01*
X77767170Y-42453785D01*
X77753787Y-42499046D01*
X77681311Y-42745526D01*
X77527495Y-42745526D01*
X77404531Y-42357006D01*
X77369988Y-42248022D01*
X77338521Y-42149048D01*
X77311616Y-42064736D01*
X77290759Y-41999734D01*
X77277438Y-41958692D01*
X77273388Y-41946701D01*
X77276594Y-41934423D01*
X77301765Y-41929046D01*
X77354146Y-41929584D01*
X77362345Y-41929990D01*
X77459482Y-41935066D01*
X77523100Y-42169013D01*
X77546484Y-42254333D01*
X77567381Y-42329335D01*
X77583951Y-42387507D01*
X77594354Y-42422337D01*
X77596276Y-42428016D01*
X77604241Y-42421486D01*
X77620304Y-42387654D01*
X77642621Y-42331127D01*
X77669345Y-42256510D01*
X77691937Y-42189107D01*
X77778041Y-41925143D01*
X77844130Y-41930104D01*
G36*
X78849992Y-41931673D02*
X78920427Y-41948780D01*
X78940787Y-41957844D01*
X78980253Y-41981583D01*
X79010541Y-42008321D01*
X79032952Y-42042699D01*
X79048786Y-42089360D01*
X79059343Y-42152946D01*
X79065924Y-42238099D01*
X79069828Y-42349462D01*
X79071310Y-42423849D01*
X79076765Y-42745526D01*
X78983580Y-42745526D01*
X78927047Y-42743156D01*
X78897922Y-42735055D01*
X78890394Y-42721451D01*
X78886420Y-42706741D01*
X78868652Y-42709554D01*
X78844440Y-42721348D01*
X78783828Y-42739427D01*
X78705929Y-42744299D01*
X78623995Y-42736330D01*
X78551281Y-42715889D01*
X78544759Y-42713051D01*
X78478302Y-42666365D01*
X78434491Y-42601464D01*
X78414332Y-42525600D01*
X78415872Y-42498344D01*
X78580345Y-42498344D01*
X78594837Y-42535024D01*
X78637805Y-42561309D01*
X78707129Y-42575417D01*
X78744177Y-42577290D01*
X78805919Y-42572494D01*
X78846960Y-42553858D01*
X78856973Y-42545000D01*
X78884100Y-42496806D01*
X78890394Y-42453092D01*
X78890394Y-42394605D01*
X78808930Y-42394605D01*
X78714234Y-42399432D01*
X78647813Y-42414613D01*
X78605846Y-42441200D01*
X78596449Y-42453052D01*
X78580345Y-42498344D01*
X78415872Y-42498344D01*
X78418829Y-42446026D01*
X78448985Y-42369995D01*
X78490131Y-42318612D01*
X78515052Y-42296397D01*
X78539448Y-42281798D01*
X78571191Y-42272897D01*
X78618152Y-42267775D01*
X78688204Y-42264515D01*
X78715990Y-42263577D01*
X78890394Y-42257879D01*
X78890138Y-42205091D01*
X78883384Y-42149603D01*
X78858964Y-42116052D01*
X78809630Y-42094618D01*
X78808306Y-42094236D01*
X78738360Y-42085808D01*
X78669914Y-42096816D01*
X78619047Y-42123585D01*
X78598637Y-42136803D01*
X78576654Y-42134974D01*
X78542826Y-42115824D01*
X78522961Y-42102308D01*
X78484106Y-42073432D01*
X78460038Y-42051786D01*
X78456176Y-42045589D01*
X78472079Y-42013519D01*
X78519065Y-41975219D01*
X78539473Y-41962297D01*
X78598143Y-41940041D01*
X78677212Y-41927432D01*
X78765041Y-41924600D01*
X78849992Y-41931673D01*
X78849992Y-41931673D01*
G37*
X78849992Y-41931673D02*
X78920427Y-41948780D01*
X78940787Y-41957844D01*
X78980253Y-41981583D01*
X79010541Y-42008321D01*
X79032952Y-42042699D01*
X79048786Y-42089360D01*
X79059343Y-42152946D01*
X79065924Y-42238099D01*
X79069828Y-42349462D01*
X79071310Y-42423849D01*
X79076765Y-42745526D01*
X78983580Y-42745526D01*
X78927047Y-42743156D01*
X78897922Y-42735055D01*
X78890394Y-42721451D01*
X78886420Y-42706741D01*
X78868652Y-42709554D01*
X78844440Y-42721348D01*
X78783828Y-42739427D01*
X78705929Y-42744299D01*
X78623995Y-42736330D01*
X78551281Y-42715889D01*
X78544759Y-42713051D01*
X78478302Y-42666365D01*
X78434491Y-42601464D01*
X78414332Y-42525600D01*
X78415872Y-42498344D01*
X78580345Y-42498344D01*
X78594837Y-42535024D01*
X78637805Y-42561309D01*
X78707129Y-42575417D01*
X78744177Y-42577290D01*
X78805919Y-42572494D01*
X78846960Y-42553858D01*
X78856973Y-42545000D01*
X78884100Y-42496806D01*
X78890394Y-42453092D01*
X78890394Y-42394605D01*
X78808930Y-42394605D01*
X78714234Y-42399432D01*
X78647813Y-42414613D01*
X78605846Y-42441200D01*
X78596449Y-42453052D01*
X78580345Y-42498344D01*
X78415872Y-42498344D01*
X78418829Y-42446026D01*
X78448985Y-42369995D01*
X78490131Y-42318612D01*
X78515052Y-42296397D01*
X78539448Y-42281798D01*
X78571191Y-42272897D01*
X78618152Y-42267775D01*
X78688204Y-42264515D01*
X78715990Y-42263577D01*
X78890394Y-42257879D01*
X78890138Y-42205091D01*
X78883384Y-42149603D01*
X78858964Y-42116052D01*
X78809630Y-42094618D01*
X78808306Y-42094236D01*
X78738360Y-42085808D01*
X78669914Y-42096816D01*
X78619047Y-42123585D01*
X78598637Y-42136803D01*
X78576654Y-42134974D01*
X78542826Y-42115824D01*
X78522961Y-42102308D01*
X78484106Y-42073432D01*
X78460038Y-42051786D01*
X78456176Y-42045589D01*
X78472079Y-42013519D01*
X78519065Y-41975219D01*
X78539473Y-41962297D01*
X78598143Y-41940041D01*
X78677212Y-41927432D01*
X78765041Y-41924600D01*
X78849992Y-41931673D01*
G36*
X79643167Y-41926447D02*
X79707408Y-41939112D01*
X79743980Y-41957864D01*
X79782453Y-41989017D01*
X79727717Y-42058127D01*
X79693969Y-42099979D01*
X79671053Y-42120398D01*
X79648279Y-42123517D01*
X79614956Y-42113472D01*
X79599314Y-42107789D01*
X79535542Y-42099404D01*
X79477140Y-42117378D01*
X79434264Y-42157982D01*
X79427299Y-42170929D01*
X79419713Y-42205224D01*
X79413859Y-42268427D01*
X79410011Y-42356060D01*
X79408443Y-42463640D01*
X79408421Y-42478944D01*
X79408421Y-42745526D01*
X79224605Y-42745526D01*
X79224605Y-41926710D01*
X79316513Y-41926710D01*
X79369507Y-41928094D01*
X79397115Y-41934252D01*
X79407324Y-41948194D01*
X79408421Y-41961344D01*
X79408421Y-41995978D01*
X79452450Y-41961344D01*
X79502937Y-41937716D01*
X79570760Y-41926033D01*
X79643167Y-41926447D01*
X79643167Y-41926447D01*
G37*
X79643167Y-41926447D02*
X79707408Y-41939112D01*
X79743980Y-41957864D01*
X79782453Y-41989017D01*
X79727717Y-42058127D01*
X79693969Y-42099979D01*
X79671053Y-42120398D01*
X79648279Y-42123517D01*
X79614956Y-42113472D01*
X79599314Y-42107789D01*
X79535542Y-42099404D01*
X79477140Y-42117378D01*
X79434264Y-42157982D01*
X79427299Y-42170929D01*
X79419713Y-42205224D01*
X79413859Y-42268427D01*
X79410011Y-42356060D01*
X79408443Y-42463640D01*
X79408421Y-42478944D01*
X79408421Y-42745526D01*
X79224605Y-42745526D01*
X79224605Y-41926710D01*
X79316513Y-41926710D01*
X79369507Y-41928094D01*
X79397115Y-41934252D01*
X79407324Y-41948194D01*
X79408421Y-41961344D01*
X79408421Y-41995978D01*
X79452450Y-41961344D01*
X79502937Y-41937716D01*
X79570760Y-41926033D01*
X79643167Y-41926447D01*
G36*
X80171193Y-41931078D02*
X80251068Y-41951845D01*
X80317962Y-41994705D01*
X80350351Y-42026723D01*
X80403445Y-42102413D01*
X80433873Y-42190216D01*
X80444327Y-42298150D01*
X80444380Y-42306875D01*
X80444473Y-42394605D01*
X79939534Y-42394605D01*
X79950298Y-42440559D01*
X79969732Y-42482178D01*
X80003745Y-42525544D01*
X80010860Y-42532467D01*
X80072003Y-42569935D01*
X80141729Y-42576289D01*
X80221987Y-42551638D01*
X80235592Y-42545000D01*
X80277319Y-42524819D01*
X80305268Y-42513321D01*
X80310145Y-42512258D01*
X80327168Y-42522583D01*
X80359633Y-42547845D01*
X80376114Y-42561650D01*
X80410264Y-42593361D01*
X80421478Y-42614299D01*
X80413695Y-42633560D01*
X80409535Y-42638827D01*
X80381357Y-42661878D01*
X80334862Y-42689892D01*
X80302434Y-42706246D01*
X80210385Y-42735059D01*
X80108476Y-42744395D01*
X80011963Y-42733332D01*
X79984934Y-42725412D01*
X79901276Y-42680581D01*
X79839266Y-42611598D01*
X79798545Y-42517794D01*
X79778755Y-42398498D01*
X79776582Y-42336118D01*
X79782926Y-42245298D01*
X79943157Y-42245298D01*
X79958655Y-42252012D01*
X80000312Y-42257280D01*
X80060876Y-42260389D01*
X80101907Y-42260921D01*
X80175711Y-42260408D01*
X80222293Y-42258006D01*
X80247848Y-42252422D01*
X80258569Y-42242361D01*
X80260657Y-42227763D01*
X80246331Y-42182796D01*
X80210262Y-42138353D01*
X80162815Y-42104242D01*
X80115349Y-42090288D01*
X80050879Y-42102666D01*
X79995070Y-42138452D01*
X79956374Y-42190033D01*
X79943157Y-42245298D01*
X79782926Y-42245298D01*
X79785821Y-42203866D01*
X79814336Y-42098498D01*
X79862729Y-42019178D01*
X79931604Y-41965071D01*
X80021565Y-41935343D01*
X80070300Y-41929618D01*
X80171193Y-41931078D01*
X80171193Y-41931078D01*
G37*
X80171193Y-41931078D02*
X80251068Y-41951845D01*
X80317962Y-41994705D01*
X80350351Y-42026723D01*
X80403445Y-42102413D01*
X80433873Y-42190216D01*
X80444327Y-42298150D01*
X80444380Y-42306875D01*
X80444473Y-42394605D01*
X79939534Y-42394605D01*
X79950298Y-42440559D01*
X79969732Y-42482178D01*
X80003745Y-42525544D01*
X80010860Y-42532467D01*
X80072003Y-42569935D01*
X80141729Y-42576289D01*
X80221987Y-42551638D01*
X80235592Y-42545000D01*
X80277319Y-42524819D01*
X80305268Y-42513321D01*
X80310145Y-42512258D01*
X80327168Y-42522583D01*
X80359633Y-42547845D01*
X80376114Y-42561650D01*
X80410264Y-42593361D01*
X80421478Y-42614299D01*
X80413695Y-42633560D01*
X80409535Y-42638827D01*
X80381357Y-42661878D01*
X80334862Y-42689892D01*
X80302434Y-42706246D01*
X80210385Y-42735059D01*
X80108476Y-42744395D01*
X80011963Y-42733332D01*
X79984934Y-42725412D01*
X79901276Y-42680581D01*
X79839266Y-42611598D01*
X79798545Y-42517794D01*
X79778755Y-42398498D01*
X79776582Y-42336118D01*
X79782926Y-42245298D01*
X79943157Y-42245298D01*
X79958655Y-42252012D01*
X80000312Y-42257280D01*
X80060876Y-42260389D01*
X80101907Y-42260921D01*
X80175711Y-42260408D01*
X80222293Y-42258006D01*
X80247848Y-42252422D01*
X80258569Y-42242361D01*
X80260657Y-42227763D01*
X80246331Y-42182796D01*
X80210262Y-42138353D01*
X80162815Y-42104242D01*
X80115349Y-42090288D01*
X80050879Y-42102666D01*
X79995070Y-42138452D01*
X79956374Y-42190033D01*
X79943157Y-42245298D01*
X79782926Y-42245298D01*
X79785821Y-42203866D01*
X79814336Y-42098498D01*
X79862729Y-42019178D01*
X79931604Y-41965071D01*
X80021565Y-41935343D01*
X80070300Y-41929618D01*
X80171193Y-41931078D01*
G36*
X74096784Y-40682104D02*
X74184205Y-40720754D01*
X74250570Y-40785290D01*
X74295976Y-40875812D01*
X74320518Y-40992418D01*
X74322277Y-41010624D01*
X74323656Y-41138984D01*
X74305784Y-41251496D01*
X74269750Y-41342688D01*
X74250455Y-41372022D01*
X74183245Y-41434106D01*
X74097650Y-41474316D01*
X74001890Y-41491003D01*
X73904187Y-41482517D01*
X73829917Y-41456380D01*
X73766047Y-41412335D01*
X73713846Y-41354587D01*
X73712943Y-41353236D01*
X73691744Y-41317593D01*
X73677967Y-41281752D01*
X73669624Y-41236519D01*
X73664727Y-41172701D01*
X73662569Y-41120368D01*
X73661671Y-41072910D01*
X73828743Y-41072910D01*
X73830376Y-41120154D01*
X73836304Y-41183046D01*
X73846761Y-41223407D01*
X73865619Y-41252122D01*
X73883281Y-41268896D01*
X73945894Y-41304016D01*
X74011408Y-41308710D01*
X74072421Y-41283440D01*
X74102928Y-41255124D01*
X74124911Y-41226589D01*
X74137769Y-41199284D01*
X74143412Y-41163750D01*
X74143751Y-41110524D01*
X74142012Y-41061506D01*
X74138271Y-40991482D01*
X74132341Y-40946064D01*
X74121653Y-40916440D01*
X74103639Y-40893797D01*
X74089363Y-40880855D01*
X74029651Y-40846860D01*
X73965234Y-40845165D01*
X73911219Y-40865301D01*
X73865140Y-40907352D01*
X73837689Y-40976428D01*
X73828743Y-41072910D01*
X73661671Y-41072910D01*
X73660599Y-41016299D01*
X73663964Y-40938468D01*
X73674045Y-40879930D01*
X73692226Y-40833737D01*
X73719890Y-40792942D01*
X73730146Y-40780828D01*
X73794278Y-40720474D01*
X73863066Y-40685220D01*
X73947189Y-40670450D01*
X73988209Y-40669243D01*
X74096784Y-40682104D01*
X74096784Y-40682104D01*
G37*
X74096784Y-40682104D02*
X74184205Y-40720754D01*
X74250570Y-40785290D01*
X74295976Y-40875812D01*
X74320518Y-40992418D01*
X74322277Y-41010624D01*
X74323656Y-41138984D01*
X74305784Y-41251496D01*
X74269750Y-41342688D01*
X74250455Y-41372022D01*
X74183245Y-41434106D01*
X74097650Y-41474316D01*
X74001890Y-41491003D01*
X73904187Y-41482517D01*
X73829917Y-41456380D01*
X73766047Y-41412335D01*
X73713846Y-41354587D01*
X73712943Y-41353236D01*
X73691744Y-41317593D01*
X73677967Y-41281752D01*
X73669624Y-41236519D01*
X73664727Y-41172701D01*
X73662569Y-41120368D01*
X73661671Y-41072910D01*
X73828743Y-41072910D01*
X73830376Y-41120154D01*
X73836304Y-41183046D01*
X73846761Y-41223407D01*
X73865619Y-41252122D01*
X73883281Y-41268896D01*
X73945894Y-41304016D01*
X74011408Y-41308710D01*
X74072421Y-41283440D01*
X74102928Y-41255124D01*
X74124911Y-41226589D01*
X74137769Y-41199284D01*
X74143412Y-41163750D01*
X74143751Y-41110524D01*
X74142012Y-41061506D01*
X74138271Y-40991482D01*
X74132341Y-40946064D01*
X74121653Y-40916440D01*
X74103639Y-40893797D01*
X74089363Y-40880855D01*
X74029651Y-40846860D01*
X73965234Y-40845165D01*
X73911219Y-40865301D01*
X73865140Y-40907352D01*
X73837689Y-40976428D01*
X73828743Y-41072910D01*
X73661671Y-41072910D01*
X73660599Y-41016299D01*
X73663964Y-40938468D01*
X73674045Y-40879930D01*
X73692226Y-40833737D01*
X73719890Y-40792942D01*
X73730146Y-40780828D01*
X73794278Y-40720474D01*
X73863066Y-40685220D01*
X73947189Y-40670450D01*
X73988209Y-40669243D01*
X74096784Y-40682104D01*
G36*
X75667018Y-40692027D02*
X75683670Y-40699866D01*
X75741305Y-40742086D01*
X75795805Y-40803700D01*
X75836499Y-40871543D01*
X75848074Y-40902734D01*
X75858634Y-40958449D01*
X75864931Y-41025781D01*
X75865696Y-41053585D01*
X75865789Y-41141316D01*
X75360850Y-41141316D01*
X75371613Y-41187270D01*
X75398033Y-41241620D01*
X75444222Y-41288591D01*
X75499172Y-41318848D01*
X75534189Y-41325131D01*
X75581677Y-41317506D01*
X75638335Y-41298383D01*
X75657582Y-41289584D01*
X75728759Y-41254036D01*
X75789502Y-41300367D01*
X75824552Y-41331703D01*
X75843202Y-41357567D01*
X75844147Y-41365158D01*
X75827485Y-41383556D01*
X75790970Y-41411515D01*
X75757828Y-41433327D01*
X75668393Y-41472537D01*
X75568129Y-41490285D01*
X75468754Y-41485670D01*
X75389539Y-41461551D01*
X75307880Y-41409884D01*
X75249849Y-41341856D01*
X75213546Y-41253843D01*
X75197072Y-41142216D01*
X75195611Y-41091138D01*
X75201457Y-40974091D01*
X75202175Y-40970686D01*
X75369489Y-40970686D01*
X75374097Y-40981662D01*
X75393036Y-40987715D01*
X75432098Y-40990310D01*
X75497077Y-40990910D01*
X75522097Y-40990921D01*
X75598221Y-40990014D01*
X75646496Y-40986720D01*
X75672460Y-40980181D01*
X75681648Y-40969537D01*
X75681973Y-40966119D01*
X75671487Y-40938956D01*
X75645242Y-40900903D01*
X75633959Y-40887579D01*
X75592072Y-40849896D01*
X75548409Y-40835080D01*
X75524885Y-40833842D01*
X75461243Y-40849329D01*
X75407873Y-40890930D01*
X75374019Y-40951353D01*
X75373419Y-40953322D01*
X75369489Y-40970686D01*
X75202175Y-40970686D01*
X75220899Y-40881928D01*
X75255922Y-40808190D01*
X75298756Y-40755848D01*
X75377948Y-40699092D01*
X75471040Y-40668762D01*
X75570055Y-40666021D01*
X75667018Y-40692027D01*
X75667018Y-40692027D01*
G37*
X75667018Y-40692027D02*
X75683670Y-40699866D01*
X75741305Y-40742086D01*
X75795805Y-40803700D01*
X75836499Y-40871543D01*
X75848074Y-40902734D01*
X75858634Y-40958449D01*
X75864931Y-41025781D01*
X75865696Y-41053585D01*
X75865789Y-41141316D01*
X75360850Y-41141316D01*
X75371613Y-41187270D01*
X75398033Y-41241620D01*
X75444222Y-41288591D01*
X75499172Y-41318848D01*
X75534189Y-41325131D01*
X75581677Y-41317506D01*
X75638335Y-41298383D01*
X75657582Y-41289584D01*
X75728759Y-41254036D01*
X75789502Y-41300367D01*
X75824552Y-41331703D01*
X75843202Y-41357567D01*
X75844147Y-41365158D01*
X75827485Y-41383556D01*
X75790970Y-41411515D01*
X75757828Y-41433327D01*
X75668393Y-41472537D01*
X75568129Y-41490285D01*
X75468754Y-41485670D01*
X75389539Y-41461551D01*
X75307880Y-41409884D01*
X75249849Y-41341856D01*
X75213546Y-41253843D01*
X75197072Y-41142216D01*
X75195611Y-41091138D01*
X75201457Y-40974091D01*
X75202175Y-40970686D01*
X75369489Y-40970686D01*
X75374097Y-40981662D01*
X75393036Y-40987715D01*
X75432098Y-40990310D01*
X75497077Y-40990910D01*
X75522097Y-40990921D01*
X75598221Y-40990014D01*
X75646496Y-40986720D01*
X75672460Y-40980181D01*
X75681648Y-40969537D01*
X75681973Y-40966119D01*
X75671487Y-40938956D01*
X75645242Y-40900903D01*
X75633959Y-40887579D01*
X75592072Y-40849896D01*
X75548409Y-40835080D01*
X75524885Y-40833842D01*
X75461243Y-40849329D01*
X75407873Y-40890930D01*
X75374019Y-40951353D01*
X75373419Y-40953322D01*
X75369489Y-40970686D01*
X75202175Y-40970686D01*
X75220899Y-40881928D01*
X75255922Y-40808190D01*
X75298756Y-40755848D01*
X75377948Y-40699092D01*
X75471040Y-40668762D01*
X75570055Y-40666021D01*
X75667018Y-40692027D01*
G36*
X77488628Y-40670547D02*
X77551908Y-40682548D01*
X77617557Y-40707648D01*
X77624572Y-40710848D01*
X77674356Y-40737026D01*
X77708834Y-40761353D01*
X77719978Y-40776937D01*
X77709366Y-40802353D01*
X77683588Y-40839853D01*
X77672146Y-40853852D01*
X77624992Y-40908954D01*
X77564201Y-40873086D01*
X77506347Y-40849192D01*
X77439500Y-40836420D01*
X77375394Y-40835613D01*
X77325764Y-40847615D01*
X77313854Y-40855105D01*
X77291172Y-40889450D01*
X77288416Y-40929013D01*
X77305388Y-40959920D01*
X77315427Y-40965913D01*
X77345510Y-40973357D01*
X77398389Y-40982106D01*
X77463575Y-40990467D01*
X77475600Y-40991778D01*
X77580297Y-41009888D01*
X77656232Y-41040651D01*
X77706592Y-41086907D01*
X77734564Y-41151497D01*
X77743278Y-41230387D01*
X77731240Y-41320065D01*
X77692151Y-41390486D01*
X77625855Y-41441777D01*
X77532194Y-41474067D01*
X77428223Y-41486807D01*
X77343438Y-41486654D01*
X77274665Y-41475083D01*
X77227697Y-41459109D01*
X77168350Y-41431275D01*
X77113506Y-41398973D01*
X77094013Y-41384755D01*
X77043881Y-41343835D01*
X77164803Y-41221477D01*
X77233543Y-41266967D01*
X77302488Y-41301133D01*
X77376111Y-41319004D01*
X77446883Y-41320889D01*
X77507274Y-41307101D01*
X77549757Y-41277949D01*
X77563474Y-41253352D01*
X77561417Y-41213904D01*
X77527330Y-41183737D01*
X77461308Y-41162906D01*
X77388974Y-41153279D01*
X77277652Y-41134910D01*
X77194952Y-41100254D01*
X77139765Y-41048297D01*
X77110988Y-40978023D01*
X77107001Y-40894707D01*
X77126693Y-40807681D01*
X77171589Y-40741902D01*
X77242091Y-40697068D01*
X77338601Y-40672879D01*
X77410100Y-40668137D01*
X77488628Y-40670547D01*
X77488628Y-40670547D01*
G37*
X77488628Y-40670547D02*
X77551908Y-40682548D01*
X77617557Y-40707648D01*
X77624572Y-40710848D01*
X77674356Y-40737026D01*
X77708834Y-40761353D01*
X77719978Y-40776937D01*
X77709366Y-40802353D01*
X77683588Y-40839853D01*
X77672146Y-40853852D01*
X77624992Y-40908954D01*
X77564201Y-40873086D01*
X77506347Y-40849192D01*
X77439500Y-40836420D01*
X77375394Y-40835613D01*
X77325764Y-40847615D01*
X77313854Y-40855105D01*
X77291172Y-40889450D01*
X77288416Y-40929013D01*
X77305388Y-40959920D01*
X77315427Y-40965913D01*
X77345510Y-40973357D01*
X77398389Y-40982106D01*
X77463575Y-40990467D01*
X77475600Y-40991778D01*
X77580297Y-41009888D01*
X77656232Y-41040651D01*
X77706592Y-41086907D01*
X77734564Y-41151497D01*
X77743278Y-41230387D01*
X77731240Y-41320065D01*
X77692151Y-41390486D01*
X77625855Y-41441777D01*
X77532194Y-41474067D01*
X77428223Y-41486807D01*
X77343438Y-41486654D01*
X77274665Y-41475083D01*
X77227697Y-41459109D01*
X77168350Y-41431275D01*
X77113506Y-41398973D01*
X77094013Y-41384755D01*
X77043881Y-41343835D01*
X77164803Y-41221477D01*
X77233543Y-41266967D01*
X77302488Y-41301133D01*
X77376111Y-41319004D01*
X77446883Y-41320889D01*
X77507274Y-41307101D01*
X77549757Y-41277949D01*
X77563474Y-41253352D01*
X77561417Y-41213904D01*
X77527330Y-41183737D01*
X77461308Y-41162906D01*
X77388974Y-41153279D01*
X77277652Y-41134910D01*
X77194952Y-41100254D01*
X77139765Y-41048297D01*
X77110988Y-40978023D01*
X77107001Y-40894707D01*
X77126693Y-40807681D01*
X77171589Y-40741902D01*
X77242091Y-40697068D01*
X77338601Y-40672879D01*
X77410100Y-40668137D01*
X77488628Y-40670547D01*
G36*
X78281669Y-40683310D02*
X78366192Y-40729340D01*
X78432321Y-40802006D01*
X78463478Y-40861106D01*
X78476855Y-40913305D01*
X78485522Y-40987719D01*
X78489237Y-41073442D01*
X78487754Y-41159569D01*
X78480831Y-41235193D01*
X78472745Y-41275584D01*
X78445465Y-41330840D01*
X78398220Y-41389530D01*
X78341282Y-41440852D01*
X78284924Y-41474005D01*
X78283550Y-41474531D01*
X78213616Y-41489018D01*
X78130737Y-41489377D01*
X78051977Y-41476188D01*
X78021566Y-41465617D01*
X77943239Y-41421201D01*
X77887143Y-41363007D01*
X77850286Y-41285965D01*
X77829680Y-41185001D01*
X77825018Y-41132116D01*
X77825613Y-41065663D01*
X78004736Y-41065663D01*
X78010770Y-41162630D01*
X78028138Y-41236523D01*
X78055740Y-41283736D01*
X78075404Y-41297237D01*
X78125787Y-41306651D01*
X78185673Y-41303864D01*
X78237449Y-41290316D01*
X78251027Y-41282862D01*
X78286849Y-41239451D01*
X78310493Y-41173014D01*
X78320558Y-41092161D01*
X78315642Y-41005502D01*
X78304655Y-40953349D01*
X78273109Y-40892951D01*
X78223311Y-40855197D01*
X78163337Y-40842143D01*
X78101264Y-40855849D01*
X78053582Y-40889372D01*
X78028525Y-40917031D01*
X78013900Y-40944294D01*
X78006929Y-40981190D01*
X78004833Y-41037750D01*
X78004736Y-41065663D01*
X77825613Y-41065663D01*
X77826282Y-40990994D01*
X77849265Y-40875271D01*
X77893972Y-40784941D01*
X77960405Y-40720000D01*
X78048565Y-40680445D01*
X78067495Y-40675858D01*
X78181266Y-40665090D01*
X78281669Y-40683310D01*
X78281669Y-40683310D01*
G37*
X78281669Y-40683310D02*
X78366192Y-40729340D01*
X78432321Y-40802006D01*
X78463478Y-40861106D01*
X78476855Y-40913305D01*
X78485522Y-40987719D01*
X78489237Y-41073442D01*
X78487754Y-41159569D01*
X78480831Y-41235193D01*
X78472745Y-41275584D01*
X78445465Y-41330840D01*
X78398220Y-41389530D01*
X78341282Y-41440852D01*
X78284924Y-41474005D01*
X78283550Y-41474531D01*
X78213616Y-41489018D01*
X78130737Y-41489377D01*
X78051977Y-41476188D01*
X78021566Y-41465617D01*
X77943239Y-41421201D01*
X77887143Y-41363007D01*
X77850286Y-41285965D01*
X77829680Y-41185001D01*
X77825018Y-41132116D01*
X77825613Y-41065663D01*
X78004736Y-41065663D01*
X78010770Y-41162630D01*
X78028138Y-41236523D01*
X78055740Y-41283736D01*
X78075404Y-41297237D01*
X78125787Y-41306651D01*
X78185673Y-41303864D01*
X78237449Y-41290316D01*
X78251027Y-41282862D01*
X78286849Y-41239451D01*
X78310493Y-41173014D01*
X78320558Y-41092161D01*
X78315642Y-41005502D01*
X78304655Y-40953349D01*
X78273109Y-40892951D01*
X78223311Y-40855197D01*
X78163337Y-40842143D01*
X78101264Y-40855849D01*
X78053582Y-40889372D01*
X78028525Y-40917031D01*
X78013900Y-40944294D01*
X78006929Y-40981190D01*
X78004833Y-41037750D01*
X78004736Y-41065663D01*
X77825613Y-41065663D01*
X77826282Y-40990994D01*
X77849265Y-40875271D01*
X77893972Y-40784941D01*
X77960405Y-40720000D01*
X78048565Y-40680445D01*
X78067495Y-40675858D01*
X78181266Y-40665090D01*
X78281669Y-40683310D01*
G36*
X78790131Y-40933533D02*
X78791710Y-41056089D01*
X78797481Y-41149179D01*
X78808991Y-41216651D01*
X78827790Y-41262355D01*
X78855426Y-41290139D01*
X78893448Y-41303854D01*
X78940526Y-41307358D01*
X78989832Y-41303432D01*
X79027283Y-41289089D01*
X79054428Y-41260478D01*
X79072815Y-41213751D01*
X79083993Y-41145058D01*
X79089511Y-41050550D01*
X79090921Y-40933533D01*
X79090921Y-40673421D01*
X79274736Y-40673421D01*
X79274736Y-41475526D01*
X79182828Y-41475526D01*
X79127422Y-41473281D01*
X79098891Y-41465396D01*
X79090921Y-41450428D01*
X79086120Y-41437097D01*
X79067014Y-41439917D01*
X79028504Y-41458783D01*
X78940239Y-41487887D01*
X78846623Y-41485825D01*
X78756921Y-41454221D01*
X78714204Y-41429257D01*
X78681621Y-41402226D01*
X78657817Y-41368405D01*
X78641439Y-41323068D01*
X78631131Y-41261489D01*
X78625541Y-41178943D01*
X78623312Y-41070705D01*
X78623026Y-40987004D01*
X78623026Y-40673421D01*
X78790131Y-40673421D01*
X78790131Y-40933533D01*
X78790131Y-40933533D01*
G37*
X78790131Y-40933533D02*
X78791710Y-41056089D01*
X78797481Y-41149179D01*
X78808991Y-41216651D01*
X78827790Y-41262355D01*
X78855426Y-41290139D01*
X78893448Y-41303854D01*
X78940526Y-41307358D01*
X78989832Y-41303432D01*
X79027283Y-41289089D01*
X79054428Y-41260478D01*
X79072815Y-41213751D01*
X79083993Y-41145058D01*
X79089511Y-41050550D01*
X79090921Y-40933533D01*
X79090921Y-40673421D01*
X79274736Y-40673421D01*
X79274736Y-41475526D01*
X79182828Y-41475526D01*
X79127422Y-41473281D01*
X79098891Y-41465396D01*
X79090921Y-41450428D01*
X79086120Y-41437097D01*
X79067014Y-41439917D01*
X79028504Y-41458783D01*
X78940239Y-41487887D01*
X78846623Y-41485825D01*
X78756921Y-41454221D01*
X78714204Y-41429257D01*
X78681621Y-41402226D01*
X78657817Y-41368405D01*
X78641439Y-41323068D01*
X78631131Y-41261489D01*
X78625541Y-41178943D01*
X78623312Y-41070705D01*
X78623026Y-40987004D01*
X78623026Y-40673421D01*
X78790131Y-40673421D01*
X78790131Y-40933533D01*
G36*
X80416576Y-40680419D02*
X80513395Y-40721549D01*
X80543890Y-40741571D01*
X80582865Y-40772340D01*
X80607331Y-40796533D01*
X80611578Y-40804413D01*
X80599584Y-40821899D01*
X80568887Y-40851570D01*
X80544312Y-40872279D01*
X80477046Y-40926336D01*
X80423930Y-40881642D01*
X80382884Y-40852789D01*
X80342863Y-40842829D01*
X80297059Y-40845261D01*
X80224324Y-40863345D01*
X80174256Y-40900881D01*
X80143829Y-40961562D01*
X80130017Y-41049081D01*
X80130013Y-41049136D01*
X80131208Y-41146958D01*
X80149772Y-41218730D01*
X80186804Y-41267595D01*
X80212050Y-41284143D01*
X80279097Y-41304749D01*
X80350709Y-41304762D01*
X80413015Y-41284768D01*
X80427763Y-41275000D01*
X80464750Y-41250047D01*
X80493668Y-41245958D01*
X80524856Y-41264530D01*
X80559336Y-41297887D01*
X80613912Y-41354196D01*
X80553318Y-41404142D01*
X80459698Y-41460513D01*
X80354125Y-41488293D01*
X80243798Y-41486282D01*
X80171343Y-41467862D01*
X80086656Y-41422310D01*
X80018927Y-41350650D01*
X79988157Y-41300066D01*
X79963236Y-41227488D01*
X79950766Y-41135569D01*
X79950670Y-41035948D01*
X79962870Y-40940267D01*
X79987290Y-40860169D01*
X79991136Y-40851956D01*
X80048093Y-40771413D01*
X80125209Y-40712771D01*
X80216390Y-40677247D01*
X80315543Y-40666057D01*
X80416576Y-40680419D01*
X80416576Y-40680419D01*
G37*
X80416576Y-40680419D02*
X80513395Y-40721549D01*
X80543890Y-40741571D01*
X80582865Y-40772340D01*
X80607331Y-40796533D01*
X80611578Y-40804413D01*
X80599584Y-40821899D01*
X80568887Y-40851570D01*
X80544312Y-40872279D01*
X80477046Y-40926336D01*
X80423930Y-40881642D01*
X80382884Y-40852789D01*
X80342863Y-40842829D01*
X80297059Y-40845261D01*
X80224324Y-40863345D01*
X80174256Y-40900881D01*
X80143829Y-40961562D01*
X80130017Y-41049081D01*
X80130013Y-41049136D01*
X80131208Y-41146958D01*
X80149772Y-41218730D01*
X80186804Y-41267595D01*
X80212050Y-41284143D01*
X80279097Y-41304749D01*
X80350709Y-41304762D01*
X80413015Y-41284768D01*
X80427763Y-41275000D01*
X80464750Y-41250047D01*
X80493668Y-41245958D01*
X80524856Y-41264530D01*
X80559336Y-41297887D01*
X80613912Y-41354196D01*
X80553318Y-41404142D01*
X80459698Y-41460513D01*
X80354125Y-41488293D01*
X80243798Y-41486282D01*
X80171343Y-41467862D01*
X80086656Y-41422310D01*
X80018927Y-41350650D01*
X79988157Y-41300066D01*
X79963236Y-41227488D01*
X79950766Y-41135569D01*
X79950670Y-41035948D01*
X79962870Y-40940267D01*
X79987290Y-40860169D01*
X79991136Y-40851956D01*
X80048093Y-40771413D01*
X80125209Y-40712771D01*
X80216390Y-40677247D01*
X80315543Y-40666057D01*
X80416576Y-40680419D01*
G36*
X81028784Y-40670554D02*
X81071574Y-40680949D01*
X81153609Y-40719013D01*
X81223757Y-40777149D01*
X81272305Y-40846852D01*
X81278975Y-40862502D01*
X81288124Y-40903496D01*
X81294529Y-40964138D01*
X81296710Y-41025430D01*
X81296710Y-41141316D01*
X81054407Y-41141316D01*
X80954471Y-41141693D01*
X80884069Y-41143987D01*
X80839313Y-41149938D01*
X80816315Y-41161285D01*
X80811189Y-41179771D01*
X80820048Y-41207136D01*
X80835917Y-41239155D01*
X80880184Y-41292592D01*
X80941699Y-41319215D01*
X81016885Y-41318347D01*
X81102053Y-41289371D01*
X81175659Y-41253611D01*
X81236734Y-41301904D01*
X81297810Y-41350197D01*
X81240351Y-41403285D01*
X81163641Y-41453445D01*
X81069302Y-41483688D01*
X80967827Y-41492151D01*
X80869711Y-41476974D01*
X80853881Y-41471824D01*
X80767647Y-41426791D01*
X80703501Y-41359652D01*
X80660091Y-41268405D01*
X80636064Y-41151044D01*
X80635784Y-41148529D01*
X80633633Y-41020627D01*
X80642329Y-40974997D01*
X80812105Y-40974997D01*
X80827697Y-40982013D01*
X80870029Y-40987388D01*
X80932434Y-40990457D01*
X80971981Y-40990921D01*
X81045728Y-40990630D01*
X81091840Y-40988783D01*
X81116100Y-40983912D01*
X81124294Y-40974555D01*
X81122206Y-40959245D01*
X81120455Y-40953322D01*
X81090560Y-40897668D01*
X81043542Y-40852815D01*
X81002049Y-40833105D01*
X80946926Y-40834295D01*
X80891068Y-40858875D01*
X80844212Y-40899570D01*
X80816094Y-40949108D01*
X80812105Y-40974997D01*
X80642329Y-40974997D01*
X80655074Y-40908133D01*
X80697611Y-40813727D01*
X80758747Y-40740088D01*
X80835985Y-40689893D01*
X80926830Y-40665822D01*
X81028784Y-40670554D01*
X81028784Y-40670554D01*
G37*
X81028784Y-40670554D02*
X81071574Y-40680949D01*
X81153609Y-40719013D01*
X81223757Y-40777149D01*
X81272305Y-40846852D01*
X81278975Y-40862502D01*
X81288124Y-40903496D01*
X81294529Y-40964138D01*
X81296710Y-41025430D01*
X81296710Y-41141316D01*
X81054407Y-41141316D01*
X80954471Y-41141693D01*
X80884069Y-41143987D01*
X80839313Y-41149938D01*
X80816315Y-41161285D01*
X80811189Y-41179771D01*
X80820048Y-41207136D01*
X80835917Y-41239155D01*
X80880184Y-41292592D01*
X80941699Y-41319215D01*
X81016885Y-41318347D01*
X81102053Y-41289371D01*
X81175659Y-41253611D01*
X81236734Y-41301904D01*
X81297810Y-41350197D01*
X81240351Y-41403285D01*
X81163641Y-41453445D01*
X81069302Y-41483688D01*
X80967827Y-41492151D01*
X80869711Y-41476974D01*
X80853881Y-41471824D01*
X80767647Y-41426791D01*
X80703501Y-41359652D01*
X80660091Y-41268405D01*
X80636064Y-41151044D01*
X80635784Y-41148529D01*
X80633633Y-41020627D01*
X80642329Y-40974997D01*
X80812105Y-40974997D01*
X80827697Y-40982013D01*
X80870029Y-40987388D01*
X80932434Y-40990457D01*
X80971981Y-40990921D01*
X81045728Y-40990630D01*
X81091840Y-40988783D01*
X81116100Y-40983912D01*
X81124294Y-40974555D01*
X81122206Y-40959245D01*
X81120455Y-40953322D01*
X81090560Y-40897668D01*
X81043542Y-40852815D01*
X81002049Y-40833105D01*
X80946926Y-40834295D01*
X80891068Y-40858875D01*
X80844212Y-40899570D01*
X80816094Y-40949108D01*
X80812105Y-40974997D01*
X80642329Y-40974997D01*
X80655074Y-40908133D01*
X80697611Y-40813727D01*
X80758747Y-40740088D01*
X80835985Y-40689893D01*
X80926830Y-40665822D01*
X81028784Y-40670554D01*
G36*
X76467957Y-40687226D02*
X76509546Y-40707090D01*
X76549825Y-40735784D01*
X76580510Y-40768809D01*
X76602861Y-40810931D01*
X76618136Y-40866915D01*
X76627592Y-40941528D01*
X76632487Y-41039535D01*
X76634081Y-41165702D01*
X76634106Y-41178914D01*
X76634473Y-41475526D01*
X76450657Y-41475526D01*
X76450657Y-41202081D01*
X76450527Y-41100777D01*
X76449621Y-41027353D01*
X76447173Y-40976271D01*
X76442414Y-40941990D01*
X76434574Y-40918971D01*
X76422885Y-40901673D01*
X76406602Y-40884581D01*
X76349634Y-40847857D01*
X76287445Y-40841042D01*
X76228199Y-40864261D01*
X76207595Y-40881543D01*
X76192470Y-40897791D01*
X76181610Y-40915191D01*
X76174310Y-40939212D01*
X76169863Y-40975322D01*
X76167564Y-41028988D01*
X76166704Y-41105680D01*
X76166578Y-41199043D01*
X76166578Y-41475526D01*
X75982763Y-41475526D01*
X75982763Y-40673421D01*
X76074671Y-40673421D01*
X76129851Y-40675603D01*
X76158320Y-40683351D01*
X76166575Y-40698468D01*
X76166578Y-40698916D01*
X76170408Y-40713720D01*
X76187301Y-40712040D01*
X76220888Y-40695773D01*
X76297063Y-40671840D01*
X76384200Y-40669178D01*
X76467957Y-40687226D01*
X76467957Y-40687226D01*
G37*
X76467957Y-40687226D02*
X76509546Y-40707090D01*
X76549825Y-40735784D01*
X76580510Y-40768809D01*
X76602861Y-40810931D01*
X76618136Y-40866915D01*
X76627592Y-40941528D01*
X76632487Y-41039535D01*
X76634081Y-41165702D01*
X76634106Y-41178914D01*
X76634473Y-41475526D01*
X76450657Y-41475526D01*
X76450657Y-41202081D01*
X76450527Y-41100777D01*
X76449621Y-41027353D01*
X76447173Y-40976271D01*
X76442414Y-40941990D01*
X76434574Y-40918971D01*
X76422885Y-40901673D01*
X76406602Y-40884581D01*
X76349634Y-40847857D01*
X76287445Y-40841042D01*
X76228199Y-40864261D01*
X76207595Y-40881543D01*
X76192470Y-40897791D01*
X76181610Y-40915191D01*
X76174310Y-40939212D01*
X76169863Y-40975322D01*
X76167564Y-41028988D01*
X76166704Y-41105680D01*
X76166578Y-41199043D01*
X76166578Y-41475526D01*
X75982763Y-41475526D01*
X75982763Y-40673421D01*
X76074671Y-40673421D01*
X76129851Y-40675603D01*
X76158320Y-40683351D01*
X76166575Y-40698468D01*
X76166578Y-40698916D01*
X76170408Y-40713720D01*
X76187301Y-40712040D01*
X76220888Y-40695773D01*
X76297063Y-40671840D01*
X76384200Y-40669178D01*
X76467957Y-40687226D01*
G36*
X79861388Y-40672645D02*
X79918865Y-40690206D01*
X79955872Y-40712395D01*
X79967927Y-40729942D01*
X79964609Y-40750742D01*
X79943079Y-40783419D01*
X79924874Y-40806562D01*
X79887344Y-40848402D01*
X79859148Y-40866005D01*
X79835111Y-40864856D01*
X79763808Y-40846710D01*
X79711442Y-40847534D01*
X79668918Y-40868098D01*
X79654642Y-40880134D01*
X79608947Y-40922483D01*
X79608947Y-41475526D01*
X79425131Y-41475526D01*
X79425131Y-40673421D01*
X79517039Y-40673421D01*
X79572219Y-40675603D01*
X79600688Y-40683351D01*
X79608943Y-40698468D01*
X79608947Y-40698916D01*
X79612845Y-40714749D01*
X79630474Y-40712684D01*
X79654901Y-40701261D01*
X79705350Y-40680005D01*
X79746316Y-40667216D01*
X79799028Y-40663938D01*
X79861388Y-40672645D01*
X79861388Y-40672645D01*
G37*
X79861388Y-40672645D02*
X79918865Y-40690206D01*
X79955872Y-40712395D01*
X79967927Y-40729942D01*
X79964609Y-40750742D01*
X79943079Y-40783419D01*
X79924874Y-40806562D01*
X79887344Y-40848402D01*
X79859148Y-40866005D01*
X79835111Y-40864856D01*
X79763808Y-40846710D01*
X79711442Y-40847534D01*
X79668918Y-40868098D01*
X79654642Y-40880134D01*
X79608947Y-40922483D01*
X79608947Y-41475526D01*
X79425131Y-41475526D01*
X79425131Y-40673421D01*
X79517039Y-40673421D01*
X79572219Y-40675603D01*
X79600688Y-40683351D01*
X79608943Y-40698468D01*
X79608947Y-40698916D01*
X79612845Y-40714749D01*
X79630474Y-40712684D01*
X79654901Y-40701261D01*
X79705350Y-40680005D01*
X79746316Y-40667216D01*
X79799028Y-40663938D01*
X79861388Y-40672645D01*
G36*
X77970964Y-35133576D02*
X78046513Y-35534322D01*
X78604041Y-35764154D01*
X78938465Y-35536748D01*
X79032122Y-35473431D01*
X79116782Y-35416896D01*
X79188495Y-35369727D01*
X79243311Y-35334502D01*
X79277280Y-35313805D01*
X79286530Y-35309342D01*
X79303195Y-35320820D01*
X79338806Y-35352551D01*
X79389371Y-35400483D01*
X79450900Y-35460562D01*
X79519399Y-35528733D01*
X79590879Y-35600945D01*
X79661347Y-35673142D01*
X79726811Y-35741273D01*
X79783280Y-35801283D01*
X79826763Y-35849119D01*
X79853268Y-35880727D01*
X79859605Y-35891305D01*
X79850486Y-35910806D01*
X79824920Y-35953531D01*
X79785597Y-36015298D01*
X79735203Y-36091931D01*
X79676427Y-36179248D01*
X79642368Y-36229052D01*
X79580289Y-36319993D01*
X79525126Y-36402059D01*
X79479554Y-36471163D01*
X79446250Y-36523222D01*
X79427890Y-36554150D01*
X79425131Y-36560650D01*
X79431385Y-36579121D01*
X79448434Y-36622172D01*
X79473703Y-36683749D01*
X79504622Y-36757799D01*
X79538618Y-36838270D01*
X79573118Y-36919107D01*
X79605551Y-36994258D01*
X79633343Y-37057671D01*
X79653923Y-37103293D01*
X79664719Y-37125069D01*
X79665356Y-37125926D01*
X79682307Y-37130084D01*
X79727451Y-37139361D01*
X79796110Y-37152844D01*
X79883602Y-37169621D01*
X79985250Y-37188781D01*
X80044556Y-37199830D01*
X80153172Y-37220510D01*
X80251277Y-37240189D01*
X80333909Y-37257789D01*
X80396104Y-37272233D01*
X80432899Y-37282446D01*
X80440296Y-37285686D01*
X80447540Y-37307617D01*
X80453385Y-37357147D01*
X80457835Y-37428485D01*
X80460893Y-37515839D01*
X80462565Y-37613417D01*
X80462853Y-37715426D01*
X80461761Y-37816075D01*
X80459294Y-37909572D01*
X80455456Y-37990125D01*
X80450250Y-38051942D01*
X80443681Y-38089230D01*
X80439741Y-38096993D01*
X80416188Y-38106298D01*
X80366282Y-38119600D01*
X80296623Y-38135337D01*
X80213813Y-38151946D01*
X80184905Y-38157319D01*
X80045531Y-38182848D01*
X79935436Y-38203408D01*
X79850982Y-38219815D01*
X79788530Y-38232887D01*
X79744444Y-38243441D01*
X79715085Y-38252294D01*
X79696815Y-38260263D01*
X79685998Y-38268165D01*
X79684485Y-38269727D01*
X79669377Y-38294886D01*
X79646329Y-38343850D01*
X79617644Y-38410621D01*
X79585622Y-38489205D01*
X79552565Y-38573607D01*
X79520773Y-38657830D01*
X79492549Y-38735879D01*
X79470193Y-38801759D01*
X79456007Y-38849473D01*
X79452293Y-38873027D01*
X79452602Y-38873852D01*
X79465189Y-38893104D01*
X79493744Y-38935463D01*
X79535267Y-38996521D01*
X79586756Y-39071868D01*
X79645211Y-39157096D01*
X79661858Y-39181315D01*
X79721215Y-39269123D01*
X79773447Y-39349238D01*
X79815708Y-39417062D01*
X79845153Y-39467993D01*
X79858937Y-39497431D01*
X79859605Y-39501048D01*
X79848024Y-39520057D01*
X79816024Y-39557714D01*
X79767718Y-39609973D01*
X79707220Y-39672786D01*
X79638644Y-39742106D01*
X79566104Y-39813885D01*
X79493712Y-39884077D01*
X79425584Y-39948635D01*
X79365832Y-40003510D01*
X79318571Y-40044656D01*
X79287913Y-40068026D01*
X79279432Y-40071842D01*
X79259691Y-40062855D01*
X79219274Y-40038616D01*
X79164763Y-40003209D01*
X79122823Y-39974711D01*
X79046829Y-39922418D01*
X78956834Y-39860845D01*
X78866564Y-39799370D01*
X78818032Y-39766469D01*
X78653762Y-39655359D01*
X78515869Y-39729916D01*
X78453049Y-39762578D01*
X78399629Y-39787966D01*
X78363484Y-39802446D01*
X78354284Y-39804460D01*
X78343221Y-39789584D01*
X78321394Y-39747547D01*
X78290434Y-39682227D01*
X78251970Y-39597500D01*
X78207632Y-39497245D01*
X78159047Y-39385339D01*
X78107846Y-39265659D01*
X78055659Y-39142084D01*
X78004113Y-39018491D01*
X77954840Y-38898757D01*
X77909467Y-38786759D01*
X77869625Y-38686377D01*
X77836942Y-38601486D01*
X77813049Y-38535965D01*
X77799574Y-38493690D01*
X77797406Y-38479172D01*
X77814583Y-38460653D01*
X77852190Y-38430590D01*
X77902366Y-38395232D01*
X77906578Y-38392434D01*
X78036264Y-38288625D01*
X78140834Y-38167515D01*
X78219381Y-38032976D01*
X78270999Y-37888882D01*
X78294782Y-37739105D01*
X78289823Y-37587517D01*
X78255217Y-37437992D01*
X78190057Y-37294400D01*
X78170886Y-37262984D01*
X78071174Y-37136125D01*
X77953377Y-37034255D01*
X77821571Y-36957904D01*
X77679833Y-36907602D01*
X77532242Y-36883879D01*
X77382873Y-36887265D01*
X77235803Y-36918288D01*
X77095111Y-36977480D01*
X76964873Y-37065369D01*
X76924586Y-37101042D01*
X76822055Y-37212706D01*
X76747341Y-37330257D01*
X76696090Y-37462020D01*
X76667546Y-37592507D01*
X76660500Y-37739216D01*
X76683996Y-37886653D01*
X76735649Y-38029834D01*
X76813071Y-38163777D01*
X76913875Y-38283498D01*
X77035676Y-38384014D01*
X77051684Y-38394609D01*
X77102398Y-38429306D01*
X77140950Y-38459370D01*
X77159381Y-38478565D01*
X77159649Y-38479172D01*
X77155692Y-38499936D01*
X77140007Y-38547062D01*
X77114222Y-38616673D01*
X77079969Y-38704893D01*
X77038877Y-38807844D01*
X76992576Y-38921650D01*
X76942696Y-39042435D01*
X76890867Y-39166321D01*
X76838719Y-39289432D01*
X76787882Y-39407891D01*
X76739987Y-39517823D01*
X76696662Y-39615349D01*
X76659538Y-39696593D01*
X76630244Y-39757679D01*
X76610412Y-39794730D01*
X76602426Y-39804460D01*
X76578021Y-39796883D01*
X76532358Y-39776560D01*
X76473310Y-39747125D01*
X76440840Y-39729916D01*
X76302947Y-39655359D01*
X76138677Y-39766469D01*
X76054821Y-39823390D01*
X75963013Y-39886030D01*
X75876980Y-39945011D01*
X75833887Y-39974711D01*
X75773277Y-40015410D01*
X75721955Y-40047663D01*
X75686615Y-40067384D01*
X75675137Y-40071554D01*
X75658430Y-40060307D01*
X75621454Y-40028911D01*
X75567795Y-39980624D01*
X75501038Y-39918708D01*
X75424766Y-39846421D01*
X75376527Y-39800008D01*
X75292133Y-39717087D01*
X75219197Y-39642920D01*
X75160669Y-39580680D01*
X75119497Y-39533541D01*
X75098628Y-39504673D01*
X75096626Y-39498815D01*
X75105917Y-39476532D01*
X75131591Y-39431477D01*
X75170800Y-39368211D01*
X75220697Y-39291295D01*
X75278433Y-39205292D01*
X75294851Y-39181315D01*
X75354677Y-39094170D01*
X75408350Y-39015710D01*
X75452870Y-38950345D01*
X75485235Y-38902484D01*
X75502445Y-38876535D01*
X75504107Y-38873852D01*
X75501621Y-38853172D01*
X75488423Y-38807704D01*
X75466814Y-38743444D01*
X75439096Y-38666387D01*
X75407570Y-38582529D01*
X75374537Y-38497866D01*
X75342299Y-38418392D01*
X75313157Y-38350104D01*
X75289412Y-38298997D01*
X75273365Y-38271067D01*
X75272225Y-38269727D01*
X75262412Y-38261745D01*
X75245839Y-38253851D01*
X75218868Y-38245229D01*
X75177861Y-38235062D01*
X75119180Y-38222531D01*
X75039187Y-38206821D01*
X74934245Y-38187113D01*
X74800715Y-38162592D01*
X74771804Y-38157319D01*
X74686118Y-38140764D01*
X74611418Y-38124569D01*
X74554306Y-38110296D01*
X74521383Y-38099508D01*
X74516969Y-38096993D01*
X74509694Y-38074696D01*
X74503781Y-38024869D01*
X74499234Y-37953304D01*
X74496055Y-37865793D01*
X74494251Y-37768128D01*
X74493823Y-37666101D01*
X74494777Y-37565503D01*
X74497116Y-37472127D01*
X74500844Y-37391765D01*
X74505966Y-37330209D01*
X74512484Y-37293250D01*
X74516414Y-37285686D01*
X74538292Y-37278056D01*
X74588109Y-37265642D01*
X74660903Y-37249522D01*
X74751711Y-37230773D01*
X74855569Y-37210471D01*
X74912154Y-37199830D01*
X75019514Y-37179760D01*
X75115254Y-37161580D01*
X75194694Y-37146199D01*
X75253154Y-37134531D01*
X75285955Y-37127488D01*
X75291354Y-37125926D01*
X75300478Y-37108322D01*
X75319765Y-37065918D01*
X75346645Y-37004772D01*
X75378546Y-36930943D01*
X75412898Y-36850489D01*
X75447129Y-36769468D01*
X75478669Y-36693937D01*
X75504946Y-36629955D01*
X75523389Y-36583580D01*
X75531429Y-36560869D01*
X75531578Y-36559876D01*
X75522465Y-36541961D01*
X75496914Y-36500733D01*
X75457612Y-36440291D01*
X75407243Y-36364731D01*
X75348494Y-36278152D01*
X75314342Y-36228421D01*
X75252110Y-36137236D01*
X75196836Y-36054449D01*
X75151218Y-35984249D01*
X75117952Y-35930824D01*
X75099736Y-35898361D01*
X75097105Y-35891083D01*
X75108414Y-35874145D01*
X75139681Y-35837978D01*
X75186910Y-35786635D01*
X75246108Y-35724167D01*
X75313281Y-35654626D01*
X75384434Y-35582065D01*
X75455574Y-35510535D01*
X75522707Y-35444087D01*
X75581839Y-35386774D01*
X75628975Y-35342647D01*
X75660123Y-35315759D01*
X75670543Y-35309342D01*
X75687509Y-35318365D01*
X75728089Y-35343715D01*
X75788337Y-35382810D01*
X75864307Y-35433071D01*
X75952054Y-35491917D01*
X76018244Y-35536748D01*
X76352668Y-35764154D01*
X76631433Y-35649238D01*
X76910197Y-35534322D01*
X76985746Y-35133576D01*
X77061294Y-34732829D01*
X77895415Y-34732829D01*
X77970964Y-35133576D01*
X77970964Y-35133576D01*
G37*
X77970964Y-35133576D02*
X78046513Y-35534322D01*
X78604041Y-35764154D01*
X78938465Y-35536748D01*
X79032122Y-35473431D01*
X79116782Y-35416896D01*
X79188495Y-35369727D01*
X79243311Y-35334502D01*
X79277280Y-35313805D01*
X79286530Y-35309342D01*
X79303195Y-35320820D01*
X79338806Y-35352551D01*
X79389371Y-35400483D01*
X79450900Y-35460562D01*
X79519399Y-35528733D01*
X79590879Y-35600945D01*
X79661347Y-35673142D01*
X79726811Y-35741273D01*
X79783280Y-35801283D01*
X79826763Y-35849119D01*
X79853268Y-35880727D01*
X79859605Y-35891305D01*
X79850486Y-35910806D01*
X79824920Y-35953531D01*
X79785597Y-36015298D01*
X79735203Y-36091931D01*
X79676427Y-36179248D01*
X79642368Y-36229052D01*
X79580289Y-36319993D01*
X79525126Y-36402059D01*
X79479554Y-36471163D01*
X79446250Y-36523222D01*
X79427890Y-36554150D01*
X79425131Y-36560650D01*
X79431385Y-36579121D01*
X79448434Y-36622172D01*
X79473703Y-36683749D01*
X79504622Y-36757799D01*
X79538618Y-36838270D01*
X79573118Y-36919107D01*
X79605551Y-36994258D01*
X79633343Y-37057671D01*
X79653923Y-37103293D01*
X79664719Y-37125069D01*
X79665356Y-37125926D01*
X79682307Y-37130084D01*
X79727451Y-37139361D01*
X79796110Y-37152844D01*
X79883602Y-37169621D01*
X79985250Y-37188781D01*
X80044556Y-37199830D01*
X80153172Y-37220510D01*
X80251277Y-37240189D01*
X80333909Y-37257789D01*
X80396104Y-37272233D01*
X80432899Y-37282446D01*
X80440296Y-37285686D01*
X80447540Y-37307617D01*
X80453385Y-37357147D01*
X80457835Y-37428485D01*
X80460893Y-37515839D01*
X80462565Y-37613417D01*
X80462853Y-37715426D01*
X80461761Y-37816075D01*
X80459294Y-37909572D01*
X80455456Y-37990125D01*
X80450250Y-38051942D01*
X80443681Y-38089230D01*
X80439741Y-38096993D01*
X80416188Y-38106298D01*
X80366282Y-38119600D01*
X80296623Y-38135337D01*
X80213813Y-38151946D01*
X80184905Y-38157319D01*
X80045531Y-38182848D01*
X79935436Y-38203408D01*
X79850982Y-38219815D01*
X79788530Y-38232887D01*
X79744444Y-38243441D01*
X79715085Y-38252294D01*
X79696815Y-38260263D01*
X79685998Y-38268165D01*
X79684485Y-38269727D01*
X79669377Y-38294886D01*
X79646329Y-38343850D01*
X79617644Y-38410621D01*
X79585622Y-38489205D01*
X79552565Y-38573607D01*
X79520773Y-38657830D01*
X79492549Y-38735879D01*
X79470193Y-38801759D01*
X79456007Y-38849473D01*
X79452293Y-38873027D01*
X79452602Y-38873852D01*
X79465189Y-38893104D01*
X79493744Y-38935463D01*
X79535267Y-38996521D01*
X79586756Y-39071868D01*
X79645211Y-39157096D01*
X79661858Y-39181315D01*
X79721215Y-39269123D01*
X79773447Y-39349238D01*
X79815708Y-39417062D01*
X79845153Y-39467993D01*
X79858937Y-39497431D01*
X79859605Y-39501048D01*
X79848024Y-39520057D01*
X79816024Y-39557714D01*
X79767718Y-39609973D01*
X79707220Y-39672786D01*
X79638644Y-39742106D01*
X79566104Y-39813885D01*
X79493712Y-39884077D01*
X79425584Y-39948635D01*
X79365832Y-40003510D01*
X79318571Y-40044656D01*
X79287913Y-40068026D01*
X79279432Y-40071842D01*
X79259691Y-40062855D01*
X79219274Y-40038616D01*
X79164763Y-40003209D01*
X79122823Y-39974711D01*
X79046829Y-39922418D01*
X78956834Y-39860845D01*
X78866564Y-39799370D01*
X78818032Y-39766469D01*
X78653762Y-39655359D01*
X78515869Y-39729916D01*
X78453049Y-39762578D01*
X78399629Y-39787966D01*
X78363484Y-39802446D01*
X78354284Y-39804460D01*
X78343221Y-39789584D01*
X78321394Y-39747547D01*
X78290434Y-39682227D01*
X78251970Y-39597500D01*
X78207632Y-39497245D01*
X78159047Y-39385339D01*
X78107846Y-39265659D01*
X78055659Y-39142084D01*
X78004113Y-39018491D01*
X77954840Y-38898757D01*
X77909467Y-38786759D01*
X77869625Y-38686377D01*
X77836942Y-38601486D01*
X77813049Y-38535965D01*
X77799574Y-38493690D01*
X77797406Y-38479172D01*
X77814583Y-38460653D01*
X77852190Y-38430590D01*
X77902366Y-38395232D01*
X77906578Y-38392434D01*
X78036264Y-38288625D01*
X78140834Y-38167515D01*
X78219381Y-38032976D01*
X78270999Y-37888882D01*
X78294782Y-37739105D01*
X78289823Y-37587517D01*
X78255217Y-37437992D01*
X78190057Y-37294400D01*
X78170886Y-37262984D01*
X78071174Y-37136125D01*
X77953377Y-37034255D01*
X77821571Y-36957904D01*
X77679833Y-36907602D01*
X77532242Y-36883879D01*
X77382873Y-36887265D01*
X77235803Y-36918288D01*
X77095111Y-36977480D01*
X76964873Y-37065369D01*
X76924586Y-37101042D01*
X76822055Y-37212706D01*
X76747341Y-37330257D01*
X76696090Y-37462020D01*
X76667546Y-37592507D01*
X76660500Y-37739216D01*
X76683996Y-37886653D01*
X76735649Y-38029834D01*
X76813071Y-38163777D01*
X76913875Y-38283498D01*
X77035676Y-38384014D01*
X77051684Y-38394609D01*
X77102398Y-38429306D01*
X77140950Y-38459370D01*
X77159381Y-38478565D01*
X77159649Y-38479172D01*
X77155692Y-38499936D01*
X77140007Y-38547062D01*
X77114222Y-38616673D01*
X77079969Y-38704893D01*
X77038877Y-38807844D01*
X76992576Y-38921650D01*
X76942696Y-39042435D01*
X76890867Y-39166321D01*
X76838719Y-39289432D01*
X76787882Y-39407891D01*
X76739987Y-39517823D01*
X76696662Y-39615349D01*
X76659538Y-39696593D01*
X76630244Y-39757679D01*
X76610412Y-39794730D01*
X76602426Y-39804460D01*
X76578021Y-39796883D01*
X76532358Y-39776560D01*
X76473310Y-39747125D01*
X76440840Y-39729916D01*
X76302947Y-39655359D01*
X76138677Y-39766469D01*
X76054821Y-39823390D01*
X75963013Y-39886030D01*
X75876980Y-39945011D01*
X75833887Y-39974711D01*
X75773277Y-40015410D01*
X75721955Y-40047663D01*
X75686615Y-40067384D01*
X75675137Y-40071554D01*
X75658430Y-40060307D01*
X75621454Y-40028911D01*
X75567795Y-39980624D01*
X75501038Y-39918708D01*
X75424766Y-39846421D01*
X75376527Y-39800008D01*
X75292133Y-39717087D01*
X75219197Y-39642920D01*
X75160669Y-39580680D01*
X75119497Y-39533541D01*
X75098628Y-39504673D01*
X75096626Y-39498815D01*
X75105917Y-39476532D01*
X75131591Y-39431477D01*
X75170800Y-39368211D01*
X75220697Y-39291295D01*
X75278433Y-39205292D01*
X75294851Y-39181315D01*
X75354677Y-39094170D01*
X75408350Y-39015710D01*
X75452870Y-38950345D01*
X75485235Y-38902484D01*
X75502445Y-38876535D01*
X75504107Y-38873852D01*
X75501621Y-38853172D01*
X75488423Y-38807704D01*
X75466814Y-38743444D01*
X75439096Y-38666387D01*
X75407570Y-38582529D01*
X75374537Y-38497866D01*
X75342299Y-38418392D01*
X75313157Y-38350104D01*
X75289412Y-38298997D01*
X75273365Y-38271067D01*
X75272225Y-38269727D01*
X75262412Y-38261745D01*
X75245839Y-38253851D01*
X75218868Y-38245229D01*
X75177861Y-38235062D01*
X75119180Y-38222531D01*
X75039187Y-38206821D01*
X74934245Y-38187113D01*
X74800715Y-38162592D01*
X74771804Y-38157319D01*
X74686118Y-38140764D01*
X74611418Y-38124569D01*
X74554306Y-38110296D01*
X74521383Y-38099508D01*
X74516969Y-38096993D01*
X74509694Y-38074696D01*
X74503781Y-38024869D01*
X74499234Y-37953304D01*
X74496055Y-37865793D01*
X74494251Y-37768128D01*
X74493823Y-37666101D01*
X74494777Y-37565503D01*
X74497116Y-37472127D01*
X74500844Y-37391765D01*
X74505966Y-37330209D01*
X74512484Y-37293250D01*
X74516414Y-37285686D01*
X74538292Y-37278056D01*
X74588109Y-37265642D01*
X74660903Y-37249522D01*
X74751711Y-37230773D01*
X74855569Y-37210471D01*
X74912154Y-37199830D01*
X75019514Y-37179760D01*
X75115254Y-37161580D01*
X75194694Y-37146199D01*
X75253154Y-37134531D01*
X75285955Y-37127488D01*
X75291354Y-37125926D01*
X75300478Y-37108322D01*
X75319765Y-37065918D01*
X75346645Y-37004772D01*
X75378546Y-36930943D01*
X75412898Y-36850489D01*
X75447129Y-36769468D01*
X75478669Y-36693937D01*
X75504946Y-36629955D01*
X75523389Y-36583580D01*
X75531429Y-36560869D01*
X75531578Y-36559876D01*
X75522465Y-36541961D01*
X75496914Y-36500733D01*
X75457612Y-36440291D01*
X75407243Y-36364731D01*
X75348494Y-36278152D01*
X75314342Y-36228421D01*
X75252110Y-36137236D01*
X75196836Y-36054449D01*
X75151218Y-35984249D01*
X75117952Y-35930824D01*
X75099736Y-35898361D01*
X75097105Y-35891083D01*
X75108414Y-35874145D01*
X75139681Y-35837978D01*
X75186910Y-35786635D01*
X75246108Y-35724167D01*
X75313281Y-35654626D01*
X75384434Y-35582065D01*
X75455574Y-35510535D01*
X75522707Y-35444087D01*
X75581839Y-35386774D01*
X75628975Y-35342647D01*
X75660123Y-35315759D01*
X75670543Y-35309342D01*
X75687509Y-35318365D01*
X75728089Y-35343715D01*
X75788337Y-35382810D01*
X75864307Y-35433071D01*
X75952054Y-35491917D01*
X76018244Y-35536748D01*
X76352668Y-35764154D01*
X76631433Y-35649238D01*
X76910197Y-35534322D01*
X76985746Y-35133576D01*
X77061294Y-34732829D01*
X77895415Y-34732829D01*
X77970964Y-35133576D01*
D13*
X89155000Y-40885000D02*
X93105000Y-40885000D01*
X93105000Y-40885000D02*
X93105000Y-32585000D01*
X93105000Y-32585000D02*
X89155000Y-32585000D01*
X89155000Y-32585000D02*
X89155000Y-40885000D01*
X88905000Y-38385000D02*
X88905000Y-41135000D01*
X88905000Y-41135000D02*
X91655000Y-41135000D01*
X91605000Y-40885000D02*
X91605000Y-40485000D01*
X91605000Y-32585000D02*
X91605000Y-32985000D01*
X89555000Y-36735000D02*
X89555000Y-40485000D01*
X89555000Y-40485000D02*
X90805000Y-40485000D01*
X90805000Y-40485000D02*
X90805000Y-40085000D01*
X90805000Y-40085000D02*
X91205000Y-40085000D01*
X91205000Y-40085000D02*
X91205000Y-40485000D01*
X91205000Y-40485000D02*
X93105000Y-40485000D01*
X89555000Y-36735000D02*
X89555000Y-32985000D01*
X89555000Y-32985000D02*
X90805000Y-32985000D01*
X90805000Y-32985000D02*
X90805000Y-33385000D01*
X90805000Y-33385000D02*
X91205000Y-33385000D01*
X91205000Y-33385000D02*
X91205000Y-32985000D01*
X91205000Y-32985000D02*
X93105000Y-32985000D01*
X88370000Y-52805000D02*
X89370000Y-53805000D01*
X93270000Y-43905000D02*
X88370000Y-43905000D01*
X88370000Y-43905000D02*
X88370000Y-52805000D01*
X89370000Y-53805000D02*
X93270000Y-53805000D01*
X93270000Y-53805000D02*
X93270000Y-43905000D01*
X64505000Y-47330000D02*
X66305000Y-47330000D01*
X66305000Y-44110000D02*
X63855000Y-44110000D01*
X64505000Y-55585000D02*
X66305000Y-55585000D01*
X66305000Y-52365000D02*
X63855000Y-52365000D01*
X82820000Y-39755000D02*
X84820000Y-39755000D01*
X84820000Y-37715000D02*
X82820000Y-37715000D01*
X54550000Y-53400000D02*
X57210000Y-53400000D01*
X54550000Y-45720000D02*
X54550000Y-53400000D01*
X57210000Y-45720000D02*
X57210000Y-53400000D01*
X54550000Y-45720000D02*
X57210000Y-45720000D01*
X54550000Y-44450000D02*
X54550000Y-43120000D01*
X54550000Y-43120000D02*
X55880000Y-43120000D01*
X83760000Y-52765000D02*
X86420000Y-52765000D01*
X83760000Y-47625000D02*
X83760000Y-52765000D01*
X86420000Y-47625000D02*
X86420000Y-52765000D01*
X83760000Y-47625000D02*
X86420000Y-47625000D01*
X83760000Y-46355000D02*
X83760000Y-45025000D01*
X83760000Y-45025000D02*
X85090000Y-45025000D01*
X75690000Y-55555000D02*
X75690000Y-54625000D01*
X75690000Y-52395000D02*
X75690000Y-53325000D01*
X75690000Y-52395000D02*
X72530000Y-52395000D01*
X75690000Y-55555000D02*
X74230000Y-55555000D01*
X85400000Y-31625000D02*
X84470000Y-31625000D01*
X82240000Y-31625000D02*
X83170000Y-31625000D01*
X82240000Y-31625000D02*
X82240000Y-34785000D01*
X85400000Y-31625000D02*
X85400000Y-33085000D01*
X72700000Y-31625000D02*
X71770000Y-31625000D01*
X69540000Y-31625000D02*
X70470000Y-31625000D01*
X69540000Y-31625000D02*
X69540000Y-34785000D01*
X72700000Y-31625000D02*
X72700000Y-33085000D01*
D12*
X67512143Y-32551666D02*
X67559762Y-32599285D01*
X67607381Y-32742142D01*
X67607381Y-32837380D01*
X67559762Y-32980238D01*
X67464524Y-33075476D01*
X67369286Y-33123095D01*
X67178810Y-33170714D01*
X67035952Y-33170714D01*
X66845476Y-33123095D01*
X66750238Y-33075476D01*
X66655000Y-32980238D01*
X66607381Y-32837380D01*
X66607381Y-32742142D01*
X66655000Y-32599285D01*
X66702619Y-32551666D01*
X67607381Y-31599285D02*
X67607381Y-32170714D01*
X67607381Y-31885000D02*
X66607381Y-31885000D01*
X66750238Y-31980238D01*
X66845476Y-32075476D01*
X66893095Y-32170714D01*
X63857381Y-32980238D02*
X63857381Y-33551667D01*
X63857381Y-33265953D02*
X62857381Y-33265953D01*
X63000238Y-33361191D01*
X63095476Y-33456429D01*
X63143095Y-33551667D01*
X63190714Y-32123095D02*
X63857381Y-32123095D01*
X63190714Y-32551667D02*
X63714524Y-32551667D01*
X63809762Y-32504048D01*
X63857381Y-32408810D01*
X63857381Y-32265952D01*
X63809762Y-32170714D01*
X63762143Y-32123095D01*
X63333571Y-31313571D02*
X63333571Y-31646905D01*
X63857381Y-31646905D02*
X62857381Y-31646905D01*
X62857381Y-31170714D01*
X62572143Y-17966666D02*
X62619762Y-18014285D01*
X62667381Y-18157142D01*
X62667381Y-18252380D01*
X62619762Y-18395238D01*
X62524524Y-18490476D01*
X62429286Y-18538095D01*
X62238810Y-18585714D01*
X62095952Y-18585714D01*
X61905476Y-18538095D01*
X61810238Y-18490476D01*
X61715000Y-18395238D01*
X61667381Y-18252380D01*
X61667381Y-18157142D01*
X61715000Y-18014285D01*
X61762619Y-17966666D01*
X61762619Y-17585714D02*
X61715000Y-17538095D01*
X61667381Y-17442857D01*
X61667381Y-17204761D01*
X61715000Y-17109523D01*
X61762619Y-17061904D01*
X61857857Y-17014285D01*
X61953095Y-17014285D01*
X62095952Y-17061904D01*
X62667381Y-17633333D01*
X62667381Y-17014285D01*
X70953334Y-40842143D02*
X70905715Y-40889762D01*
X70762858Y-40937381D01*
X70667620Y-40937381D01*
X70524762Y-40889762D01*
X70429524Y-40794524D01*
X70381905Y-40699286D01*
X70334286Y-40508810D01*
X70334286Y-40365952D01*
X70381905Y-40175476D01*
X70429524Y-40080238D01*
X70524762Y-39985000D01*
X70667620Y-39937381D01*
X70762858Y-39937381D01*
X70905715Y-39985000D01*
X70953334Y-40032619D01*
X71286667Y-39937381D02*
X71905715Y-39937381D01*
X71572381Y-40318333D01*
X71715239Y-40318333D01*
X71810477Y-40365952D01*
X71858096Y-40413571D01*
X71905715Y-40508810D01*
X71905715Y-40746905D01*
X71858096Y-40842143D01*
X71810477Y-40889762D01*
X71715239Y-40937381D01*
X71429524Y-40937381D01*
X71334286Y-40889762D01*
X71286667Y-40842143D01*
X70143810Y-37187381D02*
X69572381Y-37187381D01*
X69858095Y-37187381D02*
X69858095Y-36187381D01*
X69762857Y-36330238D01*
X69667619Y-36425476D01*
X69572381Y-36473095D01*
X71762858Y-36520714D02*
X71762858Y-37187381D01*
X71334286Y-36520714D02*
X71334286Y-37044524D01*
X71381905Y-37139762D01*
X71477143Y-37187381D01*
X71620001Y-37187381D01*
X71715239Y-37139762D01*
X71762858Y-37092143D01*
X72572382Y-36663571D02*
X72239048Y-36663571D01*
X72239048Y-37187381D02*
X72239048Y-36187381D01*
X72715239Y-36187381D01*
X61531667Y-41087381D02*
X61531667Y-40087381D01*
X61912620Y-40087381D01*
X62007858Y-40135000D01*
X62055477Y-40182619D01*
X62103096Y-40277857D01*
X62103096Y-40420714D01*
X62055477Y-40515952D01*
X62007858Y-40563571D01*
X61912620Y-40611190D01*
X61531667Y-40611190D01*
X62436429Y-40087381D02*
X62674524Y-41087381D01*
X62865001Y-40373095D01*
X63055477Y-41087381D01*
X63293572Y-40087381D01*
X64245953Y-41087381D02*
X63912619Y-40611190D01*
X63674524Y-41087381D02*
X63674524Y-40087381D01*
X64055477Y-40087381D01*
X64150715Y-40135000D01*
X64198334Y-40182619D01*
X64245953Y-40277857D01*
X64245953Y-40420714D01*
X64198334Y-40515952D01*
X64150715Y-40563571D01*
X64055477Y-40611190D01*
X63674524Y-40611190D01*
X51736667Y-28027381D02*
X51736667Y-28741667D01*
X51689047Y-28884524D01*
X51593809Y-28979762D01*
X51450952Y-29027381D01*
X51355714Y-29027381D01*
X52736667Y-29027381D02*
X52165238Y-29027381D01*
X52450952Y-29027381D02*
X52450952Y-28027381D01*
X52355714Y-28170238D01*
X52260476Y-28265476D01*
X52165238Y-28313095D01*
X52911667Y-34107381D02*
X52340238Y-34107381D01*
X52625952Y-34107381D02*
X52625952Y-33107381D01*
X52530714Y-33250238D01*
X52435476Y-33345476D01*
X52340238Y-33393095D01*
X53292619Y-33202619D02*
X53340238Y-33155000D01*
X53435476Y-33107381D01*
X53673572Y-33107381D01*
X53768810Y-33155000D01*
X53816429Y-33202619D01*
X53864048Y-33297857D01*
X53864048Y-33393095D01*
X53816429Y-33535952D01*
X53245000Y-34107381D01*
X53864048Y-34107381D01*
X54149762Y-33107381D02*
X54483095Y-34107381D01*
X54816429Y-33107381D01*
X55911667Y-34107381D02*
X55911667Y-33107381D01*
X56292620Y-33107381D01*
X56387858Y-33155000D01*
X56435477Y-33202619D01*
X56483096Y-33297857D01*
X56483096Y-33440714D01*
X56435477Y-33535952D01*
X56387858Y-33583571D01*
X56292620Y-33631190D01*
X55911667Y-33631190D01*
X56816429Y-33440714D02*
X57006905Y-34107381D01*
X57197382Y-33631190D01*
X57387858Y-34107381D01*
X57578334Y-33440714D01*
X57959286Y-34107381D02*
X57959286Y-33440714D01*
X57959286Y-33631190D02*
X58006905Y-33535952D01*
X58054524Y-33488333D01*
X58149762Y-33440714D01*
X58245001Y-33440714D01*
X53324286Y-36287381D02*
X53943334Y-36287381D01*
X53610000Y-36668333D01*
X53752858Y-36668333D01*
X53848096Y-36715952D01*
X53895715Y-36763571D01*
X53943334Y-36858810D01*
X53943334Y-37096905D01*
X53895715Y-37192143D01*
X53848096Y-37239762D01*
X53752858Y-37287381D01*
X53467143Y-37287381D01*
X53371905Y-37239762D01*
X53324286Y-37192143D01*
X54276667Y-36287381D02*
X54895715Y-36287381D01*
X54562381Y-36668333D01*
X54705239Y-36668333D01*
X54800477Y-36715952D01*
X54848096Y-36763571D01*
X54895715Y-36858810D01*
X54895715Y-37096905D01*
X54848096Y-37192143D01*
X54800477Y-37239762D01*
X54705239Y-37287381D01*
X54419524Y-37287381D01*
X54324286Y-37239762D01*
X54276667Y-37192143D01*
X55514762Y-36287381D02*
X55610001Y-36287381D01*
X55705239Y-36335000D01*
X55752858Y-36382619D01*
X55800477Y-36477857D01*
X55848096Y-36668333D01*
X55848096Y-36906429D01*
X55800477Y-37096905D01*
X55752858Y-37192143D01*
X55705239Y-37239762D01*
X55610001Y-37287381D01*
X55514762Y-37287381D01*
X55419524Y-37239762D01*
X55371905Y-37192143D01*
X55324286Y-37096905D01*
X55276667Y-36906429D01*
X55276667Y-36668333D01*
X55324286Y-36477857D01*
X55371905Y-36382619D01*
X55419524Y-36335000D01*
X55514762Y-36287381D01*
X76017381Y-46950238D02*
X76017381Y-47521667D01*
X76017381Y-47235953D02*
X75017381Y-47235953D01*
X75160238Y-47331191D01*
X75255476Y-47426429D01*
X75303095Y-47521667D01*
X75017381Y-46331191D02*
X75017381Y-46235952D01*
X75065000Y-46140714D01*
X75112619Y-46093095D01*
X75207857Y-46045476D01*
X75398333Y-45997857D01*
X75636429Y-45997857D01*
X75826905Y-46045476D01*
X75922143Y-46093095D01*
X75969762Y-46140714D01*
X76017381Y-46235952D01*
X76017381Y-46331191D01*
X75969762Y-46426429D01*
X75922143Y-46474048D01*
X75826905Y-46521667D01*
X75636429Y-46569286D01*
X75398333Y-46569286D01*
X75207857Y-46521667D01*
X75112619Y-46474048D01*
X75065000Y-46426429D01*
X75017381Y-46331191D01*
X76017381Y-45569286D02*
X75017381Y-45569286D01*
X75636429Y-45474048D02*
X76017381Y-45188333D01*
X75350714Y-45188333D02*
X75731667Y-45569286D01*
X70942381Y-46950238D02*
X70942381Y-47521667D01*
X70942381Y-47235953D02*
X69942381Y-47235953D01*
X70085238Y-47331191D01*
X70180476Y-47426429D01*
X70228095Y-47521667D01*
X69942381Y-46331191D02*
X69942381Y-46235952D01*
X69990000Y-46140714D01*
X70037619Y-46093095D01*
X70132857Y-46045476D01*
X70323333Y-45997857D01*
X70561429Y-45997857D01*
X70751905Y-46045476D01*
X70847143Y-46093095D01*
X70894762Y-46140714D01*
X70942381Y-46235952D01*
X70942381Y-46331191D01*
X70894762Y-46426429D01*
X70847143Y-46474048D01*
X70751905Y-46521667D01*
X70561429Y-46569286D01*
X70323333Y-46569286D01*
X70132857Y-46521667D01*
X70037619Y-46474048D01*
X69990000Y-46426429D01*
X69942381Y-46331191D01*
X70942381Y-45569286D02*
X69942381Y-45569286D01*
X70561429Y-45474048D02*
X70942381Y-45188333D01*
X70275714Y-45188333D02*
X70656667Y-45569286D01*
X93692381Y-21081905D02*
X94501905Y-21081905D01*
X94597143Y-21034286D01*
X94644762Y-20986667D01*
X94692381Y-20891429D01*
X94692381Y-20700952D01*
X94644762Y-20605714D01*
X94597143Y-20558095D01*
X94501905Y-20510476D01*
X93692381Y-20510476D01*
X93787619Y-20081905D02*
X93740000Y-20034286D01*
X93692381Y-19939048D01*
X93692381Y-19700952D01*
X93740000Y-19605714D01*
X93787619Y-19558095D01*
X93882857Y-19510476D01*
X93978095Y-19510476D01*
X94120952Y-19558095D01*
X94692381Y-20129524D01*
X94692381Y-19510476D01*
X72212381Y-22010476D02*
X72212381Y-22486667D01*
X71212381Y-22486667D01*
X72212381Y-21677143D02*
X71212381Y-21677143D01*
X71926667Y-21343809D01*
X71212381Y-21010476D01*
X72212381Y-21010476D01*
X71212381Y-20629524D02*
X71212381Y-20010476D01*
X71593333Y-20343810D01*
X71593333Y-20200952D01*
X71640952Y-20105714D01*
X71688571Y-20058095D01*
X71783810Y-20010476D01*
X72021905Y-20010476D01*
X72117143Y-20058095D01*
X72164762Y-20105714D01*
X72212381Y-20200952D01*
X72212381Y-20486667D01*
X72164762Y-20581905D01*
X72117143Y-20629524D01*
X72212381Y-19058095D02*
X72212381Y-19629524D01*
X72212381Y-19343810D02*
X71212381Y-19343810D01*
X71355238Y-19439048D01*
X71450476Y-19534286D01*
X71498095Y-19629524D01*
X71212381Y-18724762D02*
X71212381Y-18058095D01*
X72212381Y-18486667D01*
X91194286Y-30567381D02*
X91860953Y-31567381D01*
X91860953Y-30567381D02*
X91194286Y-31567381D01*
X92718096Y-31567381D02*
X92241905Y-31567381D01*
X92241905Y-30567381D01*
X93051429Y-31186429D02*
X93813334Y-31186429D01*
X94194286Y-30567381D02*
X94813334Y-30567381D01*
X94480000Y-30948333D01*
X94622858Y-30948333D01*
X94718096Y-30995952D01*
X94765715Y-31043571D01*
X94813334Y-31138810D01*
X94813334Y-31376905D01*
X94765715Y-31472143D01*
X94718096Y-31519762D01*
X94622858Y-31567381D01*
X94337143Y-31567381D01*
X94241905Y-31519762D01*
X94194286Y-31472143D01*
X95194286Y-30662619D02*
X95241905Y-30615000D01*
X95337143Y-30567381D01*
X95575239Y-30567381D01*
X95670477Y-30615000D01*
X95718096Y-30662619D01*
X95765715Y-30757857D01*
X95765715Y-30853095D01*
X95718096Y-30995952D01*
X95146667Y-31567381D01*
X95765715Y-31567381D01*
X96384762Y-30567381D02*
X96480001Y-30567381D01*
X96575239Y-30615000D01*
X96622858Y-30662619D01*
X96670477Y-30757857D01*
X96718096Y-30948333D01*
X96718096Y-31186429D01*
X96670477Y-31376905D01*
X96622858Y-31472143D01*
X96575239Y-31519762D01*
X96480001Y-31567381D01*
X96384762Y-31567381D01*
X96289524Y-31519762D01*
X96241905Y-31472143D01*
X96194286Y-31376905D01*
X96146667Y-31186429D01*
X96146667Y-30948333D01*
X96194286Y-30757857D01*
X96241905Y-30662619D01*
X96289524Y-30615000D01*
X96384762Y-30567381D01*
X91265714Y-43346667D02*
X91741905Y-43346667D01*
X91170476Y-43632381D02*
X91503809Y-42632381D01*
X91837143Y-43632381D01*
X92075238Y-42632381D02*
X92741905Y-43632381D01*
X92741905Y-42632381D02*
X92075238Y-43632381D01*
X93122857Y-43251429D02*
X93884762Y-43251429D01*
X94884762Y-43632381D02*
X94313333Y-43632381D01*
X94599047Y-43632381D02*
X94599047Y-42632381D01*
X94503809Y-42775238D01*
X94408571Y-42870476D01*
X94313333Y-42918095D01*
X95265714Y-42727619D02*
X95313333Y-42680000D01*
X95408571Y-42632381D01*
X95646667Y-42632381D01*
X95741905Y-42680000D01*
X95789524Y-42727619D01*
X95837143Y-42822857D01*
X95837143Y-42918095D01*
X95789524Y-43060952D01*
X95218095Y-43632381D01*
X95837143Y-43632381D01*
X96218095Y-43346667D02*
X96694286Y-43346667D01*
X96122857Y-43632381D02*
X96456190Y-42632381D01*
X96789524Y-43632381D01*
X64643095Y-42272381D02*
X64643095Y-43081905D01*
X64690714Y-43177143D01*
X64738333Y-43224762D01*
X64833571Y-43272381D01*
X65024048Y-43272381D01*
X65119286Y-43224762D01*
X65166905Y-43177143D01*
X65214524Y-43081905D01*
X65214524Y-42272381D01*
X66119286Y-42605714D02*
X66119286Y-43272381D01*
X65881190Y-42224762D02*
X65643095Y-42939048D01*
X66262143Y-42939048D01*
X60857381Y-48072381D02*
X61524048Y-48072381D01*
X61095476Y-49072381D01*
X62333572Y-48405714D02*
X62333572Y-49072381D01*
X62095476Y-48024762D02*
X61857381Y-48739048D01*
X62476429Y-48739048D01*
X63333572Y-49072381D02*
X62857381Y-49072381D01*
X62857381Y-48072381D01*
X63524048Y-48072381D02*
X63857381Y-49072381D01*
X64190715Y-48072381D01*
X65095477Y-48977143D02*
X65047858Y-49024762D01*
X64905001Y-49072381D01*
X64809763Y-49072381D01*
X64666905Y-49024762D01*
X64571667Y-48929524D01*
X64524048Y-48834286D01*
X64476429Y-48643810D01*
X64476429Y-48500952D01*
X64524048Y-48310476D01*
X64571667Y-48215238D01*
X64666905Y-48120000D01*
X64809763Y-48072381D01*
X64905001Y-48072381D01*
X65047858Y-48120000D01*
X65095477Y-48167619D01*
X66047858Y-49072381D02*
X65476429Y-49072381D01*
X65762143Y-49072381D02*
X65762143Y-48072381D01*
X65666905Y-48215238D01*
X65571667Y-48310476D01*
X65476429Y-48358095D01*
X67000239Y-48120000D02*
X66905001Y-48072381D01*
X66762144Y-48072381D01*
X66619286Y-48120000D01*
X66524048Y-48215238D01*
X66476429Y-48310476D01*
X66428810Y-48500952D01*
X66428810Y-48643810D01*
X66476429Y-48834286D01*
X66524048Y-48929524D01*
X66619286Y-49024762D01*
X66762144Y-49072381D01*
X66857382Y-49072381D01*
X67000239Y-49024762D01*
X67047858Y-48977143D01*
X67047858Y-48643810D01*
X66857382Y-48643810D01*
X68000239Y-49072381D02*
X67428810Y-49072381D01*
X67714524Y-49072381D02*
X67714524Y-48072381D01*
X67619286Y-48215238D01*
X67524048Y-48310476D01*
X67428810Y-48358095D01*
X68381191Y-48167619D02*
X68428810Y-48120000D01*
X68524048Y-48072381D01*
X68762144Y-48072381D01*
X68857382Y-48120000D01*
X68905001Y-48167619D01*
X68952620Y-48262857D01*
X68952620Y-48358095D01*
X68905001Y-48500952D01*
X68333572Y-49072381D01*
X68952620Y-49072381D01*
X69809763Y-48072381D02*
X69619286Y-48072381D01*
X69524048Y-48120000D01*
X69476429Y-48167619D01*
X69381191Y-48310476D01*
X69333572Y-48500952D01*
X69333572Y-48881905D01*
X69381191Y-48977143D01*
X69428810Y-49024762D01*
X69524048Y-49072381D01*
X69714525Y-49072381D01*
X69809763Y-49024762D01*
X69857382Y-48977143D01*
X69905001Y-48881905D01*
X69905001Y-48643810D01*
X69857382Y-48548571D01*
X69809763Y-48500952D01*
X69714525Y-48453333D01*
X69524048Y-48453333D01*
X69428810Y-48500952D01*
X69381191Y-48548571D01*
X69333572Y-48643810D01*
X64643095Y-50527381D02*
X64643095Y-51336905D01*
X64690714Y-51432143D01*
X64738333Y-51479762D01*
X64833571Y-51527381D01*
X65024048Y-51527381D01*
X65119286Y-51479762D01*
X65166905Y-51432143D01*
X65214524Y-51336905D01*
X65214524Y-50527381D01*
X66166905Y-50527381D02*
X65690714Y-50527381D01*
X65643095Y-51003571D01*
X65690714Y-50955952D01*
X65785952Y-50908333D01*
X66024048Y-50908333D01*
X66119286Y-50955952D01*
X66166905Y-51003571D01*
X66214524Y-51098810D01*
X66214524Y-51336905D01*
X66166905Y-51432143D01*
X66119286Y-51479762D01*
X66024048Y-51527381D01*
X65785952Y-51527381D01*
X65690714Y-51479762D01*
X65643095Y-51432143D01*
X60857381Y-56327381D02*
X61524048Y-56327381D01*
X61095476Y-57327381D01*
X62333572Y-56660714D02*
X62333572Y-57327381D01*
X62095476Y-56279762D02*
X61857381Y-56994048D01*
X62476429Y-56994048D01*
X63333572Y-57327381D02*
X62857381Y-57327381D01*
X62857381Y-56327381D01*
X63524048Y-56327381D02*
X63857381Y-57327381D01*
X64190715Y-56327381D01*
X65095477Y-57232143D02*
X65047858Y-57279762D01*
X64905001Y-57327381D01*
X64809763Y-57327381D01*
X64666905Y-57279762D01*
X64571667Y-57184524D01*
X64524048Y-57089286D01*
X64476429Y-56898810D01*
X64476429Y-56755952D01*
X64524048Y-56565476D01*
X64571667Y-56470238D01*
X64666905Y-56375000D01*
X64809763Y-56327381D01*
X64905001Y-56327381D01*
X65047858Y-56375000D01*
X65095477Y-56422619D01*
X66047858Y-57327381D02*
X65476429Y-57327381D01*
X65762143Y-57327381D02*
X65762143Y-56327381D01*
X65666905Y-56470238D01*
X65571667Y-56565476D01*
X65476429Y-56613095D01*
X67000239Y-56375000D02*
X66905001Y-56327381D01*
X66762144Y-56327381D01*
X66619286Y-56375000D01*
X66524048Y-56470238D01*
X66476429Y-56565476D01*
X66428810Y-56755952D01*
X66428810Y-56898810D01*
X66476429Y-57089286D01*
X66524048Y-57184524D01*
X66619286Y-57279762D01*
X66762144Y-57327381D01*
X66857382Y-57327381D01*
X67000239Y-57279762D01*
X67047858Y-57232143D01*
X67047858Y-56898810D01*
X66857382Y-56898810D01*
X68000239Y-57327381D02*
X67428810Y-57327381D01*
X67714524Y-57327381D02*
X67714524Y-56327381D01*
X67619286Y-56470238D01*
X67524048Y-56565476D01*
X67428810Y-56613095D01*
X68381191Y-56422619D02*
X68428810Y-56375000D01*
X68524048Y-56327381D01*
X68762144Y-56327381D01*
X68857382Y-56375000D01*
X68905001Y-56422619D01*
X68952620Y-56517857D01*
X68952620Y-56613095D01*
X68905001Y-56755952D01*
X68333572Y-57327381D01*
X68952620Y-57327381D01*
X69857382Y-56327381D02*
X69381191Y-56327381D01*
X69333572Y-56803571D01*
X69381191Y-56755952D01*
X69476429Y-56708333D01*
X69714525Y-56708333D01*
X69809763Y-56755952D01*
X69857382Y-56803571D01*
X69905001Y-56898810D01*
X69905001Y-57136905D01*
X69857382Y-57232143D01*
X69809763Y-57279762D01*
X69714525Y-57327381D01*
X69476429Y-57327381D01*
X69381191Y-57279762D01*
X69333572Y-57232143D01*
X83653334Y-40842143D02*
X83605715Y-40889762D01*
X83462858Y-40937381D01*
X83367620Y-40937381D01*
X83224762Y-40889762D01*
X83129524Y-40794524D01*
X83081905Y-40699286D01*
X83034286Y-40508810D01*
X83034286Y-40365952D01*
X83081905Y-40175476D01*
X83129524Y-40080238D01*
X83224762Y-39985000D01*
X83367620Y-39937381D01*
X83462858Y-39937381D01*
X83605715Y-39985000D01*
X83653334Y-40032619D01*
X84510477Y-39937381D02*
X84320000Y-39937381D01*
X84224762Y-39985000D01*
X84177143Y-40032619D01*
X84081905Y-40175476D01*
X84034286Y-40365952D01*
X84034286Y-40746905D01*
X84081905Y-40842143D01*
X84129524Y-40889762D01*
X84224762Y-40937381D01*
X84415239Y-40937381D01*
X84510477Y-40889762D01*
X84558096Y-40842143D01*
X84605715Y-40746905D01*
X84605715Y-40508810D01*
X84558096Y-40413571D01*
X84510477Y-40365952D01*
X84415239Y-40318333D01*
X84224762Y-40318333D01*
X84129524Y-40365952D01*
X84081905Y-40413571D01*
X84034286Y-40508810D01*
X83224762Y-37187381D02*
X82653333Y-37187381D01*
X82939047Y-37187381D02*
X82939047Y-36187381D01*
X82843809Y-36330238D01*
X82748571Y-36425476D01*
X82653333Y-36473095D01*
X84081905Y-36520714D02*
X84081905Y-37187381D01*
X83653333Y-36520714D02*
X83653333Y-37044524D01*
X83700952Y-37139762D01*
X83796190Y-37187381D01*
X83939048Y-37187381D01*
X84034286Y-37139762D01*
X84081905Y-37092143D01*
X84891429Y-36663571D02*
X84558095Y-36663571D01*
X84558095Y-37187381D02*
X84558095Y-36187381D01*
X85034286Y-36187381D01*
X83002381Y-50871191D02*
X83002381Y-51442620D01*
X83002381Y-51156906D02*
X82002381Y-51156906D01*
X82145238Y-51252144D01*
X82240476Y-51347382D01*
X82288095Y-51442620D01*
X82097619Y-50490239D02*
X82050000Y-50442620D01*
X82002381Y-50347382D01*
X82002381Y-50109286D01*
X82050000Y-50014048D01*
X82097619Y-49966429D01*
X82192857Y-49918810D01*
X82288095Y-49918810D01*
X82430952Y-49966429D01*
X83002381Y-50537858D01*
X83002381Y-49918810D01*
X82002381Y-49633096D02*
X83002381Y-49299763D01*
X82002381Y-48966429D01*
X82716667Y-47918810D02*
X82716667Y-47442619D01*
X83002381Y-48014048D02*
X82002381Y-47680715D01*
X83002381Y-47347381D01*
X83002381Y-46871191D02*
X82954762Y-46966429D01*
X82859524Y-47014048D01*
X82002381Y-47014048D01*
X82335714Y-46633095D02*
X82335714Y-46252143D01*
X82002381Y-46490238D02*
X82859524Y-46490238D01*
X82954762Y-46442619D01*
X83002381Y-46347381D01*
X83002381Y-46252143D01*
X72620477Y-56403571D02*
X72763334Y-56451190D01*
X72810953Y-56498810D01*
X72858572Y-56594048D01*
X72858572Y-56736905D01*
X72810953Y-56832143D01*
X72763334Y-56879762D01*
X72668096Y-56927381D01*
X72287143Y-56927381D01*
X72287143Y-55927381D01*
X72620477Y-55927381D01*
X72715715Y-55975000D01*
X72763334Y-56022619D01*
X72810953Y-56117857D01*
X72810953Y-56213095D01*
X72763334Y-56308333D01*
X72715715Y-56355952D01*
X72620477Y-56403571D01*
X72287143Y-56403571D01*
X73239524Y-56879762D02*
X73382381Y-56927381D01*
X73620477Y-56927381D01*
X73715715Y-56879762D01*
X73763334Y-56832143D01*
X73810953Y-56736905D01*
X73810953Y-56641667D01*
X73763334Y-56546429D01*
X73715715Y-56498810D01*
X73620477Y-56451190D01*
X73430000Y-56403571D01*
X73334762Y-56355952D01*
X73287143Y-56308333D01*
X73239524Y-56213095D01*
X73239524Y-56117857D01*
X73287143Y-56022619D01*
X73334762Y-55975000D01*
X73430000Y-55927381D01*
X73668096Y-55927381D01*
X73810953Y-55975000D01*
X74191905Y-56879762D02*
X74334762Y-56927381D01*
X74572858Y-56927381D01*
X74668096Y-56879762D01*
X74715715Y-56832143D01*
X74763334Y-56736905D01*
X74763334Y-56641667D01*
X74715715Y-56546429D01*
X74668096Y-56498810D01*
X74572858Y-56451190D01*
X74382381Y-56403571D01*
X74287143Y-56355952D01*
X74239524Y-56308333D01*
X74191905Y-56213095D01*
X74191905Y-56117857D01*
X74239524Y-56022619D01*
X74287143Y-55975000D01*
X74382381Y-55927381D01*
X74620477Y-55927381D01*
X74763334Y-55975000D01*
X75715715Y-56927381D02*
X75144286Y-56927381D01*
X75430000Y-56927381D02*
X75430000Y-55927381D01*
X75334762Y-56070238D01*
X75239524Y-56165476D01*
X75144286Y-56213095D01*
X76049048Y-55927381D02*
X76668096Y-55927381D01*
X76334762Y-56308333D01*
X76477620Y-56308333D01*
X76572858Y-56355952D01*
X76620477Y-56403571D01*
X76668096Y-56498810D01*
X76668096Y-56736905D01*
X76620477Y-56832143D01*
X76572858Y-56879762D01*
X76477620Y-56927381D01*
X76191905Y-56927381D01*
X76096667Y-56879762D01*
X76049048Y-56832143D01*
X77239524Y-56355952D02*
X77144286Y-56308333D01*
X77096667Y-56260714D01*
X77049048Y-56165476D01*
X77049048Y-56117857D01*
X77096667Y-56022619D01*
X77144286Y-55975000D01*
X77239524Y-55927381D01*
X77430001Y-55927381D01*
X77525239Y-55975000D01*
X77572858Y-56022619D01*
X77620477Y-56117857D01*
X77620477Y-56165476D01*
X77572858Y-56260714D01*
X77525239Y-56308333D01*
X77430001Y-56355952D01*
X77239524Y-56355952D01*
X77144286Y-56403571D01*
X77096667Y-56451190D01*
X77049048Y-56546429D01*
X77049048Y-56736905D01*
X77096667Y-56832143D01*
X77144286Y-56879762D01*
X77239524Y-56927381D01*
X77430001Y-56927381D01*
X77525239Y-56879762D01*
X77572858Y-56832143D01*
X77620477Y-56736905D01*
X77620477Y-56546429D01*
X77572858Y-56451190D01*
X77525239Y-56403571D01*
X77430001Y-56355952D01*
X80772381Y-33146905D02*
X81581905Y-33146905D01*
X81677143Y-33099286D01*
X81724762Y-33051667D01*
X81772381Y-32956429D01*
X81772381Y-32765952D01*
X81724762Y-32670714D01*
X81677143Y-32623095D01*
X81581905Y-32575476D01*
X80772381Y-32575476D01*
X80772381Y-32194524D02*
X80772381Y-31575476D01*
X81153333Y-31908810D01*
X81153333Y-31765952D01*
X81200952Y-31670714D01*
X81248571Y-31623095D01*
X81343810Y-31575476D01*
X81581905Y-31575476D01*
X81677143Y-31623095D01*
X81724762Y-31670714D01*
X81772381Y-31765952D01*
X81772381Y-32051667D01*
X81724762Y-32146905D01*
X81677143Y-32194524D01*
X79216905Y-29027381D02*
X79216905Y-28027381D01*
X79550239Y-28741667D01*
X79883572Y-28027381D01*
X79883572Y-29027381D01*
X80931191Y-28932143D02*
X80883572Y-28979762D01*
X80740715Y-29027381D01*
X80645477Y-29027381D01*
X80502619Y-28979762D01*
X80407381Y-28884524D01*
X80359762Y-28789286D01*
X80312143Y-28598810D01*
X80312143Y-28455952D01*
X80359762Y-28265476D01*
X80407381Y-28170238D01*
X80502619Y-28075000D01*
X80645477Y-28027381D01*
X80740715Y-28027381D01*
X80883572Y-28075000D01*
X80931191Y-28122619D01*
X81359762Y-29027381D02*
X81359762Y-28027381D01*
X81740715Y-28027381D01*
X81835953Y-28075000D01*
X81883572Y-28122619D01*
X81931191Y-28217857D01*
X81931191Y-28360714D01*
X81883572Y-28455952D01*
X81835953Y-28503571D01*
X81740715Y-28551190D01*
X81359762Y-28551190D01*
X82883572Y-29027381D02*
X82312143Y-29027381D01*
X82597857Y-29027381D02*
X82597857Y-28027381D01*
X82502619Y-28170238D01*
X82407381Y-28265476D01*
X82312143Y-28313095D01*
X83216905Y-28027381D02*
X83883572Y-28027381D01*
X83455000Y-29027381D01*
X84455000Y-28027381D02*
X84550239Y-28027381D01*
X84645477Y-28075000D01*
X84693096Y-28122619D01*
X84740715Y-28217857D01*
X84788334Y-28408333D01*
X84788334Y-28646429D01*
X84740715Y-28836905D01*
X84693096Y-28932143D01*
X84645477Y-28979762D01*
X84550239Y-29027381D01*
X84455000Y-29027381D01*
X84359762Y-28979762D01*
X84312143Y-28932143D01*
X84264524Y-28836905D01*
X84216905Y-28646429D01*
X84216905Y-28408333D01*
X84264524Y-28217857D01*
X84312143Y-28122619D01*
X84359762Y-28075000D01*
X84455000Y-28027381D01*
X85121667Y-28027381D02*
X85740715Y-28027381D01*
X85407381Y-28408333D01*
X85550239Y-28408333D01*
X85645477Y-28455952D01*
X85693096Y-28503571D01*
X85740715Y-28598810D01*
X85740715Y-28836905D01*
X85693096Y-28932143D01*
X85645477Y-28979762D01*
X85550239Y-29027381D01*
X85264524Y-29027381D01*
X85169286Y-28979762D01*
X85121667Y-28932143D01*
X86169286Y-28646429D02*
X86931191Y-28646429D01*
X87312143Y-28027381D02*
X87931191Y-28027381D01*
X87597857Y-28408333D01*
X87740715Y-28408333D01*
X87835953Y-28455952D01*
X87883572Y-28503571D01*
X87931191Y-28598810D01*
X87931191Y-28836905D01*
X87883572Y-28932143D01*
X87835953Y-28979762D01*
X87740715Y-29027381D01*
X87455000Y-29027381D01*
X87359762Y-28979762D01*
X87312143Y-28932143D01*
X88216905Y-28027381D02*
X88550238Y-29027381D01*
X88883572Y-28027381D01*
X89121667Y-28027381D02*
X89740715Y-28027381D01*
X89407381Y-28408333D01*
X89550239Y-28408333D01*
X89645477Y-28455952D01*
X89693096Y-28503571D01*
X89740715Y-28598810D01*
X89740715Y-28836905D01*
X89693096Y-28932143D01*
X89645477Y-28979762D01*
X89550239Y-29027381D01*
X89264524Y-29027381D01*
X89169286Y-28979762D01*
X89121667Y-28932143D01*
X68072381Y-33146905D02*
X68881905Y-33146905D01*
X68977143Y-33099286D01*
X69024762Y-33051667D01*
X69072381Y-32956429D01*
X69072381Y-32765952D01*
X69024762Y-32670714D01*
X68977143Y-32623095D01*
X68881905Y-32575476D01*
X68072381Y-32575476D01*
X68072381Y-31670714D02*
X68072381Y-31861191D01*
X68120000Y-31956429D01*
X68167619Y-32004048D01*
X68310476Y-32099286D01*
X68500952Y-32146905D01*
X68881905Y-32146905D01*
X68977143Y-32099286D01*
X69024762Y-32051667D01*
X69072381Y-31956429D01*
X69072381Y-31765952D01*
X69024762Y-31670714D01*
X68977143Y-31623095D01*
X68881905Y-31575476D01*
X68643810Y-31575476D01*
X68548571Y-31623095D01*
X68500952Y-31670714D01*
X68453333Y-31765952D01*
X68453333Y-31956429D01*
X68500952Y-32051667D01*
X68548571Y-32099286D01*
X68643810Y-32146905D01*
X66993095Y-29027381D02*
X66993095Y-28027381D01*
X67326429Y-28741667D01*
X67659762Y-28027381D01*
X67659762Y-29027381D01*
X68707381Y-28932143D02*
X68659762Y-28979762D01*
X68516905Y-29027381D01*
X68421667Y-29027381D01*
X68278809Y-28979762D01*
X68183571Y-28884524D01*
X68135952Y-28789286D01*
X68088333Y-28598810D01*
X68088333Y-28455952D01*
X68135952Y-28265476D01*
X68183571Y-28170238D01*
X68278809Y-28075000D01*
X68421667Y-28027381D01*
X68516905Y-28027381D01*
X68659762Y-28075000D01*
X68707381Y-28122619D01*
X69135952Y-29027381D02*
X69135952Y-28027381D01*
X69516905Y-28027381D01*
X69612143Y-28075000D01*
X69659762Y-28122619D01*
X69707381Y-28217857D01*
X69707381Y-28360714D01*
X69659762Y-28455952D01*
X69612143Y-28503571D01*
X69516905Y-28551190D01*
X69135952Y-28551190D01*
X70659762Y-29027381D02*
X70088333Y-29027381D01*
X70374047Y-29027381D02*
X70374047Y-28027381D01*
X70278809Y-28170238D01*
X70183571Y-28265476D01*
X70088333Y-28313095D01*
X70993095Y-28027381D02*
X71659762Y-28027381D01*
X71231190Y-29027381D01*
X72231190Y-28027381D02*
X72326429Y-28027381D01*
X72421667Y-28075000D01*
X72469286Y-28122619D01*
X72516905Y-28217857D01*
X72564524Y-28408333D01*
X72564524Y-28646429D01*
X72516905Y-28836905D01*
X72469286Y-28932143D01*
X72421667Y-28979762D01*
X72326429Y-29027381D01*
X72231190Y-29027381D01*
X72135952Y-28979762D01*
X72088333Y-28932143D01*
X72040714Y-28836905D01*
X71993095Y-28646429D01*
X71993095Y-28408333D01*
X72040714Y-28217857D01*
X72088333Y-28122619D01*
X72135952Y-28075000D01*
X72231190Y-28027381D01*
X72897857Y-28027381D02*
X73516905Y-28027381D01*
X73183571Y-28408333D01*
X73326429Y-28408333D01*
X73421667Y-28455952D01*
X73469286Y-28503571D01*
X73516905Y-28598810D01*
X73516905Y-28836905D01*
X73469286Y-28932143D01*
X73421667Y-28979762D01*
X73326429Y-29027381D01*
X73040714Y-29027381D01*
X72945476Y-28979762D01*
X72897857Y-28932143D01*
X73945476Y-28646429D02*
X74707381Y-28646429D01*
X75659762Y-28027381D02*
X75183571Y-28027381D01*
X75135952Y-28503571D01*
X75183571Y-28455952D01*
X75278809Y-28408333D01*
X75516905Y-28408333D01*
X75612143Y-28455952D01*
X75659762Y-28503571D01*
X75707381Y-28598810D01*
X75707381Y-28836905D01*
X75659762Y-28932143D01*
X75612143Y-28979762D01*
X75516905Y-29027381D01*
X75278809Y-29027381D01*
X75183571Y-28979762D01*
X75135952Y-28932143D01*
X75993095Y-28027381D02*
X76326428Y-29027381D01*
X76659762Y-28027381D01*
M02*
