G04 #@! TF.FileFunction,Legend,Bot*
%FSLAX46Y46*%
G04 Gerber Fmt 4.6, Leading zero omitted, Abs format (unit mm)*
G04 Created by KiCad (PCBNEW 4.0.7) date Sunday, June 10, 2018 'PMt' 01:36:30 PM*
%MOMM*%
%LPD*%
G01*
G04 APERTURE LIST*
%ADD10C,0.100000*%
%ADD11C,0.120000*%
%ADD12C,0.150000*%
G04 APERTURE END LIST*
D10*
D11*
X81010000Y-23245000D02*
X79010000Y-23245000D01*
X79010000Y-21205000D02*
X81010000Y-21205000D01*
X81010000Y-16710000D02*
X79010000Y-16710000D01*
X79010000Y-18850000D02*
X81010000Y-18850000D01*
X86795000Y-21320000D02*
X86795000Y-19320000D01*
X84655000Y-19320000D02*
X84655000Y-21320000D01*
D12*
X80176666Y-24332143D02*
X80224285Y-24379762D01*
X80367142Y-24427381D01*
X80462380Y-24427381D01*
X80605238Y-24379762D01*
X80700476Y-24284524D01*
X80748095Y-24189286D01*
X80795714Y-23998810D01*
X80795714Y-23855952D01*
X80748095Y-23665476D01*
X80700476Y-23570238D01*
X80605238Y-23475000D01*
X80462380Y-23427381D01*
X80367142Y-23427381D01*
X80224285Y-23475000D01*
X80176666Y-23522619D01*
X79319523Y-23760714D02*
X79319523Y-24427381D01*
X79557619Y-23379762D02*
X79795714Y-24094048D01*
X79176666Y-24094048D01*
X80176666Y-20082381D02*
X80510000Y-19606190D01*
X80748095Y-20082381D02*
X80748095Y-19082381D01*
X80367142Y-19082381D01*
X80271904Y-19130000D01*
X80224285Y-19177619D01*
X80176666Y-19272857D01*
X80176666Y-19415714D01*
X80224285Y-19510952D01*
X80271904Y-19558571D01*
X80367142Y-19606190D01*
X80748095Y-19606190D01*
X79795714Y-19177619D02*
X79748095Y-19130000D01*
X79652857Y-19082381D01*
X79414761Y-19082381D01*
X79319523Y-19130000D01*
X79271904Y-19177619D01*
X79224285Y-19272857D01*
X79224285Y-19368095D01*
X79271904Y-19510952D01*
X79843333Y-20082381D01*
X79224285Y-20082381D01*
X81295714Y-15332381D02*
X80676666Y-15332381D01*
X81010000Y-15713333D01*
X80867142Y-15713333D01*
X80771904Y-15760952D01*
X80724285Y-15808571D01*
X80676666Y-15903810D01*
X80676666Y-16141905D01*
X80724285Y-16237143D01*
X80771904Y-16284762D01*
X80867142Y-16332381D01*
X81152857Y-16332381D01*
X81248095Y-16284762D01*
X81295714Y-16237143D01*
X80343333Y-15332381D02*
X79724285Y-15332381D01*
X80057619Y-15713333D01*
X79914761Y-15713333D01*
X79819523Y-15760952D01*
X79771904Y-15808571D01*
X79724285Y-15903810D01*
X79724285Y-16141905D01*
X79771904Y-16237143D01*
X79819523Y-16284762D01*
X79914761Y-16332381D01*
X80200476Y-16332381D01*
X80295714Y-16284762D01*
X80343333Y-16237143D01*
X79105238Y-15332381D02*
X79009999Y-15332381D01*
X78914761Y-15380000D01*
X78867142Y-15427619D01*
X78819523Y-15522857D01*
X78771904Y-15713333D01*
X78771904Y-15951429D01*
X78819523Y-16141905D01*
X78867142Y-16237143D01*
X78914761Y-16284762D01*
X79009999Y-16332381D01*
X79105238Y-16332381D01*
X79200476Y-16284762D01*
X79248095Y-16237143D01*
X79295714Y-16141905D01*
X79343333Y-15951429D01*
X79343333Y-15713333D01*
X79295714Y-15522857D01*
X79248095Y-15427619D01*
X79200476Y-15380000D01*
X79105238Y-15332381D01*
X88082381Y-17613334D02*
X87606190Y-17280000D01*
X88082381Y-17041905D02*
X87082381Y-17041905D01*
X87082381Y-17422858D01*
X87130000Y-17518096D01*
X87177619Y-17565715D01*
X87272857Y-17613334D01*
X87415714Y-17613334D01*
X87510952Y-17565715D01*
X87558571Y-17518096D01*
X87606190Y-17422858D01*
X87606190Y-17041905D01*
X87082381Y-17946667D02*
X87082381Y-18565715D01*
X87463333Y-18232381D01*
X87463333Y-18375239D01*
X87510952Y-18470477D01*
X87558571Y-18518096D01*
X87653810Y-18565715D01*
X87891905Y-18565715D01*
X87987143Y-18518096D01*
X88034762Y-18470477D01*
X88082381Y-18375239D01*
X88082381Y-18089524D01*
X88034762Y-17994286D01*
X87987143Y-17946667D01*
X88082381Y-22026667D02*
X88082381Y-21455238D01*
X88082381Y-21740952D02*
X87082381Y-21740952D01*
X87225238Y-21645714D01*
X87320476Y-21550476D01*
X87368095Y-21455238D01*
X87987143Y-22455238D02*
X88034762Y-22502857D01*
X88082381Y-22455238D01*
X88034762Y-22407619D01*
X87987143Y-22455238D01*
X88082381Y-22455238D01*
X87510952Y-23074285D02*
X87463333Y-22979047D01*
X87415714Y-22931428D01*
X87320476Y-22883809D01*
X87272857Y-22883809D01*
X87177619Y-22931428D01*
X87130000Y-22979047D01*
X87082381Y-23074285D01*
X87082381Y-23264762D01*
X87130000Y-23360000D01*
X87177619Y-23407619D01*
X87272857Y-23455238D01*
X87320476Y-23455238D01*
X87415714Y-23407619D01*
X87463333Y-23360000D01*
X87510952Y-23264762D01*
X87510952Y-23074285D01*
X87558571Y-22979047D01*
X87606190Y-22931428D01*
X87701429Y-22883809D01*
X87891905Y-22883809D01*
X87987143Y-22931428D01*
X88034762Y-22979047D01*
X88082381Y-23074285D01*
X88082381Y-23264762D01*
X88034762Y-23360000D01*
X87987143Y-23407619D01*
X87891905Y-23455238D01*
X87701429Y-23455238D01*
X87606190Y-23407619D01*
X87558571Y-23360000D01*
X87510952Y-23264762D01*
X88082381Y-23883809D02*
X87082381Y-23883809D01*
X87701429Y-23979047D02*
X88082381Y-24264762D01*
X87415714Y-24264762D02*
X87796667Y-23883809D01*
M02*
