G04 #@! TF.FileFunction,Copper,L2,Bot,Signal*
%FSLAX46Y46*%
G04 Gerber Fmt 4.6, Leading zero omitted, Abs format (unit mm)*
G04 Created by KiCad (PCBNEW 4.0.7) date Sunday, June 10, 2018 'PMt' 01:36:30 PM*
%MOMM*%
%LPD*%
G01*
G04 APERTURE LIST*
%ADD10C,0.100000*%
%ADD11R,1.600000X1.600000*%
%ADD12C,1.600000*%
%ADD13R,2.000000X1.600000*%
%ADD14R,3.500000X3.500000*%
%ADD15R,2.000000X1.700000*%
%ADD16R,1.700000X2.000000*%
%ADD17R,1.800000X1.800000*%
%ADD18O,1.800000X1.800000*%
%ADD19R,1.500000X1.500000*%
%ADD20C,1.500000*%
%ADD21R,2.600000X2.000000*%
%ADD22O,2.600000X2.000000*%
%ADD23R,1.700000X1.700000*%
%ADD24O,1.700000X1.700000*%
%ADD25C,0.600000*%
%ADD26C,0.250000*%
%ADD27C,2.000000*%
%ADD28C,0.254000*%
G04 APERTURE END LIST*
D10*
D11*
X66675000Y-19050000D03*
D12*
X66675000Y-16550000D03*
D13*
X78010000Y-22225000D03*
X82010000Y-22225000D03*
D14*
X60960000Y-25400000D03*
X54960000Y-25400000D03*
X57960000Y-30100000D03*
D15*
X78010000Y-17780000D03*
X82010000Y-17780000D03*
D16*
X85725000Y-18320000D03*
X85725000Y-22320000D03*
D17*
X73660000Y-17780000D03*
D18*
X73660000Y-20320000D03*
X73660000Y-22860000D03*
D19*
X96520000Y-38735000D03*
D20*
X96520000Y-36735000D03*
X96520000Y-34735000D03*
D21*
X95885000Y-46355000D03*
D22*
X95885000Y-48895000D03*
X95885000Y-51435000D03*
D19*
X90805000Y-38735000D03*
D20*
X90805000Y-36735000D03*
X90805000Y-34735000D03*
D21*
X90170000Y-46355000D03*
D22*
X90170000Y-48895000D03*
X90170000Y-51435000D03*
D23*
X55880000Y-44450000D03*
D24*
X55880000Y-46990000D03*
X55880000Y-49530000D03*
X55880000Y-52070000D03*
D23*
X85090000Y-46355000D03*
D24*
X85090000Y-48895000D03*
X85090000Y-51435000D03*
D25*
X79375000Y-40005000D03*
X80010000Y-43815000D03*
X66675000Y-57150000D03*
X60325000Y-45720000D03*
X61595000Y-44450000D03*
X61595000Y-51435000D03*
X67945000Y-48260000D03*
X70485000Y-48260000D03*
D26*
X79375000Y-43180000D02*
X79375000Y-40005000D01*
X80010000Y-43815000D02*
X79375000Y-43180000D01*
D27*
X96520000Y-36735000D02*
X90805000Y-36735000D01*
X78010000Y-22225000D02*
X78010000Y-25305000D01*
X78010000Y-25305000D02*
X85725000Y-33020000D01*
X85725000Y-33020000D02*
X85725000Y-33655000D01*
X85725000Y-33655000D02*
X88805000Y-36735000D01*
X88805000Y-36735000D02*
X96520000Y-36735000D01*
X78010000Y-17780000D02*
X78010000Y-17875000D01*
X78010000Y-17875000D02*
X75565000Y-20320000D01*
X73660000Y-20320000D02*
X75565000Y-20320000D01*
X75565000Y-20320000D02*
X76105000Y-20320000D01*
X76105000Y-20320000D02*
X78010000Y-22225000D01*
D26*
X57785000Y-49530000D02*
X55880000Y-49530000D01*
X59055000Y-50800000D02*
X57785000Y-49530000D01*
X59055000Y-52705000D02*
X59055000Y-50800000D01*
X63500000Y-57150000D02*
X59055000Y-52705000D01*
X66675000Y-57150000D02*
X63500000Y-57150000D01*
X59055000Y-46990000D02*
X55880000Y-46990000D01*
X60325000Y-45720000D02*
X59055000Y-46990000D01*
X61595000Y-51435000D02*
X61595000Y-44450000D01*
X90170000Y-46355000D02*
X85090000Y-46355000D01*
X95885000Y-46355000D02*
X90170000Y-46355000D01*
X96520000Y-34735000D02*
X97600000Y-34735000D01*
X99060000Y-43180000D02*
X95885000Y-46355000D01*
X99060000Y-36195000D02*
X99060000Y-43180000D01*
X97600000Y-34735000D02*
X99060000Y-36195000D01*
X90805000Y-34735000D02*
X96520000Y-34735000D01*
X96520000Y-34735000D02*
X96710000Y-34925000D01*
D27*
X66675000Y-19050000D02*
X67945000Y-19050000D01*
X67945000Y-19050000D02*
X71755000Y-22860000D01*
X95885000Y-48895000D02*
X90170000Y-48895000D01*
X90170000Y-48895000D02*
X85090000Y-48895000D01*
X85090000Y-48895000D02*
X81915000Y-48895000D01*
X81915000Y-48895000D02*
X74930000Y-41910000D01*
X74930000Y-41910000D02*
X74930000Y-31750000D01*
X74930000Y-31750000D02*
X68580000Y-25400000D01*
X60960000Y-25400000D02*
X68580000Y-25400000D01*
X71120000Y-22860000D02*
X71755000Y-22860000D01*
X71755000Y-22860000D02*
X73660000Y-22860000D01*
X68580000Y-25400000D02*
X71120000Y-22860000D01*
D26*
X73660000Y-17780000D02*
X74295000Y-17780000D01*
X74295000Y-17780000D02*
X76200000Y-15875000D01*
X76200000Y-15875000D02*
X80105000Y-15875000D01*
X80105000Y-15875000D02*
X82550000Y-18320000D01*
X82550000Y-18320000D02*
X85725000Y-18320000D01*
X70485000Y-48260000D02*
X67945000Y-48260000D01*
D28*
G36*
X99620000Y-35691421D02*
X99597401Y-35657599D01*
X98137401Y-34197599D01*
X97890839Y-34032852D01*
X97713909Y-33997658D01*
X97694831Y-33951485D01*
X97305564Y-33561539D01*
X96796702Y-33350241D01*
X96245715Y-33349760D01*
X95736485Y-33560169D01*
X95346539Y-33949436D01*
X95335924Y-33975000D01*
X91989547Y-33975000D01*
X91979831Y-33951485D01*
X91590564Y-33561539D01*
X91081702Y-33350241D01*
X90530715Y-33349760D01*
X90021485Y-33560169D01*
X89631539Y-33949436D01*
X89420241Y-34458298D01*
X89419760Y-35009285D01*
X89439642Y-35057403D01*
X87349513Y-32967273D01*
X87235543Y-32394313D01*
X86956243Y-31976310D01*
X86881120Y-31863880D01*
X86881117Y-31863878D01*
X79645000Y-24627760D01*
X79645000Y-23086431D01*
X79657440Y-23025000D01*
X79657440Y-22510750D01*
X80375000Y-22510750D01*
X80375000Y-23151310D01*
X80471673Y-23384699D01*
X80650302Y-23563327D01*
X80883691Y-23660000D01*
X81724250Y-23660000D01*
X81883000Y-23501250D01*
X81883000Y-22352000D01*
X82137000Y-22352000D01*
X82137000Y-23501250D01*
X82295750Y-23660000D01*
X83136309Y-23660000D01*
X83369698Y-23563327D01*
X83548327Y-23384699D01*
X83645000Y-23151310D01*
X83645000Y-22605750D01*
X84240000Y-22605750D01*
X84240000Y-23446309D01*
X84336673Y-23679698D01*
X84515301Y-23858327D01*
X84748690Y-23955000D01*
X85439250Y-23955000D01*
X85598000Y-23796250D01*
X85598000Y-22447000D01*
X85852000Y-22447000D01*
X85852000Y-23796250D01*
X86010750Y-23955000D01*
X86701310Y-23955000D01*
X86934699Y-23858327D01*
X87113327Y-23679698D01*
X87210000Y-23446309D01*
X87210000Y-22605750D01*
X87051250Y-22447000D01*
X85852000Y-22447000D01*
X85598000Y-22447000D01*
X84398750Y-22447000D01*
X84240000Y-22605750D01*
X83645000Y-22605750D01*
X83645000Y-22510750D01*
X83486250Y-22352000D01*
X82137000Y-22352000D01*
X81883000Y-22352000D01*
X80533750Y-22352000D01*
X80375000Y-22510750D01*
X79657440Y-22510750D01*
X79657440Y-21425000D01*
X79633674Y-21298690D01*
X80375000Y-21298690D01*
X80375000Y-21939250D01*
X80533750Y-22098000D01*
X81883000Y-22098000D01*
X81883000Y-20948750D01*
X82137000Y-20948750D01*
X82137000Y-22098000D01*
X83486250Y-22098000D01*
X83645000Y-21939250D01*
X83645000Y-21298690D01*
X83601508Y-21193691D01*
X84240000Y-21193691D01*
X84240000Y-22034250D01*
X84398750Y-22193000D01*
X85598000Y-22193000D01*
X85598000Y-20843750D01*
X85852000Y-20843750D01*
X85852000Y-22193000D01*
X87051250Y-22193000D01*
X87210000Y-22034250D01*
X87210000Y-21193691D01*
X87113327Y-20960302D01*
X86934699Y-20781673D01*
X86701310Y-20685000D01*
X86010750Y-20685000D01*
X85852000Y-20843750D01*
X85598000Y-20843750D01*
X85439250Y-20685000D01*
X84748690Y-20685000D01*
X84515301Y-20781673D01*
X84336673Y-20960302D01*
X84240000Y-21193691D01*
X83601508Y-21193691D01*
X83548327Y-21065301D01*
X83369698Y-20886673D01*
X83136309Y-20790000D01*
X82295750Y-20790000D01*
X82137000Y-20948750D01*
X81883000Y-20948750D01*
X81724250Y-20790000D01*
X80883691Y-20790000D01*
X80650302Y-20886673D01*
X80471673Y-21065301D01*
X80375000Y-21298690D01*
X79633674Y-21298690D01*
X79613162Y-21189683D01*
X79474090Y-20973559D01*
X79261890Y-20828569D01*
X79010000Y-20777560D01*
X78874799Y-20777560D01*
X78370514Y-20273275D01*
X87935000Y-20273275D01*
X87935000Y-20366725D01*
X88116547Y-21279425D01*
X88633550Y-22053175D01*
X89407300Y-22570178D01*
X90320000Y-22751725D01*
X91232700Y-22570178D01*
X92006450Y-22053175D01*
X92523453Y-21279425D01*
X92705000Y-20366725D01*
X92705000Y-20273275D01*
X92523453Y-19360575D01*
X92006450Y-18586825D01*
X91232700Y-18069822D01*
X90320000Y-17888275D01*
X89407300Y-18069822D01*
X88633550Y-18586825D01*
X88116547Y-19360575D01*
X87935000Y-20273275D01*
X78370514Y-20273275D01*
X78147239Y-20050000D01*
X78919799Y-19277440D01*
X79010000Y-19277440D01*
X79245317Y-19233162D01*
X79461441Y-19094090D01*
X79606431Y-18881890D01*
X79657440Y-18630000D01*
X79657440Y-16930000D01*
X79613162Y-16694683D01*
X79574757Y-16635000D01*
X79790198Y-16635000D01*
X80362560Y-17207362D01*
X80362560Y-18630000D01*
X80406838Y-18865317D01*
X80545910Y-19081441D01*
X80758110Y-19226431D01*
X81010000Y-19277440D01*
X83010000Y-19277440D01*
X83245317Y-19233162D01*
X83461441Y-19094090D01*
X83471068Y-19080000D01*
X84227560Y-19080000D01*
X84227560Y-19320000D01*
X84271838Y-19555317D01*
X84410910Y-19771441D01*
X84623110Y-19916431D01*
X84875000Y-19967440D01*
X86575000Y-19967440D01*
X86810317Y-19923162D01*
X87026441Y-19784090D01*
X87171431Y-19571890D01*
X87222440Y-19320000D01*
X87222440Y-17320000D01*
X87178162Y-17084683D01*
X87039090Y-16868559D01*
X87017196Y-16853599D01*
X96054699Y-16853599D01*
X96318281Y-17491515D01*
X96805918Y-17980004D01*
X97443373Y-18244699D01*
X98133599Y-18245301D01*
X98771515Y-17981719D01*
X99260004Y-17494082D01*
X99524699Y-16856627D01*
X99525301Y-16166401D01*
X99261719Y-15528485D01*
X98774082Y-15039996D01*
X98136627Y-14775301D01*
X97446401Y-14774699D01*
X96808485Y-15038281D01*
X96319996Y-15525918D01*
X96055301Y-16163373D01*
X96054699Y-16853599D01*
X87017196Y-16853599D01*
X86826890Y-16723569D01*
X86575000Y-16672560D01*
X84875000Y-16672560D01*
X84639683Y-16716838D01*
X84423559Y-16855910D01*
X84278569Y-17068110D01*
X84227560Y-17320000D01*
X84227560Y-17560000D01*
X83657440Y-17560000D01*
X83657440Y-16930000D01*
X83613162Y-16694683D01*
X83474090Y-16478559D01*
X83261890Y-16333569D01*
X83010000Y-16282560D01*
X81587362Y-16282560D01*
X80642401Y-15337599D01*
X80395839Y-15172852D01*
X80105000Y-15115000D01*
X76200000Y-15115000D01*
X75909161Y-15172852D01*
X75662599Y-15337599D01*
X74732671Y-16267527D01*
X74560000Y-16232560D01*
X72760000Y-16232560D01*
X72524683Y-16276838D01*
X72308559Y-16415910D01*
X72163569Y-16628110D01*
X72112560Y-16880000D01*
X72112560Y-18680000D01*
X72156838Y-18915317D01*
X72295910Y-19131441D01*
X72453574Y-19239168D01*
X72149457Y-19694313D01*
X72025000Y-20320000D01*
X72148596Y-20941356D01*
X69101120Y-17893880D01*
X68570688Y-17539457D01*
X67945000Y-17414999D01*
X67944995Y-17415000D01*
X67719608Y-17415000D01*
X67682747Y-17378139D01*
X67928864Y-17304005D01*
X68121965Y-16766777D01*
X68094778Y-16196546D01*
X67928864Y-15795995D01*
X67682745Y-15721861D01*
X66854605Y-16550000D01*
X66868748Y-16564142D01*
X66689142Y-16743748D01*
X66675000Y-16729605D01*
X65846861Y-17557745D01*
X65861145Y-17605167D01*
X65639683Y-17646838D01*
X65423559Y-17785910D01*
X65278569Y-17998110D01*
X65227560Y-18250000D01*
X65227560Y-18329872D01*
X65164457Y-18424313D01*
X65040000Y-19050000D01*
X65164457Y-19675687D01*
X65227560Y-19770128D01*
X65227560Y-19850000D01*
X65271838Y-20085317D01*
X65410910Y-20301441D01*
X65623110Y-20446431D01*
X65875000Y-20497440D01*
X65954872Y-20497440D01*
X66049313Y-20560543D01*
X66675000Y-20685000D01*
X67267760Y-20685000D01*
X69125261Y-22542500D01*
X67902760Y-23765000D01*
X63357440Y-23765000D01*
X63357440Y-23650000D01*
X63313162Y-23414683D01*
X63174090Y-23198559D01*
X62961890Y-23053569D01*
X62710000Y-23002560D01*
X59210000Y-23002560D01*
X58974683Y-23046838D01*
X58758559Y-23185910D01*
X58613569Y-23398110D01*
X58562560Y-23650000D01*
X58562560Y-27150000D01*
X58606838Y-27385317D01*
X58745910Y-27601441D01*
X58912109Y-27715000D01*
X58245750Y-27715000D01*
X58087000Y-27873750D01*
X58087000Y-29973000D01*
X60186250Y-29973000D01*
X60345000Y-29814250D01*
X60345000Y-28223690D01*
X60248327Y-27990301D01*
X60069698Y-27811673D01*
X60035337Y-27797440D01*
X62710000Y-27797440D01*
X62945317Y-27753162D01*
X63161441Y-27614090D01*
X63306431Y-27401890D01*
X63357440Y-27150000D01*
X63357440Y-27035000D01*
X67902760Y-27035000D01*
X73295000Y-32427240D01*
X73295000Y-41909995D01*
X73294999Y-41910000D01*
X73419457Y-42535688D01*
X73773880Y-43066120D01*
X80758878Y-50051117D01*
X80758880Y-50051120D01*
X81234148Y-50368683D01*
X81289313Y-50405543D01*
X81915000Y-50530001D01*
X81915005Y-50530000D01*
X83944188Y-50530000D01*
X83818355Y-50668076D01*
X83648524Y-51078110D01*
X83769845Y-51308000D01*
X84963000Y-51308000D01*
X84963000Y-51288000D01*
X85217000Y-51288000D01*
X85217000Y-51308000D01*
X86410155Y-51308000D01*
X86531476Y-51078110D01*
X86361645Y-50668076D01*
X86235812Y-50530000D01*
X88533520Y-50530000D01*
X88310856Y-50926645D01*
X88279876Y-51054566D01*
X88399223Y-51308000D01*
X90043000Y-51308000D01*
X90043000Y-51288000D01*
X90297000Y-51288000D01*
X90297000Y-51308000D01*
X91940777Y-51308000D01*
X92060124Y-51054566D01*
X92029144Y-50926645D01*
X91806480Y-50530000D01*
X94248520Y-50530000D01*
X94025856Y-50926645D01*
X93994876Y-51054566D01*
X94114223Y-51308000D01*
X95758000Y-51308000D01*
X95758000Y-51288000D01*
X96012000Y-51288000D01*
X96012000Y-51308000D01*
X97655777Y-51308000D01*
X97775124Y-51054566D01*
X97744144Y-50926645D01*
X97430922Y-50368683D01*
X97188812Y-50178219D01*
X97379029Y-50051120D01*
X97733452Y-49520687D01*
X97857909Y-48895000D01*
X97733452Y-48269313D01*
X97493907Y-47910808D01*
X97636441Y-47819090D01*
X97781431Y-47606890D01*
X97832440Y-47355000D01*
X97832440Y-45482362D01*
X99597401Y-43717401D01*
X99620000Y-43683579D01*
X99620000Y-58980000D01*
X51510000Y-58980000D01*
X51510000Y-57493599D01*
X51604699Y-57493599D01*
X51868281Y-58131515D01*
X52355918Y-58620004D01*
X52993373Y-58884699D01*
X53683599Y-58885301D01*
X54321515Y-58621719D01*
X54810004Y-58134082D01*
X55074699Y-57496627D01*
X55075301Y-56806401D01*
X54811719Y-56168485D01*
X54324082Y-55679996D01*
X53686627Y-55415301D01*
X52996401Y-55414699D01*
X52358485Y-55678281D01*
X51869996Y-56165918D01*
X51605301Y-56803373D01*
X51604699Y-57493599D01*
X51510000Y-57493599D01*
X51510000Y-46990000D01*
X54365907Y-46990000D01*
X54478946Y-47558285D01*
X54800853Y-48040054D01*
X55130026Y-48260000D01*
X54800853Y-48479946D01*
X54478946Y-48961715D01*
X54365907Y-49530000D01*
X54478946Y-50098285D01*
X54800853Y-50580054D01*
X55130026Y-50800000D01*
X54800853Y-51019946D01*
X54478946Y-51501715D01*
X54365907Y-52070000D01*
X54478946Y-52638285D01*
X54800853Y-53120054D01*
X55282622Y-53441961D01*
X55850907Y-53555000D01*
X55909093Y-53555000D01*
X56477378Y-53441961D01*
X56959147Y-53120054D01*
X57281054Y-52638285D01*
X57394093Y-52070000D01*
X57281054Y-51501715D01*
X56959147Y-51019946D01*
X56629974Y-50800000D01*
X56959147Y-50580054D01*
X57152954Y-50290000D01*
X57470198Y-50290000D01*
X58295000Y-51114802D01*
X58295000Y-52705000D01*
X58352852Y-52995839D01*
X58517599Y-53242401D01*
X62962599Y-57687401D01*
X63209160Y-57852148D01*
X63500000Y-57910000D01*
X66112537Y-57910000D01*
X66144673Y-57942192D01*
X66488201Y-58084838D01*
X66860167Y-58085162D01*
X67203943Y-57943117D01*
X67467192Y-57680327D01*
X67544728Y-57493599D01*
X96054699Y-57493599D01*
X96318281Y-58131515D01*
X96805918Y-58620004D01*
X97443373Y-58884699D01*
X98133599Y-58885301D01*
X98771515Y-58621719D01*
X99260004Y-58134082D01*
X99524699Y-57496627D01*
X99525301Y-56806401D01*
X99261719Y-56168485D01*
X98774082Y-55679996D01*
X98136627Y-55415301D01*
X97446401Y-55414699D01*
X96808485Y-55678281D01*
X96319996Y-56165918D01*
X96055301Y-56803373D01*
X96054699Y-57493599D01*
X67544728Y-57493599D01*
X67609838Y-57336799D01*
X67610162Y-56964833D01*
X67468117Y-56621057D01*
X67205327Y-56357808D01*
X66861799Y-56215162D01*
X66489833Y-56214838D01*
X66146057Y-56356883D01*
X66112882Y-56390000D01*
X63814802Y-56390000D01*
X59815000Y-52390198D01*
X59815000Y-50800000D01*
X59794719Y-50698039D01*
X59757148Y-50509160D01*
X59592401Y-50262599D01*
X58322401Y-48992599D01*
X58075839Y-48827852D01*
X57785000Y-48770000D01*
X57152954Y-48770000D01*
X56959147Y-48479946D01*
X56629974Y-48260000D01*
X56959147Y-48040054D01*
X57152954Y-47750000D01*
X59055000Y-47750000D01*
X59345839Y-47692148D01*
X59592401Y-47527401D01*
X60464680Y-46655122D01*
X60510167Y-46655162D01*
X60835000Y-46520944D01*
X60835000Y-50872537D01*
X60802808Y-50904673D01*
X60660162Y-51248201D01*
X60659838Y-51620167D01*
X60801883Y-51963943D01*
X61064673Y-52227192D01*
X61408201Y-52369838D01*
X61780167Y-52370162D01*
X62123943Y-52228117D01*
X62387192Y-51965327D01*
X62459209Y-51791890D01*
X83648524Y-51791890D01*
X83818355Y-52201924D01*
X84208642Y-52630183D01*
X84733108Y-52876486D01*
X84963000Y-52755819D01*
X84963000Y-51562000D01*
X85217000Y-51562000D01*
X85217000Y-52755819D01*
X85446892Y-52876486D01*
X85971358Y-52630183D01*
X86361645Y-52201924D01*
X86521724Y-51815434D01*
X88279876Y-51815434D01*
X88310856Y-51943355D01*
X88624078Y-52501317D01*
X89126980Y-52896942D01*
X89743000Y-53070000D01*
X90043000Y-53070000D01*
X90043000Y-51562000D01*
X90297000Y-51562000D01*
X90297000Y-53070000D01*
X90597000Y-53070000D01*
X91213020Y-52896942D01*
X91715922Y-52501317D01*
X92029144Y-51943355D01*
X92060124Y-51815434D01*
X93994876Y-51815434D01*
X94025856Y-51943355D01*
X94339078Y-52501317D01*
X94841980Y-52896942D01*
X95458000Y-53070000D01*
X95758000Y-53070000D01*
X95758000Y-51562000D01*
X96012000Y-51562000D01*
X96012000Y-53070000D01*
X96312000Y-53070000D01*
X96928020Y-52896942D01*
X97430922Y-52501317D01*
X97744144Y-51943355D01*
X97775124Y-51815434D01*
X97655777Y-51562000D01*
X96012000Y-51562000D01*
X95758000Y-51562000D01*
X94114223Y-51562000D01*
X93994876Y-51815434D01*
X92060124Y-51815434D01*
X91940777Y-51562000D01*
X90297000Y-51562000D01*
X90043000Y-51562000D01*
X88399223Y-51562000D01*
X88279876Y-51815434D01*
X86521724Y-51815434D01*
X86531476Y-51791890D01*
X86410155Y-51562000D01*
X85217000Y-51562000D01*
X84963000Y-51562000D01*
X83769845Y-51562000D01*
X83648524Y-51791890D01*
X62459209Y-51791890D01*
X62529838Y-51621799D01*
X62530162Y-51249833D01*
X62388117Y-50906057D01*
X62355000Y-50872882D01*
X62355000Y-48445167D01*
X67009838Y-48445167D01*
X67151883Y-48788943D01*
X67414673Y-49052192D01*
X67758201Y-49194838D01*
X68130167Y-49195162D01*
X68473943Y-49053117D01*
X68507118Y-49020000D01*
X69922537Y-49020000D01*
X69954673Y-49052192D01*
X70298201Y-49194838D01*
X70670167Y-49195162D01*
X71013943Y-49053117D01*
X71277192Y-48790327D01*
X71419838Y-48446799D01*
X71420162Y-48074833D01*
X71278117Y-47731057D01*
X71015327Y-47467808D01*
X70671799Y-47325162D01*
X70299833Y-47324838D01*
X69956057Y-47466883D01*
X69922882Y-47500000D01*
X68507463Y-47500000D01*
X68475327Y-47467808D01*
X68131799Y-47325162D01*
X67759833Y-47324838D01*
X67416057Y-47466883D01*
X67152808Y-47729673D01*
X67010162Y-48073201D01*
X67009838Y-48445167D01*
X62355000Y-48445167D01*
X62355000Y-45012463D01*
X62387192Y-44980327D01*
X62529838Y-44636799D01*
X62530162Y-44264833D01*
X62388117Y-43921057D01*
X62125327Y-43657808D01*
X61781799Y-43515162D01*
X61409833Y-43514838D01*
X61066057Y-43656883D01*
X60802808Y-43919673D01*
X60660162Y-44263201D01*
X60659838Y-44635167D01*
X60765310Y-44890430D01*
X60511799Y-44785162D01*
X60139833Y-44784838D01*
X59796057Y-44926883D01*
X59532808Y-45189673D01*
X59390162Y-45533201D01*
X59390121Y-45580077D01*
X58740198Y-46230000D01*
X57152954Y-46230000D01*
X56959147Y-45939946D01*
X56915223Y-45910597D01*
X57089698Y-45838327D01*
X57268327Y-45659699D01*
X57365000Y-45426310D01*
X57365000Y-44735750D01*
X57206250Y-44577000D01*
X56007000Y-44577000D01*
X56007000Y-44597000D01*
X55753000Y-44597000D01*
X55753000Y-44577000D01*
X54553750Y-44577000D01*
X54395000Y-44735750D01*
X54395000Y-45426310D01*
X54491673Y-45659699D01*
X54670302Y-45838327D01*
X54844777Y-45910597D01*
X54800853Y-45939946D01*
X54478946Y-46421715D01*
X54365907Y-46990000D01*
X51510000Y-46990000D01*
X51510000Y-43473690D01*
X54395000Y-43473690D01*
X54395000Y-44164250D01*
X54553750Y-44323000D01*
X55753000Y-44323000D01*
X55753000Y-43123750D01*
X56007000Y-43123750D01*
X56007000Y-44323000D01*
X57206250Y-44323000D01*
X57365000Y-44164250D01*
X57365000Y-43473690D01*
X57268327Y-43240301D01*
X57089698Y-43061673D01*
X56856309Y-42965000D01*
X56165750Y-42965000D01*
X56007000Y-43123750D01*
X55753000Y-43123750D01*
X55594250Y-42965000D01*
X54903691Y-42965000D01*
X54670302Y-43061673D01*
X54491673Y-43240301D01*
X54395000Y-43473690D01*
X51510000Y-43473690D01*
X51510000Y-30385750D01*
X55575000Y-30385750D01*
X55575000Y-31976310D01*
X55671673Y-32209699D01*
X55850302Y-32388327D01*
X56083691Y-32485000D01*
X57674250Y-32485000D01*
X57833000Y-32326250D01*
X57833000Y-30227000D01*
X58087000Y-30227000D01*
X58087000Y-32326250D01*
X58245750Y-32485000D01*
X59836309Y-32485000D01*
X60069698Y-32388327D01*
X60248327Y-32209699D01*
X60345000Y-31976310D01*
X60345000Y-30385750D01*
X60186250Y-30227000D01*
X58087000Y-30227000D01*
X57833000Y-30227000D01*
X55733750Y-30227000D01*
X55575000Y-30385750D01*
X51510000Y-30385750D01*
X51510000Y-25685750D01*
X52575000Y-25685750D01*
X52575000Y-27276310D01*
X52671673Y-27509699D01*
X52850302Y-27688327D01*
X53083691Y-27785000D01*
X54674250Y-27785000D01*
X54833000Y-27626250D01*
X54833000Y-25527000D01*
X55087000Y-25527000D01*
X55087000Y-27626250D01*
X55245750Y-27785000D01*
X55914696Y-27785000D01*
X55850302Y-27811673D01*
X55671673Y-27990301D01*
X55575000Y-28223690D01*
X55575000Y-29814250D01*
X55733750Y-29973000D01*
X57833000Y-29973000D01*
X57833000Y-27873750D01*
X57674250Y-27715000D01*
X57005304Y-27715000D01*
X57069698Y-27688327D01*
X57248327Y-27509699D01*
X57345000Y-27276310D01*
X57345000Y-25685750D01*
X57186250Y-25527000D01*
X55087000Y-25527000D01*
X54833000Y-25527000D01*
X52733750Y-25527000D01*
X52575000Y-25685750D01*
X51510000Y-25685750D01*
X51510000Y-23523690D01*
X52575000Y-23523690D01*
X52575000Y-25114250D01*
X52733750Y-25273000D01*
X54833000Y-25273000D01*
X54833000Y-23173750D01*
X55087000Y-23173750D01*
X55087000Y-25273000D01*
X57186250Y-25273000D01*
X57345000Y-25114250D01*
X57345000Y-23523690D01*
X57248327Y-23290301D01*
X57069698Y-23111673D01*
X56836309Y-23015000D01*
X55245750Y-23015000D01*
X55087000Y-23173750D01*
X54833000Y-23173750D01*
X54674250Y-23015000D01*
X53083691Y-23015000D01*
X52850302Y-23111673D01*
X52671673Y-23290301D01*
X52575000Y-23523690D01*
X51510000Y-23523690D01*
X51510000Y-16853599D01*
X51604699Y-16853599D01*
X51868281Y-17491515D01*
X52355918Y-17980004D01*
X52993373Y-18244699D01*
X53683599Y-18245301D01*
X54321515Y-17981719D01*
X54810004Y-17494082D01*
X55074699Y-16856627D01*
X55075155Y-16333223D01*
X65228035Y-16333223D01*
X65255222Y-16903454D01*
X65421136Y-17304005D01*
X65667255Y-17378139D01*
X66495395Y-16550000D01*
X65667255Y-15721861D01*
X65421136Y-15795995D01*
X65228035Y-16333223D01*
X55075155Y-16333223D01*
X55075301Y-16166401D01*
X54817409Y-15542255D01*
X65846861Y-15542255D01*
X66675000Y-16370395D01*
X67503139Y-15542255D01*
X67429005Y-15296136D01*
X66891777Y-15103035D01*
X66321546Y-15130222D01*
X65920995Y-15296136D01*
X65846861Y-15542255D01*
X54817409Y-15542255D01*
X54811719Y-15528485D01*
X54324082Y-15039996D01*
X53686627Y-14775301D01*
X52996401Y-14774699D01*
X52358485Y-15038281D01*
X51869996Y-15525918D01*
X51605301Y-16163373D01*
X51604699Y-16853599D01*
X51510000Y-16853599D01*
X51510000Y-14680000D01*
X99620000Y-14680000D01*
X99620000Y-35691421D01*
X99620000Y-35691421D01*
G37*
X99620000Y-35691421D02*
X99597401Y-35657599D01*
X98137401Y-34197599D01*
X97890839Y-34032852D01*
X97713909Y-33997658D01*
X97694831Y-33951485D01*
X97305564Y-33561539D01*
X96796702Y-33350241D01*
X96245715Y-33349760D01*
X95736485Y-33560169D01*
X95346539Y-33949436D01*
X95335924Y-33975000D01*
X91989547Y-33975000D01*
X91979831Y-33951485D01*
X91590564Y-33561539D01*
X91081702Y-33350241D01*
X90530715Y-33349760D01*
X90021485Y-33560169D01*
X89631539Y-33949436D01*
X89420241Y-34458298D01*
X89419760Y-35009285D01*
X89439642Y-35057403D01*
X87349513Y-32967273D01*
X87235543Y-32394313D01*
X86956243Y-31976310D01*
X86881120Y-31863880D01*
X86881117Y-31863878D01*
X79645000Y-24627760D01*
X79645000Y-23086431D01*
X79657440Y-23025000D01*
X79657440Y-22510750D01*
X80375000Y-22510750D01*
X80375000Y-23151310D01*
X80471673Y-23384699D01*
X80650302Y-23563327D01*
X80883691Y-23660000D01*
X81724250Y-23660000D01*
X81883000Y-23501250D01*
X81883000Y-22352000D01*
X82137000Y-22352000D01*
X82137000Y-23501250D01*
X82295750Y-23660000D01*
X83136309Y-23660000D01*
X83369698Y-23563327D01*
X83548327Y-23384699D01*
X83645000Y-23151310D01*
X83645000Y-22605750D01*
X84240000Y-22605750D01*
X84240000Y-23446309D01*
X84336673Y-23679698D01*
X84515301Y-23858327D01*
X84748690Y-23955000D01*
X85439250Y-23955000D01*
X85598000Y-23796250D01*
X85598000Y-22447000D01*
X85852000Y-22447000D01*
X85852000Y-23796250D01*
X86010750Y-23955000D01*
X86701310Y-23955000D01*
X86934699Y-23858327D01*
X87113327Y-23679698D01*
X87210000Y-23446309D01*
X87210000Y-22605750D01*
X87051250Y-22447000D01*
X85852000Y-22447000D01*
X85598000Y-22447000D01*
X84398750Y-22447000D01*
X84240000Y-22605750D01*
X83645000Y-22605750D01*
X83645000Y-22510750D01*
X83486250Y-22352000D01*
X82137000Y-22352000D01*
X81883000Y-22352000D01*
X80533750Y-22352000D01*
X80375000Y-22510750D01*
X79657440Y-22510750D01*
X79657440Y-21425000D01*
X79633674Y-21298690D01*
X80375000Y-21298690D01*
X80375000Y-21939250D01*
X80533750Y-22098000D01*
X81883000Y-22098000D01*
X81883000Y-20948750D01*
X82137000Y-20948750D01*
X82137000Y-22098000D01*
X83486250Y-22098000D01*
X83645000Y-21939250D01*
X83645000Y-21298690D01*
X83601508Y-21193691D01*
X84240000Y-21193691D01*
X84240000Y-22034250D01*
X84398750Y-22193000D01*
X85598000Y-22193000D01*
X85598000Y-20843750D01*
X85852000Y-20843750D01*
X85852000Y-22193000D01*
X87051250Y-22193000D01*
X87210000Y-22034250D01*
X87210000Y-21193691D01*
X87113327Y-20960302D01*
X86934699Y-20781673D01*
X86701310Y-20685000D01*
X86010750Y-20685000D01*
X85852000Y-20843750D01*
X85598000Y-20843750D01*
X85439250Y-20685000D01*
X84748690Y-20685000D01*
X84515301Y-20781673D01*
X84336673Y-20960302D01*
X84240000Y-21193691D01*
X83601508Y-21193691D01*
X83548327Y-21065301D01*
X83369698Y-20886673D01*
X83136309Y-20790000D01*
X82295750Y-20790000D01*
X82137000Y-20948750D01*
X81883000Y-20948750D01*
X81724250Y-20790000D01*
X80883691Y-20790000D01*
X80650302Y-20886673D01*
X80471673Y-21065301D01*
X80375000Y-21298690D01*
X79633674Y-21298690D01*
X79613162Y-21189683D01*
X79474090Y-20973559D01*
X79261890Y-20828569D01*
X79010000Y-20777560D01*
X78874799Y-20777560D01*
X78370514Y-20273275D01*
X87935000Y-20273275D01*
X87935000Y-20366725D01*
X88116547Y-21279425D01*
X88633550Y-22053175D01*
X89407300Y-22570178D01*
X90320000Y-22751725D01*
X91232700Y-22570178D01*
X92006450Y-22053175D01*
X92523453Y-21279425D01*
X92705000Y-20366725D01*
X92705000Y-20273275D01*
X92523453Y-19360575D01*
X92006450Y-18586825D01*
X91232700Y-18069822D01*
X90320000Y-17888275D01*
X89407300Y-18069822D01*
X88633550Y-18586825D01*
X88116547Y-19360575D01*
X87935000Y-20273275D01*
X78370514Y-20273275D01*
X78147239Y-20050000D01*
X78919799Y-19277440D01*
X79010000Y-19277440D01*
X79245317Y-19233162D01*
X79461441Y-19094090D01*
X79606431Y-18881890D01*
X79657440Y-18630000D01*
X79657440Y-16930000D01*
X79613162Y-16694683D01*
X79574757Y-16635000D01*
X79790198Y-16635000D01*
X80362560Y-17207362D01*
X80362560Y-18630000D01*
X80406838Y-18865317D01*
X80545910Y-19081441D01*
X80758110Y-19226431D01*
X81010000Y-19277440D01*
X83010000Y-19277440D01*
X83245317Y-19233162D01*
X83461441Y-19094090D01*
X83471068Y-19080000D01*
X84227560Y-19080000D01*
X84227560Y-19320000D01*
X84271838Y-19555317D01*
X84410910Y-19771441D01*
X84623110Y-19916431D01*
X84875000Y-19967440D01*
X86575000Y-19967440D01*
X86810317Y-19923162D01*
X87026441Y-19784090D01*
X87171431Y-19571890D01*
X87222440Y-19320000D01*
X87222440Y-17320000D01*
X87178162Y-17084683D01*
X87039090Y-16868559D01*
X87017196Y-16853599D01*
X96054699Y-16853599D01*
X96318281Y-17491515D01*
X96805918Y-17980004D01*
X97443373Y-18244699D01*
X98133599Y-18245301D01*
X98771515Y-17981719D01*
X99260004Y-17494082D01*
X99524699Y-16856627D01*
X99525301Y-16166401D01*
X99261719Y-15528485D01*
X98774082Y-15039996D01*
X98136627Y-14775301D01*
X97446401Y-14774699D01*
X96808485Y-15038281D01*
X96319996Y-15525918D01*
X96055301Y-16163373D01*
X96054699Y-16853599D01*
X87017196Y-16853599D01*
X86826890Y-16723569D01*
X86575000Y-16672560D01*
X84875000Y-16672560D01*
X84639683Y-16716838D01*
X84423559Y-16855910D01*
X84278569Y-17068110D01*
X84227560Y-17320000D01*
X84227560Y-17560000D01*
X83657440Y-17560000D01*
X83657440Y-16930000D01*
X83613162Y-16694683D01*
X83474090Y-16478559D01*
X83261890Y-16333569D01*
X83010000Y-16282560D01*
X81587362Y-16282560D01*
X80642401Y-15337599D01*
X80395839Y-15172852D01*
X80105000Y-15115000D01*
X76200000Y-15115000D01*
X75909161Y-15172852D01*
X75662599Y-15337599D01*
X74732671Y-16267527D01*
X74560000Y-16232560D01*
X72760000Y-16232560D01*
X72524683Y-16276838D01*
X72308559Y-16415910D01*
X72163569Y-16628110D01*
X72112560Y-16880000D01*
X72112560Y-18680000D01*
X72156838Y-18915317D01*
X72295910Y-19131441D01*
X72453574Y-19239168D01*
X72149457Y-19694313D01*
X72025000Y-20320000D01*
X72148596Y-20941356D01*
X69101120Y-17893880D01*
X68570688Y-17539457D01*
X67945000Y-17414999D01*
X67944995Y-17415000D01*
X67719608Y-17415000D01*
X67682747Y-17378139D01*
X67928864Y-17304005D01*
X68121965Y-16766777D01*
X68094778Y-16196546D01*
X67928864Y-15795995D01*
X67682745Y-15721861D01*
X66854605Y-16550000D01*
X66868748Y-16564142D01*
X66689142Y-16743748D01*
X66675000Y-16729605D01*
X65846861Y-17557745D01*
X65861145Y-17605167D01*
X65639683Y-17646838D01*
X65423559Y-17785910D01*
X65278569Y-17998110D01*
X65227560Y-18250000D01*
X65227560Y-18329872D01*
X65164457Y-18424313D01*
X65040000Y-19050000D01*
X65164457Y-19675687D01*
X65227560Y-19770128D01*
X65227560Y-19850000D01*
X65271838Y-20085317D01*
X65410910Y-20301441D01*
X65623110Y-20446431D01*
X65875000Y-20497440D01*
X65954872Y-20497440D01*
X66049313Y-20560543D01*
X66675000Y-20685000D01*
X67267760Y-20685000D01*
X69125261Y-22542500D01*
X67902760Y-23765000D01*
X63357440Y-23765000D01*
X63357440Y-23650000D01*
X63313162Y-23414683D01*
X63174090Y-23198559D01*
X62961890Y-23053569D01*
X62710000Y-23002560D01*
X59210000Y-23002560D01*
X58974683Y-23046838D01*
X58758559Y-23185910D01*
X58613569Y-23398110D01*
X58562560Y-23650000D01*
X58562560Y-27150000D01*
X58606838Y-27385317D01*
X58745910Y-27601441D01*
X58912109Y-27715000D01*
X58245750Y-27715000D01*
X58087000Y-27873750D01*
X58087000Y-29973000D01*
X60186250Y-29973000D01*
X60345000Y-29814250D01*
X60345000Y-28223690D01*
X60248327Y-27990301D01*
X60069698Y-27811673D01*
X60035337Y-27797440D01*
X62710000Y-27797440D01*
X62945317Y-27753162D01*
X63161441Y-27614090D01*
X63306431Y-27401890D01*
X63357440Y-27150000D01*
X63357440Y-27035000D01*
X67902760Y-27035000D01*
X73295000Y-32427240D01*
X73295000Y-41909995D01*
X73294999Y-41910000D01*
X73419457Y-42535688D01*
X73773880Y-43066120D01*
X80758878Y-50051117D01*
X80758880Y-50051120D01*
X81234148Y-50368683D01*
X81289313Y-50405543D01*
X81915000Y-50530001D01*
X81915005Y-50530000D01*
X83944188Y-50530000D01*
X83818355Y-50668076D01*
X83648524Y-51078110D01*
X83769845Y-51308000D01*
X84963000Y-51308000D01*
X84963000Y-51288000D01*
X85217000Y-51288000D01*
X85217000Y-51308000D01*
X86410155Y-51308000D01*
X86531476Y-51078110D01*
X86361645Y-50668076D01*
X86235812Y-50530000D01*
X88533520Y-50530000D01*
X88310856Y-50926645D01*
X88279876Y-51054566D01*
X88399223Y-51308000D01*
X90043000Y-51308000D01*
X90043000Y-51288000D01*
X90297000Y-51288000D01*
X90297000Y-51308000D01*
X91940777Y-51308000D01*
X92060124Y-51054566D01*
X92029144Y-50926645D01*
X91806480Y-50530000D01*
X94248520Y-50530000D01*
X94025856Y-50926645D01*
X93994876Y-51054566D01*
X94114223Y-51308000D01*
X95758000Y-51308000D01*
X95758000Y-51288000D01*
X96012000Y-51288000D01*
X96012000Y-51308000D01*
X97655777Y-51308000D01*
X97775124Y-51054566D01*
X97744144Y-50926645D01*
X97430922Y-50368683D01*
X97188812Y-50178219D01*
X97379029Y-50051120D01*
X97733452Y-49520687D01*
X97857909Y-48895000D01*
X97733452Y-48269313D01*
X97493907Y-47910808D01*
X97636441Y-47819090D01*
X97781431Y-47606890D01*
X97832440Y-47355000D01*
X97832440Y-45482362D01*
X99597401Y-43717401D01*
X99620000Y-43683579D01*
X99620000Y-58980000D01*
X51510000Y-58980000D01*
X51510000Y-57493599D01*
X51604699Y-57493599D01*
X51868281Y-58131515D01*
X52355918Y-58620004D01*
X52993373Y-58884699D01*
X53683599Y-58885301D01*
X54321515Y-58621719D01*
X54810004Y-58134082D01*
X55074699Y-57496627D01*
X55075301Y-56806401D01*
X54811719Y-56168485D01*
X54324082Y-55679996D01*
X53686627Y-55415301D01*
X52996401Y-55414699D01*
X52358485Y-55678281D01*
X51869996Y-56165918D01*
X51605301Y-56803373D01*
X51604699Y-57493599D01*
X51510000Y-57493599D01*
X51510000Y-46990000D01*
X54365907Y-46990000D01*
X54478946Y-47558285D01*
X54800853Y-48040054D01*
X55130026Y-48260000D01*
X54800853Y-48479946D01*
X54478946Y-48961715D01*
X54365907Y-49530000D01*
X54478946Y-50098285D01*
X54800853Y-50580054D01*
X55130026Y-50800000D01*
X54800853Y-51019946D01*
X54478946Y-51501715D01*
X54365907Y-52070000D01*
X54478946Y-52638285D01*
X54800853Y-53120054D01*
X55282622Y-53441961D01*
X55850907Y-53555000D01*
X55909093Y-53555000D01*
X56477378Y-53441961D01*
X56959147Y-53120054D01*
X57281054Y-52638285D01*
X57394093Y-52070000D01*
X57281054Y-51501715D01*
X56959147Y-51019946D01*
X56629974Y-50800000D01*
X56959147Y-50580054D01*
X57152954Y-50290000D01*
X57470198Y-50290000D01*
X58295000Y-51114802D01*
X58295000Y-52705000D01*
X58352852Y-52995839D01*
X58517599Y-53242401D01*
X62962599Y-57687401D01*
X63209160Y-57852148D01*
X63500000Y-57910000D01*
X66112537Y-57910000D01*
X66144673Y-57942192D01*
X66488201Y-58084838D01*
X66860167Y-58085162D01*
X67203943Y-57943117D01*
X67467192Y-57680327D01*
X67544728Y-57493599D01*
X96054699Y-57493599D01*
X96318281Y-58131515D01*
X96805918Y-58620004D01*
X97443373Y-58884699D01*
X98133599Y-58885301D01*
X98771515Y-58621719D01*
X99260004Y-58134082D01*
X99524699Y-57496627D01*
X99525301Y-56806401D01*
X99261719Y-56168485D01*
X98774082Y-55679996D01*
X98136627Y-55415301D01*
X97446401Y-55414699D01*
X96808485Y-55678281D01*
X96319996Y-56165918D01*
X96055301Y-56803373D01*
X96054699Y-57493599D01*
X67544728Y-57493599D01*
X67609838Y-57336799D01*
X67610162Y-56964833D01*
X67468117Y-56621057D01*
X67205327Y-56357808D01*
X66861799Y-56215162D01*
X66489833Y-56214838D01*
X66146057Y-56356883D01*
X66112882Y-56390000D01*
X63814802Y-56390000D01*
X59815000Y-52390198D01*
X59815000Y-50800000D01*
X59794719Y-50698039D01*
X59757148Y-50509160D01*
X59592401Y-50262599D01*
X58322401Y-48992599D01*
X58075839Y-48827852D01*
X57785000Y-48770000D01*
X57152954Y-48770000D01*
X56959147Y-48479946D01*
X56629974Y-48260000D01*
X56959147Y-48040054D01*
X57152954Y-47750000D01*
X59055000Y-47750000D01*
X59345839Y-47692148D01*
X59592401Y-47527401D01*
X60464680Y-46655122D01*
X60510167Y-46655162D01*
X60835000Y-46520944D01*
X60835000Y-50872537D01*
X60802808Y-50904673D01*
X60660162Y-51248201D01*
X60659838Y-51620167D01*
X60801883Y-51963943D01*
X61064673Y-52227192D01*
X61408201Y-52369838D01*
X61780167Y-52370162D01*
X62123943Y-52228117D01*
X62387192Y-51965327D01*
X62459209Y-51791890D01*
X83648524Y-51791890D01*
X83818355Y-52201924D01*
X84208642Y-52630183D01*
X84733108Y-52876486D01*
X84963000Y-52755819D01*
X84963000Y-51562000D01*
X85217000Y-51562000D01*
X85217000Y-52755819D01*
X85446892Y-52876486D01*
X85971358Y-52630183D01*
X86361645Y-52201924D01*
X86521724Y-51815434D01*
X88279876Y-51815434D01*
X88310856Y-51943355D01*
X88624078Y-52501317D01*
X89126980Y-52896942D01*
X89743000Y-53070000D01*
X90043000Y-53070000D01*
X90043000Y-51562000D01*
X90297000Y-51562000D01*
X90297000Y-53070000D01*
X90597000Y-53070000D01*
X91213020Y-52896942D01*
X91715922Y-52501317D01*
X92029144Y-51943355D01*
X92060124Y-51815434D01*
X93994876Y-51815434D01*
X94025856Y-51943355D01*
X94339078Y-52501317D01*
X94841980Y-52896942D01*
X95458000Y-53070000D01*
X95758000Y-53070000D01*
X95758000Y-51562000D01*
X96012000Y-51562000D01*
X96012000Y-53070000D01*
X96312000Y-53070000D01*
X96928020Y-52896942D01*
X97430922Y-52501317D01*
X97744144Y-51943355D01*
X97775124Y-51815434D01*
X97655777Y-51562000D01*
X96012000Y-51562000D01*
X95758000Y-51562000D01*
X94114223Y-51562000D01*
X93994876Y-51815434D01*
X92060124Y-51815434D01*
X91940777Y-51562000D01*
X90297000Y-51562000D01*
X90043000Y-51562000D01*
X88399223Y-51562000D01*
X88279876Y-51815434D01*
X86521724Y-51815434D01*
X86531476Y-51791890D01*
X86410155Y-51562000D01*
X85217000Y-51562000D01*
X84963000Y-51562000D01*
X83769845Y-51562000D01*
X83648524Y-51791890D01*
X62459209Y-51791890D01*
X62529838Y-51621799D01*
X62530162Y-51249833D01*
X62388117Y-50906057D01*
X62355000Y-50872882D01*
X62355000Y-48445167D01*
X67009838Y-48445167D01*
X67151883Y-48788943D01*
X67414673Y-49052192D01*
X67758201Y-49194838D01*
X68130167Y-49195162D01*
X68473943Y-49053117D01*
X68507118Y-49020000D01*
X69922537Y-49020000D01*
X69954673Y-49052192D01*
X70298201Y-49194838D01*
X70670167Y-49195162D01*
X71013943Y-49053117D01*
X71277192Y-48790327D01*
X71419838Y-48446799D01*
X71420162Y-48074833D01*
X71278117Y-47731057D01*
X71015327Y-47467808D01*
X70671799Y-47325162D01*
X70299833Y-47324838D01*
X69956057Y-47466883D01*
X69922882Y-47500000D01*
X68507463Y-47500000D01*
X68475327Y-47467808D01*
X68131799Y-47325162D01*
X67759833Y-47324838D01*
X67416057Y-47466883D01*
X67152808Y-47729673D01*
X67010162Y-48073201D01*
X67009838Y-48445167D01*
X62355000Y-48445167D01*
X62355000Y-45012463D01*
X62387192Y-44980327D01*
X62529838Y-44636799D01*
X62530162Y-44264833D01*
X62388117Y-43921057D01*
X62125327Y-43657808D01*
X61781799Y-43515162D01*
X61409833Y-43514838D01*
X61066057Y-43656883D01*
X60802808Y-43919673D01*
X60660162Y-44263201D01*
X60659838Y-44635167D01*
X60765310Y-44890430D01*
X60511799Y-44785162D01*
X60139833Y-44784838D01*
X59796057Y-44926883D01*
X59532808Y-45189673D01*
X59390162Y-45533201D01*
X59390121Y-45580077D01*
X58740198Y-46230000D01*
X57152954Y-46230000D01*
X56959147Y-45939946D01*
X56915223Y-45910597D01*
X57089698Y-45838327D01*
X57268327Y-45659699D01*
X57365000Y-45426310D01*
X57365000Y-44735750D01*
X57206250Y-44577000D01*
X56007000Y-44577000D01*
X56007000Y-44597000D01*
X55753000Y-44597000D01*
X55753000Y-44577000D01*
X54553750Y-44577000D01*
X54395000Y-44735750D01*
X54395000Y-45426310D01*
X54491673Y-45659699D01*
X54670302Y-45838327D01*
X54844777Y-45910597D01*
X54800853Y-45939946D01*
X54478946Y-46421715D01*
X54365907Y-46990000D01*
X51510000Y-46990000D01*
X51510000Y-43473690D01*
X54395000Y-43473690D01*
X54395000Y-44164250D01*
X54553750Y-44323000D01*
X55753000Y-44323000D01*
X55753000Y-43123750D01*
X56007000Y-43123750D01*
X56007000Y-44323000D01*
X57206250Y-44323000D01*
X57365000Y-44164250D01*
X57365000Y-43473690D01*
X57268327Y-43240301D01*
X57089698Y-43061673D01*
X56856309Y-42965000D01*
X56165750Y-42965000D01*
X56007000Y-43123750D01*
X55753000Y-43123750D01*
X55594250Y-42965000D01*
X54903691Y-42965000D01*
X54670302Y-43061673D01*
X54491673Y-43240301D01*
X54395000Y-43473690D01*
X51510000Y-43473690D01*
X51510000Y-30385750D01*
X55575000Y-30385750D01*
X55575000Y-31976310D01*
X55671673Y-32209699D01*
X55850302Y-32388327D01*
X56083691Y-32485000D01*
X57674250Y-32485000D01*
X57833000Y-32326250D01*
X57833000Y-30227000D01*
X58087000Y-30227000D01*
X58087000Y-32326250D01*
X58245750Y-32485000D01*
X59836309Y-32485000D01*
X60069698Y-32388327D01*
X60248327Y-32209699D01*
X60345000Y-31976310D01*
X60345000Y-30385750D01*
X60186250Y-30227000D01*
X58087000Y-30227000D01*
X57833000Y-30227000D01*
X55733750Y-30227000D01*
X55575000Y-30385750D01*
X51510000Y-30385750D01*
X51510000Y-25685750D01*
X52575000Y-25685750D01*
X52575000Y-27276310D01*
X52671673Y-27509699D01*
X52850302Y-27688327D01*
X53083691Y-27785000D01*
X54674250Y-27785000D01*
X54833000Y-27626250D01*
X54833000Y-25527000D01*
X55087000Y-25527000D01*
X55087000Y-27626250D01*
X55245750Y-27785000D01*
X55914696Y-27785000D01*
X55850302Y-27811673D01*
X55671673Y-27990301D01*
X55575000Y-28223690D01*
X55575000Y-29814250D01*
X55733750Y-29973000D01*
X57833000Y-29973000D01*
X57833000Y-27873750D01*
X57674250Y-27715000D01*
X57005304Y-27715000D01*
X57069698Y-27688327D01*
X57248327Y-27509699D01*
X57345000Y-27276310D01*
X57345000Y-25685750D01*
X57186250Y-25527000D01*
X55087000Y-25527000D01*
X54833000Y-25527000D01*
X52733750Y-25527000D01*
X52575000Y-25685750D01*
X51510000Y-25685750D01*
X51510000Y-23523690D01*
X52575000Y-23523690D01*
X52575000Y-25114250D01*
X52733750Y-25273000D01*
X54833000Y-25273000D01*
X54833000Y-23173750D01*
X55087000Y-23173750D01*
X55087000Y-25273000D01*
X57186250Y-25273000D01*
X57345000Y-25114250D01*
X57345000Y-23523690D01*
X57248327Y-23290301D01*
X57069698Y-23111673D01*
X56836309Y-23015000D01*
X55245750Y-23015000D01*
X55087000Y-23173750D01*
X54833000Y-23173750D01*
X54674250Y-23015000D01*
X53083691Y-23015000D01*
X52850302Y-23111673D01*
X52671673Y-23290301D01*
X52575000Y-23523690D01*
X51510000Y-23523690D01*
X51510000Y-16853599D01*
X51604699Y-16853599D01*
X51868281Y-17491515D01*
X52355918Y-17980004D01*
X52993373Y-18244699D01*
X53683599Y-18245301D01*
X54321515Y-17981719D01*
X54810004Y-17494082D01*
X55074699Y-16856627D01*
X55075155Y-16333223D01*
X65228035Y-16333223D01*
X65255222Y-16903454D01*
X65421136Y-17304005D01*
X65667255Y-17378139D01*
X66495395Y-16550000D01*
X65667255Y-15721861D01*
X65421136Y-15795995D01*
X65228035Y-16333223D01*
X55075155Y-16333223D01*
X55075301Y-16166401D01*
X54817409Y-15542255D01*
X65846861Y-15542255D01*
X66675000Y-16370395D01*
X67503139Y-15542255D01*
X67429005Y-15296136D01*
X66891777Y-15103035D01*
X66321546Y-15130222D01*
X65920995Y-15296136D01*
X65846861Y-15542255D01*
X54817409Y-15542255D01*
X54811719Y-15528485D01*
X54324082Y-15039996D01*
X53686627Y-14775301D01*
X52996401Y-14774699D01*
X52358485Y-15038281D01*
X51869996Y-15525918D01*
X51605301Y-16163373D01*
X51604699Y-16853599D01*
X51510000Y-16853599D01*
X51510000Y-14680000D01*
X99620000Y-14680000D01*
X99620000Y-35691421D01*
G36*
X76362560Y-22889799D02*
X76362560Y-23025000D01*
X76375000Y-23091113D01*
X76375000Y-25304995D01*
X76374999Y-25305000D01*
X76499457Y-25930688D01*
X76853880Y-26461120D01*
X84100487Y-33707726D01*
X84214457Y-34280688D01*
X84568880Y-34811120D01*
X87648878Y-37891117D01*
X87648880Y-37891120D01*
X87914097Y-38068332D01*
X88179312Y-38245543D01*
X88805000Y-38370001D01*
X88805005Y-38370000D01*
X89420000Y-38370000D01*
X89420000Y-38449250D01*
X89578750Y-38608000D01*
X90678000Y-38608000D01*
X90678000Y-38588000D01*
X90932000Y-38588000D01*
X90932000Y-38608000D01*
X92031250Y-38608000D01*
X92190000Y-38449250D01*
X92190000Y-38370000D01*
X95135000Y-38370000D01*
X95135000Y-38449250D01*
X95293750Y-38608000D01*
X96393000Y-38608000D01*
X96393000Y-38588000D01*
X96647000Y-38588000D01*
X96647000Y-38608000D01*
X97746250Y-38608000D01*
X97905000Y-38449250D01*
X97905000Y-37858691D01*
X97825703Y-37667252D01*
X98030543Y-37360687D01*
X98155000Y-36735000D01*
X98063079Y-36272881D01*
X98300000Y-36509802D01*
X98300000Y-42865198D01*
X96457638Y-44707560D01*
X94585000Y-44707560D01*
X94349683Y-44751838D01*
X94133559Y-44890910D01*
X93988569Y-45103110D01*
X93937560Y-45355000D01*
X93937560Y-45595000D01*
X92117440Y-45595000D01*
X92117440Y-45355000D01*
X92073162Y-45119683D01*
X91934090Y-44903559D01*
X91721890Y-44758569D01*
X91470000Y-44707560D01*
X88870000Y-44707560D01*
X88634683Y-44751838D01*
X88418559Y-44890910D01*
X88273569Y-45103110D01*
X88222560Y-45355000D01*
X88222560Y-45595000D01*
X86587440Y-45595000D01*
X86587440Y-45505000D01*
X86543162Y-45269683D01*
X86404090Y-45053559D01*
X86191890Y-44908569D01*
X85940000Y-44857560D01*
X84240000Y-44857560D01*
X84004683Y-44901838D01*
X83788559Y-45040910D01*
X83643569Y-45253110D01*
X83592560Y-45505000D01*
X83592560Y-47205000D01*
X83602909Y-47260000D01*
X82592239Y-47260000D01*
X80082303Y-44750064D01*
X80195167Y-44750162D01*
X80538943Y-44608117D01*
X80802192Y-44345327D01*
X80944838Y-44001799D01*
X80945162Y-43629833D01*
X80803117Y-43286057D01*
X80540327Y-43022808D01*
X80196799Y-42880162D01*
X80149923Y-42880121D01*
X80135000Y-42865198D01*
X80135000Y-40567463D01*
X80167192Y-40535327D01*
X80309838Y-40191799D01*
X80310162Y-39819833D01*
X80168117Y-39476057D01*
X79905327Y-39212808D01*
X79561799Y-39070162D01*
X79189833Y-39069838D01*
X78846057Y-39211883D01*
X78582808Y-39474673D01*
X78440162Y-39818201D01*
X78439838Y-40190167D01*
X78581883Y-40533943D01*
X78615000Y-40567118D01*
X78615000Y-43180000D01*
X78640516Y-43308276D01*
X76565000Y-41232760D01*
X76565000Y-39020750D01*
X89420000Y-39020750D01*
X89420000Y-39611309D01*
X89516673Y-39844698D01*
X89695301Y-40023327D01*
X89928690Y-40120000D01*
X90519250Y-40120000D01*
X90678000Y-39961250D01*
X90678000Y-38862000D01*
X90932000Y-38862000D01*
X90932000Y-39961250D01*
X91090750Y-40120000D01*
X91681310Y-40120000D01*
X91914699Y-40023327D01*
X92093327Y-39844698D01*
X92190000Y-39611309D01*
X92190000Y-39020750D01*
X95135000Y-39020750D01*
X95135000Y-39611309D01*
X95231673Y-39844698D01*
X95410301Y-40023327D01*
X95643690Y-40120000D01*
X96234250Y-40120000D01*
X96393000Y-39961250D01*
X96393000Y-38862000D01*
X96647000Y-38862000D01*
X96647000Y-39961250D01*
X96805750Y-40120000D01*
X97396310Y-40120000D01*
X97629699Y-40023327D01*
X97808327Y-39844698D01*
X97905000Y-39611309D01*
X97905000Y-39020750D01*
X97746250Y-38862000D01*
X96647000Y-38862000D01*
X96393000Y-38862000D01*
X95293750Y-38862000D01*
X95135000Y-39020750D01*
X92190000Y-39020750D01*
X92031250Y-38862000D01*
X90932000Y-38862000D01*
X90678000Y-38862000D01*
X89578750Y-38862000D01*
X89420000Y-39020750D01*
X76565000Y-39020750D01*
X76565000Y-31750000D01*
X76440543Y-31124313D01*
X76440543Y-31124312D01*
X76086120Y-30593880D01*
X70892240Y-25400000D01*
X71797239Y-24495000D01*
X73660000Y-24495000D01*
X74285687Y-24370543D01*
X74816120Y-24016120D01*
X75170543Y-23485687D01*
X75295000Y-22860000D01*
X75170543Y-22234313D01*
X74983913Y-21955000D01*
X75427760Y-21955000D01*
X76362560Y-22889799D01*
X76362560Y-22889799D01*
G37*
X76362560Y-22889799D02*
X76362560Y-23025000D01*
X76375000Y-23091113D01*
X76375000Y-25304995D01*
X76374999Y-25305000D01*
X76499457Y-25930688D01*
X76853880Y-26461120D01*
X84100487Y-33707726D01*
X84214457Y-34280688D01*
X84568880Y-34811120D01*
X87648878Y-37891117D01*
X87648880Y-37891120D01*
X87914097Y-38068332D01*
X88179312Y-38245543D01*
X88805000Y-38370001D01*
X88805005Y-38370000D01*
X89420000Y-38370000D01*
X89420000Y-38449250D01*
X89578750Y-38608000D01*
X90678000Y-38608000D01*
X90678000Y-38588000D01*
X90932000Y-38588000D01*
X90932000Y-38608000D01*
X92031250Y-38608000D01*
X92190000Y-38449250D01*
X92190000Y-38370000D01*
X95135000Y-38370000D01*
X95135000Y-38449250D01*
X95293750Y-38608000D01*
X96393000Y-38608000D01*
X96393000Y-38588000D01*
X96647000Y-38588000D01*
X96647000Y-38608000D01*
X97746250Y-38608000D01*
X97905000Y-38449250D01*
X97905000Y-37858691D01*
X97825703Y-37667252D01*
X98030543Y-37360687D01*
X98155000Y-36735000D01*
X98063079Y-36272881D01*
X98300000Y-36509802D01*
X98300000Y-42865198D01*
X96457638Y-44707560D01*
X94585000Y-44707560D01*
X94349683Y-44751838D01*
X94133559Y-44890910D01*
X93988569Y-45103110D01*
X93937560Y-45355000D01*
X93937560Y-45595000D01*
X92117440Y-45595000D01*
X92117440Y-45355000D01*
X92073162Y-45119683D01*
X91934090Y-44903559D01*
X91721890Y-44758569D01*
X91470000Y-44707560D01*
X88870000Y-44707560D01*
X88634683Y-44751838D01*
X88418559Y-44890910D01*
X88273569Y-45103110D01*
X88222560Y-45355000D01*
X88222560Y-45595000D01*
X86587440Y-45595000D01*
X86587440Y-45505000D01*
X86543162Y-45269683D01*
X86404090Y-45053559D01*
X86191890Y-44908569D01*
X85940000Y-44857560D01*
X84240000Y-44857560D01*
X84004683Y-44901838D01*
X83788559Y-45040910D01*
X83643569Y-45253110D01*
X83592560Y-45505000D01*
X83592560Y-47205000D01*
X83602909Y-47260000D01*
X82592239Y-47260000D01*
X80082303Y-44750064D01*
X80195167Y-44750162D01*
X80538943Y-44608117D01*
X80802192Y-44345327D01*
X80944838Y-44001799D01*
X80945162Y-43629833D01*
X80803117Y-43286057D01*
X80540327Y-43022808D01*
X80196799Y-42880162D01*
X80149923Y-42880121D01*
X80135000Y-42865198D01*
X80135000Y-40567463D01*
X80167192Y-40535327D01*
X80309838Y-40191799D01*
X80310162Y-39819833D01*
X80168117Y-39476057D01*
X79905327Y-39212808D01*
X79561799Y-39070162D01*
X79189833Y-39069838D01*
X78846057Y-39211883D01*
X78582808Y-39474673D01*
X78440162Y-39818201D01*
X78439838Y-40190167D01*
X78581883Y-40533943D01*
X78615000Y-40567118D01*
X78615000Y-43180000D01*
X78640516Y-43308276D01*
X76565000Y-41232760D01*
X76565000Y-39020750D01*
X89420000Y-39020750D01*
X89420000Y-39611309D01*
X89516673Y-39844698D01*
X89695301Y-40023327D01*
X89928690Y-40120000D01*
X90519250Y-40120000D01*
X90678000Y-39961250D01*
X90678000Y-38862000D01*
X90932000Y-38862000D01*
X90932000Y-39961250D01*
X91090750Y-40120000D01*
X91681310Y-40120000D01*
X91914699Y-40023327D01*
X92093327Y-39844698D01*
X92190000Y-39611309D01*
X92190000Y-39020750D01*
X95135000Y-39020750D01*
X95135000Y-39611309D01*
X95231673Y-39844698D01*
X95410301Y-40023327D01*
X95643690Y-40120000D01*
X96234250Y-40120000D01*
X96393000Y-39961250D01*
X96393000Y-38862000D01*
X96647000Y-38862000D01*
X96647000Y-39961250D01*
X96805750Y-40120000D01*
X97396310Y-40120000D01*
X97629699Y-40023327D01*
X97808327Y-39844698D01*
X97905000Y-39611309D01*
X97905000Y-39020750D01*
X97746250Y-38862000D01*
X96647000Y-38862000D01*
X96393000Y-38862000D01*
X95293750Y-38862000D01*
X95135000Y-39020750D01*
X92190000Y-39020750D01*
X92031250Y-38862000D01*
X90932000Y-38862000D01*
X90678000Y-38862000D01*
X89578750Y-38862000D01*
X89420000Y-39020750D01*
X76565000Y-39020750D01*
X76565000Y-31750000D01*
X76440543Y-31124313D01*
X76440543Y-31124312D01*
X76086120Y-30593880D01*
X70892240Y-25400000D01*
X71797239Y-24495000D01*
X73660000Y-24495000D01*
X74285687Y-24370543D01*
X74816120Y-24016120D01*
X75170543Y-23485687D01*
X75295000Y-22860000D01*
X75170543Y-22234313D01*
X74983913Y-21955000D01*
X75427760Y-21955000D01*
X76362560Y-22889799D01*
M02*
