M48
;DRILL file {KiCad 4.0.7} date Sunday, June 10, 2018 'PMt' 01:36:34 PM
;FORMAT={-:-/ absolute / inch / decimal}
FMAT,2
INCH,TZ
T1C0.016
T2C0.031
T3C0.039
T4C0.047
%
G90
G05
M72
T1
X2.375Y-1.8
X2.425Y-1.75
X2.425Y-2.025
X2.625Y-2.25
X2.675Y-1.9
X2.775Y-1.9
X3.125Y-1.575
X3.15Y-1.725
T2
X2.625Y-0.6516
X2.625Y-0.75
X3.575Y-1.3675
X3.575Y-1.4463
X3.575Y-1.525
X3.8Y-1.3675
X3.8Y-1.4463
X3.8Y-1.525
T3
X2.2Y-1.75
X2.2Y-1.85
X2.2Y-1.95
X2.2Y-2.05
X2.9Y-0.7
X2.9Y-0.8
X2.9Y-0.9
X3.35Y-1.825
X3.35Y-1.925
X3.35Y-2.025
T4
X3.55Y-1.825
X3.55Y-1.925
X3.55Y-2.025
X3.775Y-1.825
X3.775Y-1.925
X3.775Y-2.025
T3
X2.1638Y-0.9606G85X2.1638Y-1.0394
G05
X2.2425Y-1.185G85X2.3213Y-1.185
G05
X2.4Y-0.9606G85X2.4Y-1.0394
G05
T0
M30
