G04 #@! TF.FileFunction,Soldermask,Top*
%FSLAX46Y46*%
G04 Gerber Fmt 4.6, Leading zero omitted, Abs format (unit mm)*
G04 Created by KiCad (PCBNEW 4.0.7) date Sunday, June 10, 2018 'PMt' 01:36:30 PM*
%MOMM*%
%LPD*%
G01*
G04 APERTURE LIST*
%ADD10C,0.100000*%
%ADD11C,2.600000*%
%ADD12R,2.000000X2.400000*%
%ADD13R,2.000000X2.000000*%
%ADD14C,2.000000*%
%ADD15R,2.400000X2.000000*%
%ADD16R,2.400000X2.100000*%
%ADD17R,3.900000X3.900000*%
%ADD18R,2.100000X2.400000*%
%ADD19O,3.900000X3.900000*%
%ADD20R,2.200000X2.200000*%
%ADD21O,2.200000X2.200000*%
%ADD22R,1.900000X1.900000*%
%ADD23C,1.900000*%
%ADD24R,3.000000X2.400000*%
%ADD25O,3.000000X2.400000*%
%ADD26R,1.960000X1.050000*%
%ADD27R,2.100000X2.100000*%
%ADD28O,2.100000X2.100000*%
%ADD29R,2.300000X1.200000*%
%ADD30R,1.200000X2.300000*%
G04 APERTURE END LIST*
D10*
D11*
X97790000Y-16510000D03*
X53340000Y-57150000D03*
X97790000Y-57150000D03*
D12*
X65405000Y-30385000D03*
X65405000Y-34385000D03*
D13*
X66675000Y-19050000D03*
D14*
X66675000Y-16550000D03*
D15*
X73120000Y-38735000D03*
X69120000Y-38735000D03*
D16*
X60865000Y-38735000D03*
X64865000Y-38735000D03*
D17*
X60960000Y-25400000D03*
X54960000Y-25400000D03*
X57960000Y-30100000D03*
D16*
X56610000Y-38735000D03*
X52610000Y-38735000D03*
D18*
X77470000Y-44355000D03*
X77470000Y-48355000D03*
X72390000Y-44355000D03*
X72390000Y-48355000D03*
D19*
X90320000Y-20320000D03*
D20*
X73660000Y-17780000D03*
D21*
X73660000Y-20320000D03*
X73660000Y-22860000D03*
D22*
X96520000Y-38735000D03*
D23*
X96520000Y-36735000D03*
X96520000Y-34735000D03*
D24*
X95885000Y-46355000D03*
D25*
X95885000Y-48895000D03*
X95885000Y-51435000D03*
D11*
X53340000Y-16510000D03*
D22*
X90805000Y-38735000D03*
D23*
X90805000Y-36735000D03*
X90805000Y-34735000D03*
D24*
X90170000Y-46355000D03*
D25*
X90170000Y-48895000D03*
X90170000Y-51435000D03*
D26*
X64055000Y-44770000D03*
X64055000Y-45720000D03*
X64055000Y-46670000D03*
X66755000Y-46670000D03*
X66755000Y-44770000D03*
X64055000Y-53025000D03*
X64055000Y-53975000D03*
X64055000Y-54925000D03*
X66755000Y-54925000D03*
X66755000Y-53025000D03*
D15*
X85820000Y-38735000D03*
X81820000Y-38735000D03*
D27*
X55880000Y-44450000D03*
D28*
X55880000Y-46990000D03*
X55880000Y-49530000D03*
X55880000Y-52070000D03*
D27*
X85090000Y-46355000D03*
D28*
X85090000Y-48895000D03*
X85090000Y-51435000D03*
D29*
X73430000Y-53025000D03*
X73430000Y-54925000D03*
X76430000Y-53975000D03*
D30*
X82870000Y-33885000D03*
X84770000Y-33885000D03*
X83820000Y-30885000D03*
X70170000Y-33885000D03*
X72070000Y-33885000D03*
X71120000Y-30885000D03*
M02*
