G04 #@! TF.FileFunction,Copper,L1,Top,Signal*
%FSLAX46Y46*%
G04 Gerber Fmt 4.6, Leading zero omitted, Abs format (unit mm)*
G04 Created by KiCad (PCBNEW 4.0.7) date 03/19/18 08:58:31*
%MOMM*%
%LPD*%
G01*
G04 APERTURE LIST*
%ADD10C,0.100000*%
%ADD11R,1.600000X1.600000*%
%ADD12C,1.600000*%
%ADD13R,2.000000X1.700000*%
%ADD14R,3.500000X3.500000*%
%ADD15R,1.800000X1.800000*%
%ADD16O,1.800000X1.800000*%
%ADD17R,1.500000X1.500000*%
%ADD18C,1.500000*%
%ADD19R,2.600000X2.000000*%
%ADD20O,2.600000X2.000000*%
%ADD21R,1.700000X1.700000*%
%ADD22O,1.700000X1.700000*%
%ADD23C,0.600000*%
%ADD24C,0.250000*%
%ADD25C,1.750000*%
%ADD26C,0.254000*%
G04 APERTURE END LIST*
D10*
D11*
X66675000Y-19050000D03*
D12*
X66675000Y-16550000D03*
D13*
X60865000Y-34290000D03*
X64865000Y-34290000D03*
X78645000Y-50800000D03*
X82645000Y-50800000D03*
D14*
X60960000Y-25400000D03*
X54960000Y-25400000D03*
X57960000Y-30100000D03*
D13*
X60865000Y-39370000D03*
X64865000Y-39370000D03*
D15*
X73660000Y-17780000D03*
D16*
X73660000Y-20320000D03*
X73660000Y-22860000D03*
D17*
X95250000Y-48260000D03*
D18*
X95250000Y-46260000D03*
X95250000Y-44260000D03*
D19*
X95250000Y-33020000D03*
D20*
X95250000Y-35560000D03*
X95250000Y-38100000D03*
D13*
X74390000Y-55880000D03*
X70390000Y-55880000D03*
X70390000Y-50800000D03*
X74390000Y-50800000D03*
D21*
X53975000Y-39370000D03*
D22*
X53975000Y-41910000D03*
X53975000Y-44450000D03*
X53975000Y-46990000D03*
X53975000Y-49530000D03*
D13*
X78645000Y-55880000D03*
X82645000Y-55880000D03*
D17*
X90170000Y-48260000D03*
D18*
X90170000Y-46260000D03*
X90170000Y-44260000D03*
D19*
X89535000Y-33020000D03*
D20*
X89535000Y-35560000D03*
X89535000Y-38100000D03*
D23*
X66675000Y-48895000D03*
X71120000Y-31750000D03*
X58420000Y-45720000D03*
X66040000Y-49530000D03*
X67945000Y-53340000D03*
X57785000Y-44450000D03*
X67310000Y-43815000D03*
X67945000Y-47625000D03*
X66675000Y-41910000D03*
X58420000Y-41910000D03*
X66040000Y-55245000D03*
X73025000Y-41910000D03*
D24*
X67310000Y-39370000D02*
X64865000Y-39370000D01*
X67945000Y-40005000D02*
X67310000Y-39370000D01*
X67945000Y-41910000D02*
X67945000Y-40005000D01*
X66040000Y-43815000D02*
X67945000Y-41910000D01*
X66040000Y-48260000D02*
X66040000Y-43815000D01*
X66675000Y-48895000D02*
X66040000Y-48260000D01*
X64865000Y-34290000D02*
X68580000Y-34290000D01*
X68580000Y-34290000D02*
X71120000Y-31750000D01*
D25*
X90170000Y-46260000D02*
X95250000Y-46260000D01*
X90170000Y-46260000D02*
X86900000Y-46260000D01*
X78740000Y-20320000D02*
X73660000Y-20320000D01*
X85090000Y-26670000D02*
X78740000Y-20320000D01*
X85090000Y-44450000D02*
X85090000Y-26670000D01*
X86900000Y-46260000D02*
X85090000Y-44450000D01*
D24*
X60865000Y-34290000D02*
X60865000Y-39370000D01*
X58420000Y-45720000D02*
X62230000Y-45720000D01*
X62230000Y-45720000D02*
X66040000Y-49530000D01*
X67945000Y-53340000D02*
X70485000Y-55880000D01*
X70485000Y-55880000D02*
X70390000Y-55880000D01*
X69850000Y-55880000D02*
X70390000Y-55880000D01*
X74390000Y-50800000D02*
X78645000Y-50800000D01*
X70390000Y-50800000D02*
X62230000Y-50800000D01*
X57150000Y-45720000D02*
X62230000Y-50800000D01*
X57150000Y-45085000D02*
X57150000Y-45720000D01*
X57150000Y-45085000D02*
X57785000Y-44450000D01*
X95250000Y-33020000D02*
X89535000Y-33020000D01*
X74390000Y-55880000D02*
X78645000Y-55880000D01*
X67310000Y-45085000D02*
X67310000Y-43815000D01*
X67945000Y-45720000D02*
X67310000Y-45085000D01*
X67945000Y-47625000D02*
X67945000Y-45720000D01*
X58420000Y-41910000D02*
X66675000Y-41910000D01*
X82645000Y-50800000D02*
X82645000Y-51975000D01*
X66040000Y-53975000D02*
X66040000Y-55245000D01*
X67945000Y-52070000D02*
X66040000Y-53975000D01*
X82550000Y-52070000D02*
X67945000Y-52070000D01*
X82645000Y-51975000D02*
X82550000Y-52070000D01*
X73025000Y-41910000D02*
X73660000Y-41910000D01*
X73660000Y-41910000D02*
X82550000Y-50800000D01*
X82550000Y-50800000D02*
X82645000Y-50800000D01*
D26*
G36*
X99620000Y-58980000D02*
X51510000Y-58980000D01*
X51510000Y-57493599D01*
X51604699Y-57493599D01*
X51868281Y-58131515D01*
X52355918Y-58620004D01*
X52993373Y-58884699D01*
X53683599Y-58885301D01*
X54321515Y-58621719D01*
X54810004Y-58134082D01*
X55074699Y-57496627D01*
X55074701Y-57493599D01*
X96054699Y-57493599D01*
X96318281Y-58131515D01*
X96805918Y-58620004D01*
X97443373Y-58884699D01*
X98133599Y-58885301D01*
X98771515Y-58621719D01*
X99260004Y-58134082D01*
X99524699Y-57496627D01*
X99525301Y-56806401D01*
X99261719Y-56168485D01*
X98774082Y-55679996D01*
X98136627Y-55415301D01*
X97446401Y-55414699D01*
X96808485Y-55678281D01*
X96319996Y-56165918D01*
X96055301Y-56803373D01*
X96054699Y-57493599D01*
X55074701Y-57493599D01*
X55075301Y-56806401D01*
X54811719Y-56168485D01*
X54324082Y-55679996D01*
X53686627Y-55415301D01*
X52996401Y-55414699D01*
X52358485Y-55678281D01*
X51869996Y-56165918D01*
X51605301Y-56803373D01*
X51604699Y-57493599D01*
X51510000Y-57493599D01*
X51510000Y-41910000D01*
X52460907Y-41910000D01*
X52573946Y-42478285D01*
X52895853Y-42960054D01*
X53225026Y-43180000D01*
X52895853Y-43399946D01*
X52573946Y-43881715D01*
X52460907Y-44450000D01*
X52573946Y-45018285D01*
X52895853Y-45500054D01*
X53225026Y-45720000D01*
X52895853Y-45939946D01*
X52573946Y-46421715D01*
X52460907Y-46990000D01*
X52573946Y-47558285D01*
X52895853Y-48040054D01*
X53225026Y-48260000D01*
X52895853Y-48479946D01*
X52573946Y-48961715D01*
X52460907Y-49530000D01*
X52573946Y-50098285D01*
X52895853Y-50580054D01*
X53377622Y-50901961D01*
X53945907Y-51015000D01*
X54004093Y-51015000D01*
X54572378Y-50901961D01*
X55054147Y-50580054D01*
X55376054Y-50098285D01*
X55489093Y-49530000D01*
X55376054Y-48961715D01*
X55054147Y-48479946D01*
X54724974Y-48260000D01*
X55054147Y-48040054D01*
X55376054Y-47558285D01*
X55489093Y-46990000D01*
X55376054Y-46421715D01*
X55054147Y-45939946D01*
X54724974Y-45720000D01*
X55054147Y-45500054D01*
X55331476Y-45085000D01*
X56390000Y-45085000D01*
X56390000Y-45720000D01*
X56447852Y-46010839D01*
X56612599Y-46257401D01*
X61692599Y-51337401D01*
X61939161Y-51502148D01*
X62230000Y-51560000D01*
X67380198Y-51560000D01*
X65502599Y-53437599D01*
X65337852Y-53684161D01*
X65280000Y-53975000D01*
X65280000Y-54682537D01*
X65247808Y-54714673D01*
X65105162Y-55058201D01*
X65104838Y-55430167D01*
X65246883Y-55773943D01*
X65509673Y-56037192D01*
X65853201Y-56179838D01*
X66225167Y-56180162D01*
X66568943Y-56038117D01*
X66832192Y-55775327D01*
X66974838Y-55431799D01*
X66975162Y-55059833D01*
X66833117Y-54716057D01*
X66800000Y-54682882D01*
X66800000Y-54289802D01*
X67186341Y-53903461D01*
X67414673Y-54132192D01*
X67758201Y-54274838D01*
X67805077Y-54274879D01*
X68742560Y-55212362D01*
X68742560Y-56730000D01*
X68786838Y-56965317D01*
X68925910Y-57181441D01*
X69138110Y-57326431D01*
X69390000Y-57377440D01*
X71390000Y-57377440D01*
X71625317Y-57333162D01*
X71841441Y-57194090D01*
X71986431Y-56981890D01*
X72037440Y-56730000D01*
X72037440Y-55030000D01*
X72742560Y-55030000D01*
X72742560Y-56730000D01*
X72786838Y-56965317D01*
X72925910Y-57181441D01*
X73138110Y-57326431D01*
X73390000Y-57377440D01*
X75390000Y-57377440D01*
X75625317Y-57333162D01*
X75841441Y-57194090D01*
X75986431Y-56981890D01*
X76037440Y-56730000D01*
X76037440Y-56640000D01*
X76997560Y-56640000D01*
X76997560Y-56730000D01*
X77041838Y-56965317D01*
X77180910Y-57181441D01*
X77393110Y-57326431D01*
X77645000Y-57377440D01*
X79645000Y-57377440D01*
X79880317Y-57333162D01*
X80096441Y-57194090D01*
X80241431Y-56981890D01*
X80292440Y-56730000D01*
X80292440Y-56165750D01*
X81010000Y-56165750D01*
X81010000Y-56856310D01*
X81106673Y-57089699D01*
X81285302Y-57268327D01*
X81518691Y-57365000D01*
X82359250Y-57365000D01*
X82518000Y-57206250D01*
X82518000Y-56007000D01*
X82772000Y-56007000D01*
X82772000Y-57206250D01*
X82930750Y-57365000D01*
X83771309Y-57365000D01*
X84004698Y-57268327D01*
X84183327Y-57089699D01*
X84280000Y-56856310D01*
X84280000Y-56165750D01*
X84121250Y-56007000D01*
X82772000Y-56007000D01*
X82518000Y-56007000D01*
X81168750Y-56007000D01*
X81010000Y-56165750D01*
X80292440Y-56165750D01*
X80292440Y-55030000D01*
X80268674Y-54903690D01*
X81010000Y-54903690D01*
X81010000Y-55594250D01*
X81168750Y-55753000D01*
X82518000Y-55753000D01*
X82518000Y-54553750D01*
X82772000Y-54553750D01*
X82772000Y-55753000D01*
X84121250Y-55753000D01*
X84280000Y-55594250D01*
X84280000Y-54903690D01*
X84183327Y-54670301D01*
X84004698Y-54491673D01*
X83771309Y-54395000D01*
X82930750Y-54395000D01*
X82772000Y-54553750D01*
X82518000Y-54553750D01*
X82359250Y-54395000D01*
X81518691Y-54395000D01*
X81285302Y-54491673D01*
X81106673Y-54670301D01*
X81010000Y-54903690D01*
X80268674Y-54903690D01*
X80248162Y-54794683D01*
X80109090Y-54578559D01*
X79896890Y-54433569D01*
X79645000Y-54382560D01*
X77645000Y-54382560D01*
X77409683Y-54426838D01*
X77193559Y-54565910D01*
X77048569Y-54778110D01*
X76997560Y-55030000D01*
X76997560Y-55120000D01*
X76037440Y-55120000D01*
X76037440Y-55030000D01*
X75993162Y-54794683D01*
X75854090Y-54578559D01*
X75641890Y-54433569D01*
X75390000Y-54382560D01*
X73390000Y-54382560D01*
X73154683Y-54426838D01*
X72938559Y-54565910D01*
X72793569Y-54778110D01*
X72742560Y-55030000D01*
X72037440Y-55030000D01*
X71993162Y-54794683D01*
X71854090Y-54578559D01*
X71641890Y-54433569D01*
X71390000Y-54382560D01*
X70062362Y-54382560D01*
X68880122Y-53200320D01*
X68880162Y-53154833D01*
X68745944Y-52830000D01*
X82550000Y-52830000D01*
X82840839Y-52772148D01*
X83087401Y-52607401D01*
X83182401Y-52512401D01*
X83326034Y-52297440D01*
X83645000Y-52297440D01*
X83880317Y-52253162D01*
X84096441Y-52114090D01*
X84241431Y-51901890D01*
X84292440Y-51650000D01*
X84292440Y-49950000D01*
X84248162Y-49714683D01*
X84109090Y-49498559D01*
X83896890Y-49353569D01*
X83645000Y-49302560D01*
X82127362Y-49302560D01*
X81370552Y-48545750D01*
X88785000Y-48545750D01*
X88785000Y-49136309D01*
X88881673Y-49369698D01*
X89060301Y-49548327D01*
X89293690Y-49645000D01*
X89884250Y-49645000D01*
X90043000Y-49486250D01*
X90043000Y-48387000D01*
X90297000Y-48387000D01*
X90297000Y-49486250D01*
X90455750Y-49645000D01*
X91046310Y-49645000D01*
X91279699Y-49548327D01*
X91458327Y-49369698D01*
X91555000Y-49136309D01*
X91555000Y-48545750D01*
X93865000Y-48545750D01*
X93865000Y-49136309D01*
X93961673Y-49369698D01*
X94140301Y-49548327D01*
X94373690Y-49645000D01*
X94964250Y-49645000D01*
X95123000Y-49486250D01*
X95123000Y-48387000D01*
X95377000Y-48387000D01*
X95377000Y-49486250D01*
X95535750Y-49645000D01*
X96126310Y-49645000D01*
X96359699Y-49548327D01*
X96538327Y-49369698D01*
X96635000Y-49136309D01*
X96635000Y-48545750D01*
X96476250Y-48387000D01*
X95377000Y-48387000D01*
X95123000Y-48387000D01*
X94023750Y-48387000D01*
X93865000Y-48545750D01*
X91555000Y-48545750D01*
X91396250Y-48387000D01*
X90297000Y-48387000D01*
X90043000Y-48387000D01*
X88943750Y-48387000D01*
X88785000Y-48545750D01*
X81370552Y-48545750D01*
X74197401Y-41372599D01*
X73950839Y-41207852D01*
X73660000Y-41150000D01*
X73587463Y-41150000D01*
X73555327Y-41117808D01*
X73211799Y-40975162D01*
X72839833Y-40974838D01*
X72496057Y-41116883D01*
X72232808Y-41379673D01*
X72090162Y-41723201D01*
X72089838Y-42095167D01*
X72231883Y-42438943D01*
X72494673Y-42702192D01*
X72838201Y-42844838D01*
X73210167Y-42845162D01*
X73429665Y-42754467D01*
X80997560Y-50322362D01*
X80997560Y-51310000D01*
X80292440Y-51310000D01*
X80292440Y-49950000D01*
X80248162Y-49714683D01*
X80109090Y-49498559D01*
X79896890Y-49353569D01*
X79645000Y-49302560D01*
X77645000Y-49302560D01*
X77409683Y-49346838D01*
X77193559Y-49485910D01*
X77048569Y-49698110D01*
X76997560Y-49950000D01*
X76997560Y-50040000D01*
X76037440Y-50040000D01*
X76037440Y-49950000D01*
X75993162Y-49714683D01*
X75854090Y-49498559D01*
X75641890Y-49353569D01*
X75390000Y-49302560D01*
X73390000Y-49302560D01*
X73154683Y-49346838D01*
X72938559Y-49485910D01*
X72793569Y-49698110D01*
X72742560Y-49950000D01*
X72742560Y-51310000D01*
X72037440Y-51310000D01*
X72037440Y-49950000D01*
X71993162Y-49714683D01*
X71854090Y-49498559D01*
X71641890Y-49353569D01*
X71390000Y-49302560D01*
X69390000Y-49302560D01*
X69154683Y-49346838D01*
X68938559Y-49485910D01*
X68793569Y-49698110D01*
X68742560Y-49950000D01*
X68742560Y-50040000D01*
X66840633Y-50040000D01*
X66974838Y-49716799D01*
X66975162Y-49344833D01*
X66833117Y-49001057D01*
X66570327Y-48737808D01*
X66226799Y-48595162D01*
X66179923Y-48595121D01*
X62767401Y-45182599D01*
X62520839Y-45017852D01*
X62230000Y-44960000D01*
X58982463Y-44960000D01*
X58950327Y-44927808D01*
X58650668Y-44803378D01*
X58719838Y-44636799D01*
X58720162Y-44264833D01*
X58610805Y-44000167D01*
X66374838Y-44000167D01*
X66516883Y-44343943D01*
X66550000Y-44377118D01*
X66550000Y-45085000D01*
X66607852Y-45375839D01*
X66772599Y-45622401D01*
X67185000Y-46034802D01*
X67185000Y-47062537D01*
X67152808Y-47094673D01*
X67010162Y-47438201D01*
X67009838Y-47810167D01*
X67151883Y-48153943D01*
X67414673Y-48417192D01*
X67758201Y-48559838D01*
X68130167Y-48560162D01*
X68473943Y-48418117D01*
X68737192Y-48155327D01*
X68879838Y-47811799D01*
X68880162Y-47439833D01*
X68738117Y-47096057D01*
X68705000Y-47062882D01*
X68705000Y-45720000D01*
X68647148Y-45429161D01*
X68482401Y-45182599D01*
X68070000Y-44770198D01*
X68070000Y-44377463D01*
X68102192Y-44345327D01*
X68244838Y-44001799D01*
X68245162Y-43629833D01*
X68103117Y-43286057D01*
X67840327Y-43022808D01*
X67496799Y-42880162D01*
X67124833Y-42879838D01*
X66781057Y-43021883D01*
X66517808Y-43284673D01*
X66375162Y-43628201D01*
X66374838Y-44000167D01*
X58610805Y-44000167D01*
X58578117Y-43921057D01*
X58315327Y-43657808D01*
X57971799Y-43515162D01*
X57599833Y-43514838D01*
X57256057Y-43656883D01*
X56992808Y-43919673D01*
X56850162Y-44263201D01*
X56850121Y-44310077D01*
X56612599Y-44547599D01*
X56447852Y-44794161D01*
X56390000Y-45085000D01*
X55331476Y-45085000D01*
X55376054Y-45018285D01*
X55489093Y-44450000D01*
X55376054Y-43881715D01*
X55054147Y-43399946D01*
X54724974Y-43180000D01*
X55054147Y-42960054D01*
X55376054Y-42478285D01*
X55452260Y-42095167D01*
X57484838Y-42095167D01*
X57626883Y-42438943D01*
X57889673Y-42702192D01*
X58233201Y-42844838D01*
X58605167Y-42845162D01*
X58948943Y-42703117D01*
X58982118Y-42670000D01*
X66112537Y-42670000D01*
X66144673Y-42702192D01*
X66488201Y-42844838D01*
X66860167Y-42845162D01*
X67203943Y-42703117D01*
X67467192Y-42440327D01*
X67609838Y-42096799D01*
X67610162Y-41724833D01*
X67468117Y-41381057D01*
X67205327Y-41117808D01*
X66861799Y-40975162D01*
X66489833Y-40974838D01*
X66146057Y-41116883D01*
X66112882Y-41150000D01*
X58982463Y-41150000D01*
X58950327Y-41117808D01*
X58606799Y-40975162D01*
X58234833Y-40974838D01*
X57891057Y-41116883D01*
X57627808Y-41379673D01*
X57485162Y-41723201D01*
X57484838Y-42095167D01*
X55452260Y-42095167D01*
X55489093Y-41910000D01*
X55376054Y-41341715D01*
X55054147Y-40859946D01*
X55010223Y-40830597D01*
X55184698Y-40758327D01*
X55363327Y-40579699D01*
X55460000Y-40346310D01*
X55460000Y-39655750D01*
X55301250Y-39497000D01*
X54102000Y-39497000D01*
X54102000Y-39517000D01*
X53848000Y-39517000D01*
X53848000Y-39497000D01*
X52648750Y-39497000D01*
X52490000Y-39655750D01*
X52490000Y-40346310D01*
X52586673Y-40579699D01*
X52765302Y-40758327D01*
X52939777Y-40830597D01*
X52895853Y-40859946D01*
X52573946Y-41341715D01*
X52460907Y-41910000D01*
X51510000Y-41910000D01*
X51510000Y-38393690D01*
X52490000Y-38393690D01*
X52490000Y-39084250D01*
X52648750Y-39243000D01*
X53848000Y-39243000D01*
X53848000Y-38043750D01*
X54102000Y-38043750D01*
X54102000Y-39243000D01*
X55301250Y-39243000D01*
X55460000Y-39084250D01*
X55460000Y-38393690D01*
X55363327Y-38160301D01*
X55184698Y-37981673D01*
X54951309Y-37885000D01*
X54260750Y-37885000D01*
X54102000Y-38043750D01*
X53848000Y-38043750D01*
X53689250Y-37885000D01*
X52998691Y-37885000D01*
X52765302Y-37981673D01*
X52586673Y-38160301D01*
X52490000Y-38393690D01*
X51510000Y-38393690D01*
X51510000Y-33440000D01*
X59217560Y-33440000D01*
X59217560Y-35140000D01*
X59261838Y-35375317D01*
X59400910Y-35591441D01*
X59613110Y-35736431D01*
X59865000Y-35787440D01*
X60105000Y-35787440D01*
X60105000Y-37872560D01*
X59865000Y-37872560D01*
X59629683Y-37916838D01*
X59413559Y-38055910D01*
X59268569Y-38268110D01*
X59217560Y-38520000D01*
X59217560Y-40220000D01*
X59261838Y-40455317D01*
X59400910Y-40671441D01*
X59613110Y-40816431D01*
X59865000Y-40867440D01*
X61865000Y-40867440D01*
X62100317Y-40823162D01*
X62316441Y-40684090D01*
X62461431Y-40471890D01*
X62512440Y-40220000D01*
X62512440Y-39655750D01*
X63230000Y-39655750D01*
X63230000Y-40346310D01*
X63326673Y-40579699D01*
X63505302Y-40758327D01*
X63738691Y-40855000D01*
X64579250Y-40855000D01*
X64738000Y-40696250D01*
X64738000Y-39497000D01*
X64992000Y-39497000D01*
X64992000Y-40696250D01*
X65150750Y-40855000D01*
X65991309Y-40855000D01*
X66224698Y-40758327D01*
X66403327Y-40579699D01*
X66500000Y-40346310D01*
X66500000Y-39655750D01*
X66341250Y-39497000D01*
X64992000Y-39497000D01*
X64738000Y-39497000D01*
X63388750Y-39497000D01*
X63230000Y-39655750D01*
X62512440Y-39655750D01*
X62512440Y-38520000D01*
X62488674Y-38393690D01*
X63230000Y-38393690D01*
X63230000Y-39084250D01*
X63388750Y-39243000D01*
X64738000Y-39243000D01*
X64738000Y-38043750D01*
X64992000Y-38043750D01*
X64992000Y-39243000D01*
X66341250Y-39243000D01*
X66500000Y-39084250D01*
X66500000Y-38393690D01*
X66403327Y-38160301D01*
X66224698Y-37981673D01*
X65991309Y-37885000D01*
X65150750Y-37885000D01*
X64992000Y-38043750D01*
X64738000Y-38043750D01*
X64579250Y-37885000D01*
X63738691Y-37885000D01*
X63505302Y-37981673D01*
X63326673Y-38160301D01*
X63230000Y-38393690D01*
X62488674Y-38393690D01*
X62468162Y-38284683D01*
X62329090Y-38068559D01*
X62116890Y-37923569D01*
X61865000Y-37872560D01*
X61625000Y-37872560D01*
X61625000Y-35787440D01*
X61865000Y-35787440D01*
X62100317Y-35743162D01*
X62316441Y-35604090D01*
X62461431Y-35391890D01*
X62512440Y-35140000D01*
X62512440Y-33440000D01*
X63217560Y-33440000D01*
X63217560Y-35140000D01*
X63261838Y-35375317D01*
X63400910Y-35591441D01*
X63613110Y-35736431D01*
X63865000Y-35787440D01*
X65865000Y-35787440D01*
X66100317Y-35743162D01*
X66316441Y-35604090D01*
X66461431Y-35391890D01*
X66512440Y-35140000D01*
X66512440Y-35050000D01*
X68580000Y-35050000D01*
X68870839Y-34992148D01*
X69117401Y-34827401D01*
X71259680Y-32685122D01*
X71305167Y-32685162D01*
X71648943Y-32543117D01*
X71912192Y-32280327D01*
X72054838Y-31936799D01*
X72055162Y-31564833D01*
X71913117Y-31221057D01*
X71650327Y-30957808D01*
X71306799Y-30815162D01*
X70934833Y-30814838D01*
X70591057Y-30956883D01*
X70327808Y-31219673D01*
X70185162Y-31563201D01*
X70185121Y-31610077D01*
X68265198Y-33530000D01*
X66512440Y-33530000D01*
X66512440Y-33440000D01*
X66468162Y-33204683D01*
X66329090Y-32988559D01*
X66116890Y-32843569D01*
X65865000Y-32792560D01*
X63865000Y-32792560D01*
X63629683Y-32836838D01*
X63413559Y-32975910D01*
X63268569Y-33188110D01*
X63217560Y-33440000D01*
X62512440Y-33440000D01*
X62468162Y-33204683D01*
X62329090Y-32988559D01*
X62116890Y-32843569D01*
X61865000Y-32792560D01*
X59865000Y-32792560D01*
X59629683Y-32836838D01*
X59413559Y-32975910D01*
X59268569Y-33188110D01*
X59217560Y-33440000D01*
X51510000Y-33440000D01*
X51510000Y-30385750D01*
X55575000Y-30385750D01*
X55575000Y-31976310D01*
X55671673Y-32209699D01*
X55850302Y-32388327D01*
X56083691Y-32485000D01*
X57674250Y-32485000D01*
X57833000Y-32326250D01*
X57833000Y-30227000D01*
X58087000Y-30227000D01*
X58087000Y-32326250D01*
X58245750Y-32485000D01*
X59836309Y-32485000D01*
X60069698Y-32388327D01*
X60248327Y-32209699D01*
X60345000Y-31976310D01*
X60345000Y-30385750D01*
X60186250Y-30227000D01*
X58087000Y-30227000D01*
X57833000Y-30227000D01*
X55733750Y-30227000D01*
X55575000Y-30385750D01*
X51510000Y-30385750D01*
X51510000Y-25685750D01*
X52575000Y-25685750D01*
X52575000Y-27276310D01*
X52671673Y-27509699D01*
X52850302Y-27688327D01*
X53083691Y-27785000D01*
X54674250Y-27785000D01*
X54833000Y-27626250D01*
X54833000Y-25527000D01*
X55087000Y-25527000D01*
X55087000Y-27626250D01*
X55245750Y-27785000D01*
X55914696Y-27785000D01*
X55850302Y-27811673D01*
X55671673Y-27990301D01*
X55575000Y-28223690D01*
X55575000Y-29814250D01*
X55733750Y-29973000D01*
X57833000Y-29973000D01*
X57833000Y-27873750D01*
X58087000Y-27873750D01*
X58087000Y-29973000D01*
X60186250Y-29973000D01*
X60345000Y-29814250D01*
X60345000Y-28223690D01*
X60248327Y-27990301D01*
X60069698Y-27811673D01*
X60035337Y-27797440D01*
X62710000Y-27797440D01*
X62945317Y-27753162D01*
X63161441Y-27614090D01*
X63306431Y-27401890D01*
X63357440Y-27150000D01*
X63357440Y-23650000D01*
X63313162Y-23414683D01*
X63174090Y-23198559D01*
X62961890Y-23053569D01*
X62710000Y-23002560D01*
X59210000Y-23002560D01*
X58974683Y-23046838D01*
X58758559Y-23185910D01*
X58613569Y-23398110D01*
X58562560Y-23650000D01*
X58562560Y-27150000D01*
X58606838Y-27385317D01*
X58745910Y-27601441D01*
X58912109Y-27715000D01*
X58245750Y-27715000D01*
X58087000Y-27873750D01*
X57833000Y-27873750D01*
X57674250Y-27715000D01*
X57005304Y-27715000D01*
X57069698Y-27688327D01*
X57248327Y-27509699D01*
X57345000Y-27276310D01*
X57345000Y-25685750D01*
X57186250Y-25527000D01*
X55087000Y-25527000D01*
X54833000Y-25527000D01*
X52733750Y-25527000D01*
X52575000Y-25685750D01*
X51510000Y-25685750D01*
X51510000Y-23523690D01*
X52575000Y-23523690D01*
X52575000Y-25114250D01*
X52733750Y-25273000D01*
X54833000Y-25273000D01*
X54833000Y-23173750D01*
X55087000Y-23173750D01*
X55087000Y-25273000D01*
X57186250Y-25273000D01*
X57345000Y-25114250D01*
X57345000Y-23523690D01*
X57248327Y-23290301D01*
X57069698Y-23111673D01*
X56836309Y-23015000D01*
X55245750Y-23015000D01*
X55087000Y-23173750D01*
X54833000Y-23173750D01*
X54674250Y-23015000D01*
X53083691Y-23015000D01*
X52850302Y-23111673D01*
X52671673Y-23290301D01*
X52575000Y-23523690D01*
X51510000Y-23523690D01*
X51510000Y-18250000D01*
X65227560Y-18250000D01*
X65227560Y-19850000D01*
X65271838Y-20085317D01*
X65410910Y-20301441D01*
X65623110Y-20446431D01*
X65875000Y-20497440D01*
X67475000Y-20497440D01*
X67710317Y-20453162D01*
X67926441Y-20314090D01*
X68071431Y-20101890D01*
X68122440Y-19850000D01*
X68122440Y-18250000D01*
X68078162Y-18014683D01*
X67939090Y-17798559D01*
X67726890Y-17653569D01*
X67488799Y-17605354D01*
X67503139Y-17557745D01*
X66675000Y-16729605D01*
X65846861Y-17557745D01*
X65861145Y-17605167D01*
X65639683Y-17646838D01*
X65423559Y-17785910D01*
X65278569Y-17998110D01*
X65227560Y-18250000D01*
X51510000Y-18250000D01*
X51510000Y-16853599D01*
X51604699Y-16853599D01*
X51868281Y-17491515D01*
X52355918Y-17980004D01*
X52993373Y-18244699D01*
X53683599Y-18245301D01*
X54321515Y-17981719D01*
X54810004Y-17494082D01*
X55074699Y-16856627D01*
X55075155Y-16333223D01*
X65228035Y-16333223D01*
X65255222Y-16903454D01*
X65421136Y-17304005D01*
X65667255Y-17378139D01*
X66495395Y-16550000D01*
X66854605Y-16550000D01*
X67682745Y-17378139D01*
X67928864Y-17304005D01*
X68081268Y-16880000D01*
X72112560Y-16880000D01*
X72112560Y-18680000D01*
X72156838Y-18915317D01*
X72295910Y-19131441D01*
X72508110Y-19276431D01*
X72524344Y-19279719D01*
X72241845Y-19702509D01*
X72125000Y-20289928D01*
X72125000Y-20350072D01*
X72241845Y-20937491D01*
X72574591Y-21435481D01*
X72805845Y-21590000D01*
X72574591Y-21744519D01*
X72241845Y-22242509D01*
X72125000Y-22829928D01*
X72125000Y-22890072D01*
X72241845Y-23477491D01*
X72574591Y-23975481D01*
X73072581Y-24308227D01*
X73660000Y-24425072D01*
X74247419Y-24308227D01*
X74745409Y-23975481D01*
X75078155Y-23477491D01*
X75195000Y-22890072D01*
X75195000Y-22829928D01*
X75078155Y-22242509D01*
X74802526Y-21830000D01*
X78114538Y-21830000D01*
X83580000Y-27295462D01*
X83580000Y-44450000D01*
X83694942Y-45027852D01*
X84022269Y-45517731D01*
X85832269Y-47327732D01*
X86322148Y-47655058D01*
X86900000Y-47770000D01*
X88785000Y-47770000D01*
X88785000Y-47974250D01*
X88943750Y-48133000D01*
X90043000Y-48133000D01*
X90043000Y-48113000D01*
X90297000Y-48113000D01*
X90297000Y-48133000D01*
X91396250Y-48133000D01*
X91555000Y-47974250D01*
X91555000Y-47770000D01*
X93865000Y-47770000D01*
X93865000Y-47974250D01*
X94023750Y-48133000D01*
X95123000Y-48133000D01*
X95123000Y-48113000D01*
X95377000Y-48113000D01*
X95377000Y-48133000D01*
X96476250Y-48133000D01*
X96635000Y-47974250D01*
X96635000Y-47383691D01*
X96538327Y-47150302D01*
X96477158Y-47089132D01*
X96645058Y-46837852D01*
X96760000Y-46260000D01*
X96645058Y-45682148D01*
X96317731Y-45192269D01*
X96293032Y-45175766D01*
X96423461Y-45045564D01*
X96634759Y-44536702D01*
X96635240Y-43985715D01*
X96424831Y-43476485D01*
X96035564Y-43086539D01*
X95526702Y-42875241D01*
X94975715Y-42874760D01*
X94466485Y-43085169D01*
X94076539Y-43474436D01*
X93865241Y-43983298D01*
X93864760Y-44534285D01*
X93953891Y-44750000D01*
X91466190Y-44750000D01*
X91554759Y-44536702D01*
X91555240Y-43985715D01*
X91344831Y-43476485D01*
X90955564Y-43086539D01*
X90446702Y-42875241D01*
X89895715Y-42874760D01*
X89386485Y-43085169D01*
X88996539Y-43474436D01*
X88785241Y-43983298D01*
X88784760Y-44534285D01*
X88873891Y-44750000D01*
X87525463Y-44750000D01*
X86600000Y-43824538D01*
X86600000Y-38480434D01*
X87644876Y-38480434D01*
X87675856Y-38608355D01*
X87989078Y-39166317D01*
X88491980Y-39561942D01*
X89108000Y-39735000D01*
X89408000Y-39735000D01*
X89408000Y-38227000D01*
X89662000Y-38227000D01*
X89662000Y-39735000D01*
X89962000Y-39735000D01*
X90578020Y-39561942D01*
X91080922Y-39166317D01*
X91394144Y-38608355D01*
X91425124Y-38480434D01*
X93359876Y-38480434D01*
X93390856Y-38608355D01*
X93704078Y-39166317D01*
X94206980Y-39561942D01*
X94823000Y-39735000D01*
X95123000Y-39735000D01*
X95123000Y-38227000D01*
X95377000Y-38227000D01*
X95377000Y-39735000D01*
X95677000Y-39735000D01*
X96293020Y-39561942D01*
X96795922Y-39166317D01*
X97109144Y-38608355D01*
X97140124Y-38480434D01*
X97020777Y-38227000D01*
X95377000Y-38227000D01*
X95123000Y-38227000D01*
X93479223Y-38227000D01*
X93359876Y-38480434D01*
X91425124Y-38480434D01*
X91305777Y-38227000D01*
X89662000Y-38227000D01*
X89408000Y-38227000D01*
X87764223Y-38227000D01*
X87644876Y-38480434D01*
X86600000Y-38480434D01*
X86600000Y-35560000D01*
X87562091Y-35560000D01*
X87686548Y-36185687D01*
X88040971Y-36716120D01*
X88231188Y-36843219D01*
X87989078Y-37033683D01*
X87675856Y-37591645D01*
X87644876Y-37719566D01*
X87764223Y-37973000D01*
X89408000Y-37973000D01*
X89408000Y-37953000D01*
X89662000Y-37953000D01*
X89662000Y-37973000D01*
X91305777Y-37973000D01*
X91425124Y-37719566D01*
X91394144Y-37591645D01*
X91080922Y-37033683D01*
X90838812Y-36843219D01*
X91029029Y-36716120D01*
X91383452Y-36185687D01*
X91507909Y-35560000D01*
X91383452Y-34934313D01*
X91143907Y-34575808D01*
X91286441Y-34484090D01*
X91431431Y-34271890D01*
X91482440Y-34020000D01*
X91482440Y-33780000D01*
X93302560Y-33780000D01*
X93302560Y-34020000D01*
X93346838Y-34255317D01*
X93485910Y-34471441D01*
X93640329Y-34576951D01*
X93401548Y-34934313D01*
X93277091Y-35560000D01*
X93401548Y-36185687D01*
X93755971Y-36716120D01*
X93946188Y-36843219D01*
X93704078Y-37033683D01*
X93390856Y-37591645D01*
X93359876Y-37719566D01*
X93479223Y-37973000D01*
X95123000Y-37973000D01*
X95123000Y-37953000D01*
X95377000Y-37953000D01*
X95377000Y-37973000D01*
X97020777Y-37973000D01*
X97140124Y-37719566D01*
X97109144Y-37591645D01*
X96795922Y-37033683D01*
X96553812Y-36843219D01*
X96744029Y-36716120D01*
X97098452Y-36185687D01*
X97222909Y-35560000D01*
X97098452Y-34934313D01*
X96858907Y-34575808D01*
X97001441Y-34484090D01*
X97146431Y-34271890D01*
X97197440Y-34020000D01*
X97197440Y-32020000D01*
X97153162Y-31784683D01*
X97014090Y-31568559D01*
X96801890Y-31423569D01*
X96550000Y-31372560D01*
X93950000Y-31372560D01*
X93714683Y-31416838D01*
X93498559Y-31555910D01*
X93353569Y-31768110D01*
X93302560Y-32020000D01*
X93302560Y-32260000D01*
X91482440Y-32260000D01*
X91482440Y-32020000D01*
X91438162Y-31784683D01*
X91299090Y-31568559D01*
X91086890Y-31423569D01*
X90835000Y-31372560D01*
X88235000Y-31372560D01*
X87999683Y-31416838D01*
X87783559Y-31555910D01*
X87638569Y-31768110D01*
X87587560Y-32020000D01*
X87587560Y-34020000D01*
X87631838Y-34255317D01*
X87770910Y-34471441D01*
X87925329Y-34576951D01*
X87686548Y-34934313D01*
X87562091Y-35560000D01*
X86600000Y-35560000D01*
X86600000Y-26670000D01*
X86485058Y-26092148D01*
X86157731Y-25602269D01*
X80828737Y-20273275D01*
X87935000Y-20273275D01*
X87935000Y-20366725D01*
X88116547Y-21279425D01*
X88633550Y-22053175D01*
X89407300Y-22570178D01*
X90320000Y-22751725D01*
X91232700Y-22570178D01*
X92006450Y-22053175D01*
X92523453Y-21279425D01*
X92705000Y-20366725D01*
X92705000Y-20273275D01*
X92523453Y-19360575D01*
X92006450Y-18586825D01*
X91232700Y-18069822D01*
X90320000Y-17888275D01*
X89407300Y-18069822D01*
X88633550Y-18586825D01*
X88116547Y-19360575D01*
X87935000Y-20273275D01*
X80828737Y-20273275D01*
X79807731Y-19252269D01*
X79317852Y-18924942D01*
X78740000Y-18810000D01*
X75181114Y-18810000D01*
X75207440Y-18680000D01*
X75207440Y-16880000D01*
X75202473Y-16853599D01*
X96054699Y-16853599D01*
X96318281Y-17491515D01*
X96805918Y-17980004D01*
X97443373Y-18244699D01*
X98133599Y-18245301D01*
X98771515Y-17981719D01*
X99260004Y-17494082D01*
X99524699Y-16856627D01*
X99525301Y-16166401D01*
X99261719Y-15528485D01*
X98774082Y-15039996D01*
X98136627Y-14775301D01*
X97446401Y-14774699D01*
X96808485Y-15038281D01*
X96319996Y-15525918D01*
X96055301Y-16163373D01*
X96054699Y-16853599D01*
X75202473Y-16853599D01*
X75163162Y-16644683D01*
X75024090Y-16428559D01*
X74811890Y-16283569D01*
X74560000Y-16232560D01*
X72760000Y-16232560D01*
X72524683Y-16276838D01*
X72308559Y-16415910D01*
X72163569Y-16628110D01*
X72112560Y-16880000D01*
X68081268Y-16880000D01*
X68121965Y-16766777D01*
X68094778Y-16196546D01*
X67928864Y-15795995D01*
X67682745Y-15721861D01*
X66854605Y-16550000D01*
X66495395Y-16550000D01*
X65667255Y-15721861D01*
X65421136Y-15795995D01*
X65228035Y-16333223D01*
X55075155Y-16333223D01*
X55075301Y-16166401D01*
X54817409Y-15542255D01*
X65846861Y-15542255D01*
X66675000Y-16370395D01*
X67503139Y-15542255D01*
X67429005Y-15296136D01*
X66891777Y-15103035D01*
X66321546Y-15130222D01*
X65920995Y-15296136D01*
X65846861Y-15542255D01*
X54817409Y-15542255D01*
X54811719Y-15528485D01*
X54324082Y-15039996D01*
X53686627Y-14775301D01*
X52996401Y-14774699D01*
X52358485Y-15038281D01*
X51869996Y-15525918D01*
X51605301Y-16163373D01*
X51604699Y-16853599D01*
X51510000Y-16853599D01*
X51510000Y-14680000D01*
X99620000Y-14680000D01*
X99620000Y-58980000D01*
X99620000Y-58980000D01*
G37*
X99620000Y-58980000D02*
X51510000Y-58980000D01*
X51510000Y-57493599D01*
X51604699Y-57493599D01*
X51868281Y-58131515D01*
X52355918Y-58620004D01*
X52993373Y-58884699D01*
X53683599Y-58885301D01*
X54321515Y-58621719D01*
X54810004Y-58134082D01*
X55074699Y-57496627D01*
X55074701Y-57493599D01*
X96054699Y-57493599D01*
X96318281Y-58131515D01*
X96805918Y-58620004D01*
X97443373Y-58884699D01*
X98133599Y-58885301D01*
X98771515Y-58621719D01*
X99260004Y-58134082D01*
X99524699Y-57496627D01*
X99525301Y-56806401D01*
X99261719Y-56168485D01*
X98774082Y-55679996D01*
X98136627Y-55415301D01*
X97446401Y-55414699D01*
X96808485Y-55678281D01*
X96319996Y-56165918D01*
X96055301Y-56803373D01*
X96054699Y-57493599D01*
X55074701Y-57493599D01*
X55075301Y-56806401D01*
X54811719Y-56168485D01*
X54324082Y-55679996D01*
X53686627Y-55415301D01*
X52996401Y-55414699D01*
X52358485Y-55678281D01*
X51869996Y-56165918D01*
X51605301Y-56803373D01*
X51604699Y-57493599D01*
X51510000Y-57493599D01*
X51510000Y-41910000D01*
X52460907Y-41910000D01*
X52573946Y-42478285D01*
X52895853Y-42960054D01*
X53225026Y-43180000D01*
X52895853Y-43399946D01*
X52573946Y-43881715D01*
X52460907Y-44450000D01*
X52573946Y-45018285D01*
X52895853Y-45500054D01*
X53225026Y-45720000D01*
X52895853Y-45939946D01*
X52573946Y-46421715D01*
X52460907Y-46990000D01*
X52573946Y-47558285D01*
X52895853Y-48040054D01*
X53225026Y-48260000D01*
X52895853Y-48479946D01*
X52573946Y-48961715D01*
X52460907Y-49530000D01*
X52573946Y-50098285D01*
X52895853Y-50580054D01*
X53377622Y-50901961D01*
X53945907Y-51015000D01*
X54004093Y-51015000D01*
X54572378Y-50901961D01*
X55054147Y-50580054D01*
X55376054Y-50098285D01*
X55489093Y-49530000D01*
X55376054Y-48961715D01*
X55054147Y-48479946D01*
X54724974Y-48260000D01*
X55054147Y-48040054D01*
X55376054Y-47558285D01*
X55489093Y-46990000D01*
X55376054Y-46421715D01*
X55054147Y-45939946D01*
X54724974Y-45720000D01*
X55054147Y-45500054D01*
X55331476Y-45085000D01*
X56390000Y-45085000D01*
X56390000Y-45720000D01*
X56447852Y-46010839D01*
X56612599Y-46257401D01*
X61692599Y-51337401D01*
X61939161Y-51502148D01*
X62230000Y-51560000D01*
X67380198Y-51560000D01*
X65502599Y-53437599D01*
X65337852Y-53684161D01*
X65280000Y-53975000D01*
X65280000Y-54682537D01*
X65247808Y-54714673D01*
X65105162Y-55058201D01*
X65104838Y-55430167D01*
X65246883Y-55773943D01*
X65509673Y-56037192D01*
X65853201Y-56179838D01*
X66225167Y-56180162D01*
X66568943Y-56038117D01*
X66832192Y-55775327D01*
X66974838Y-55431799D01*
X66975162Y-55059833D01*
X66833117Y-54716057D01*
X66800000Y-54682882D01*
X66800000Y-54289802D01*
X67186341Y-53903461D01*
X67414673Y-54132192D01*
X67758201Y-54274838D01*
X67805077Y-54274879D01*
X68742560Y-55212362D01*
X68742560Y-56730000D01*
X68786838Y-56965317D01*
X68925910Y-57181441D01*
X69138110Y-57326431D01*
X69390000Y-57377440D01*
X71390000Y-57377440D01*
X71625317Y-57333162D01*
X71841441Y-57194090D01*
X71986431Y-56981890D01*
X72037440Y-56730000D01*
X72037440Y-55030000D01*
X72742560Y-55030000D01*
X72742560Y-56730000D01*
X72786838Y-56965317D01*
X72925910Y-57181441D01*
X73138110Y-57326431D01*
X73390000Y-57377440D01*
X75390000Y-57377440D01*
X75625317Y-57333162D01*
X75841441Y-57194090D01*
X75986431Y-56981890D01*
X76037440Y-56730000D01*
X76037440Y-56640000D01*
X76997560Y-56640000D01*
X76997560Y-56730000D01*
X77041838Y-56965317D01*
X77180910Y-57181441D01*
X77393110Y-57326431D01*
X77645000Y-57377440D01*
X79645000Y-57377440D01*
X79880317Y-57333162D01*
X80096441Y-57194090D01*
X80241431Y-56981890D01*
X80292440Y-56730000D01*
X80292440Y-56165750D01*
X81010000Y-56165750D01*
X81010000Y-56856310D01*
X81106673Y-57089699D01*
X81285302Y-57268327D01*
X81518691Y-57365000D01*
X82359250Y-57365000D01*
X82518000Y-57206250D01*
X82518000Y-56007000D01*
X82772000Y-56007000D01*
X82772000Y-57206250D01*
X82930750Y-57365000D01*
X83771309Y-57365000D01*
X84004698Y-57268327D01*
X84183327Y-57089699D01*
X84280000Y-56856310D01*
X84280000Y-56165750D01*
X84121250Y-56007000D01*
X82772000Y-56007000D01*
X82518000Y-56007000D01*
X81168750Y-56007000D01*
X81010000Y-56165750D01*
X80292440Y-56165750D01*
X80292440Y-55030000D01*
X80268674Y-54903690D01*
X81010000Y-54903690D01*
X81010000Y-55594250D01*
X81168750Y-55753000D01*
X82518000Y-55753000D01*
X82518000Y-54553750D01*
X82772000Y-54553750D01*
X82772000Y-55753000D01*
X84121250Y-55753000D01*
X84280000Y-55594250D01*
X84280000Y-54903690D01*
X84183327Y-54670301D01*
X84004698Y-54491673D01*
X83771309Y-54395000D01*
X82930750Y-54395000D01*
X82772000Y-54553750D01*
X82518000Y-54553750D01*
X82359250Y-54395000D01*
X81518691Y-54395000D01*
X81285302Y-54491673D01*
X81106673Y-54670301D01*
X81010000Y-54903690D01*
X80268674Y-54903690D01*
X80248162Y-54794683D01*
X80109090Y-54578559D01*
X79896890Y-54433569D01*
X79645000Y-54382560D01*
X77645000Y-54382560D01*
X77409683Y-54426838D01*
X77193559Y-54565910D01*
X77048569Y-54778110D01*
X76997560Y-55030000D01*
X76997560Y-55120000D01*
X76037440Y-55120000D01*
X76037440Y-55030000D01*
X75993162Y-54794683D01*
X75854090Y-54578559D01*
X75641890Y-54433569D01*
X75390000Y-54382560D01*
X73390000Y-54382560D01*
X73154683Y-54426838D01*
X72938559Y-54565910D01*
X72793569Y-54778110D01*
X72742560Y-55030000D01*
X72037440Y-55030000D01*
X71993162Y-54794683D01*
X71854090Y-54578559D01*
X71641890Y-54433569D01*
X71390000Y-54382560D01*
X70062362Y-54382560D01*
X68880122Y-53200320D01*
X68880162Y-53154833D01*
X68745944Y-52830000D01*
X82550000Y-52830000D01*
X82840839Y-52772148D01*
X83087401Y-52607401D01*
X83182401Y-52512401D01*
X83326034Y-52297440D01*
X83645000Y-52297440D01*
X83880317Y-52253162D01*
X84096441Y-52114090D01*
X84241431Y-51901890D01*
X84292440Y-51650000D01*
X84292440Y-49950000D01*
X84248162Y-49714683D01*
X84109090Y-49498559D01*
X83896890Y-49353569D01*
X83645000Y-49302560D01*
X82127362Y-49302560D01*
X81370552Y-48545750D01*
X88785000Y-48545750D01*
X88785000Y-49136309D01*
X88881673Y-49369698D01*
X89060301Y-49548327D01*
X89293690Y-49645000D01*
X89884250Y-49645000D01*
X90043000Y-49486250D01*
X90043000Y-48387000D01*
X90297000Y-48387000D01*
X90297000Y-49486250D01*
X90455750Y-49645000D01*
X91046310Y-49645000D01*
X91279699Y-49548327D01*
X91458327Y-49369698D01*
X91555000Y-49136309D01*
X91555000Y-48545750D01*
X93865000Y-48545750D01*
X93865000Y-49136309D01*
X93961673Y-49369698D01*
X94140301Y-49548327D01*
X94373690Y-49645000D01*
X94964250Y-49645000D01*
X95123000Y-49486250D01*
X95123000Y-48387000D01*
X95377000Y-48387000D01*
X95377000Y-49486250D01*
X95535750Y-49645000D01*
X96126310Y-49645000D01*
X96359699Y-49548327D01*
X96538327Y-49369698D01*
X96635000Y-49136309D01*
X96635000Y-48545750D01*
X96476250Y-48387000D01*
X95377000Y-48387000D01*
X95123000Y-48387000D01*
X94023750Y-48387000D01*
X93865000Y-48545750D01*
X91555000Y-48545750D01*
X91396250Y-48387000D01*
X90297000Y-48387000D01*
X90043000Y-48387000D01*
X88943750Y-48387000D01*
X88785000Y-48545750D01*
X81370552Y-48545750D01*
X74197401Y-41372599D01*
X73950839Y-41207852D01*
X73660000Y-41150000D01*
X73587463Y-41150000D01*
X73555327Y-41117808D01*
X73211799Y-40975162D01*
X72839833Y-40974838D01*
X72496057Y-41116883D01*
X72232808Y-41379673D01*
X72090162Y-41723201D01*
X72089838Y-42095167D01*
X72231883Y-42438943D01*
X72494673Y-42702192D01*
X72838201Y-42844838D01*
X73210167Y-42845162D01*
X73429665Y-42754467D01*
X80997560Y-50322362D01*
X80997560Y-51310000D01*
X80292440Y-51310000D01*
X80292440Y-49950000D01*
X80248162Y-49714683D01*
X80109090Y-49498559D01*
X79896890Y-49353569D01*
X79645000Y-49302560D01*
X77645000Y-49302560D01*
X77409683Y-49346838D01*
X77193559Y-49485910D01*
X77048569Y-49698110D01*
X76997560Y-49950000D01*
X76997560Y-50040000D01*
X76037440Y-50040000D01*
X76037440Y-49950000D01*
X75993162Y-49714683D01*
X75854090Y-49498559D01*
X75641890Y-49353569D01*
X75390000Y-49302560D01*
X73390000Y-49302560D01*
X73154683Y-49346838D01*
X72938559Y-49485910D01*
X72793569Y-49698110D01*
X72742560Y-49950000D01*
X72742560Y-51310000D01*
X72037440Y-51310000D01*
X72037440Y-49950000D01*
X71993162Y-49714683D01*
X71854090Y-49498559D01*
X71641890Y-49353569D01*
X71390000Y-49302560D01*
X69390000Y-49302560D01*
X69154683Y-49346838D01*
X68938559Y-49485910D01*
X68793569Y-49698110D01*
X68742560Y-49950000D01*
X68742560Y-50040000D01*
X66840633Y-50040000D01*
X66974838Y-49716799D01*
X66975162Y-49344833D01*
X66833117Y-49001057D01*
X66570327Y-48737808D01*
X66226799Y-48595162D01*
X66179923Y-48595121D01*
X62767401Y-45182599D01*
X62520839Y-45017852D01*
X62230000Y-44960000D01*
X58982463Y-44960000D01*
X58950327Y-44927808D01*
X58650668Y-44803378D01*
X58719838Y-44636799D01*
X58720162Y-44264833D01*
X58610805Y-44000167D01*
X66374838Y-44000167D01*
X66516883Y-44343943D01*
X66550000Y-44377118D01*
X66550000Y-45085000D01*
X66607852Y-45375839D01*
X66772599Y-45622401D01*
X67185000Y-46034802D01*
X67185000Y-47062537D01*
X67152808Y-47094673D01*
X67010162Y-47438201D01*
X67009838Y-47810167D01*
X67151883Y-48153943D01*
X67414673Y-48417192D01*
X67758201Y-48559838D01*
X68130167Y-48560162D01*
X68473943Y-48418117D01*
X68737192Y-48155327D01*
X68879838Y-47811799D01*
X68880162Y-47439833D01*
X68738117Y-47096057D01*
X68705000Y-47062882D01*
X68705000Y-45720000D01*
X68647148Y-45429161D01*
X68482401Y-45182599D01*
X68070000Y-44770198D01*
X68070000Y-44377463D01*
X68102192Y-44345327D01*
X68244838Y-44001799D01*
X68245162Y-43629833D01*
X68103117Y-43286057D01*
X67840327Y-43022808D01*
X67496799Y-42880162D01*
X67124833Y-42879838D01*
X66781057Y-43021883D01*
X66517808Y-43284673D01*
X66375162Y-43628201D01*
X66374838Y-44000167D01*
X58610805Y-44000167D01*
X58578117Y-43921057D01*
X58315327Y-43657808D01*
X57971799Y-43515162D01*
X57599833Y-43514838D01*
X57256057Y-43656883D01*
X56992808Y-43919673D01*
X56850162Y-44263201D01*
X56850121Y-44310077D01*
X56612599Y-44547599D01*
X56447852Y-44794161D01*
X56390000Y-45085000D01*
X55331476Y-45085000D01*
X55376054Y-45018285D01*
X55489093Y-44450000D01*
X55376054Y-43881715D01*
X55054147Y-43399946D01*
X54724974Y-43180000D01*
X55054147Y-42960054D01*
X55376054Y-42478285D01*
X55452260Y-42095167D01*
X57484838Y-42095167D01*
X57626883Y-42438943D01*
X57889673Y-42702192D01*
X58233201Y-42844838D01*
X58605167Y-42845162D01*
X58948943Y-42703117D01*
X58982118Y-42670000D01*
X66112537Y-42670000D01*
X66144673Y-42702192D01*
X66488201Y-42844838D01*
X66860167Y-42845162D01*
X67203943Y-42703117D01*
X67467192Y-42440327D01*
X67609838Y-42096799D01*
X67610162Y-41724833D01*
X67468117Y-41381057D01*
X67205327Y-41117808D01*
X66861799Y-40975162D01*
X66489833Y-40974838D01*
X66146057Y-41116883D01*
X66112882Y-41150000D01*
X58982463Y-41150000D01*
X58950327Y-41117808D01*
X58606799Y-40975162D01*
X58234833Y-40974838D01*
X57891057Y-41116883D01*
X57627808Y-41379673D01*
X57485162Y-41723201D01*
X57484838Y-42095167D01*
X55452260Y-42095167D01*
X55489093Y-41910000D01*
X55376054Y-41341715D01*
X55054147Y-40859946D01*
X55010223Y-40830597D01*
X55184698Y-40758327D01*
X55363327Y-40579699D01*
X55460000Y-40346310D01*
X55460000Y-39655750D01*
X55301250Y-39497000D01*
X54102000Y-39497000D01*
X54102000Y-39517000D01*
X53848000Y-39517000D01*
X53848000Y-39497000D01*
X52648750Y-39497000D01*
X52490000Y-39655750D01*
X52490000Y-40346310D01*
X52586673Y-40579699D01*
X52765302Y-40758327D01*
X52939777Y-40830597D01*
X52895853Y-40859946D01*
X52573946Y-41341715D01*
X52460907Y-41910000D01*
X51510000Y-41910000D01*
X51510000Y-38393690D01*
X52490000Y-38393690D01*
X52490000Y-39084250D01*
X52648750Y-39243000D01*
X53848000Y-39243000D01*
X53848000Y-38043750D01*
X54102000Y-38043750D01*
X54102000Y-39243000D01*
X55301250Y-39243000D01*
X55460000Y-39084250D01*
X55460000Y-38393690D01*
X55363327Y-38160301D01*
X55184698Y-37981673D01*
X54951309Y-37885000D01*
X54260750Y-37885000D01*
X54102000Y-38043750D01*
X53848000Y-38043750D01*
X53689250Y-37885000D01*
X52998691Y-37885000D01*
X52765302Y-37981673D01*
X52586673Y-38160301D01*
X52490000Y-38393690D01*
X51510000Y-38393690D01*
X51510000Y-33440000D01*
X59217560Y-33440000D01*
X59217560Y-35140000D01*
X59261838Y-35375317D01*
X59400910Y-35591441D01*
X59613110Y-35736431D01*
X59865000Y-35787440D01*
X60105000Y-35787440D01*
X60105000Y-37872560D01*
X59865000Y-37872560D01*
X59629683Y-37916838D01*
X59413559Y-38055910D01*
X59268569Y-38268110D01*
X59217560Y-38520000D01*
X59217560Y-40220000D01*
X59261838Y-40455317D01*
X59400910Y-40671441D01*
X59613110Y-40816431D01*
X59865000Y-40867440D01*
X61865000Y-40867440D01*
X62100317Y-40823162D01*
X62316441Y-40684090D01*
X62461431Y-40471890D01*
X62512440Y-40220000D01*
X62512440Y-39655750D01*
X63230000Y-39655750D01*
X63230000Y-40346310D01*
X63326673Y-40579699D01*
X63505302Y-40758327D01*
X63738691Y-40855000D01*
X64579250Y-40855000D01*
X64738000Y-40696250D01*
X64738000Y-39497000D01*
X64992000Y-39497000D01*
X64992000Y-40696250D01*
X65150750Y-40855000D01*
X65991309Y-40855000D01*
X66224698Y-40758327D01*
X66403327Y-40579699D01*
X66500000Y-40346310D01*
X66500000Y-39655750D01*
X66341250Y-39497000D01*
X64992000Y-39497000D01*
X64738000Y-39497000D01*
X63388750Y-39497000D01*
X63230000Y-39655750D01*
X62512440Y-39655750D01*
X62512440Y-38520000D01*
X62488674Y-38393690D01*
X63230000Y-38393690D01*
X63230000Y-39084250D01*
X63388750Y-39243000D01*
X64738000Y-39243000D01*
X64738000Y-38043750D01*
X64992000Y-38043750D01*
X64992000Y-39243000D01*
X66341250Y-39243000D01*
X66500000Y-39084250D01*
X66500000Y-38393690D01*
X66403327Y-38160301D01*
X66224698Y-37981673D01*
X65991309Y-37885000D01*
X65150750Y-37885000D01*
X64992000Y-38043750D01*
X64738000Y-38043750D01*
X64579250Y-37885000D01*
X63738691Y-37885000D01*
X63505302Y-37981673D01*
X63326673Y-38160301D01*
X63230000Y-38393690D01*
X62488674Y-38393690D01*
X62468162Y-38284683D01*
X62329090Y-38068559D01*
X62116890Y-37923569D01*
X61865000Y-37872560D01*
X61625000Y-37872560D01*
X61625000Y-35787440D01*
X61865000Y-35787440D01*
X62100317Y-35743162D01*
X62316441Y-35604090D01*
X62461431Y-35391890D01*
X62512440Y-35140000D01*
X62512440Y-33440000D01*
X63217560Y-33440000D01*
X63217560Y-35140000D01*
X63261838Y-35375317D01*
X63400910Y-35591441D01*
X63613110Y-35736431D01*
X63865000Y-35787440D01*
X65865000Y-35787440D01*
X66100317Y-35743162D01*
X66316441Y-35604090D01*
X66461431Y-35391890D01*
X66512440Y-35140000D01*
X66512440Y-35050000D01*
X68580000Y-35050000D01*
X68870839Y-34992148D01*
X69117401Y-34827401D01*
X71259680Y-32685122D01*
X71305167Y-32685162D01*
X71648943Y-32543117D01*
X71912192Y-32280327D01*
X72054838Y-31936799D01*
X72055162Y-31564833D01*
X71913117Y-31221057D01*
X71650327Y-30957808D01*
X71306799Y-30815162D01*
X70934833Y-30814838D01*
X70591057Y-30956883D01*
X70327808Y-31219673D01*
X70185162Y-31563201D01*
X70185121Y-31610077D01*
X68265198Y-33530000D01*
X66512440Y-33530000D01*
X66512440Y-33440000D01*
X66468162Y-33204683D01*
X66329090Y-32988559D01*
X66116890Y-32843569D01*
X65865000Y-32792560D01*
X63865000Y-32792560D01*
X63629683Y-32836838D01*
X63413559Y-32975910D01*
X63268569Y-33188110D01*
X63217560Y-33440000D01*
X62512440Y-33440000D01*
X62468162Y-33204683D01*
X62329090Y-32988559D01*
X62116890Y-32843569D01*
X61865000Y-32792560D01*
X59865000Y-32792560D01*
X59629683Y-32836838D01*
X59413559Y-32975910D01*
X59268569Y-33188110D01*
X59217560Y-33440000D01*
X51510000Y-33440000D01*
X51510000Y-30385750D01*
X55575000Y-30385750D01*
X55575000Y-31976310D01*
X55671673Y-32209699D01*
X55850302Y-32388327D01*
X56083691Y-32485000D01*
X57674250Y-32485000D01*
X57833000Y-32326250D01*
X57833000Y-30227000D01*
X58087000Y-30227000D01*
X58087000Y-32326250D01*
X58245750Y-32485000D01*
X59836309Y-32485000D01*
X60069698Y-32388327D01*
X60248327Y-32209699D01*
X60345000Y-31976310D01*
X60345000Y-30385750D01*
X60186250Y-30227000D01*
X58087000Y-30227000D01*
X57833000Y-30227000D01*
X55733750Y-30227000D01*
X55575000Y-30385750D01*
X51510000Y-30385750D01*
X51510000Y-25685750D01*
X52575000Y-25685750D01*
X52575000Y-27276310D01*
X52671673Y-27509699D01*
X52850302Y-27688327D01*
X53083691Y-27785000D01*
X54674250Y-27785000D01*
X54833000Y-27626250D01*
X54833000Y-25527000D01*
X55087000Y-25527000D01*
X55087000Y-27626250D01*
X55245750Y-27785000D01*
X55914696Y-27785000D01*
X55850302Y-27811673D01*
X55671673Y-27990301D01*
X55575000Y-28223690D01*
X55575000Y-29814250D01*
X55733750Y-29973000D01*
X57833000Y-29973000D01*
X57833000Y-27873750D01*
X58087000Y-27873750D01*
X58087000Y-29973000D01*
X60186250Y-29973000D01*
X60345000Y-29814250D01*
X60345000Y-28223690D01*
X60248327Y-27990301D01*
X60069698Y-27811673D01*
X60035337Y-27797440D01*
X62710000Y-27797440D01*
X62945317Y-27753162D01*
X63161441Y-27614090D01*
X63306431Y-27401890D01*
X63357440Y-27150000D01*
X63357440Y-23650000D01*
X63313162Y-23414683D01*
X63174090Y-23198559D01*
X62961890Y-23053569D01*
X62710000Y-23002560D01*
X59210000Y-23002560D01*
X58974683Y-23046838D01*
X58758559Y-23185910D01*
X58613569Y-23398110D01*
X58562560Y-23650000D01*
X58562560Y-27150000D01*
X58606838Y-27385317D01*
X58745910Y-27601441D01*
X58912109Y-27715000D01*
X58245750Y-27715000D01*
X58087000Y-27873750D01*
X57833000Y-27873750D01*
X57674250Y-27715000D01*
X57005304Y-27715000D01*
X57069698Y-27688327D01*
X57248327Y-27509699D01*
X57345000Y-27276310D01*
X57345000Y-25685750D01*
X57186250Y-25527000D01*
X55087000Y-25527000D01*
X54833000Y-25527000D01*
X52733750Y-25527000D01*
X52575000Y-25685750D01*
X51510000Y-25685750D01*
X51510000Y-23523690D01*
X52575000Y-23523690D01*
X52575000Y-25114250D01*
X52733750Y-25273000D01*
X54833000Y-25273000D01*
X54833000Y-23173750D01*
X55087000Y-23173750D01*
X55087000Y-25273000D01*
X57186250Y-25273000D01*
X57345000Y-25114250D01*
X57345000Y-23523690D01*
X57248327Y-23290301D01*
X57069698Y-23111673D01*
X56836309Y-23015000D01*
X55245750Y-23015000D01*
X55087000Y-23173750D01*
X54833000Y-23173750D01*
X54674250Y-23015000D01*
X53083691Y-23015000D01*
X52850302Y-23111673D01*
X52671673Y-23290301D01*
X52575000Y-23523690D01*
X51510000Y-23523690D01*
X51510000Y-18250000D01*
X65227560Y-18250000D01*
X65227560Y-19850000D01*
X65271838Y-20085317D01*
X65410910Y-20301441D01*
X65623110Y-20446431D01*
X65875000Y-20497440D01*
X67475000Y-20497440D01*
X67710317Y-20453162D01*
X67926441Y-20314090D01*
X68071431Y-20101890D01*
X68122440Y-19850000D01*
X68122440Y-18250000D01*
X68078162Y-18014683D01*
X67939090Y-17798559D01*
X67726890Y-17653569D01*
X67488799Y-17605354D01*
X67503139Y-17557745D01*
X66675000Y-16729605D01*
X65846861Y-17557745D01*
X65861145Y-17605167D01*
X65639683Y-17646838D01*
X65423559Y-17785910D01*
X65278569Y-17998110D01*
X65227560Y-18250000D01*
X51510000Y-18250000D01*
X51510000Y-16853599D01*
X51604699Y-16853599D01*
X51868281Y-17491515D01*
X52355918Y-17980004D01*
X52993373Y-18244699D01*
X53683599Y-18245301D01*
X54321515Y-17981719D01*
X54810004Y-17494082D01*
X55074699Y-16856627D01*
X55075155Y-16333223D01*
X65228035Y-16333223D01*
X65255222Y-16903454D01*
X65421136Y-17304005D01*
X65667255Y-17378139D01*
X66495395Y-16550000D01*
X66854605Y-16550000D01*
X67682745Y-17378139D01*
X67928864Y-17304005D01*
X68081268Y-16880000D01*
X72112560Y-16880000D01*
X72112560Y-18680000D01*
X72156838Y-18915317D01*
X72295910Y-19131441D01*
X72508110Y-19276431D01*
X72524344Y-19279719D01*
X72241845Y-19702509D01*
X72125000Y-20289928D01*
X72125000Y-20350072D01*
X72241845Y-20937491D01*
X72574591Y-21435481D01*
X72805845Y-21590000D01*
X72574591Y-21744519D01*
X72241845Y-22242509D01*
X72125000Y-22829928D01*
X72125000Y-22890072D01*
X72241845Y-23477491D01*
X72574591Y-23975481D01*
X73072581Y-24308227D01*
X73660000Y-24425072D01*
X74247419Y-24308227D01*
X74745409Y-23975481D01*
X75078155Y-23477491D01*
X75195000Y-22890072D01*
X75195000Y-22829928D01*
X75078155Y-22242509D01*
X74802526Y-21830000D01*
X78114538Y-21830000D01*
X83580000Y-27295462D01*
X83580000Y-44450000D01*
X83694942Y-45027852D01*
X84022269Y-45517731D01*
X85832269Y-47327732D01*
X86322148Y-47655058D01*
X86900000Y-47770000D01*
X88785000Y-47770000D01*
X88785000Y-47974250D01*
X88943750Y-48133000D01*
X90043000Y-48133000D01*
X90043000Y-48113000D01*
X90297000Y-48113000D01*
X90297000Y-48133000D01*
X91396250Y-48133000D01*
X91555000Y-47974250D01*
X91555000Y-47770000D01*
X93865000Y-47770000D01*
X93865000Y-47974250D01*
X94023750Y-48133000D01*
X95123000Y-48133000D01*
X95123000Y-48113000D01*
X95377000Y-48113000D01*
X95377000Y-48133000D01*
X96476250Y-48133000D01*
X96635000Y-47974250D01*
X96635000Y-47383691D01*
X96538327Y-47150302D01*
X96477158Y-47089132D01*
X96645058Y-46837852D01*
X96760000Y-46260000D01*
X96645058Y-45682148D01*
X96317731Y-45192269D01*
X96293032Y-45175766D01*
X96423461Y-45045564D01*
X96634759Y-44536702D01*
X96635240Y-43985715D01*
X96424831Y-43476485D01*
X96035564Y-43086539D01*
X95526702Y-42875241D01*
X94975715Y-42874760D01*
X94466485Y-43085169D01*
X94076539Y-43474436D01*
X93865241Y-43983298D01*
X93864760Y-44534285D01*
X93953891Y-44750000D01*
X91466190Y-44750000D01*
X91554759Y-44536702D01*
X91555240Y-43985715D01*
X91344831Y-43476485D01*
X90955564Y-43086539D01*
X90446702Y-42875241D01*
X89895715Y-42874760D01*
X89386485Y-43085169D01*
X88996539Y-43474436D01*
X88785241Y-43983298D01*
X88784760Y-44534285D01*
X88873891Y-44750000D01*
X87525463Y-44750000D01*
X86600000Y-43824538D01*
X86600000Y-38480434D01*
X87644876Y-38480434D01*
X87675856Y-38608355D01*
X87989078Y-39166317D01*
X88491980Y-39561942D01*
X89108000Y-39735000D01*
X89408000Y-39735000D01*
X89408000Y-38227000D01*
X89662000Y-38227000D01*
X89662000Y-39735000D01*
X89962000Y-39735000D01*
X90578020Y-39561942D01*
X91080922Y-39166317D01*
X91394144Y-38608355D01*
X91425124Y-38480434D01*
X93359876Y-38480434D01*
X93390856Y-38608355D01*
X93704078Y-39166317D01*
X94206980Y-39561942D01*
X94823000Y-39735000D01*
X95123000Y-39735000D01*
X95123000Y-38227000D01*
X95377000Y-38227000D01*
X95377000Y-39735000D01*
X95677000Y-39735000D01*
X96293020Y-39561942D01*
X96795922Y-39166317D01*
X97109144Y-38608355D01*
X97140124Y-38480434D01*
X97020777Y-38227000D01*
X95377000Y-38227000D01*
X95123000Y-38227000D01*
X93479223Y-38227000D01*
X93359876Y-38480434D01*
X91425124Y-38480434D01*
X91305777Y-38227000D01*
X89662000Y-38227000D01*
X89408000Y-38227000D01*
X87764223Y-38227000D01*
X87644876Y-38480434D01*
X86600000Y-38480434D01*
X86600000Y-35560000D01*
X87562091Y-35560000D01*
X87686548Y-36185687D01*
X88040971Y-36716120D01*
X88231188Y-36843219D01*
X87989078Y-37033683D01*
X87675856Y-37591645D01*
X87644876Y-37719566D01*
X87764223Y-37973000D01*
X89408000Y-37973000D01*
X89408000Y-37953000D01*
X89662000Y-37953000D01*
X89662000Y-37973000D01*
X91305777Y-37973000D01*
X91425124Y-37719566D01*
X91394144Y-37591645D01*
X91080922Y-37033683D01*
X90838812Y-36843219D01*
X91029029Y-36716120D01*
X91383452Y-36185687D01*
X91507909Y-35560000D01*
X91383452Y-34934313D01*
X91143907Y-34575808D01*
X91286441Y-34484090D01*
X91431431Y-34271890D01*
X91482440Y-34020000D01*
X91482440Y-33780000D01*
X93302560Y-33780000D01*
X93302560Y-34020000D01*
X93346838Y-34255317D01*
X93485910Y-34471441D01*
X93640329Y-34576951D01*
X93401548Y-34934313D01*
X93277091Y-35560000D01*
X93401548Y-36185687D01*
X93755971Y-36716120D01*
X93946188Y-36843219D01*
X93704078Y-37033683D01*
X93390856Y-37591645D01*
X93359876Y-37719566D01*
X93479223Y-37973000D01*
X95123000Y-37973000D01*
X95123000Y-37953000D01*
X95377000Y-37953000D01*
X95377000Y-37973000D01*
X97020777Y-37973000D01*
X97140124Y-37719566D01*
X97109144Y-37591645D01*
X96795922Y-37033683D01*
X96553812Y-36843219D01*
X96744029Y-36716120D01*
X97098452Y-36185687D01*
X97222909Y-35560000D01*
X97098452Y-34934313D01*
X96858907Y-34575808D01*
X97001441Y-34484090D01*
X97146431Y-34271890D01*
X97197440Y-34020000D01*
X97197440Y-32020000D01*
X97153162Y-31784683D01*
X97014090Y-31568559D01*
X96801890Y-31423569D01*
X96550000Y-31372560D01*
X93950000Y-31372560D01*
X93714683Y-31416838D01*
X93498559Y-31555910D01*
X93353569Y-31768110D01*
X93302560Y-32020000D01*
X93302560Y-32260000D01*
X91482440Y-32260000D01*
X91482440Y-32020000D01*
X91438162Y-31784683D01*
X91299090Y-31568559D01*
X91086890Y-31423569D01*
X90835000Y-31372560D01*
X88235000Y-31372560D01*
X87999683Y-31416838D01*
X87783559Y-31555910D01*
X87638569Y-31768110D01*
X87587560Y-32020000D01*
X87587560Y-34020000D01*
X87631838Y-34255317D01*
X87770910Y-34471441D01*
X87925329Y-34576951D01*
X87686548Y-34934313D01*
X87562091Y-35560000D01*
X86600000Y-35560000D01*
X86600000Y-26670000D01*
X86485058Y-26092148D01*
X86157731Y-25602269D01*
X80828737Y-20273275D01*
X87935000Y-20273275D01*
X87935000Y-20366725D01*
X88116547Y-21279425D01*
X88633550Y-22053175D01*
X89407300Y-22570178D01*
X90320000Y-22751725D01*
X91232700Y-22570178D01*
X92006450Y-22053175D01*
X92523453Y-21279425D01*
X92705000Y-20366725D01*
X92705000Y-20273275D01*
X92523453Y-19360575D01*
X92006450Y-18586825D01*
X91232700Y-18069822D01*
X90320000Y-17888275D01*
X89407300Y-18069822D01*
X88633550Y-18586825D01*
X88116547Y-19360575D01*
X87935000Y-20273275D01*
X80828737Y-20273275D01*
X79807731Y-19252269D01*
X79317852Y-18924942D01*
X78740000Y-18810000D01*
X75181114Y-18810000D01*
X75207440Y-18680000D01*
X75207440Y-16880000D01*
X75202473Y-16853599D01*
X96054699Y-16853599D01*
X96318281Y-17491515D01*
X96805918Y-17980004D01*
X97443373Y-18244699D01*
X98133599Y-18245301D01*
X98771515Y-17981719D01*
X99260004Y-17494082D01*
X99524699Y-16856627D01*
X99525301Y-16166401D01*
X99261719Y-15528485D01*
X98774082Y-15039996D01*
X98136627Y-14775301D01*
X97446401Y-14774699D01*
X96808485Y-15038281D01*
X96319996Y-15525918D01*
X96055301Y-16163373D01*
X96054699Y-16853599D01*
X75202473Y-16853599D01*
X75163162Y-16644683D01*
X75024090Y-16428559D01*
X74811890Y-16283569D01*
X74560000Y-16232560D01*
X72760000Y-16232560D01*
X72524683Y-16276838D01*
X72308559Y-16415910D01*
X72163569Y-16628110D01*
X72112560Y-16880000D01*
X68081268Y-16880000D01*
X68121965Y-16766777D01*
X68094778Y-16196546D01*
X67928864Y-15795995D01*
X67682745Y-15721861D01*
X66854605Y-16550000D01*
X66495395Y-16550000D01*
X65667255Y-15721861D01*
X65421136Y-15795995D01*
X65228035Y-16333223D01*
X55075155Y-16333223D01*
X55075301Y-16166401D01*
X54817409Y-15542255D01*
X65846861Y-15542255D01*
X66675000Y-16370395D01*
X67503139Y-15542255D01*
X67429005Y-15296136D01*
X66891777Y-15103035D01*
X66321546Y-15130222D01*
X65920995Y-15296136D01*
X65846861Y-15542255D01*
X54817409Y-15542255D01*
X54811719Y-15528485D01*
X54324082Y-15039996D01*
X53686627Y-14775301D01*
X52996401Y-14774699D01*
X52358485Y-15038281D01*
X51869996Y-15525918D01*
X51605301Y-16163373D01*
X51604699Y-16853599D01*
X51510000Y-16853599D01*
X51510000Y-14680000D01*
X99620000Y-14680000D01*
X99620000Y-58980000D01*
M02*
